<svg width="180" height="180" viewBox="0 0 180 180" fill="none" xmlns="http://www.w3.org/2000/svg">
<rect width="180" height="180" rx="50" fill="#002B53"/>
<path d="M28.1659 108.589H16.1144V100.068H12V122.514H16.1144V112.32H28.1659V122.514H32.2652V100.068H28.1659V108.589Z" fill="white"/>
<path d="M53.5053 101.205C51.7601 100.232 49.7364 99.746 47.4334 99.746C45.1304 99.746 43.1192 100.232 41.3693 101.205C39.619 102.177 38.2527 103.528 37.27 105.257C36.2874 106.987 35.7963 108.998 35.7963 111.291C35.7963 113.583 36.2874 115.582 37.27 117.317C38.2527 119.051 39.619 120.405 41.3693 121.377C43.1196 122.35 45.1405 122.836 47.4334 122.836C49.7263 122.836 51.7601 122.35 53.5053 121.377C55.2502 120.405 56.6141 119.051 57.5968 117.317C58.5795 115.582 59.0706 113.574 59.0706 111.291C59.0706 109.008 58.5795 106.987 57.5968 105.257C56.6141 103.528 55.2502 102.177 53.5053 101.205ZM53.866 115.498C53.2619 116.655 52.4097 117.535 51.3099 118.139C50.2096 118.743 48.9173 119.045 47.4334 119.045C45.9495 119.045 44.6545 118.743 43.5492 118.139C42.4438 117.535 41.5889 116.655 40.9852 115.498C40.3811 114.342 40.0793 112.94 40.0793 111.291C40.0793 109.643 40.3811 108.241 40.9852 107.084C41.5889 105.928 42.4438 105.045 43.5492 104.436C44.6545 103.827 45.9491 103.523 47.4334 103.523C48.9177 103.523 50.2096 103.827 51.3099 104.436C52.4101 105.045 53.2619 105.928 53.866 107.084C54.4696 108.241 54.7719 109.643 54.7719 111.291C54.7719 112.939 54.4701 114.341 53.866 115.498Z" fill="white"/>
<path d="M73.5324 109.326L69.2953 108.559C68.1386 108.354 67.2997 108.037 66.7774 107.607C66.2555 107.177 65.9945 106.609 65.9945 105.903C65.9945 105.146 66.3345 104.529 67.0153 104.053C67.6957 103.577 68.7987 103.339 70.324 103.339C71.7669 103.339 72.9876 103.628 73.9854 104.206C74.9832 104.785 75.7945 105.509 76.4189 106.379L78.7526 103.17C78.3125 102.567 77.7419 102.006 77.0409 101.489C76.3398 100.973 75.4468 100.553 74.3621 100.231C73.277 99.9081 71.9309 99.7469 70.3244 99.7469C68.564 99.7469 67.0438 100.021 65.7648 100.568C64.4854 101.116 63.4977 101.868 62.8017 102.825C62.1057 103.782 61.7579 104.869 61.7579 106.087C61.7579 107.704 62.277 109.065 63.3162 110.171C64.3549 111.276 65.8976 112.024 67.9452 112.412L72.3972 113.241C73.4001 113.436 74.165 113.771 74.6924 114.247C75.2194 114.723 75.4831 115.36 75.4831 116.159C75.4831 117.121 75.0838 117.853 74.2854 118.354C73.4869 118.856 72.2948 119.086 70.7085 119.045C69.1833 119.014 67.7784 118.638 66.4944 117.917C65.2099 117.195 64.1018 116.164 63.1706 114.823L60.7909 118.339C61.1694 118.974 61.8117 119.639 62.7176 120.335C63.6236 121.031 64.7542 121.622 66.1103 122.108C67.4665 122.594 68.999 122.837 70.7085 122.837C72.858 122.837 74.6005 122.522 75.936 121.893C77.2715 121.264 78.2464 120.426 78.8606 119.383C79.4748 118.339 79.7817 117.193 79.7817 115.944C79.7817 114.132 79.2828 112.679 78.285 111.583C77.2871 110.488 75.7031 109.736 73.5333 109.327L73.5324 109.326Z" fill="white"/>
<path d="M96.3694 100.967C95.1051 100.368 93.4857 100.068 91.5103 100.068H82.744V122.514H86.8584V115.098H91.5103C94.4785 115.098 96.6506 114.433 98.0274 113.103C99.4038 111.772 100.092 109.93 100.092 107.576C100.092 106.009 99.7878 104.666 99.1791 103.546C98.57 102.425 97.6337 101.565 96.3694 100.967ZM94.8263 110.554C94.0894 111.24 92.9276 111.583 91.3412 111.583H86.8584V103.599H91.3412C92.9276 103.599 94.0894 103.94 94.8263 104.62C95.5632 105.301 95.9316 106.286 95.9316 107.576C95.9316 108.865 95.5632 109.868 94.8263 110.554V110.554Z" fill="white"/>
<path d="M107.293 100.068H103.178V122.514H107.293V100.068Z" fill="white"/>
<path d="M128.494 103.661V100.068H121.309H117.195H109.979V103.661H117.195V122.514H121.309V103.661H128.494Z" fill="white"/>
<path d="M136.17 100.068L127.081 122.514H131.58L133.392 117.801H144.176L145.981 122.514H150.494L141.421 100.068H136.171H136.17ZM134.749 114.27L138.734 103.907H138.856L142.824 114.27H134.749Z" fill="white"/>
<path d="M156.988 118.921V100.068H152.874V122.514H154.378H156.988H167.182V118.921H156.988Z" fill="white"/>
<path d="M30.0628 88.0142H29.5772L21.0107 63.1251H12.259V96.9739H18.3939V74.6088L18.9732 74.5165L26.7982 96.9739H32.3782L40.2036 74.5165L40.782 74.6088V96.9739H47.1264V63.1251H38.5829L30.0628 88.0142Z" fill="white"/>
<path d="M63.7494 63.1251L52.0576 96.9739H58.9335L61.4689 89.1719H74.4365L76.9926 96.9739H84.0307L72.3389 63.1251H63.7494ZM63.2973 83.5456L67.6387 70.1871H68.2171L72.5934 83.5456H63.2973Z" fill="white"/>
<path d="M111.349 86.8799C110.778 85.1204 110.169 83.7817 109.521 82.8629C108.872 81.9441 108 81.2458 106.905 80.7676V80.2811C108.926 79.6021 110.469 78.6144 111.535 77.3179C112.6 76.0215 113.132 74.324 113.132 72.2241C113.132 70.3878 112.746 68.7863 111.975 67.4205C111.203 66.0547 110.034 64.9972 108.468 64.2484C106.901 63.4995 104.921 63.1251 102.529 63.1251H88.9384V96.974H95.6291V82.8744H99.218C100.776 82.8744 101.934 83.168 102.69 83.7546C103.447 84.3413 104.064 85.3749 104.543 86.8565C105.098 88.5388 105.65 90.2216 106.198 91.9044C106.746 93.5868 107.298 95.2769 107.853 96.9744H114.729C114.158 95.2921 113.595 93.6102 113.04 91.9274C112.484 90.2446 111.92 88.5632 111.349 86.8804L111.349 86.8799ZM105.353 76.4386C104.535 77.1953 103.324 77.5729 101.719 77.5729H95.6291V68.428H101.719C103.324 68.428 104.535 68.8061 105.353 69.5623C106.171 70.3189 106.58 71.4762 106.58 73.0349C106.58 74.5937 106.171 75.682 105.353 76.4386Z" fill="white"/>
<path d="M127.278 63.1251H120.588V96.9739H127.278V63.1251Z" fill="white"/>
<path d="M157.145 96.9739H164.183L152.491 63.1251H143.902L132.21 96.9739H139.086L141.621 89.1719H154.589L157.145 96.9739ZM143.45 83.5456L147.791 70.1871H148.37L152.746 83.5456H143.45Z" fill="white"/>
<path d="M67.817 58C66.8141 58 65.9026 58.8205 65.9026 59.9148C65.9026 60.9177 66.7231 61.8296 67.817 61.8296C68.8203 61.8296 69.7318 61.0086 69.7318 59.9148C69.7318 58.9119 68.9113 58 67.817 58Z" fill="white"/>
<path d="M68.4556 62.012H67.1789C66.9966 62.012 66.9056 62.1029 66.9056 62.2853C66.9056 62.4677 66.9966 62.5587 67.1789 62.5587H68.4556C68.638 62.5587 68.729 62.4677 68.729 62.2853C68.729 62.1029 68.638 62.012 68.4556 62.012Z" fill="white"/>
<path d="M67.8169 62.741C67.5436 62.741 67.3612 62.8325 67.3612 63.1058L67.4526 75.5056C67.635 75.4146 67.7259 75.3232 67.9083 75.3232C67.9993 75.3232 67.9993 75.2322 68.0907 75.2322H68.1817L68.2731 63.1972C68.2731 62.8325 68.0907 62.8325 67.8169 62.8325V62.741Z" fill="white"/>
<path d="M67.5437 82.0704C67.7261 81.979 67.9994 81.979 68.1818 81.979V80.7028C67.9994 80.7028 67.7261 80.7937 67.5437 80.7937V82.1614V82.0704Z" fill="white"/>
<path d="M67.9994 89.5468C67.9085 89.6377 67.7261 89.6377 67.6351 89.7292V91.0054H67.7261C67.8171 90.9144 67.9994 90.9144 68.0909 90.823H68.1818V89.5468H67.9994Z" fill="white"/>
<path d="M67.5437 92.6468V93.923C67.5437 93.923 67.6351 93.923 67.6351 94.0145L67.7261 94.1054C67.9085 94.0145 67.9994 94.0145 68.0909 94.0145V92.4644H67.9085C67.8171 92.5554 67.7261 92.6468 67.5437 92.7378V92.6468Z" fill="white"/>
<path d="M67.8171 95.2907C67.7261 95.3821 67.6351 95.3821 67.5437 95.473V97.8436C67.5437 98.2083 68.0909 98.2083 68.0909 97.8436V95.3821H67.9085C67.9085 95.3821 67.8171 95.3821 67.8171 95.2907Z" fill="white"/>
<path d="M68.0909 86.5381C67.9994 86.5381 67.9994 86.4467 67.9085 86.4467C67.8175 86.4467 67.6351 86.5381 67.5437 86.5381V87.9967C67.6351 87.9967 67.7261 88.0877 67.7261 88.0877C67.8171 88.0877 67.9994 87.9967 68.0909 87.9967V86.5381Z" fill="white"/>
<path d="M67.5437 84.7143L67.6351 84.8057V84.8967C67.8171 84.8057 67.9085 84.8057 68.0909 84.7143H68.1818V83.6205C67.9994 83.7114 67.7261 83.7114 67.5437 83.8028V84.7143Z" fill="white"/>
<path d="M67.5436 77.8761V79.0613C67.726 78.9704 67.9084 78.9704 68.0907 78.8794H68.1817V77.6937H67.9084C67.726 77.7851 67.635 77.7851 67.4526 77.8761H67.5436Z" fill="white"/>
<path d="M65.1731 65.4763C64.4436 65.1116 65.0821 64.5649 65.3555 64.1087C65.6288 63.653 65.9026 62.8325 65.8112 62.2853C65.6288 61.5558 64.8083 61.0086 64.1702 60.9177C63.2583 60.7353 62.8026 61.1001 62.1645 61.5558C61.4349 62.012 60.8878 62.3763 60.0673 62.741C57.423 63.8353 53.4115 65.5678 50.4938 65.8411C51.1319 66.6616 52.2262 67.3911 53.2291 67.4821C53.1381 68.0292 54.141 68.5764 54.5058 68.6673C54.9615 68.8497 55.782 68.8497 56.2377 68.5764C56.8763 69.5793 58.3349 69.944 59.3378 69.1235C59.4292 69.5793 60.2497 69.8531 60.6144 69.944C61.3435 70.1264 61.7083 69.8531 62.3469 69.7616C62.7112 69.6707 62.8935 69.944 63.3497 70.035C63.8969 70.1264 64.2612 70.1264 64.7174 69.8531C64.8998 69.7616 64.8083 69.6707 65.0821 69.6707C65.1731 69.6707 65.4464 69.8531 65.5379 69.8531C65.9936 69.944 66.2674 69.5793 66.4498 69.3059C66.7231 69.0321 66.9055 68.394 67.1789 67.6645V65.6587C66.4498 65.7501 65.5379 65.6587 65.2645 65.5678L65.1731 65.4763Z" fill="white"/>
<path d="M70.6437 65.4763C71.3732 65.1116 70.7346 64.5649 70.4613 64.1087C70.1879 63.653 69.9141 62.8325 70.0056 62.2853C70.1879 61.5558 71.0084 61.0086 71.6465 60.9177C72.5585 60.7353 73.0142 61.1001 73.6523 61.5558C74.3818 62.012 74.929 62.3763 75.7495 62.741C78.3938 63.8353 82.4053 65.5678 85.323 65.8411C84.6849 66.6616 83.5906 67.3911 82.5877 67.4821C82.6787 68.0292 81.6758 68.5764 81.311 68.6673C80.8553 68.8497 80.0348 68.8497 79.5791 68.5764C78.9405 69.5793 77.4819 69.944 76.479 69.1235C76.3876 69.5793 75.5671 69.8531 75.2023 69.944C74.4733 70.1264 74.1085 69.8531 73.4699 69.7616C73.1056 69.6707 72.9232 69.944 72.467 70.035C71.9199 70.1264 71.5556 70.1264 71.0994 69.8531C70.917 69.7616 71.0084 69.6707 70.7346 69.6707C70.6437 69.6707 70.3703 69.8531 70.2789 69.8531C69.8232 69.944 69.5494 69.5793 69.367 69.3059C69.0936 69.0321 68.9113 68.394 68.6379 67.6645V65.6587C69.367 65.7501 70.2789 65.6587 70.5522 65.5678L70.6437 65.4763Z" fill="white"/>
<path d="M64.0789 71.0383C64.2612 71.0383 64.3527 71.1293 64.3527 71.3116C64.3527 71.494 64.2612 71.585 64.0789 71.585C63.8965 71.585 63.8055 71.494 63.8055 71.3116C63.8055 71.1293 63.8969 71.0383 64.0789 71.0383ZM63.2584 73.5912C62.7112 73.2264 63.4408 72.7703 63.7146 72.6793C64.4436 72.4059 65.2646 72.1321 65.9027 71.585C66.176 71.4026 66.5408 70.7645 66.0851 70.4912C65.8113 70.3088 64.9908 70.4912 64.7174 70.5821C64.2612 70.6735 63.8055 70.6735 63.4408 70.9469C63.2584 71.1293 62.0731 71.494 61.6174 72.5879C61.435 73.135 61.526 73.8646 61.8907 74.3203C62.7112 75.2322 63.4408 75.5055 64.3527 75.9617C64.626 76.0527 64.9908 76.2351 65.4465 76.4175C65.5379 76.3265 66.9056 75.8703 67.3613 75.5055C66.176 75.0498 65.3555 74.685 64.9908 74.5027C64.1703 74.1379 63.6231 73.8646 63.2584 73.5912Z" fill="white"/>
<path d="M68.2733 94.835C68.1818 94.9259 68.0909 95.0173 67.9995 95.1083C67.9995 95.1083 68.0909 95.1997 68.1818 95.2907C68.9114 96.1112 68.4556 96.6583 68.5466 96.6583C68.5466 96.6583 68.729 96.5674 68.8204 96.2936C68.9114 96.0202 68.8204 95.4731 68.5466 95.0173C68.5466 94.9259 68.4556 94.835 68.3642 94.7435L68.2733 94.835Z" fill="white"/>
<path d="M69.0937 88.9086C68.8204 89.091 68.5465 89.2734 68.1818 89.4553C68.638 89.6377 68.9113 89.9115 69.0937 89.9115C69.1847 89.9115 68.8204 90.4587 68.4556 90.732C68.0908 91.0053 67.7261 91.2792 67.3613 91.5525C66.9965 91.8263 66.6318 92.0996 66.4498 92.6468C66.176 93.1939 66.5408 93.7406 66.8141 94.0144C66.9965 94.1054 67.2703 94.4702 67.3613 94.5616C67.3613 94.4702 67.6351 94.3792 67.6351 94.1968C66.9056 93.5583 66.4498 92.8292 67.7261 92.0996C68.0908 91.8263 68.4556 91.6439 68.9113 91.2792C69.0937 91.0968 69.2761 90.9144 69.5494 90.732C69.7318 90.5496 70.0966 90.1849 69.8232 89.6377C69.6408 89.182 69.367 88.9996 69.0937 88.8172V88.9086Z" fill="white"/>
<path d="M70.0966 83.0733C70.0057 83.0733 68.9114 83.529 68.3642 83.8028C68.638 83.8938 68.8204 83.9852 69.0937 83.9852C69.2761 83.9852 69.3671 84.0762 69.4585 84.1676L69.3671 84.2586C69.1847 84.4409 69.0028 84.5319 68.729 84.6233C68.1818 84.8967 67.6351 85.1705 67.088 85.4438C66.5408 85.8086 65.9937 85.8086 65.3556 86.6291C64.9908 87.0848 65.2646 87.8143 65.538 87.9967C65.8113 88.2701 66.0851 88.4525 66.2675 88.6348C66.3585 88.7263 66.4499 88.7263 66.5408 88.8172C66.8142 88.5439 67.1789 88.4525 67.4528 88.2701C67.1789 88.1791 66.9966 87.9967 66.7232 87.8143C66.2675 87.541 65.9937 87.0848 66.0851 87.0848C66.1761 86.9024 66.9056 86.5381 67.3613 86.3557C67.9085 86.0819 68.4556 85.8995 69.0028 85.6262C69.2761 85.5348 69.6409 85.3529 69.9142 85.0791C70.188 84.8057 70.7347 84.3495 70.3704 83.529C70.188 83.2557 70.0057 83.0733 69.9142 82.9819L70.0966 83.0733Z" fill="white"/>
<path d="M71.0993 77.0556C70.826 76.8732 70.4612 76.7822 70.1879 76.6908C69.8231 76.9646 68.4555 77.5118 68.1817 77.6027C68.5464 77.6937 68.9112 77.8761 69.276 77.9675C69.7317 78.1499 70.0965 78.2408 70.4612 78.4232C70.5522 78.4232 70.6436 78.5146 70.7346 78.6056C70.5522 78.697 70.4612 78.697 70.2788 78.788C69.8231 78.8794 69.276 79.0613 68.7288 79.0613C67.7259 79.2437 66.3583 79.2437 65.173 79.8823C64.8083 80.0647 64.5349 80.2471 64.1702 80.7028C63.9878 80.9761 63.8968 81.3409 64.0787 81.7057C64.1701 81.979 64.3525 82.1614 64.5349 82.3438C64.8083 82.6176 65.173 82.8 65.4464 82.8909C65.8111 82.8 66.0849 82.6176 66.4497 82.5262C66.5407 82.5262 66.6316 82.4352 66.6316 82.4352C66.814 82.3438 66.9964 82.2528 67.1788 82.1614C66.9964 82.0704 66.9054 82.0704 66.7231 81.979C66.1759 81.7966 65.6288 81.5233 65.3554 81.2499C65.4464 81.1585 65.5378 81.0675 65.7202 80.9761C66.6316 80.5204 67.7259 80.5204 68.9112 80.338C69.4583 80.2471 70.0055 80.1556 70.6436 79.9732C70.9169 79.8823 71.1907 79.7909 71.4641 79.6999C71.9198 79.5175 72.2846 79.2437 72.467 78.697C72.7408 77.7851 71.2817 77.0556 71.0084 76.9646L71.0993 77.0556Z" fill="white"/>
<path d="M68.5465 91.8263C68.3641 92.0082 68.0908 92.1906 67.9994 92.2821C69.7318 93.2849 67.5437 94.1968 67.1789 95.1083C66.9055 95.5645 66.8141 96.0202 66.9055 96.385C66.9965 96.6583 67.1789 96.7498 67.1789 96.7498C67.2703 96.7498 66.8141 96.1112 67.5437 95.3821C67.817 95.0173 68.3641 94.6526 68.9113 94.1054C69.1846 93.8321 69.5494 93.2849 69.2761 92.7378C69.0937 92.373 68.8203 92.0997 68.5465 91.8263Z" fill="white"/>
<path d="M69.367 85.8086C69.367 85.8086 68.5465 86.2643 68.1817 86.4467C68.6379 86.6291 69.276 86.9939 69.367 87.1762C69.5494 87.1762 69.1846 87.632 68.7289 87.9058C68.2732 88.1791 67.817 88.4525 67.3612 88.7263C66.9055 88.9996 66.176 88.9996 65.9026 89.8201C65.7202 90.3673 66.085 90.6406 66.176 90.9144C66.3584 91.1877 66.5407 91.2792 66.8141 91.4616C66.9055 91.5525 66.9965 91.5525 67.0879 91.6439C67.3612 91.4616 67.5436 91.3701 67.817 91.1878C67.635 91.0968 67.5436 91.0054 67.3612 90.823C66.9965 90.6406 66.7231 90.0939 66.7231 90.0025C66.8141 89.9115 67.2703 89.6377 67.817 89.3644C68.2731 89.091 68.8203 88.9087 69.367 88.5439C69.6408 88.3615 69.9141 88.1791 70.0965 87.9058C70.3703 87.632 70.6437 86.9939 70.2789 86.5381C70.0056 86.0819 69.7318 85.8996 69.4584 85.7172L69.367 85.8086Z" fill="white"/>
<path d="M71.0085 80.1556C70.6437 80.338 69.0937 80.6114 68.7289 80.7028C69.0937 80.7937 69.5494 80.8852 69.8232 81.0675C70.0056 81.1585 70.0965 81.2499 70.188 81.3409C69.9142 81.6142 69.367 81.888 68.8203 82.0704C68.2732 82.2528 67.726 82.4352 67.0879 82.6176C66.8141 82.7085 66.4498 82.7999 66.176 82.8909C65.9026 82.9819 65.4465 82.9819 65.0822 83.6204C64.626 84.3495 65.2645 84.8967 65.5379 85.1705C65.8112 85.3529 66.085 85.5348 66.2674 85.6262C66.7231 85.4438 67.1789 85.2614 67.5436 85.079C67.5436 85.079 67.6351 85.079 67.6351 84.9881C67.3613 84.8967 67.0879 84.7143 66.9055 84.6233C66.6317 84.4409 66.4498 84.3495 66.2674 84.2586C66.176 84.2586 66.176 84.1676 66.176 84.1676C66.2674 84.1676 66.3584 84.0762 66.5408 83.9852C66.8141 83.8938 67.0879 83.8028 67.4527 83.7114C67.9994 83.529 68.6379 83.4381 69.276 83.1643C69.9142 82.9819 70.4613 82.7085 71.0994 82.2528C71.2818 82.0704 71.4642 81.888 71.5556 81.6142C71.6466 81.3409 71.6466 80.8852 71.4642 80.6114C71.2818 80.429 71.1908 80.247 71.0085 80.1556Z" fill="white"/>
<path d="M71.3732 71.0383C71.5556 71.0383 71.6465 71.1293 71.6465 71.3117C71.6465 71.4941 71.5556 71.585 71.3732 71.585C71.1908 71.585 71.0994 71.4941 71.0994 71.3117C71.0994 71.1293 71.1908 71.0383 71.3732 71.0383ZM72.1937 70.9469C71.8289 70.6736 71.2818 70.6736 70.917 70.5821C70.6437 70.5821 69.8232 70.3088 69.5494 70.4912C69.1846 70.7645 69.5494 71.4026 69.7317 71.585C70.3703 72.1322 71.1908 72.406 71.9199 72.6793C72.1937 72.7703 72.9232 73.135 72.3761 73.5912C72.0113 73.8646 71.4641 74.1379 70.6437 74.5027C70.1879 74.6851 69.367 75.0498 68.0908 75.597C67.4526 75.8703 66.7231 76.1441 65.9026 76.4175C65.5378 76.5084 64.9907 76.6908 64.535 76.9646C64.2612 77.0556 62.8026 77.7851 63.0759 78.697C63.2583 79.3351 63.6231 79.5175 64.0788 79.6999C64.2612 79.7909 64.4435 79.7909 64.6259 79.8823L64.7174 79.7909C65.2645 79.4261 65.8112 79.0613 66.3583 78.788C65.9936 78.697 65.6288 78.6056 65.2645 78.5147C65.0821 78.5147 64.9907 78.4232 64.8083 78.3323C64.8997 78.2408 64.9907 78.2408 65.0821 78.1499C65.4464 77.9675 65.8112 77.8761 66.2674 77.6937C67.0879 77.4204 67.8169 77.147 68.4555 76.8732C69.7317 76.3265 70.6437 75.9618 71.0994 75.7794C72.0113 75.3232 72.8318 75.0498 73.5613 74.1379C73.9261 73.6822 74.0171 72.9527 73.8347 72.406C73.3789 71.3117 72.2846 70.9469 72.0113 70.7645L72.1937 70.9469Z" fill="white"/>
<path d="M67.8105 62.6538C68.0618 62.6538 68.2658 62.8577 68.2658 63.109V63.223H67.3553V63.109C67.3553 62.8577 67.5592 62.6538 67.8105 62.6538Z" fill="white"/>
</svg>
