<svg width="96" height="96" viewBox="0 0 96 96" fill="none" xmlns="http://www.w3.org/2000/svg">
<rect width="96" height="96" rx="20" fill="#002B53"/>
<path d="M14.5376 57.8715H7.99055V53.2424H5.75537V65.4361H7.99055V59.898H14.5376V65.4361H16.7645V53.2424H14.5376V57.8715Z" fill="white"/>
<path d="M28.3034 53.8596C27.3552 53.3315 26.2559 53.0672 25.0047 53.0672C23.7536 53.0672 22.661 53.3313 21.7104 53.8596C20.7595 54.3879 20.0173 55.1219 19.4834 56.0613C18.9496 57.001 18.6828 58.0936 18.6828 59.339C18.6828 60.5844 18.9496 61.67 19.4834 62.6126C20.0173 63.555 20.7595 64.2905 21.7104 64.8186C22.6612 65.347 23.7591 65.611 25.0047 65.611C26.2504 65.611 27.3552 65.347 28.3034 64.8186C29.2512 64.2905 29.9922 63.555 30.5261 62.6126C31.0599 61.6702 31.3267 60.5791 31.3267 59.339C31.3267 58.0989 31.0599 57.001 30.5261 56.0613C29.9922 55.1217 29.2512 54.3877 28.3034 53.8596ZM28.4993 61.6246C28.1711 62.253 27.7081 62.7312 27.1106 63.0591C26.5129 63.3873 25.8109 63.5513 25.0047 63.5513C24.1986 63.5513 23.4951 63.3873 22.8946 63.0591C22.2941 62.7312 21.8297 62.253 21.5017 61.6246C21.1735 60.9964 21.0096 60.2347 21.0096 59.3392C21.0096 58.4438 21.1735 57.6823 21.5017 57.0539C21.8297 56.4257 22.2941 55.946 22.8946 55.6151C23.4951 55.2844 24.1984 55.119 25.0047 55.119C25.8111 55.119 26.5129 55.2844 27.1106 55.6151C27.7084 55.946 28.1711 56.4255 28.4993 57.0539C28.8272 57.6823 28.9914 58.444 28.9914 59.3392C28.9914 60.2345 28.8275 60.9961 28.4993 61.6246Z" fill="white"/>
<path d="M39.1832 58.2718L36.8814 57.8548C36.253 57.7437 35.7972 57.5713 35.5135 57.3377C35.23 57.1041 35.0882 56.7956 35.0882 56.412C35.0882 56.0007 35.2729 55.6655 35.6428 55.407C36.0124 55.1484 36.6116 55.0191 37.4402 55.0191C38.2241 55.0191 38.8872 55.1764 39.4293 55.4903C39.9714 55.8045 40.4121 56.1979 40.7513 56.6706L42.0191 54.9275C41.78 54.5996 41.47 54.2951 41.0892 54.0143C40.7083 53.7336 40.2232 53.5055 39.6339 53.3305C39.0444 53.1553 38.3132 53.0677 37.4404 53.0677C36.4841 53.0677 35.6582 53.2165 34.9634 53.514C34.2684 53.8114 33.7318 54.22 33.3537 54.7399C32.9756 55.2597 32.7866 55.8505 32.7866 56.5121C32.7866 57.3906 33.0687 58.1301 33.6332 58.7305C34.1975 59.331 35.0355 59.7371 36.1479 59.9482L38.5665 60.3987C39.1113 60.5042 39.5269 60.6864 39.8134 60.945C40.0996 61.2036 40.2429 61.5497 40.2429 61.9835C40.2429 62.5061 40.026 62.9039 39.5923 63.1762C39.1585 63.4487 38.5109 63.5738 37.6491 63.5515C36.8205 63.5348 36.0573 63.3304 35.3597 62.9386C34.6619 62.5465 34.06 61.9865 33.5541 61.258L32.2613 63.1679C32.4669 63.5129 32.8158 63.8742 33.308 64.2521C33.8002 64.6302 34.4144 64.9514 35.1511 65.2154C35.8878 65.4795 36.7204 65.6115 37.6491 65.6115C38.8168 65.6115 39.7635 65.4406 40.489 65.0986C41.2145 64.7567 41.7441 64.302 42.0778 63.735C42.4114 63.1679 42.5782 62.5453 42.5782 61.8667C42.5782 60.8826 42.3071 60.093 41.765 59.498C41.223 58.903 40.3624 58.4944 39.1837 58.2721L39.1832 58.2718Z" fill="white"/>
<path d="M51.5895 53.7303C50.9027 53.4051 50.023 53.2424 48.9498 53.2424H44.1874V65.4358H46.4226V61.4074H48.9498C50.5623 61.4074 51.7423 61.0461 52.4902 60.3233C53.238 59.6005 53.6121 58.5998 53.6121 57.3207C53.6121 56.4699 53.4466 55.7401 53.1159 55.1314C52.785 54.5225 52.2764 54.0555 51.5895 53.7303ZM50.7512 58.9389C50.3509 59.3115 49.7197 59.4977 48.858 59.4977H46.4226V55.1606H48.858C49.7197 55.1606 50.3509 55.3456 50.7512 55.7152C51.1515 56.0851 51.3517 56.6201 51.3517 57.3207C51.3517 58.0212 51.1515 58.5663 50.7512 58.9387V58.9389Z" fill="white"/>
<path d="M57.5236 53.2424H55.2885V65.4358H57.5236V53.2424Z" fill="white"/>
<path d="M69.0415 55.1941V53.2424H65.1381H62.903H58.9832V55.1941H62.903V65.4361H65.1381V55.1941H69.0415Z" fill="white"/>
<path d="M73.2116 53.2424L68.274 65.4358H70.7179L71.7024 62.8754H77.5609L78.5412 65.4358H80.9933L76.0642 53.2424H73.2119H73.2116ZM72.4397 60.9572L74.6042 55.3276H74.6709L76.8262 60.9572H72.4397Z" fill="white"/>
<path d="M84.5209 63.4844V53.2424H82.2858V65.4361H83.1029H84.5209H90.0587V63.4844H84.5209Z" fill="white"/>
<path d="M15.5681 46.6939H15.3043L10.6505 33.1727H5.89612V51.5613H9.22892V39.4113L9.54363 39.3612L13.7946 51.5613H16.8259L21.0772 39.3612L21.3914 39.4113V51.5613H24.838V33.1727H20.1967L15.5681 46.6939Z" fill="white"/>
<path d="M33.8685 33.1727L27.5169 51.5613H31.2523L32.6297 47.3228H39.6744L41.063 51.5613H44.8865L38.5348 33.1727H33.8685ZM33.623 44.2663L35.9814 37.0092H36.2956L38.6731 44.2663H33.623Z" fill="white"/>
<path d="M59.7275 46.0777C59.4171 45.1218 59.0861 44.3945 58.734 43.8954C58.3818 43.3963 57.9082 43.0169 57.3129 42.7571V42.4928C58.411 42.1239 59.2494 41.5873 59.8281 40.8831C60.4069 40.1788 60.6961 39.2566 60.6961 38.1158C60.6961 37.1182 60.4862 36.2482 60.0672 35.5062C59.6482 34.7643 59.0128 34.1897 58.162 33.7829C57.3107 33.3761 56.2353 33.1727 54.9357 33.1727H47.5526V51.5613H51.1874V43.9016H53.1371C53.9836 43.9016 54.6123 44.0611 55.0233 44.3798C55.4344 44.6985 55.7698 45.2601 56.0299 46.0649C56.3316 46.9789 56.6311 47.8931 56.9291 48.8073C57.2266 49.7212 57.5266 50.6394 57.8283 51.5615H61.5637C61.2532 50.6476 60.9475 49.7339 60.6457 48.8197C60.344 47.9055 60.0378 46.9921 59.7273 46.0779L59.7275 46.0777ZM56.4699 40.4054C56.0254 40.8164 55.3675 41.0216 54.4955 41.0216H51.1874V36.0536H54.4955C55.3675 36.0536 56.0254 36.259 56.4699 36.6698C56.9144 37.0808 57.1367 37.7095 57.1367 38.5563C57.1367 39.4031 56.9144 39.9943 56.4699 40.4054Z" fill="white"/>
<path d="M68.3811 33.1727H64.7463V51.5613H68.3811V33.1727Z" fill="white"/>
<path d="M84.6063 51.5613H88.4297L82.0781 33.1727H77.4118L71.0602 51.5613H74.7955L76.1729 47.3228H83.2176L84.6063 51.5613ZM77.1662 44.2663L79.5247 37.0092H79.8389L82.2164 44.2663H77.1662Z" fill="white"/>
<path d="M36.0782 30.3885C35.5334 30.3885 35.0383 30.8342 35.0383 31.4287C35.0383 31.9735 35.484 32.4689 36.0782 32.4689C36.6233 32.4689 37.1185 32.0229 37.1185 31.4287C37.1185 30.8839 36.6727 30.3885 36.0782 30.3885Z" fill="white"/>
<path d="M36.4252 32.568H35.7316C35.6325 32.568 35.5831 32.6174 35.5831 32.7165C35.5831 32.8156 35.6325 32.865 35.7316 32.865H36.4252C36.5243 32.865 36.5737 32.8156 36.5737 32.7165C36.5737 32.6174 36.5243 32.568 36.4252 32.568Z" fill="white"/>
<path d="M36.0782 32.9641C35.9297 32.9641 35.8306 33.0138 35.8306 33.1622L35.8803 39.8985C35.9794 39.8491 36.0288 39.7994 36.1279 39.7994C36.1773 39.7994 36.1773 39.75 36.2269 39.75H36.2764L36.326 33.2119C36.326 33.0138 36.2269 33.0138 36.0782 33.0138V32.9641Z" fill="white"/>
<path d="M35.9298 43.4649C36.0289 43.4152 36.1774 43.4152 36.2765 43.4152V42.7219C36.1774 42.7219 36.0289 42.7713 35.9298 42.7713V43.5143V43.4649Z" fill="white"/>
<path d="M36.1774 47.5264C36.128 47.5759 36.0289 47.5759 35.9795 47.6255V48.3188H36.0289C36.0783 48.2694 36.1774 48.2694 36.2271 48.2198H36.2765V47.5264H36.1774Z" fill="white"/>
<path d="M35.9298 49.2106V49.9039C35.9298 49.9039 35.9795 49.9039 35.9795 49.9535L36.0289 50.003C36.128 49.9535 36.1774 49.9535 36.2271 49.9535V49.1115H36.128C36.0783 49.1609 36.0289 49.2106 35.9298 49.26V49.2106Z" fill="white"/>
<path d="M36.0783 50.6468C36.0289 50.6965 35.9795 50.6965 35.9298 50.7459V52.0337C35.9298 52.2319 36.2271 52.2319 36.2271 52.0337V50.6965H36.128C36.128 50.6965 36.0783 50.6965 36.0783 50.6468Z" fill="white"/>
<path d="M36.2271 45.892C36.1774 45.892 36.1774 45.8423 36.128 45.8423C36.0786 45.8423 35.9795 45.892 35.9298 45.892V46.6844C35.9795 46.6844 36.0289 46.7338 36.0289 46.7338C36.0783 46.7338 36.1774 46.6844 36.2271 46.6844V45.892Z" fill="white"/>
<path d="M35.9298 44.9012L35.9795 44.9508V45.0003C36.0783 44.9508 36.128 44.9508 36.2271 44.9012H36.2765V44.3069C36.1774 44.3564 36.0289 44.3564 35.9298 44.406V44.9012Z" fill="white"/>
<path d="M35.9297 41.1863V41.8302C36.0288 41.7808 36.1279 41.7808 36.227 41.7313H36.2764V41.0872H36.1279C36.0288 41.1369 35.9794 41.1369 35.8803 41.1863H35.9297Z" fill="white"/>
<path d="M34.642 34.45C34.2457 34.2519 34.5926 33.9549 34.7411 33.7071C34.8896 33.4595 35.0383 33.0138 34.9886 32.7165C34.8896 32.3202 34.4438 32.0229 34.0972 31.9735C33.6018 31.8745 33.3542 32.0726 33.0075 32.3202C32.6112 32.568 32.314 32.7659 31.8682 32.9641C30.4317 33.5586 28.2524 34.4997 26.6674 34.6482C27.014 35.0939 27.6085 35.4903 28.1533 35.5397C28.1039 35.8369 28.6487 36.1342 28.8469 36.1836C29.0945 36.2827 29.5402 36.2827 29.7878 36.1342C30.1347 36.679 30.9271 36.8771 31.4719 36.4314C31.5216 36.679 31.9673 36.8277 32.1655 36.8771C32.5615 36.9762 32.7597 36.8277 33.1066 36.7781C33.3045 36.7287 33.4036 36.8771 33.6514 36.9266C33.9487 36.9762 34.1466 36.9762 34.3944 36.8277C34.4935 36.7781 34.4438 36.7287 34.5926 36.7287C34.642 36.7287 34.7905 36.8277 34.8401 36.8277C35.0877 36.8771 35.2365 36.679 35.3355 36.5305C35.484 36.3817 35.5831 36.0351 35.7316 35.6388V34.5491C35.3355 34.5988 34.8401 34.5491 34.6916 34.4997L34.642 34.45Z" fill="white"/>
<path d="M37.6139 34.45C38.0102 34.2519 37.6633 33.9549 37.5148 33.7071C37.3663 33.4595 37.2175 33.0138 37.2672 32.7165C37.3663 32.3202 37.812 32.0229 38.1587 31.9735C38.6541 31.8745 38.9017 32.0726 39.2483 32.3202C39.6446 32.568 39.9419 32.7659 40.3876 32.9641C41.8242 33.5586 44.0034 34.4997 45.5885 34.6482C45.2418 35.0939 44.6473 35.4903 44.1025 35.5397C44.1519 35.8369 43.6071 36.1342 43.409 36.1836C43.1614 36.2827 42.7156 36.2827 42.4681 36.1342C42.1212 36.679 41.3288 36.8771 40.7839 36.4314C40.7343 36.679 40.2885 36.8277 40.0904 36.8771C39.6943 36.9762 39.4961 36.8277 39.1492 36.7781C38.9513 36.7287 38.8523 36.8771 38.6044 36.9266C38.3072 36.9762 38.1093 36.9762 37.8614 36.8277C37.7624 36.7781 37.812 36.7287 37.6633 36.7287C37.6139 36.7287 37.4654 36.8277 37.4157 36.8277C37.1681 36.8771 37.0194 36.679 36.9203 36.5305C36.7718 36.3817 36.6727 36.0351 36.5242 35.6388V34.5491C36.9203 34.5988 37.4157 34.5491 37.5642 34.4997L37.6139 34.45Z" fill="white"/>
<path d="M34.0475 37.4716C34.1466 37.4716 34.1962 37.521 34.1962 37.6201C34.1962 37.7192 34.1466 37.7686 34.0475 37.7686C33.9484 37.7686 33.899 37.7192 33.899 37.6201C33.899 37.521 33.9487 37.4716 34.0475 37.4716ZM33.6018 38.8585C33.3045 38.6603 33.7008 38.4125 33.8496 38.3631C34.2457 38.2146 34.6916 38.0659 35.0383 37.7686C35.1868 37.6695 35.385 37.3229 35.1374 37.1744C34.9886 37.0753 34.5429 37.1744 34.3944 37.2238C34.1466 37.2735 33.899 37.2735 33.7008 37.422C33.6018 37.521 32.9579 37.7192 32.7103 38.3134C32.6112 38.6107 32.6606 39.007 32.8588 39.2546C33.3045 39.75 33.7008 39.8985 34.1962 40.1463C34.3447 40.1957 34.5429 40.2948 34.7905 40.3939C34.8401 40.3445 35.5831 40.0966 35.8307 39.8985C35.1868 39.6509 34.7411 39.4527 34.5429 39.3536C34.0972 39.1555 33.7999 39.007 33.6018 38.8585Z" fill="white"/>
<path d="M36.3261 50.3993C36.2764 50.4487 36.227 50.4984 36.1774 50.5478C36.1774 50.5478 36.227 50.5974 36.2764 50.6469C36.6728 51.0926 36.4252 51.3898 36.4746 51.3898C36.4746 51.3898 36.5737 51.3404 36.6234 51.1917C36.6728 51.0432 36.6234 50.7459 36.4746 50.4984C36.4746 50.4487 36.4252 50.3993 36.3755 50.3496L36.3261 50.3993Z" fill="white"/>
<path d="M36.7718 47.1798C36.6233 47.2789 36.4746 47.3779 36.2764 47.4768C36.5243 47.5758 36.6728 47.7246 36.7718 47.7246C36.8213 47.7246 36.6233 48.0218 36.4252 48.1703C36.227 48.3188 36.0289 48.4676 35.8307 48.6161C35.6325 48.7648 35.4344 48.9133 35.3355 49.2106C35.1868 49.5078 35.385 49.8048 35.5335 49.9535C35.6325 50.0029 35.7813 50.2011 35.8307 50.2508C35.8307 50.2011 35.9794 50.1517 35.9794 50.0526C35.5831 49.7057 35.3355 49.3096 36.0289 48.9133C36.227 48.7648 36.4252 48.6657 36.6728 48.4676C36.7718 48.3685 36.8709 48.2694 37.0194 48.1703C37.1185 48.0712 37.3167 47.8731 37.1682 47.5758C37.0691 47.3283 36.9203 47.2292 36.7718 47.1301V47.1798Z" fill="white"/>
<path d="M37.3167 44.0097C37.2673 44.0097 36.6728 44.2573 36.3756 44.406C36.5243 44.4554 36.6234 44.5051 36.7719 44.5051C36.871 44.5051 36.9204 44.5545 36.9701 44.6042L36.9204 44.6536C36.8213 44.7527 36.7225 44.8021 36.5737 44.8518C36.2765 45.0003 35.9795 45.149 35.6823 45.2975C35.385 45.4957 35.0878 45.4957 34.7411 45.9414C34.5429 46.189 34.6917 46.5853 34.8402 46.6844C34.9887 46.8329 35.1374 46.932 35.2365 47.031C35.2859 47.0807 35.3356 47.0807 35.385 47.1301C35.5335 46.9816 35.7317 46.932 35.8804 46.8329C35.7317 46.7835 35.6326 46.6844 35.4841 46.5853C35.2365 46.4368 35.0878 46.189 35.1374 46.189C35.1868 46.0899 35.5832 45.892 35.8307 45.7929C36.128 45.6442 36.4252 45.5451 36.7225 45.3966C36.871 45.3469 37.0691 45.2481 37.2176 45.0993C37.3664 44.9508 37.6634 44.703 37.4655 44.2573C37.3664 44.1088 37.2673 44.0097 37.2176 43.96L37.3167 44.0097Z" fill="white"/>
<path d="M37.8614 40.7405C37.7129 40.6415 37.5148 40.592 37.3663 40.5424C37.1681 40.6911 36.4251 40.9884 36.2764 41.0378C36.4745 41.0872 36.6727 41.1863 36.8709 41.2359C37.1184 41.335 37.3166 41.3844 37.5148 41.4835C37.5642 41.4835 37.6139 41.5332 37.6633 41.5826C37.5642 41.6323 37.5148 41.6323 37.4157 41.6817C37.1681 41.7313 36.8709 41.8302 36.5736 41.8302C36.0288 41.9293 35.2858 41.9293 34.6419 42.2762C34.4438 42.3752 34.2953 42.4743 34.0971 42.7219C33.998 42.8704 33.9486 43.0686 34.0474 43.2667C34.0971 43.4152 34.1962 43.5143 34.2953 43.6134C34.4438 43.7621 34.6419 43.8612 34.7904 43.9106C34.9886 43.8612 35.1373 43.7621 35.3355 43.7125C35.3849 43.7125 35.4343 43.663 35.4343 43.663C35.5334 43.6134 35.6325 43.564 35.7316 43.5143C35.6325 43.4649 35.5831 43.4649 35.484 43.4152C35.1868 43.3161 34.8895 43.1676 34.741 43.0191C34.7904 42.9695 34.8401 42.9201 34.9392 42.8704C35.4343 42.6228 36.0288 42.6228 36.6727 42.5237C36.97 42.4743 37.2672 42.4247 37.6139 42.3256C37.7623 42.2762 37.9111 42.2265 38.0596 42.1771C38.3072 42.078 38.5053 41.9293 38.6044 41.6323C38.7532 41.1369 37.9605 40.7405 37.812 40.6911L37.8614 40.7405Z" fill="white"/>
<path d="M36.4746 48.7648C36.3755 48.8637 36.227 48.9627 36.1774 49.0124C37.1185 49.5572 35.9298 50.0526 35.7316 50.5478C35.5831 50.7956 35.5335 51.0432 35.5831 51.2413C35.6326 51.3898 35.7316 51.4395 35.7316 51.4395C35.7813 51.4395 35.5335 51.0926 35.9298 50.6965C36.0783 50.4984 36.3755 50.3002 36.6728 50.003C36.8213 49.8545 37.0194 49.5572 36.8709 49.26C36.7719 49.0618 36.6234 48.9133 36.4746 48.7648Z" fill="white"/>
<path d="M36.9203 45.4957C36.9203 45.4957 36.4746 45.7432 36.2764 45.8423C36.5242 45.9414 36.8709 46.1396 36.9203 46.2386C37.0194 46.2386 36.8212 46.4862 36.5737 46.635C36.3261 46.7835 36.0783 46.932 35.8307 47.0807C35.5831 47.2292 35.1868 47.2292 35.0383 47.6749C34.9392 47.9722 35.1374 48.1207 35.1868 48.2694C35.2859 48.4179 35.3849 48.4676 35.5334 48.5667C35.5831 48.6161 35.6325 48.6161 35.6822 48.6657C35.8307 48.5667 35.9298 48.517 36.0783 48.4179C35.9794 48.3685 35.9298 48.3188 35.8307 48.2198C35.6325 48.1207 35.484 47.8237 35.484 47.774C35.5334 47.7246 35.7813 47.5759 36.0783 47.4274C36.3261 47.2789 36.6233 47.1798 36.9203 46.9816C37.0691 46.8825 37.2176 46.7835 37.3166 46.635C37.4654 46.4862 37.6139 46.1396 37.4157 45.892C37.2672 45.6442 37.1185 45.5451 36.97 45.446L36.9203 45.4957Z" fill="white"/>
<path d="M37.812 42.4247C37.6139 42.5237 36.7718 42.6722 36.5737 42.7219C36.7718 42.7713 37.0194 42.821 37.1681 42.9201C37.2672 42.9695 37.3166 43.0191 37.3663 43.0686C37.2176 43.2171 36.9203 43.3658 36.6233 43.4649C36.3261 43.564 36.0288 43.663 35.6822 43.7621C35.5334 43.8115 35.3355 43.8612 35.1868 43.9106C35.0383 43.96 34.7905 43.96 34.5925 44.3069C34.3447 44.703 34.6916 45.0003 34.8401 45.149C34.9886 45.2481 35.1374 45.3469 35.2364 45.3966C35.484 45.2975 35.7316 45.1984 35.9298 45.0993C35.9298 45.0993 35.9794 45.0993 35.9794 45.0499C35.8307 45.0003 35.6822 44.9012 35.5831 44.8518C35.4344 44.7527 35.3355 44.703 35.2364 44.6536C35.1868 44.6536 35.1868 44.6042 35.1868 44.6042C35.2364 44.6042 35.2859 44.5545 35.3849 44.5051C35.5334 44.4554 35.6822 44.406 35.8803 44.3564C36.1773 44.2573 36.5242 44.2079 36.8709 44.0591C37.2176 43.96 37.5148 43.8115 37.8615 43.564C37.9605 43.4649 38.0596 43.3658 38.1093 43.2171C38.1587 43.0686 38.1587 42.821 38.0596 42.6722C37.9605 42.5732 37.9111 42.4743 37.812 42.4247Z" fill="white"/>
<path d="M38.0102 37.4716C38.1093 37.4716 38.1587 37.521 38.1587 37.6201C38.1587 37.7192 38.1093 37.7686 38.0102 37.7686C37.9111 37.7686 37.8614 37.7192 37.8614 37.6201C37.8614 37.521 37.9111 37.4716 38.0102 37.4716ZM38.4559 37.422C38.2578 37.2735 37.9605 37.2735 37.7624 37.2238C37.6139 37.2238 37.1681 37.0753 37.0194 37.1744C36.8212 37.3229 37.0194 37.6695 37.1185 37.7686C37.4654 38.0659 37.9111 38.2146 38.3072 38.3631C38.4559 38.4125 38.8522 38.6107 38.555 38.8585C38.3568 39.007 38.0596 39.1555 37.6139 39.3537C37.3663 39.4527 36.9203 39.6509 36.227 39.9481C35.8803 40.0966 35.484 40.2454 35.0383 40.3939C34.8401 40.4433 34.5429 40.5424 34.2953 40.6911C34.1465 40.7405 33.3541 41.1369 33.5026 41.6323C33.6017 41.9789 33.7999 42.078 34.0475 42.1771C34.1465 42.2265 34.2456 42.2265 34.3447 42.2762L34.3944 42.2265C34.6916 42.0283 34.9886 41.8302 35.2858 41.6817C35.0877 41.6323 34.8895 41.5826 34.6916 41.5332C34.5925 41.5332 34.5429 41.4835 34.4438 41.4341C34.4934 41.3844 34.5429 41.3844 34.5925 41.335C34.7904 41.2359 34.9886 41.1863 35.2364 41.0872C35.6822 40.9387 36.0782 40.7902 36.4251 40.6415C37.1185 40.3445 37.6139 40.1463 37.8614 40.0472C38.3568 39.7994 38.8026 39.6509 39.1989 39.1555C39.3971 38.9079 39.4465 38.5116 39.3474 38.2146C39.0998 37.6201 38.5053 37.422 38.3568 37.3229L38.4559 37.422Z" fill="white"/>
<path d="M36.0748 32.9167C36.2113 32.9167 36.3221 33.0275 36.3221 33.164V33.2259H35.8275V33.164C35.8275 33.0275 35.9383 32.9167 36.0748 32.9167Z" fill="white"/>
</svg>
