<svg width="32" height="32" viewBox="0 0 32 32" fill="none" xmlns="http://www.w3.org/2000/svg">
<rect width="32" height="32" rx="5" fill="#002B53"/>
<path d="M4.99199 19.3631H2.76149V17.786H2V21.9402H2.76149V20.0535H4.99199V21.9402H5.75067V17.786H4.99199V19.3631Z" fill="white"/>
<path d="M9.68183 17.9963C9.35881 17.8164 8.98427 17.7263 8.55803 17.7263C8.1318 17.7263 7.75955 17.8163 7.43569 17.9963C7.11174 18.1763 6.85887 18.4263 6.677 18.7464C6.49513 19.0665 6.40424 19.4388 6.40424 19.863C6.40424 20.2873 6.49513 20.6572 6.677 20.9783C6.85887 21.2994 7.11174 21.55 7.43569 21.7299C7.75964 21.9099 8.13367 21.9998 8.55803 21.9998C8.9824 21.9998 9.35881 21.9099 9.68183 21.7299C10.0048 21.55 10.2572 21.2994 10.4391 20.9783C10.6209 20.6573 10.7118 20.2855 10.7118 19.863C10.7118 19.4405 10.6209 19.0665 10.4391 18.7464C10.2572 18.4263 10.0048 18.1762 9.68183 17.9963ZM9.74857 20.6417C9.63676 20.8558 9.47904 21.0187 9.27549 21.1304C9.07185 21.2422 8.83267 21.2981 8.55803 21.2981C8.2834 21.2981 8.04371 21.2422 7.83914 21.1304C7.63456 21.0187 7.47633 20.8558 7.36461 20.6417C7.2528 20.4277 7.19694 20.1682 7.19694 19.8631C7.19694 19.558 7.2528 19.2986 7.36461 19.0845C7.47633 18.8705 7.63456 18.7071 7.83914 18.5944C8.04371 18.4817 8.28331 18.4253 8.55803 18.4253C8.83275 18.4253 9.07185 18.4817 9.27549 18.5944C9.47912 18.7071 9.63676 18.8704 9.74857 19.0845C9.8603 19.2986 9.91624 19.5581 9.91624 19.8631C9.91624 20.1681 9.86038 20.4276 9.74857 20.6417Z" fill="white"/>
<path d="M13.3884 19.4995L12.6042 19.3574C12.3901 19.3196 12.2349 19.2608 12.1382 19.1812C12.0416 19.1016 11.9933 18.9965 11.9933 18.8659C11.9933 18.7257 12.0562 18.6115 12.1822 18.5235C12.3082 18.4354 12.5123 18.3913 12.7946 18.3913C13.0617 18.3913 13.2876 18.4449 13.4722 18.5519C13.6569 18.6589 13.8071 18.7929 13.9226 18.9539L14.3546 18.3601C14.2731 18.2484 14.1675 18.1447 14.0378 18.049C13.908 17.9534 13.7427 17.8756 13.542 17.816C13.3411 17.7563 13.092 17.7265 12.7947 17.7265C12.4689 17.7265 12.1875 17.7772 11.9508 17.8785C11.714 17.9799 11.5312 18.1191 11.4024 18.2962C11.2736 18.4733 11.2092 18.6745 11.2092 18.8999C11.2092 19.1992 11.3053 19.4512 11.4976 19.6557C11.6898 19.8603 11.9754 19.9987 12.3543 20.0706L13.1783 20.2241C13.3639 20.26 13.5055 20.3221 13.6031 20.4102C13.7006 20.4983 13.7494 20.6162 13.7494 20.764C13.7494 20.942 13.6755 21.0776 13.5278 21.1703C13.38 21.2632 13.1594 21.3058 12.8658 21.2982C12.5835 21.2925 12.3235 21.2229 12.0858 21.0894C11.8481 20.9558 11.643 20.765 11.4706 20.5168L11.0302 21.1675C11.1003 21.285 11.2191 21.4081 11.3868 21.5369C11.5545 21.6657 11.7637 21.7751 12.0147 21.8651C12.2657 21.955 12.5494 22 12.8658 22C13.2636 22 13.5861 21.9418 13.8333 21.8253C14.0804 21.7088 14.2609 21.5539 14.3745 21.3607C14.4882 21.1675 14.545 20.9554 14.545 20.7242C14.545 20.3889 14.4527 20.1199 14.268 19.9172C14.0833 19.7145 13.7902 19.5753 13.3886 19.4996L13.3884 19.4995Z" fill="white"/>
<path d="M17.6151 17.9522C17.3811 17.8415 17.0814 17.786 16.7158 17.786H15.0933V21.9401H15.8548V20.5677H16.7158C17.2651 20.5677 17.6671 20.4446 17.9219 20.1984C18.1767 19.9521 18.3041 19.6112 18.3041 19.1754C18.3041 18.8856 18.2478 18.637 18.1351 18.4296C18.0224 18.2221 17.8491 18.063 17.6151 17.9522ZM17.3295 19.7267C17.1931 19.8537 16.9781 19.9171 16.6845 19.9171H15.8548V18.4395H16.6845C16.9781 18.4395 17.1931 18.5025 17.3295 18.6285C17.4659 18.7545 17.5341 18.9368 17.5341 19.1754C17.5341 19.4141 17.4659 19.5998 17.3295 19.7267V19.7267Z" fill="white"/>
<path d="M19.6367 17.786H18.8752V21.9401H19.6367V17.786Z" fill="white"/>
<path d="M23.5607 18.4509V17.786H22.2309H21.4694H20.134V18.4509H21.4694V21.9402H22.2309V18.4509H23.5607Z" fill="white"/>
<path d="M24.9814 17.786L23.2993 21.9401H24.1318L24.4673 21.0679H26.4632L26.7971 21.9401H27.6325L25.9533 17.786H24.9815H24.9814ZM24.7184 20.4143L25.4559 18.4964H25.4786L26.2128 20.4143H24.7184Z" fill="white"/>
<path d="M28.8344 21.2753V17.786H28.0729V21.9402H28.3513H28.8344H30.721V21.2753H28.8344Z" fill="white"/>
<path d="M5.34308 15.555H5.25321L3.66772 10.9486H2.04797V17.2133H3.18341V13.074L3.29063 13.0569L4.73888 17.2133H5.77161L7.21995 13.0569L7.32699 13.074V17.2133H8.50121V10.9486H6.91997L5.34308 15.555Z" fill="white"/>
<path d="M11.5778 10.9486L9.41388 17.2133H10.6865L11.1557 15.7693H13.5558L14.0288 17.2133H15.3314L13.1675 10.9486H11.5778ZM11.4941 14.728L12.2976 12.2556H12.4047L13.2146 14.728H11.4941Z" fill="white"/>
<path d="M20.3876 15.3451C20.2818 15.0194 20.1691 14.7717 20.0491 14.6016C19.9291 14.4316 19.7677 14.3023 19.565 14.2138V14.1238C19.9391 13.9981 20.2247 13.8153 20.4218 13.5754C20.619 13.3354 20.7176 13.0212 20.7176 12.6326C20.7176 12.2927 20.6461 11.9963 20.5033 11.7435C20.3605 11.4908 20.1441 11.295 19.8542 11.1564C19.5642 11.0179 19.1978 10.9486 18.7551 10.9486H16.2397V17.2133H17.4781V14.6037H18.1423C18.4307 14.6037 18.6449 14.6581 18.7849 14.7667C18.925 14.8752 19.0392 15.0665 19.1278 15.3408C19.2306 15.6521 19.3327 15.9636 19.4342 16.275C19.5355 16.5864 19.6377 16.8992 19.7405 17.2134H21.0131C20.9073 16.902 20.8032 16.5907 20.7004 16.2793C20.5976 15.9678 20.4933 15.6566 20.3875 15.3452L20.3876 15.3451ZM19.2777 13.4126C19.1263 13.5527 18.9022 13.6225 18.6051 13.6225H17.4781V11.93H18.6051C18.9022 11.93 19.1263 12 19.2777 12.1399C19.4292 12.28 19.5049 12.4942 19.5049 12.7827C19.5049 13.0711 19.4292 13.2726 19.2777 13.4126Z" fill="white"/>
<path d="M23.3357 10.9486H22.0974V17.2133H23.3357V10.9486Z" fill="white"/>
<path d="M28.8634 17.2133H30.166L28.0021 10.9486H26.4124L24.2485 17.2133H25.5211L25.9903 15.7693H28.3904L28.8634 17.2133ZM26.3287 14.728L27.1322 12.2556H27.2393L28.0492 14.728H26.3287Z" fill="white"/>
<path d="M12.3306 10C12.145 10 11.9763 10.1519 11.9763 10.3544C11.9763 10.54 12.1281 10.7088 12.3306 10.7088C12.5163 10.7088 12.685 10.5568 12.685 10.3544C12.685 10.1688 12.5331 10 12.3306 10Z" fill="white"/>
<path d="M12.4488 10.7425H12.2125C12.1788 10.7425 12.1619 10.7594 12.1619 10.7931C12.1619 10.8269 12.1788 10.8437 12.2125 10.8437H12.4488C12.4826 10.8437 12.4994 10.8269 12.4994 10.7931C12.4994 10.7594 12.4826 10.7425 12.4488 10.7425Z" fill="white"/>
<path d="M12.3306 10.8775C12.28 10.8775 12.2462 10.8944 12.2462 10.945L12.2632 13.2399C12.2969 13.2231 12.3138 13.2062 12.3475 13.2062C12.3643 13.2062 12.3643 13.1893 12.3813 13.1893H12.3981L12.415 10.9619C12.415 10.8944 12.3813 10.8944 12.3306 10.8944V10.8775Z" fill="white"/>
<path d="M12.28 14.4549C12.3138 14.438 12.3644 14.438 12.3981 14.438V14.2018C12.3644 14.2018 12.3138 14.2187 12.28 14.2187V14.4718V14.4549Z" fill="white"/>
<path d="M12.3644 15.8387C12.3476 15.8555 12.3138 15.8555 12.297 15.8724V16.1086H12.3138C12.3306 16.0918 12.3644 16.0918 12.3813 16.0749H12.3981V15.8387H12.3644Z" fill="white"/>
<path d="M12.28 16.4124V16.6486C12.28 16.6486 12.2969 16.6486 12.2969 16.6655L12.3138 16.6824C12.3475 16.6655 12.3644 16.6655 12.3813 16.6655V16.3787H12.3475C12.3306 16.3955 12.3138 16.4124 12.28 16.4293V16.4124Z" fill="white"/>
<path d="M12.3306 16.9017C12.3138 16.9187 12.2969 16.9187 12.28 16.9355V17.3742C12.28 17.4417 12.3813 17.4417 12.3813 17.3742V16.9187H12.3475C12.3475 16.9187 12.3306 16.9187 12.3306 16.9017Z" fill="white"/>
<path d="M12.3813 15.2818C12.3644 15.2818 12.3644 15.2649 12.3475 15.2649C12.3307 15.2649 12.2969 15.2818 12.28 15.2818V15.5518C12.2969 15.5518 12.3138 15.5686 12.3138 15.5686C12.3306 15.5686 12.3644 15.5518 12.3813 15.5518V15.2818Z" fill="white"/>
<path d="M12.28 14.9443L12.2969 14.9612V14.978C12.3306 14.9612 12.3475 14.9612 12.3813 14.9443H12.3981V14.7418C12.3644 14.7587 12.3138 14.7587 12.28 14.7756V14.9443Z" fill="white"/>
<path d="M12.28 13.6787V13.898C12.3138 13.8812 12.3475 13.8812 12.3813 13.8644H12.3981V13.6449H12.3475C12.3138 13.6618 12.2969 13.6618 12.2632 13.6787H12.28Z" fill="white"/>
<path d="M11.8413 11.3837C11.7063 11.3162 11.8245 11.215 11.875 11.1306C11.9256 11.0462 11.9763 10.8944 11.9594 10.7931C11.9256 10.6581 11.7738 10.5568 11.6557 10.54C11.4869 10.5062 11.4026 10.5738 11.2845 10.6581C11.1494 10.7425 11.0482 10.81 10.8963 10.8775C10.4069 11.08 9.66445 11.4006 9.12445 11.4512C9.24255 11.6031 9.44508 11.7381 9.6307 11.7549C9.61386 11.8562 9.79947 11.9575 9.86698 11.9743C9.95133 12.0081 10.1032 12.0081 10.1875 11.9575C10.3057 12.1431 10.5757 12.2106 10.7613 12.0587C10.7782 12.1431 10.9301 12.1938 10.9976 12.2106C11.1325 12.2444 11.2 12.1938 11.3182 12.1768C11.3856 12.16 11.4194 12.2106 11.5038 12.2274C11.6051 12.2444 11.6725 12.2444 11.7569 12.1938C11.7907 12.1768 11.7738 12.16 11.8245 12.16C11.8413 12.16 11.8919 12.1938 11.9088 12.1938C11.9931 12.2106 12.0438 12.1431 12.0776 12.0925C12.1282 12.0418 12.1619 11.9237 12.2125 11.7887V11.4175C12.0776 11.4344 11.9088 11.4175 11.8582 11.4006L11.8413 11.3837Z" fill="white"/>
<path d="M12.8538 11.3837C12.9888 11.3162 12.8706 11.215 12.82 11.1306C12.7694 11.0462 12.7187 10.8944 12.7357 10.7931C12.7694 10.6581 12.9213 10.5568 13.0394 10.54C13.2082 10.5062 13.2925 10.5738 13.4106 10.6581C13.5456 10.7425 13.6469 10.81 13.7987 10.8775C14.2882 11.08 15.0306 11.4006 15.5706 11.4512C15.4525 11.6031 15.25 11.7381 15.0644 11.7549C15.0812 11.8562 14.8956 11.9575 14.8281 11.9743C14.7437 12.0081 14.5919 12.0081 14.5075 11.9575C14.3893 12.1431 14.1194 12.2106 13.9338 12.0587C13.9169 12.1431 13.765 12.1938 13.6975 12.2106C13.5625 12.2444 13.495 12.1938 13.3768 12.1768C13.3094 12.16 13.2757 12.2106 13.1912 12.2274C13.09 12.2444 13.0225 12.2444 12.9381 12.1938C12.9044 12.1768 12.9213 12.16 12.8706 12.16C12.8538 12.16 12.8032 12.1938 12.7863 12.1938C12.7019 12.2106 12.6512 12.1431 12.6175 12.0925C12.5669 12.0418 12.5331 11.9237 12.4825 11.7887V11.4175C12.6175 11.4344 12.7863 11.4175 12.8368 11.4006L12.8538 11.3837Z" fill="white"/>
<path d="M11.6387 12.4131C11.6725 12.4131 11.6894 12.43 11.6894 12.4637C11.6894 12.4975 11.6725 12.5143 11.6387 12.5143C11.605 12.5143 11.5882 12.4975 11.5882 12.4637C11.5882 12.43 11.6051 12.4131 11.6387 12.4131ZM11.4869 12.8856C11.3856 12.8181 11.5206 12.7337 11.5713 12.7168C11.7063 12.6662 11.8582 12.6156 11.9763 12.5143C12.0269 12.4806 12.0944 12.3625 12.0101 12.3119C11.9594 12.2781 11.8075 12.3119 11.7569 12.3287C11.6725 12.3456 11.5882 12.3456 11.5206 12.3962C11.4869 12.43 11.2675 12.4975 11.1832 12.6999C11.1494 12.8012 11.1663 12.9362 11.2338 13.0206C11.3856 13.1893 11.5206 13.2399 11.6894 13.3244C11.74 13.3412 11.8075 13.3749 11.8919 13.4087C11.9088 13.3919 12.1619 13.3074 12.2463 13.2399C12.0269 13.1556 11.875 13.0881 11.8075 13.0543C11.6557 12.9868 11.5544 12.9362 11.4869 12.8856Z" fill="white"/>
<path d="M12.4151 16.8174C12.3981 16.8342 12.3813 16.8512 12.3644 16.868C12.3644 16.868 12.3813 16.8849 12.3981 16.9017C12.5332 17.0536 12.4488 17.1549 12.4656 17.1549C12.4656 17.1549 12.4994 17.138 12.5163 17.0874C12.5332 17.0368 12.5163 16.9355 12.4656 16.8512C12.4656 16.8342 12.4488 16.8174 12.4319 16.8005L12.4151 16.8174Z" fill="white"/>
<path d="M12.5669 15.7206C12.5163 15.7543 12.4656 15.7881 12.3981 15.8217C12.4825 15.8555 12.5331 15.9062 12.5669 15.9062C12.5837 15.9062 12.5163 16.0074 12.4488 16.058C12.3813 16.1086 12.3138 16.1593 12.2463 16.2099C12.1787 16.2606 12.1112 16.3112 12.0776 16.4124C12.0269 16.5137 12.0944 16.6149 12.145 16.6655C12.1787 16.6824 12.2294 16.7499 12.2463 16.7668C12.2463 16.7499 12.2969 16.7331 12.2969 16.6993C12.1619 16.5811 12.0776 16.4462 12.3138 16.3112C12.3813 16.2606 12.4488 16.2268 12.5331 16.1593C12.5669 16.1255 12.6006 16.0918 12.6512 16.058C12.685 16.0243 12.7525 15.9568 12.7019 15.8555C12.6682 15.7712 12.6175 15.7374 12.5669 15.7036V15.7206Z" fill="white"/>
<path d="M12.7525 14.6406C12.7357 14.6406 12.5332 14.7249 12.4319 14.7756C12.4826 14.7924 12.5163 14.8093 12.5669 14.8093C12.6007 14.8093 12.6175 14.8262 12.6344 14.8431L12.6175 14.8599C12.5838 14.8937 12.5501 14.9105 12.4994 14.9274C12.3981 14.978 12.297 15.0287 12.1957 15.0793C12.0944 15.1468 11.9932 15.1468 11.8751 15.2987C11.8075 15.383 11.8582 15.518 11.9088 15.5518C11.9594 15.6024 12.0101 15.6361 12.0438 15.6699C12.0607 15.6868 12.0776 15.6868 12.0944 15.7036C12.145 15.653 12.2125 15.6361 12.2632 15.6024C12.2125 15.5855 12.1788 15.5518 12.1282 15.518C12.0438 15.4674 11.9932 15.383 12.0101 15.383C12.0269 15.3493 12.1619 15.2818 12.2463 15.2481C12.3475 15.1974 12.4488 15.1636 12.5501 15.113C12.6007 15.0961 12.6682 15.0625 12.7188 15.0118C12.7694 14.9612 12.8706 14.8768 12.8032 14.7249C12.7694 14.6743 12.7357 14.6406 12.7188 14.6236L12.7525 14.6406Z" fill="white"/>
<path d="M12.9381 13.5268C12.8875 13.493 12.82 13.4762 12.7694 13.4593C12.7019 13.51 12.4488 13.6112 12.3981 13.6281C12.4656 13.6449 12.5331 13.6787 12.6006 13.6956C12.685 13.7293 12.7525 13.7462 12.82 13.7799C12.8368 13.7799 12.8538 13.7968 12.8706 13.8137C12.8368 13.8306 12.82 13.8306 12.7863 13.8474C12.7019 13.8644 12.6006 13.898 12.4994 13.898C12.3138 13.9318 12.0606 13.9318 11.8413 14.05C11.7738 14.0837 11.7232 14.1175 11.6557 14.2018C11.6219 14.2524 11.6051 14.3199 11.6387 14.3874C11.6557 14.438 11.6894 14.4718 11.7232 14.5055C11.7738 14.5562 11.8413 14.59 11.8919 14.6068C11.9594 14.59 12.0101 14.5562 12.0776 14.5393C12.0944 14.5393 12.1112 14.5225 12.1112 14.5225C12.145 14.5055 12.1787 14.4887 12.2125 14.4718C12.1787 14.4549 12.1619 14.4549 12.1282 14.438C12.0269 14.4043 11.9256 14.3537 11.875 14.3031C11.8919 14.2862 11.9088 14.2693 11.9425 14.2524C12.1112 14.1681 12.3138 14.1681 12.5331 14.1343C12.6344 14.1175 12.7357 14.1006 12.8538 14.0668C12.9044 14.05 12.955 14.033 13.0056 14.0162C13.09 13.9825 13.1575 13.9318 13.1912 13.8306C13.2419 13.6618 12.9719 13.5268 12.9213 13.51L12.9381 13.5268Z" fill="white"/>
<path d="M12.4656 16.2606C12.4319 16.2942 12.3813 16.328 12.3644 16.3449C12.685 16.5305 12.28 16.6993 12.2125 16.868C12.1619 16.9524 12.145 17.0368 12.1619 17.1043C12.1788 17.1549 12.2125 17.1718 12.2125 17.1718C12.2294 17.1718 12.145 17.0536 12.28 16.9187C12.3306 16.8512 12.4319 16.7836 12.5332 16.6824C12.5837 16.6318 12.6513 16.5305 12.6007 16.4293C12.5669 16.3617 12.5163 16.3112 12.4656 16.2606Z" fill="white"/>
<path d="M12.6175 15.1468C12.6175 15.1468 12.4656 15.2312 12.3981 15.2649C12.4825 15.2987 12.6006 15.3662 12.6175 15.3999C12.6512 15.3999 12.5837 15.4843 12.4994 15.535C12.415 15.5855 12.3306 15.6361 12.2463 15.6868C12.1619 15.7374 12.0269 15.7374 11.9763 15.8893C11.9425 15.9905 12.0101 16.0411 12.0269 16.0918C12.0606 16.1424 12.0944 16.1593 12.145 16.1931C12.1619 16.2099 12.1787 16.2099 12.1957 16.2268C12.2463 16.1931 12.28 16.1761 12.3306 16.1424C12.2969 16.1255 12.28 16.1086 12.2463 16.0749C12.1787 16.0411 12.1282 15.9399 12.1282 15.923C12.145 15.9062 12.2294 15.8555 12.3306 15.8049C12.415 15.7543 12.5163 15.7206 12.6175 15.6531C12.6682 15.6193 12.7188 15.5855 12.7525 15.535C12.8032 15.4843 12.8538 15.3662 12.7863 15.2818C12.7357 15.1974 12.685 15.1636 12.6344 15.1299L12.6175 15.1468Z" fill="white"/>
<path d="M12.9213 14.1006C12.8538 14.1343 12.5669 14.1849 12.4994 14.2018C12.5669 14.2187 12.6512 14.2356 12.7019 14.2693C12.7357 14.2862 12.7525 14.3031 12.7694 14.3199C12.7188 14.3705 12.6175 14.4212 12.5163 14.4549C12.415 14.4887 12.3138 14.5225 12.1957 14.5562C12.145 14.573 12.0776 14.59 12.0269 14.6068C11.9763 14.6236 11.8919 14.6236 11.8244 14.7418C11.74 14.8768 11.8582 14.978 11.9088 15.0287C11.9594 15.0625 12.0101 15.0961 12.0438 15.113C12.1282 15.0793 12.2125 15.0455 12.28 15.0118C12.28 15.0118 12.2969 15.0118 12.2969 14.9949C12.2463 14.978 12.1957 14.9443 12.1619 14.9274C12.1112 14.8937 12.0776 14.8768 12.0438 14.8599C12.0269 14.8599 12.0269 14.8431 12.0269 14.8431C12.0438 14.8431 12.0606 14.8262 12.0944 14.8093C12.145 14.7924 12.1957 14.7756 12.2632 14.7587C12.3644 14.7249 12.4825 14.7081 12.6006 14.6574C12.7188 14.6236 12.82 14.573 12.9381 14.4887C12.9719 14.4549 13.0056 14.4212 13.0225 14.3705C13.0394 14.3199 13.0394 14.2356 13.0056 14.1849C12.9719 14.1511 12.955 14.1175 12.9213 14.1006Z" fill="white"/>
<path d="M12.9888 12.4131C13.0225 12.4131 13.0394 12.43 13.0394 12.4637C13.0394 12.4975 13.0225 12.5143 12.9888 12.5143C12.955 12.5143 12.9381 12.4975 12.9381 12.4637C12.9381 12.43 12.955 12.4131 12.9888 12.4131ZM13.1406 12.3962C13.0731 12.3456 12.9719 12.3456 12.9043 12.3287C12.8538 12.3287 12.7019 12.2781 12.6512 12.3119C12.5837 12.3625 12.6512 12.4806 12.685 12.5143C12.8032 12.6156 12.955 12.6663 13.09 12.7168C13.1406 12.7337 13.2757 12.8012 13.1744 12.8856C13.1069 12.9362 13.0056 12.9868 12.8538 13.0543C12.7694 13.0881 12.6175 13.1556 12.3813 13.2568C12.2632 13.3074 12.1281 13.3581 11.9763 13.4087C11.9088 13.4255 11.8075 13.4593 11.7232 13.51C11.6725 13.5268 11.4025 13.6618 11.4531 13.8306C11.4869 13.9487 11.5544 13.9825 11.6387 14.0162C11.6725 14.033 11.7062 14.033 11.74 14.05L11.7569 14.033C11.8582 13.9655 11.9594 13.898 12.0606 13.8474C11.9931 13.8306 11.9256 13.8137 11.8582 13.7968C11.8244 13.7968 11.8075 13.7799 11.7738 13.7631C11.7907 13.7462 11.8075 13.7462 11.8244 13.7293C11.8919 13.6956 11.9594 13.6787 12.0438 13.6449C12.1957 13.5943 12.3306 13.5437 12.4488 13.493C12.685 13.3919 12.8538 13.3244 12.9381 13.2906C13.1069 13.2062 13.2587 13.1556 13.3938 12.9868C13.4613 12.9025 13.4781 12.7674 13.4444 12.6663C13.36 12.4637 13.1575 12.3962 13.1069 12.3625L13.1406 12.3962Z" fill="white"/>
<path d="M12.3294 10.8613C12.3759 10.8613 12.4137 10.8991 12.4137 10.9456V10.9667H12.2451V10.9456C12.2451 10.8991 12.2829 10.8613 12.3294 10.8613Z" fill="white"/>
</svg>
