<svg width="417" height="417" viewBox="0 0 417 417" fill="none" xmlns="http://www.w3.org/2000/svg">
<rect width="417" height="417" rx="100" fill="#002B53"/>
<path d="M63.1478 251.379H34.7091V231.272H25V284.238H34.7091V260.182H63.1478V284.238H72.8211V231.272H63.1478V251.379Z" fill="white"/>
<path d="M122.943 233.953C118.824 231.659 114.049 230.511 108.615 230.511C103.18 230.511 98.4339 231.658 94.3046 233.953C90.1743 236.248 86.9502 239.436 84.6314 243.516C82.3125 247.598 81.1536 252.344 81.1536 257.754C81.1536 263.163 82.3125 267.879 84.6314 271.974C86.9502 276.067 90.1743 279.262 94.3046 281.556C98.435 283.851 103.204 284.998 108.615 284.998C114.025 284.998 118.824 283.851 122.943 281.556C127.06 279.262 130.279 276.067 132.598 271.974C134.917 267.88 136.075 263.141 136.075 257.754C136.075 252.367 134.917 247.598 132.598 243.516C130.279 239.435 127.06 236.247 122.943 233.953ZM123.794 267.682C122.368 270.411 120.357 272.489 117.762 273.913C115.166 275.339 112.116 276.051 108.615 276.051C105.113 276.051 102.057 275.339 99.4486 273.913C96.8403 272.489 94.8228 270.411 93.3984 267.682C91.9728 264.953 91.2605 261.644 91.2605 257.755C91.2605 253.865 91.9728 250.558 93.3984 247.828C94.8228 245.099 96.8403 243.016 99.4486 241.578C102.057 240.142 105.112 239.423 108.615 239.423C112.117 239.423 115.166 240.142 117.762 241.578C120.358 243.016 122.368 245.098 123.794 247.828C125.218 250.558 125.932 253.866 125.932 257.755C125.932 261.643 125.219 264.952 123.794 267.682Z" fill="white"/>
<path d="M170.202 253.118L160.204 251.307C157.474 250.824 155.494 250.075 154.262 249.06C153.03 248.046 152.414 246.706 152.414 245.04C152.414 243.253 153.217 241.797 154.823 240.674C156.429 239.551 159.032 238.989 162.631 238.989C166.036 238.989 168.916 239.672 171.271 241.036C173.626 242.401 175.54 244.109 177.013 246.163L182.521 238.591C181.482 237.167 180.136 235.844 178.481 234.625C176.827 233.405 174.719 232.414 172.16 231.654C169.599 230.893 166.423 230.513 162.632 230.513C158.478 230.513 154.89 231.159 151.872 232.451C148.853 233.743 146.522 235.518 144.88 237.776C143.238 240.034 142.417 242.6 142.417 245.474C142.417 249.29 143.642 252.502 146.094 255.111C148.545 257.719 152.186 259.483 157.017 260.4L167.523 262.357C169.89 262.815 171.695 263.607 172.939 264.73C174.183 265.853 174.805 267.357 174.805 269.241C174.805 271.511 173.863 273.239 171.979 274.422C170.095 275.605 167.282 276.148 163.538 276.052C159.939 275.979 156.624 275.092 153.594 273.389C150.563 271.686 147.948 269.254 145.751 266.089L140.135 274.386C141.028 275.884 142.544 277.454 144.682 279.095C146.819 280.737 149.487 282.133 152.688 283.28C155.888 284.427 159.504 285 163.538 285C168.611 285 172.723 284.257 175.874 282.772C179.025 281.287 181.326 279.312 182.775 276.849C184.225 274.386 184.949 271.681 184.949 268.733C184.949 264.459 183.772 261.029 181.417 258.444C179.062 255.86 175.324 254.085 170.204 253.119L170.202 253.118Z" fill="white"/>
<path d="M224.092 233.391C221.109 231.979 217.287 231.272 212.626 231.272H191.939V284.237H201.648V266.739H212.626C219.63 266.739 224.756 265.169 228.005 262.029C231.252 258.89 232.878 254.543 232.878 248.987C232.878 245.291 232.159 242.121 230.722 239.477C229.285 236.832 227.076 234.804 224.092 233.391ZM220.451 256.016C218.712 257.634 215.97 258.443 212.227 258.443H201.648V239.604H212.227C215.97 239.604 218.712 240.407 220.451 242.013C222.19 243.619 223.059 245.944 223.059 248.987C223.059 252.03 222.19 254.397 220.451 256.015V256.016Z" fill="white"/>
<path d="M249.868 231.272H240.159V284.237H249.868V231.272Z" fill="white"/>
<path d="M299.899 239.749V231.272H282.944H273.235H256.208V239.749H273.235V284.238H282.944V239.749H299.899Z" fill="white"/>
<path d="M318.013 231.272L296.565 284.237H307.181L311.457 273.115H336.905L341.163 284.237H351.815L330.404 231.272H318.014H318.013ZM314.66 264.783L324.062 240.329H324.351L333.714 264.783H314.66Z" fill="white"/>
<path d="M367.138 275.76V231.272H357.429V284.238H360.978H367.138H391.193V275.76H367.138Z" fill="white"/>
<path d="M67.6239 202.827H66.478L46.2631 144.094H25.6113V223.969H40.0882V171.193L41.4552 170.975L59.9204 223.969H73.0877L91.554 170.975L92.9188 171.193V223.969H107.89V144.094H87.7293L67.6239 202.827Z" fill="white"/>
<path d="M147.116 144.094L119.526 223.969H135.752L141.735 205.558H172.335L178.367 223.969H194.975L167.386 144.094H147.116ZM146.05 192.282L156.294 160.759H157.659L167.986 192.282H146.05Z" fill="white"/>
<path d="M259.442 200.15C258.093 195.998 256.655 192.839 255.126 190.671C253.596 188.502 251.539 186.855 248.953 185.726V184.578C253.723 182.976 257.364 180.645 259.878 177.586C262.392 174.526 263.649 170.521 263.649 165.565C263.649 161.232 262.737 157.453 260.917 154.23C259.097 151.007 256.337 148.512 252.641 146.745C248.943 144.978 244.272 144.094 238.627 144.094H206.557V223.969H222.345V190.698H230.814C234.491 190.698 237.222 191.39 239.008 192.775C240.793 194.159 242.25 196.598 243.38 200.095C244.69 204.065 245.991 208.036 247.286 212.007C248.578 215.976 249.881 219.965 251.192 223.97H267.417C266.069 220.001 264.741 216.032 263.43 212.061C262.119 208.09 260.789 204.122 259.44 200.151L259.442 200.15ZM245.291 175.511C243.36 177.296 240.503 178.187 236.715 178.187H222.345V156.608H236.715C240.503 156.608 243.36 157.5 245.291 159.284C247.222 161.07 248.188 163.801 248.188 167.479C248.188 171.157 247.222 173.725 245.291 175.511Z" fill="white"/>
<path d="M297.03 144.094H281.242V223.969H297.03V144.094Z" fill="white"/>
<path d="M367.508 223.969H384.116L356.527 144.094H336.257L308.667 223.969H324.893L330.876 205.558H361.476L367.508 223.969ZM335.191 192.282L345.435 160.759H346.8L357.127 192.282H335.191Z" fill="white"/>
<path d="M156.715 132C154.348 132 152.198 133.936 152.198 136.518C152.198 138.885 154.134 141.037 156.715 141.037C159.083 141.037 161.233 139.1 161.233 136.518C161.233 134.152 159.297 132 156.715 132Z" fill="white"/>
<path d="M158.222 141.467H155.209C154.779 141.467 154.564 141.682 154.564 142.112C154.564 142.543 154.779 142.757 155.209 142.757H158.222C158.652 142.757 158.867 142.543 158.867 142.112C158.867 141.682 158.652 141.467 158.222 141.467Z" fill="white"/>
<path d="M156.715 143.188C156.07 143.188 155.639 143.403 155.639 144.049L155.855 173.309C156.286 173.094 156.5 172.879 156.931 172.879C157.145 172.879 157.145 172.664 157.361 172.664H157.576L157.791 144.264C157.791 143.403 157.361 143.403 156.715 143.403V143.188Z" fill="white"/>
<path d="M156.07 188.801C156.501 188.585 157.146 188.585 157.576 188.585V185.573C157.146 185.573 156.501 185.788 156.07 185.788V189.015V188.801Z" fill="white"/>
<path d="M157.146 206.443C156.931 206.658 156.501 206.658 156.286 206.873V209.885H156.501C156.715 209.67 157.146 209.67 157.361 209.455H157.576V206.443H157.146Z" fill="white"/>
<path d="M156.07 213.758V216.77C156.07 216.77 156.286 216.77 156.286 216.986L156.501 217.2C156.931 216.986 157.146 216.986 157.361 216.986V213.328H156.931C156.715 213.543 156.501 213.758 156.07 213.973V213.758Z" fill="white"/>
<path d="M156.715 219.997C156.501 220.213 156.286 220.213 156.07 220.428V226.022C156.07 226.882 157.361 226.882 157.361 226.022V220.213H156.931C156.931 220.213 156.715 220.213 156.715 219.997Z" fill="white"/>
<path d="M157.361 199.343C157.146 199.343 157.146 199.128 156.931 199.128C156.716 199.128 156.286 199.343 156.07 199.343V202.785C156.286 202.785 156.501 203 156.501 203C156.715 203 157.146 202.785 157.361 202.785V199.343Z" fill="white"/>
<path d="M156.07 195.04L156.286 195.255V195.47C156.715 195.255 156.931 195.255 157.361 195.04H157.576V192.458C157.146 192.673 156.501 192.673 156.07 192.889V195.04Z" fill="white"/>
<path d="M156.07 178.903V181.7C156.5 181.485 156.931 181.485 157.361 181.271H157.576V178.473H156.931C156.5 178.688 156.286 178.688 155.855 178.903H156.07Z" fill="white"/>
<path d="M150.476 149.642C148.755 148.782 150.261 147.492 150.906 146.415C151.552 145.34 152.198 143.403 151.982 142.112C151.552 140.391 149.615 139.1 148.11 138.885C145.958 138.455 144.882 139.315 143.376 140.391C141.655 141.467 140.364 142.327 138.428 143.188C132.188 145.77 122.721 149.858 115.836 150.503C117.342 152.439 119.924 154.161 122.291 154.376C122.076 155.667 124.443 156.958 125.304 157.172C126.379 157.603 128.315 157.603 129.391 156.958C130.898 159.324 134.34 160.185 136.706 158.249C136.922 159.324 138.858 159.97 139.719 160.185C141.439 160.616 142.3 159.97 143.807 159.755C144.666 159.54 145.097 160.185 146.173 160.4C147.465 160.615 148.324 160.616 149.401 159.97C149.831 159.755 149.615 159.54 150.261 159.54C150.476 159.54 151.121 159.97 151.337 159.97C152.412 160.185 153.058 159.324 153.489 158.679C154.134 158.033 154.564 156.527 155.209 154.806V150.073C153.489 150.289 151.337 150.073 150.692 149.858L150.476 149.642Z" fill="white"/>
<path d="M163.385 149.642C165.107 148.782 163.6 147.492 162.955 146.415C162.31 145.34 161.664 143.403 161.88 142.112C162.31 140.391 164.246 139.1 165.752 138.885C167.904 138.455 168.979 139.315 170.485 140.391C172.207 141.467 173.498 142.327 175.434 143.188C181.674 145.77 191.14 149.858 198.025 150.503C196.519 152.439 193.937 154.161 191.57 154.376C191.785 155.667 189.419 156.958 188.558 157.172C187.482 157.603 185.546 157.603 184.471 156.958C182.964 159.324 179.522 160.185 177.155 158.249C176.94 159.324 175.004 159.97 174.143 160.185C172.422 160.616 171.562 159.97 170.055 159.755C169.195 159.54 168.765 160.185 167.688 160.4C166.397 160.615 165.537 160.616 164.461 159.97C164.03 159.755 164.246 159.54 163.6 159.54C163.385 159.54 162.74 159.97 162.525 159.97C161.449 160.185 160.803 159.324 160.373 158.679C159.728 158.033 159.297 156.527 158.652 154.806V150.073C160.373 150.289 162.525 150.073 163.17 149.858L163.385 149.642Z" fill="white"/>
<path d="M147.894 162.767C148.324 162.767 148.54 162.982 148.54 163.412C148.54 163.843 148.324 164.057 147.894 164.057C147.464 164.057 147.249 163.843 147.249 163.412C147.249 162.982 147.465 162.767 147.894 162.767ZM145.958 168.792C144.667 167.931 146.388 166.854 147.034 166.64C148.755 165.995 150.692 165.349 152.198 164.057C152.843 163.627 153.704 162.121 152.628 161.476C151.982 161.046 150.046 161.476 149.401 161.691C148.324 161.907 147.249 161.907 146.388 162.552C145.958 162.982 143.161 163.843 142.085 166.424C141.655 167.715 141.87 169.437 142.73 170.512C144.667 172.664 146.388 173.309 148.54 174.385C149.185 174.6 150.046 175.03 151.121 175.461C151.337 175.246 154.564 174.17 155.64 173.309C152.843 172.234 150.907 171.373 150.046 170.942C148.11 170.082 146.818 169.437 145.958 168.792Z" fill="white"/>
<path d="M157.792 218.922C157.576 219.137 157.361 219.352 157.146 219.567C157.146 219.567 157.361 219.783 157.576 219.997C159.297 221.933 158.222 223.225 158.437 223.225C158.437 223.225 158.867 223.01 159.083 222.364C159.297 221.719 159.083 220.428 158.437 219.352C158.437 219.137 158.222 218.922 158.006 218.706L157.792 218.922Z" fill="white"/>
<path d="M159.728 204.937C159.083 205.368 158.437 205.798 157.576 206.227C158.652 206.658 159.297 207.304 159.728 207.304C159.942 207.304 159.083 208.595 158.222 209.24C157.361 209.885 156.5 210.531 155.64 211.176C154.779 211.822 153.918 212.467 153.489 213.758C152.843 215.049 153.703 216.34 154.349 216.986C154.779 217.2 155.425 218.061 155.64 218.277C155.64 218.061 156.286 217.846 156.286 217.416C154.564 215.909 153.489 214.189 156.5 212.467C157.361 211.822 158.222 211.392 159.297 210.531C159.728 210.101 160.158 209.67 160.803 209.24C161.234 208.809 162.094 207.949 161.449 206.658C161.019 205.582 160.373 205.152 159.728 204.721V204.937Z" fill="white"/>
<path d="M162.094 191.167C161.88 191.167 159.297 192.243 158.006 192.889C158.652 193.103 159.083 193.319 159.728 193.319C160.158 193.319 160.373 193.534 160.589 193.749L160.373 193.964C159.943 194.394 159.513 194.609 158.867 194.825C157.576 195.47 156.286 196.116 154.995 196.761C153.704 197.622 152.412 197.622 150.907 199.558C150.046 200.633 150.692 202.355 151.337 202.785C151.982 203.43 152.628 203.861 153.059 204.291C153.273 204.507 153.489 204.507 153.704 204.721C154.349 204.076 155.209 203.861 155.856 203.43C155.209 203.216 154.779 202.785 154.134 202.355C153.059 201.71 152.412 200.633 152.628 200.633C152.843 200.203 154.564 199.343 155.64 198.913C156.931 198.267 158.222 197.836 159.513 197.191C160.158 196.976 161.019 196.546 161.664 195.9C162.31 195.255 163.6 194.179 162.741 192.243C162.31 191.598 161.88 191.167 161.664 190.951L162.094 191.167Z" fill="white"/>
<path d="M164.461 176.967C163.816 176.536 162.955 176.322 162.31 176.106C161.449 176.752 158.222 178.043 157.576 178.258C158.436 178.473 159.297 178.903 160.158 179.119C161.233 179.549 162.094 179.764 162.955 180.194C163.17 180.194 163.385 180.41 163.6 180.624C163.169 180.84 162.955 180.84 162.524 181.055C161.449 181.271 160.158 181.7 158.867 181.7C156.5 182.13 153.273 182.13 150.476 183.637C149.615 184.067 148.97 184.498 148.109 185.573C147.679 186.218 147.464 187.079 147.894 187.94C148.109 188.585 148.54 189.015 148.97 189.446C149.615 190.092 150.476 190.522 151.121 190.737C151.982 190.522 152.628 190.092 153.489 189.876C153.703 189.876 153.918 189.661 153.918 189.661C154.348 189.446 154.779 189.231 155.209 189.015C154.779 188.801 154.564 188.801 154.134 188.585C152.843 188.154 151.551 187.509 150.906 186.864C151.121 186.649 151.337 186.434 151.767 186.218C153.918 185.143 156.5 185.143 159.297 184.713C160.588 184.498 161.879 184.282 163.385 183.852C164.03 183.637 164.676 183.421 165.321 183.207C166.397 182.776 167.258 182.13 167.688 180.84C168.334 178.688 164.891 176.967 164.246 176.752L164.461 176.967Z" fill="white"/>
<path d="M158.437 211.822C158.006 212.252 157.361 212.682 157.145 212.898C161.234 215.264 156.07 217.416 155.209 219.567C154.564 220.643 154.349 221.719 154.564 222.58C154.779 223.225 155.209 223.44 155.209 223.44C155.425 223.44 154.349 221.933 156.07 220.213C156.715 219.352 158.006 218.492 159.297 217.2C159.942 216.555 160.803 215.264 160.158 213.973C159.728 213.112 159.083 212.467 158.437 211.822Z" fill="white"/>
<path d="M160.373 197.622C160.373 197.622 158.436 198.697 157.576 199.128C158.652 199.558 160.158 200.419 160.373 200.849C160.803 200.849 159.942 201.925 158.867 202.571C157.791 203.216 156.715 203.861 155.64 204.507C154.564 205.152 152.843 205.152 152.198 207.088C151.767 208.379 152.628 209.024 152.843 209.67C153.273 210.315 153.703 210.531 154.348 210.961C154.564 211.176 154.779 211.176 154.995 211.392C155.64 210.961 156.07 210.746 156.715 210.315C156.286 210.101 156.07 209.885 155.64 209.455C154.779 209.024 154.134 207.734 154.134 207.518C154.348 207.304 155.425 206.658 156.715 206.013C157.791 205.368 159.083 204.937 160.373 204.076C161.019 203.646 161.664 203.216 162.094 202.571C162.74 201.925 163.385 200.419 162.525 199.343C161.88 198.267 161.233 197.836 160.588 197.406L160.373 197.622Z" fill="white"/>
<path d="M164.246 184.282C163.385 184.712 159.728 185.357 158.867 185.573C159.728 185.788 160.803 186.004 161.449 186.434C161.88 186.649 162.094 186.864 162.31 187.079C161.664 187.724 160.373 188.37 159.083 188.801C157.792 189.231 156.5 189.661 154.995 190.092C154.348 190.306 153.489 190.522 152.843 190.737C152.198 190.951 151.121 190.951 150.261 192.458C149.185 194.179 150.692 195.47 151.337 196.116C151.982 196.546 152.628 196.976 153.058 197.191C154.134 196.761 155.209 196.331 156.07 195.9C156.07 195.9 156.286 195.9 156.286 195.686C155.64 195.47 154.995 195.039 154.564 194.825C153.918 194.394 153.489 194.179 153.058 193.964C152.843 193.964 152.843 193.749 152.843 193.749C153.058 193.749 153.273 193.534 153.703 193.319C154.348 193.103 154.995 192.889 155.855 192.673C157.145 192.243 158.652 192.028 160.158 191.382C161.664 190.951 162.955 190.306 164.461 189.231C164.891 188.801 165.322 188.37 165.537 187.724C165.752 187.079 165.752 186.004 165.322 185.357C164.891 184.927 164.677 184.498 164.246 184.282Z" fill="white"/>
<path d="M165.107 162.767C165.537 162.767 165.752 162.982 165.752 163.412C165.752 163.843 165.537 164.057 165.107 164.057C164.676 164.057 164.461 163.843 164.461 163.412C164.461 162.982 164.676 162.767 165.107 162.767ZM167.043 162.552C166.182 161.907 164.891 161.907 164.03 161.691C163.385 161.691 161.449 161.046 160.803 161.476C159.942 162.121 160.803 163.627 161.233 164.057C162.74 165.349 164.676 165.995 166.397 166.64C167.043 166.854 168.765 167.715 167.473 168.792C166.613 169.437 165.321 170.082 163.385 170.942C162.31 171.373 160.373 172.234 157.361 173.525C155.855 174.17 154.134 174.816 152.198 175.461C151.337 175.676 150.046 176.106 148.97 176.752C148.324 176.967 144.882 178.688 145.527 180.84C145.958 182.346 146.818 182.776 147.894 183.207C148.324 183.421 148.755 183.421 149.185 183.637L149.401 183.421C150.692 182.561 151.982 181.7 153.273 181.055C152.412 180.84 151.551 180.624 150.692 180.41C150.261 180.41 150.046 180.194 149.615 179.979C149.831 179.764 150.046 179.764 150.261 179.549C151.121 179.119 151.982 178.903 153.058 178.473C154.995 177.827 156.715 177.182 158.222 176.536C161.233 175.246 163.385 174.386 164.461 173.955C166.613 172.879 168.549 172.234 170.27 170.082C171.131 169.006 171.346 167.285 170.915 165.995C169.84 163.412 167.258 162.552 166.613 162.121L167.043 162.552Z" fill="white"/>
<path d="M156.7 142.982C157.293 142.982 157.774 143.463 157.774 144.056V144.325H155.625V144.056C155.625 143.463 156.107 142.982 156.7 142.982Z" fill="white"/>
</svg>
