<svg width="192" height="192" viewBox="0 0 192 192" fill="none" xmlns="http://www.w3.org/2000/svg">
<rect width="192" height="192" rx="30" fill="#002B53"/>
<path d="M29.5645 115.966H16.4704V106.708H12V131.095H16.4704V120.019H29.5645V131.095H34.0184V106.708H29.5645V115.966Z" fill="white"/>
<path d="M57.096 107.942C55.1997 106.886 53.001 106.357 50.4987 106.357C47.9965 106.357 45.8113 106.886 43.91 107.942C42.0083 108.999 40.5238 110.467 39.4561 112.346C38.3884 114.225 37.8549 116.41 37.8549 118.901C37.8549 121.392 38.3884 123.563 39.4561 125.448C40.5238 127.333 42.0083 128.804 43.91 129.86C45.8118 130.917 48.0075 131.445 50.4987 131.445C52.99 131.445 55.1997 130.917 57.096 129.86C58.9917 128.804 60.4737 127.333 61.5414 125.448C62.609 123.564 63.1426 121.381 63.1426 118.901C63.1426 116.421 62.609 114.225 61.5414 112.346C60.4737 110.466 58.9917 108.998 57.096 107.942ZM57.4878 123.472C56.8314 124.729 55.9055 125.685 54.7105 126.341C53.5151 126.998 52.111 127.326 50.4987 127.326C48.8865 127.326 47.4794 126.998 46.2785 126.341C45.0775 125.685 44.1486 124.729 43.4927 123.472C42.8363 122.216 42.5084 120.692 42.5084 118.901C42.5084 117.111 42.8363 115.588 43.4927 114.331C44.1486 113.074 45.0775 112.115 46.2785 111.453C47.4794 110.792 48.886 110.461 50.4987 110.461C52.1115 110.461 53.5151 110.792 54.7105 111.453C55.906 112.115 56.8314 113.074 57.4878 114.331C58.1437 115.588 58.4721 117.111 58.4721 118.901C58.4721 120.692 58.1442 122.215 57.4878 123.472Z" fill="white"/>
<path d="M78.8557 116.767L74.252 115.933C72.9952 115.71 72.0838 115.366 71.5162 114.898C70.9492 114.431 70.6657 113.814 70.6657 113.047C70.6657 112.224 71.035 111.554 71.7748 111.037C72.514 110.52 73.7125 110.261 75.3696 110.261C76.9375 110.261 78.2637 110.576 79.3478 111.204C80.432 111.832 81.3135 112.619 81.9918 113.564L84.5275 110.078C84.0493 109.422 83.4293 108.813 82.6677 108.252C81.906 107.69 80.9356 107.234 79.7571 106.884C78.5781 106.534 77.1156 106.358 75.3701 106.358C73.4574 106.358 71.8057 106.656 70.4161 107.251C69.026 107.846 67.9528 108.663 67.1966 109.703C66.4404 110.742 66.0625 111.924 66.0625 113.247C66.0625 115.004 66.6266 116.483 67.7556 117.684C68.8842 118.885 70.5604 119.697 72.785 120.119L77.6223 121.02C78.7119 121.232 79.543 121.596 80.116 122.113C80.6885 122.63 80.975 123.322 80.975 124.19C80.975 125.235 80.5413 126.031 79.6738 126.575C78.8063 127.12 77.511 127.371 75.7874 127.326C74.1302 127.293 72.6039 126.884 71.2087 126.1C69.8131 125.316 68.6092 124.196 67.5974 122.739L65.0118 126.559C65.4231 127.249 66.1209 127.971 67.1053 128.727C68.0896 129.483 69.318 130.126 70.7915 130.654C72.2649 131.182 73.9301 131.446 75.7874 131.446C78.1229 131.446 80.0162 131.104 81.4672 130.42C82.9182 129.736 83.9774 128.827 84.6448 127.693C85.3121 126.559 85.6456 125.314 85.6456 123.956C85.6456 121.988 85.1035 120.409 84.0193 119.219C82.9352 118.029 81.2141 117.212 78.8567 116.767L78.8557 116.767Z" fill="white"/>
<path d="M103.668 107.684C102.295 107.033 100.535 106.708 98.3888 106.708H88.8641V131.095H93.3345V123.038H98.3888C101.614 123.038 103.974 122.315 105.47 120.87C106.965 119.424 107.713 117.423 107.713 114.864C107.713 113.163 107.382 111.703 106.721 110.486C106.059 109.268 105.042 108.334 103.668 107.684ZM101.992 118.101C101.191 118.846 99.9287 119.218 98.2052 119.218H93.3345V110.544H98.2052C99.9287 110.544 101.191 110.914 101.992 111.653C102.792 112.393 103.193 113.463 103.193 114.864C103.193 116.266 102.792 117.356 101.992 118.1V118.101Z" fill="white"/>
<path d="M115.537 106.708H111.066V131.095H115.537V106.708Z" fill="white"/>
<path d="M138.572 110.611V106.708H130.766H126.295H118.456V110.611H126.295V131.095H130.766V110.611H138.572Z" fill="white"/>
<path d="M146.912 106.708L137.037 131.095H141.925L143.894 125.974H155.611L157.572 131.095H162.476L152.618 106.708H146.913H146.912ZM145.368 122.137L149.698 110.878H149.831L154.141 122.137H145.368Z" fill="white"/>
<path d="M169.531 127.192V106.708H165.061V131.095H166.695H169.531H180.607V127.192H169.531Z" fill="white"/>
<path d="M31.6254 93.6108H31.0978L21.7902 66.5685H12.2815V103.346H18.9471V79.0457L19.5765 78.9453L28.0785 103.346H34.1411L42.6436 78.9453L43.272 79.0457V103.346H50.1652V66.5685H40.8826L31.6254 93.6108Z" fill="white"/>
<path d="M68.2264 66.5685L55.5231 103.346H62.9938L65.7486 94.8686H79.838L82.6152 103.346H90.2622L77.5589 66.5685H68.2264ZM67.7352 88.7556L72.4521 74.2414H73.0806L77.8354 88.7556H67.7352Z" fill="white"/>
<path d="M119.944 92.3784C119.323 90.4666 118.662 89.0121 117.957 88.0138C117.253 87.0155 116.306 86.2568 115.115 85.7372V85.2086C117.311 84.4709 118.988 83.3977 120.146 81.9891C121.303 80.5805 121.882 78.7362 121.882 76.4546C121.882 74.4595 121.462 72.7195 120.624 71.2355C119.786 69.7515 118.515 68.6025 116.813 67.7889C115.111 66.9753 112.96 66.5685 110.361 66.5685H95.5945V103.346H102.864V88.0263H106.763C108.456 88.0263 109.714 88.3453 110.536 88.9827C111.358 89.6201 112.029 90.7432 112.549 92.3529C113.152 94.1808 113.751 96.0092 114.347 97.8375C114.942 99.6654 115.542 101.502 116.146 103.346H123.617C122.996 101.518 122.384 99.6909 121.781 97.8625C121.177 96.0341 120.565 94.2072 119.944 92.3789L119.944 92.3784ZM113.429 81.0338C112.54 81.8559 111.224 82.2662 109.48 82.2662H102.864V72.3301H109.48C111.224 72.3301 112.54 72.7409 113.429 73.5625C114.318 74.3846 114.763 75.642 114.763 77.3356C114.763 79.0292 114.318 80.2117 113.429 81.0338Z" fill="white"/>
<path d="M137.251 66.5685H129.982V103.346H137.251V66.5685Z" fill="white"/>
<path d="M169.702 103.346H177.349L164.645 66.5685H155.313L142.609 103.346H150.08L152.835 94.8686H166.924L169.702 103.346ZM154.822 88.7556L159.539 74.2414H160.167L164.922 88.7556H154.822Z" fill="white"/>
<path d="M72.6459 61C71.5562 61 70.5659 61.8915 70.5659 63.0804C70.5659 64.1701 71.4574 65.1609 72.6459 65.1609C73.736 65.1609 74.7263 64.2689 74.7263 63.0804C74.7263 61.9908 73.8348 61 72.6459 61Z" fill="white"/>
<path d="M73.3398 65.359H71.9526C71.7545 65.359 71.6556 65.4579 71.6556 65.656C71.6556 65.8542 71.7545 65.953 71.9526 65.953H73.3398C73.5379 65.953 73.6368 65.8542 73.6368 65.656C73.6368 65.4579 73.5379 65.359 73.3398 65.359Z" fill="white"/>
<path d="M72.6458 66.1512C72.3488 66.1512 72.1506 66.2505 72.1506 66.5475L72.25 80.02C72.4481 79.9212 72.547 79.8218 72.7451 79.8218C72.844 79.8218 72.8439 79.723 72.9433 79.723H73.0421L73.1414 66.6469C73.1414 66.2505 72.9433 66.2505 72.6458 66.2505V66.1512Z" fill="white"/>
<path d="M72.349 87.1528C72.5472 87.0535 72.8442 87.0535 73.0423 87.0535V85.6668C72.8442 85.6668 72.5472 85.7657 72.349 85.7657V87.2516V87.1528Z" fill="white"/>
<path d="M72.8442 95.2759C72.7454 95.3747 72.5472 95.3747 72.4484 95.4741V96.8607H72.5472C72.646 96.7619 72.8442 96.7619 72.9435 96.6625H73.0423V95.2759H72.8442Z" fill="white"/>
<path d="M72.349 98.6441V100.031C72.349 100.031 72.4483 100.031 72.4483 100.13L72.5472 100.229C72.7453 100.13 72.8442 100.13 72.9435 100.13V98.446H72.7453C72.646 98.5448 72.5472 98.6441 72.349 98.743V98.6441Z" fill="white"/>
<path d="M72.646 101.517C72.5472 101.616 72.4483 101.616 72.349 101.715V104.29C72.349 104.687 72.9435 104.687 72.9435 104.29V101.616H72.7453C72.7453 101.616 72.646 101.616 72.646 101.517Z" fill="white"/>
<path d="M72.9435 92.007C72.8442 92.007 72.8442 91.9076 72.7453 91.9076C72.6465 91.9076 72.4483 92.007 72.349 92.007V93.5918C72.4483 93.5918 72.5472 93.6906 72.5472 93.6906C72.646 93.6906 72.8442 93.5918 72.9435 93.5918V92.007Z" fill="white"/>
<path d="M72.349 90.0254L72.4483 90.1247V90.2235C72.646 90.1247 72.7453 90.1247 72.9435 90.0254H73.0423V88.8369C72.8442 88.9357 72.5472 88.9357 72.349 89.0351V90.0254Z" fill="white"/>
<path d="M72.3488 82.5956V83.8834C72.547 83.7846 72.7452 83.7846 72.9433 83.6857H73.0421V82.3974H72.7452C72.547 82.4968 72.4482 82.4968 72.25 82.5956H72.3488Z" fill="white"/>
<path d="M69.7733 69.1231C68.9807 68.7268 69.6745 68.1328 69.9715 67.6372C70.2685 67.142 70.566 66.2505 70.4666 65.656C70.2685 64.8634 69.377 64.2689 68.6837 64.1701C67.6929 63.9719 67.1977 64.3682 66.5044 64.8634C65.7118 65.3591 65.1173 65.7549 64.2258 66.1512C61.3527 67.3402 56.9942 69.2224 53.8241 69.5194C54.5174 70.4109 55.7064 71.2036 56.796 71.3024C56.6972 71.8969 57.7868 72.4914 58.1831 72.5902C58.6783 72.7884 59.5698 72.7884 60.0649 72.4914C60.7587 73.581 62.3435 73.9773 63.4332 73.0858C63.5325 73.581 64.424 73.8785 64.8203 73.9773C65.6124 74.1755 66.0088 73.8785 66.7026 73.7792C67.0984 73.6803 67.2966 73.9773 67.7922 74.0761C68.3867 74.1755 68.7825 74.1755 69.2782 73.8785C69.4763 73.7792 69.377 73.6803 69.6745 73.6803C69.7733 73.6803 70.0703 73.8785 70.1696 73.8785C70.6648 73.9773 70.9623 73.581 71.1605 73.284C71.4575 72.9865 71.6556 72.2932 71.9526 71.5006V69.3213C71.1605 69.4206 70.1697 69.3213 69.8727 69.2224L69.7733 69.1231Z" fill="white"/>
<path d="M75.7171 69.1231C76.5098 68.7268 75.8159 68.1328 75.519 67.6372C75.222 67.142 74.9245 66.2505 75.0238 65.656C75.222 64.8634 76.1134 64.2689 76.8068 64.1701C77.7976 63.9719 78.2927 64.3682 78.986 64.8634C79.7787 65.3591 80.3732 65.7549 81.2646 66.1512C84.1377 67.3402 88.4963 69.2224 91.6663 69.5194C90.973 70.4109 89.7841 71.2036 88.6944 71.3024C88.7933 71.8969 87.7036 72.4914 87.3073 72.5902C86.8121 72.7884 85.9207 72.7884 85.4255 72.4914C84.7317 73.581 83.1469 73.9773 82.0573 73.0858C81.9579 73.581 81.0665 73.8785 80.6701 73.9773C79.878 74.1755 79.4817 73.8785 78.7879 73.7792C78.392 73.6803 78.1939 73.9773 77.6982 74.0761C77.1037 74.1755 76.7079 74.1755 76.2123 73.8785C76.0141 73.7792 76.1134 73.6803 75.8159 73.6803C75.7171 73.6803 75.4201 73.8785 75.3208 73.8785C74.8256 73.9773 74.5281 73.581 74.33 73.284C74.033 72.9865 73.8348 72.2932 73.5378 71.5006V69.3213C74.33 69.4206 75.3208 69.3213 75.6178 69.2224L75.7171 69.1231Z" fill="white"/>
<path d="M68.5844 75.1663C68.7825 75.1663 68.8819 75.2651 68.8819 75.4633C68.8819 75.6614 68.7825 75.7602 68.5844 75.7602C68.3862 75.7602 68.2874 75.6614 68.2874 75.4633C68.2874 75.2651 68.3867 75.1663 68.5844 75.1663ZM67.6929 77.94C67.0984 77.5437 67.8911 77.048 68.1885 76.9492C68.9807 76.6522 69.8727 76.3547 70.566 75.7602C70.863 75.5621 71.2593 74.8688 70.7641 74.5718C70.4666 74.3736 69.5752 74.5718 69.2782 74.6706C68.7825 74.7699 68.2874 74.7699 67.8911 75.0669C67.6929 75.2651 66.4051 75.6614 65.9099 76.8499C65.7118 77.4444 65.8106 78.237 66.2069 78.7322C67.0984 79.723 67.8911 80.02 68.8819 80.5156C69.1789 80.6144 69.5752 80.8126 70.0703 81.0108C70.1697 80.9119 71.6556 80.4163 72.1508 80.02C70.863 79.5248 69.9715 79.1285 69.5752 78.9303C68.6837 78.534 68.0892 78.237 67.6929 77.94Z" fill="white"/>
<path d="M73.1416 101.022C73.0423 101.12 72.9434 101.22 72.8441 101.319C72.8441 101.319 72.9434 101.418 73.0423 101.517C73.8349 102.408 73.3398 103.003 73.4386 103.003C73.4386 103.003 73.6368 102.904 73.7361 102.606C73.8349 102.309 73.7361 101.715 73.4386 101.22C73.4386 101.12 73.3398 101.022 73.2404 100.922L73.1416 101.022Z" fill="white"/>
<path d="M74.0331 94.5826C73.7361 94.7807 73.4386 94.9789 73.0423 95.1765C73.5379 95.3747 73.8349 95.6722 74.0331 95.6722C74.1319 95.6722 73.7361 96.2667 73.3397 96.5637C72.9434 96.8607 72.5471 97.1582 72.1508 97.4552C71.7545 97.7526 71.3581 98.0496 71.1605 98.6441C70.863 99.2386 71.2593 99.8326 71.5563 100.13C71.7545 100.229 72.0519 100.625 72.1508 100.725C72.1508 100.625 72.4483 100.526 72.4483 100.328C71.6556 99.6344 71.1605 98.8423 72.5471 98.0496C72.9434 97.7526 73.3397 97.5545 73.8349 97.1582C74.0331 96.96 74.2312 96.7618 74.5282 96.5637C74.7264 96.3655 75.1227 95.9692 74.8257 95.3747C74.6275 94.8796 74.3301 94.6814 74.0331 94.4832V94.5826Z" fill="white"/>
<path d="M75.1227 88.2424C75.0238 88.2424 73.8349 88.7376 73.2404 89.0351C73.5379 89.1339 73.736 89.2332 74.033 89.2332C74.2312 89.2332 74.33 89.3321 74.4294 89.4314L74.33 89.5302C74.1319 89.7284 73.9342 89.8272 73.6367 89.9265C73.0422 90.2235 72.4482 90.521 71.8538 90.818C71.2593 91.2143 70.6648 91.2143 69.9715 92.1058C69.5752 92.601 69.8726 93.3936 70.1696 93.5918C70.4666 93.8888 70.7641 94.0869 70.9623 94.2851C71.0611 94.3844 71.1604 94.3844 71.2593 94.4832C71.5563 94.1863 71.9526 94.0869 72.2501 93.8888C71.9526 93.7899 71.7544 93.5918 71.4574 93.3936C70.9623 93.0966 70.6648 92.601 70.7641 92.601C70.863 92.4028 71.6556 92.007 72.1508 91.8088C72.7452 91.5113 73.3397 91.3132 73.9342 91.0162C74.2312 90.9168 74.6275 90.7192 74.9245 90.4217C75.222 90.1247 75.816 89.6291 75.4202 88.7376C75.222 88.4406 75.0238 88.2424 74.9245 88.1431L75.1227 88.2424Z" fill="white"/>
<path d="M76.2122 81.7041C75.9152 81.5059 75.5189 81.4071 75.2219 81.3078C74.8256 81.6053 73.3396 82.1998 73.0422 82.2986C73.4385 82.3974 73.8348 82.5956 74.2311 82.6949C74.7263 82.8931 75.1226 82.9919 75.5189 83.1901C75.6178 83.1901 75.7171 83.2894 75.8159 83.3882C75.6178 83.4876 75.5189 83.4876 75.3208 83.5864C74.8256 83.6857 74.2311 83.8834 73.6366 83.8834C72.547 84.0815 71.061 84.0815 69.7732 84.7754C69.3769 84.9735 69.0799 85.1717 68.6836 85.6668C68.4855 85.9638 68.3866 86.3601 68.5843 86.7565C68.6836 87.0535 68.8818 87.2516 69.0799 87.4498C69.3769 87.7473 69.7732 87.9454 70.0702 88.0443C70.4666 87.9454 70.7641 87.7473 71.1604 87.6479C71.2592 87.6479 71.358 87.5491 71.358 87.5491C71.5562 87.4498 71.7544 87.351 71.9525 87.2516C71.7544 87.1528 71.6555 87.1528 71.4574 87.0535C70.8629 86.8553 70.2684 86.5583 69.9714 86.2613C70.0702 86.162 70.1696 86.0632 70.3677 85.9638C71.358 85.4687 72.547 85.4687 73.8348 85.2705C74.4293 85.1717 75.0238 85.0723 75.7171 84.8742C76.0141 84.7754 76.3116 84.676 76.6086 84.5772C77.1037 84.379 77.5 84.0815 77.6982 83.4876C77.9957 82.4968 76.4104 81.7041 76.1134 81.6053L76.2122 81.7041Z" fill="white"/>
<path d="M73.4385 97.7527C73.2403 97.9503 72.9434 98.1485 72.844 98.2478C74.7263 99.3375 72.3489 100.328 71.9525 101.319C71.6556 101.814 71.5562 102.309 71.6555 102.706C71.7544 103.003 71.9525 103.102 71.9525 103.102C72.0519 103.102 71.5562 102.408 72.3489 101.616C72.6459 101.22 73.2403 100.823 73.8348 100.229C74.1318 99.9319 74.5281 99.3375 74.2311 98.743C74.033 98.3467 73.736 98.0497 73.4385 97.7527Z" fill="white"/>
<path d="M74.33 91.2144C74.33 91.2144 73.4385 91.7095 73.0422 91.9077C73.5379 92.1058 74.2312 92.5021 74.33 92.7003C74.5282 92.7003 74.1319 93.1955 73.6367 93.493C73.1416 93.7899 72.6459 94.0869 72.1507 94.3844C71.6556 94.6814 70.8629 94.6814 70.566 95.5729C70.3678 96.1674 70.7641 96.4644 70.8629 96.7619C71.0611 97.0589 71.2593 97.1582 71.5563 97.3563C71.6556 97.4552 71.7544 97.4552 71.8537 97.5545C72.1507 97.3563 72.3489 97.257 72.6459 97.0589C72.4482 96.96 72.3489 96.8607 72.1507 96.6625C71.7544 96.4644 71.4574 95.8704 71.4574 95.7711C71.5563 95.6722 72.0519 95.3747 72.6459 95.0777C73.1415 94.7808 73.736 94.5826 74.33 94.1863C74.6275 93.9881 74.9245 93.7899 75.1227 93.493C75.4202 93.1955 75.7171 92.5021 75.3208 92.007C75.0238 91.5113 74.7263 91.3132 74.4293 91.115L74.33 91.2144Z" fill="white"/>
<path d="M76.1135 85.0723C75.7171 85.2705 74.033 85.5675 73.6367 85.6668C74.033 85.7656 74.5282 85.865 74.8257 86.0631C75.0238 86.162 75.1227 86.2613 75.222 86.3601C74.9245 86.6571 74.33 86.9546 73.736 87.1528C73.1415 87.3509 72.5471 87.5491 71.8537 87.7473C71.5563 87.8461 71.1604 87.9454 70.8629 88.0443C70.566 88.1431 70.0703 88.1431 69.6745 88.8369C69.1788 89.629 69.8726 90.2235 70.1696 90.521C70.4666 90.7192 70.7641 90.9168 70.9623 91.0162C71.4574 90.818 71.9526 90.6198 72.3489 90.4217C72.3489 90.4217 72.4482 90.4217 72.4482 90.3229C72.1507 90.2235 71.8537 90.0254 71.6556 89.9265C71.3581 89.7284 71.1604 89.629 70.9623 89.5302C70.8629 89.5302 70.8629 89.4314 70.8629 89.4314C70.9623 89.4314 71.0611 89.3321 71.2593 89.2332C71.5563 89.1339 71.8537 89.0351 72.2501 88.9357C72.8441 88.7376 73.5379 88.6387 74.2312 88.3412C74.9245 88.1431 75.519 87.8461 76.2123 87.3509C76.4105 87.1528 76.6086 86.9546 76.7079 86.6571C76.8068 86.3601 76.8068 85.865 76.6086 85.5675C76.4105 85.3693 76.3116 85.1717 76.1135 85.0723Z" fill="white"/>
<path d="M76.5097 75.1663C76.7079 75.1663 76.8067 75.2651 76.8067 75.4633C76.8067 75.6614 76.7079 75.7603 76.5097 75.7603C76.3116 75.7603 76.2123 75.6614 76.2123 75.4633C76.2123 75.2651 76.3116 75.1663 76.5097 75.1663ZM77.4012 75.067C77.0049 74.77 76.4104 74.77 76.0141 74.6706C75.7171 74.6706 74.8256 74.3736 74.5281 74.5718C74.1318 74.8688 74.5281 75.5621 74.7263 75.7603C75.4201 76.3547 76.3116 76.6522 77.1037 76.9492C77.4012 77.0481 78.1939 77.4444 77.5994 77.94C77.2031 78.237 76.6086 78.534 75.7171 78.9303C75.2219 79.1285 74.33 79.5248 72.9433 80.1193C72.25 80.4163 71.4574 80.7138 70.5659 81.0108C70.1696 81.1096 69.5751 81.3078 69.0799 81.6053C68.7825 81.7041 67.1977 82.4968 67.4947 83.4876C67.6928 84.1809 68.0891 84.379 68.5843 84.5772C68.7825 84.676 68.9806 84.676 69.1788 84.7754L69.2781 84.676C69.8726 84.2797 70.4666 83.8834 71.0611 83.5864C70.6647 83.4876 70.2684 83.3882 69.8726 83.2894C69.6744 83.2894 69.5751 83.1901 69.3769 83.0912C69.4763 82.9919 69.5751 82.9919 69.6744 82.8931C70.0703 82.6949 70.4666 82.5956 70.9622 82.3974C71.8537 82.1004 72.6458 81.8034 73.3397 81.5059C74.7263 80.912 75.7171 80.5156 76.2123 80.3175C77.2031 79.8218 78.0945 79.5248 78.8872 78.534C79.2835 78.0389 79.3823 77.2462 79.1842 76.6522C78.689 75.4633 77.5 75.0669 77.2031 74.8688L77.4012 75.067Z" fill="white"/>
<path d="M72.6388 66.0564C72.9119 66.0564 73.1335 66.278 73.1335 66.551V66.6748H72.1442V66.551C72.1442 66.278 72.3658 66.0564 72.6388 66.0564Z" fill="white"/>
</svg>
