<svg width="512" height="512" viewBox="0 0 512 512" fill="none" xmlns="http://www.w3.org/2000/svg">
<rect width="512" height="512" rx="50" fill="#002B53"/>
<path d="M77.534 308.648H42.6164V283.96H30.6954V348.992H42.6164V319.456H77.534V348.992H89.411V283.96H77.534V308.648Z" fill="white"/>
<path d="M150.951 287.251C145.895 284.435 140.031 283.025 133.359 283.025C126.686 283.025 120.859 284.433 115.789 287.251C110.718 290.069 106.759 293.984 103.912 298.994C101.065 304.005 99.6418 309.833 99.6418 316.475C99.6418 323.117 101.065 328.907 103.912 333.934C106.759 338.96 110.718 342.883 115.789 345.699C120.86 348.517 126.716 349.925 133.359 349.925C140.002 349.925 145.895 348.517 150.951 345.699C156.007 342.883 159.959 338.96 162.806 333.934C165.653 328.908 167.076 323.089 167.076 316.475C167.076 309.861 165.653 304.005 162.806 298.994C159.959 293.982 156.007 290.068 150.951 287.251ZM151.996 328.664C150.246 332.016 147.777 334.566 144.59 336.315C141.402 338.066 137.658 338.94 133.359 338.94C129.06 338.94 125.307 338.066 122.105 336.315C118.902 334.566 116.425 332.016 114.676 328.664C112.926 325.314 112.051 321.252 112.051 316.476C112.051 311.7 112.926 307.639 114.676 304.287C116.425 300.937 118.902 298.379 122.105 296.614C125.307 294.85 129.058 293.968 133.359 293.968C137.66 293.968 141.402 294.85 144.59 296.614C147.778 298.379 150.246 300.936 151.996 304.287C153.745 307.639 154.621 311.701 154.621 316.476C154.621 321.25 153.747 325.313 151.996 328.664Z" fill="white"/>
<path d="M208.977 310.783L196.701 308.559C193.349 307.967 190.919 307.047 189.405 305.801C187.893 304.555 187.137 302.91 187.137 300.864C187.137 298.67 188.122 296.883 190.095 295.504C192.066 294.125 195.262 293.435 199.681 293.435C203.862 293.435 207.399 294.274 210.29 295.948C213.181 297.624 215.531 299.722 217.34 302.243L224.102 292.947C222.827 291.198 221.174 289.574 219.142 288.077C217.111 286.579 214.524 285.363 211.381 284.429C208.237 283.495 204.337 283.028 199.682 283.028C194.582 283.028 190.177 283.821 186.472 285.408C182.765 286.994 179.903 289.173 177.886 291.946C175.87 294.719 174.862 297.869 174.862 301.398C174.862 306.083 176.366 310.027 179.377 313.23C182.387 316.432 186.856 318.598 192.789 319.724L205.688 322.126C208.594 322.689 210.81 323.661 212.338 325.04C213.865 326.419 214.629 328.265 214.629 330.579C214.629 333.366 213.472 335.487 211.159 336.94C208.845 338.393 205.391 339.06 200.795 338.942C196.376 338.852 192.306 337.762 188.585 335.672C184.864 333.581 181.653 330.595 178.955 326.709L172.06 336.896C173.157 338.735 175.018 340.663 177.643 342.678C180.268 344.694 183.543 346.407 187.473 347.816C191.402 349.224 195.842 349.928 200.795 349.928C207.023 349.928 212.072 349.016 215.941 347.193C219.811 345.369 222.635 342.944 224.415 339.92C226.194 336.896 227.084 333.575 227.084 329.956C227.084 324.707 225.638 320.496 222.747 317.323C219.856 314.149 215.266 311.97 208.98 310.784L208.977 310.783Z" fill="white"/>
<path d="M275.144 286.562C271.481 284.827 266.789 283.96 261.066 283.96H235.666V348.991H247.587V327.506H261.066C269.666 327.506 275.959 325.579 279.948 321.724C283.936 317.87 285.931 312.532 285.931 305.71C285.931 301.173 285.049 297.281 283.285 294.034C281.52 290.787 278.807 288.296 275.144 286.562ZM270.673 314.341C268.538 316.328 265.172 317.321 260.576 317.321H247.587V294.19H260.576C265.172 294.19 268.538 295.176 270.673 297.148C272.808 299.12 273.876 301.974 273.876 305.71C273.876 309.447 272.808 312.354 270.673 314.34V314.341Z" fill="white"/>
<path d="M306.793 283.96H294.872V348.991H306.793V283.96Z" fill="white"/>
<path d="M368.221 294.368V283.96H347.403H335.483H314.577V294.368H335.483V348.992H347.403V294.368H368.221Z" fill="white"/>
<path d="M390.462 283.96L364.128 348.991H377.162L382.413 335.336H413.658L418.887 348.991H431.964L405.676 283.96H390.463H390.462ZM386.345 325.105L397.889 295.081H398.245L409.74 325.105H386.345Z" fill="white"/>
<path d="M450.779 338.583V283.96H438.858V348.992H443.216H450.779H480.313V338.583H450.779Z" fill="white"/>
<path d="M83.0299 249.034H81.6229L56.8027 176.921H31.446V274.994H49.221V210.194L50.8995 209.926L73.5714 274.994H89.7384L112.412 209.926L114.087 210.194V274.994H132.469V176.921H107.716L83.0299 249.034Z" fill="white"/>
<path d="M180.632 176.921L146.757 274.994H166.679L174.025 252.388H211.597L219.003 274.994H239.394L205.519 176.921H180.632ZM179.322 236.087L191.901 197.382H193.577L206.256 236.087H179.322Z" fill="white"/>
<path d="M318.547 245.748C316.891 240.65 315.126 236.771 313.248 234.109C311.37 231.447 308.843 229.423 305.669 228.038V226.628C311.526 224.661 315.997 221.799 319.083 218.043C322.17 214.287 323.713 209.368 323.713 203.284C323.713 197.964 322.593 193.324 320.358 189.367C318.124 185.409 314.735 182.345 310.197 180.176C305.657 178.006 299.921 176.921 292.991 176.921H253.614V274.994H272.999V234.142H283.398C287.913 234.142 291.266 234.993 293.458 236.692C295.65 238.392 297.439 241.387 298.826 245.68C300.435 250.554 302.032 255.43 303.622 260.305C305.208 265.18 306.808 270.077 308.418 274.995H328.339C326.684 270.121 325.053 265.248 323.444 260.372C321.835 255.496 320.201 250.625 318.546 245.749L318.547 245.748ZM301.173 215.495C298.802 217.688 295.293 218.782 290.643 218.782H272.999V192.286H290.643C295.293 192.286 298.802 193.381 301.173 195.572C303.543 197.764 304.729 201.117 304.729 205.633C304.729 210.15 303.543 213.303 301.173 215.495Z" fill="white"/>
<path d="M364.699 176.921H345.313V274.994H364.699V176.921Z" fill="white"/>
<path d="M451.233 274.994H471.625L437.75 176.921H412.863L378.988 274.994H398.909L406.256 252.388H443.827L451.233 274.994ZM411.553 236.087L424.132 197.382H425.807L438.487 236.087H411.553Z" fill="white"/>
<path d="M192.417 162.072C189.512 162.072 186.871 164.449 186.871 167.62C186.871 170.525 189.248 173.168 192.417 173.168C195.325 173.168 197.965 170.789 197.965 167.62C197.965 164.714 195.588 162.072 192.417 162.072Z" fill="white"/>
<path d="M194.268 173.696H190.569C190.04 173.696 189.777 173.96 189.777 174.488C189.777 175.016 190.04 175.28 190.569 175.28H194.268C194.796 175.28 195.06 175.016 195.06 174.488C195.06 173.96 194.796 173.696 194.268 173.696Z" fill="white"/>
<path d="M192.417 175.808C191.625 175.808 191.097 176.073 191.097 176.865L191.362 212.792C191.89 212.528 192.154 212.263 192.682 212.263C192.946 212.263 192.946 212 193.211 212H193.474L193.739 177.13C193.739 176.073 193.211 176.073 192.417 176.073V175.808Z" fill="white"/>
<path d="M191.626 231.813C192.154 231.548 192.946 231.548 193.475 231.548V227.85C192.946 227.85 192.154 228.114 191.626 228.114V232.076V231.813Z" fill="white"/>
<path d="M192.946 253.474C192.683 253.738 192.154 253.738 191.891 254.003V257.7H192.154C192.418 257.437 192.946 257.437 193.211 257.172H193.475V253.474H192.946Z" fill="white"/>
<path d="M191.626 262.456V266.154C191.626 266.154 191.891 266.154 191.891 266.419L192.154 266.682C192.683 266.419 192.946 266.419 193.211 266.419V261.928H192.683C192.418 262.191 192.154 262.456 191.626 262.72V262.456Z" fill="white"/>
<path d="M192.418 270.117C192.154 270.381 191.891 270.381 191.626 270.645V277.513C191.626 278.57 193.211 278.57 193.211 277.513V270.381H192.683C192.683 270.381 192.418 270.381 192.418 270.117Z" fill="white"/>
<path d="M193.211 244.757C192.946 244.757 192.946 244.492 192.683 244.492C192.419 244.492 191.891 244.757 191.626 244.757V248.983C191.891 248.983 192.154 249.247 192.154 249.247C192.418 249.247 192.946 248.983 193.211 248.983V244.757Z" fill="white"/>
<path d="M191.626 239.473L191.891 239.738V240.001C192.418 239.738 192.683 239.738 193.211 239.473H193.475V236.304C192.946 236.567 192.154 236.567 191.626 236.832V239.473Z" fill="white"/>
<path d="M191.625 219.66V223.094C192.154 222.831 192.682 222.831 193.211 222.567H193.474V219.132H192.682C192.154 219.397 191.89 219.397 191.362 219.66H191.625Z" fill="white"/>
<path d="M184.757 183.734C182.644 182.677 184.494 181.093 185.286 179.771C186.078 178.451 186.871 176.073 186.606 174.488C186.078 172.374 183.7 170.789 181.852 170.526C179.209 169.997 177.889 171.054 176.04 172.374C173.926 173.696 172.341 174.752 169.964 175.808C162.302 178.979 150.679 183.998 142.226 184.79C144.075 187.168 147.245 189.281 150.151 189.545C149.888 191.13 152.793 192.716 153.85 192.979C155.17 193.508 157.548 193.508 158.868 192.716C160.718 195.621 164.944 196.678 167.85 194.301C168.115 195.621 170.492 196.415 171.549 196.678C173.662 197.207 174.718 196.415 176.569 196.15C177.624 195.886 178.153 196.678 179.474 196.942C181.06 197.207 182.115 197.207 183.437 196.415C183.965 196.15 183.7 195.886 184.494 195.886C184.757 195.886 185.549 196.415 185.814 196.415C187.135 196.678 187.928 195.621 188.456 194.829C189.248 194.036 189.777 192.187 190.569 190.073V184.262C188.456 184.527 185.814 184.262 185.022 183.998L184.757 183.734Z" fill="white"/>
<path d="M200.607 183.734C202.721 182.677 200.871 181.093 200.079 179.771C199.287 178.451 198.494 176.073 198.759 174.488C199.287 172.374 201.664 170.789 203.513 170.526C206.155 169.997 207.476 171.054 209.325 172.374C211.438 173.696 213.024 174.752 215.401 175.808C223.062 178.979 234.685 183.998 243.139 184.79C241.29 187.168 238.119 189.281 235.214 189.545C235.477 191.13 232.571 192.716 231.515 192.979C230.194 193.508 227.817 193.508 226.496 192.716C224.646 195.621 220.42 196.678 217.515 194.301C217.25 195.621 214.872 196.415 213.815 196.678C211.703 197.207 210.646 196.415 208.796 196.15C207.741 195.886 207.212 196.678 205.89 196.942C204.305 197.207 203.25 197.207 201.928 196.415C201.399 196.15 201.664 195.886 200.871 195.886C200.607 195.886 199.815 196.415 199.551 196.415C198.23 196.678 197.437 195.621 196.908 194.829C196.116 194.036 195.588 192.187 194.796 190.073V184.262C196.908 184.527 199.551 184.262 200.343 183.998L200.607 183.734Z" fill="white"/>
<path d="M181.587 199.849C182.115 199.849 182.38 200.112 182.38 200.641C182.38 201.169 182.115 201.433 181.587 201.433C181.058 201.433 180.795 201.169 180.795 200.641C180.795 200.112 181.06 199.849 181.587 199.849ZM179.209 207.245C177.624 206.188 179.738 204.867 180.531 204.603C182.644 203.811 185.022 203.018 186.871 201.433C187.663 200.904 188.72 199.055 187.399 198.263C186.606 197.735 184.229 198.263 183.437 198.527C182.115 198.792 180.795 198.792 179.738 199.584C179.209 200.112 175.775 201.169 174.455 204.338C173.927 205.924 174.19 208.037 175.247 209.358C177.624 212 179.738 212.792 182.38 214.114C183.172 214.377 184.229 214.906 185.549 215.434C185.814 215.17 189.777 213.849 191.097 212.792C187.663 211.471 185.286 210.415 184.229 209.886C181.852 208.829 180.266 208.037 179.209 207.245Z" fill="white"/>
<path d="M193.739 268.796C193.475 269.06 193.211 269.325 192.946 269.588C192.946 269.588 193.211 269.853 193.475 270.117C195.588 272.494 194.268 274.079 194.531 274.079C194.531 274.079 195.06 273.816 195.325 273.022C195.588 272.23 195.325 270.645 194.531 269.325C194.531 269.06 194.268 268.796 194.003 268.531L193.739 268.796Z" fill="white"/>
<path d="M196.117 251.625C195.325 252.154 194.531 252.682 193.474 253.209C194.796 253.738 195.588 254.531 196.117 254.531C196.38 254.531 195.325 256.116 194.268 256.908C193.211 257.7 192.154 258.494 191.097 259.286C190.04 260.079 188.983 260.871 188.456 262.456C187.663 264.042 188.72 265.626 189.512 266.419C190.04 266.682 190.834 267.739 191.097 268.004C191.097 267.739 191.89 267.476 191.89 266.947C189.777 265.097 188.456 262.985 192.154 260.871C193.211 260.079 194.268 259.551 195.588 258.494C196.117 257.965 196.645 257.437 197.437 256.908C197.965 256.38 199.022 255.323 198.23 253.738C197.702 252.417 196.909 251.889 196.117 251.361V251.625Z" fill="white"/>
<path d="M199.022 234.718C198.759 234.718 195.588 236.039 194.003 236.832C194.796 237.096 195.325 237.361 196.117 237.361C196.645 237.361 196.909 237.624 197.174 237.889L196.909 238.153C196.38 238.681 195.853 238.945 195.06 239.209C193.475 240.001 191.891 240.795 190.305 241.587C188.72 242.644 187.135 242.644 185.286 245.021C184.229 246.341 185.022 248.455 185.814 248.983C186.606 249.775 187.4 250.304 187.928 250.832C188.192 251.097 188.456 251.097 188.72 251.361C189.512 250.569 190.569 250.304 191.362 249.775C190.569 249.512 190.04 248.983 189.248 248.455C187.928 247.663 187.135 246.341 187.4 246.341C187.663 245.813 189.777 244.757 191.097 244.229C192.683 243.435 194.268 242.907 195.853 242.115C196.645 241.85 197.702 241.323 198.494 240.53C199.287 239.738 200.871 238.416 199.816 236.039C199.287 235.247 198.759 234.718 198.494 234.454L199.022 234.718Z" fill="white"/>
<path d="M201.928 217.283C201.136 216.754 200.079 216.491 199.287 216.226C198.23 217.019 194.267 218.605 193.474 218.868C194.531 219.132 195.588 219.66 196.645 219.925C197.965 220.453 199.022 220.717 200.079 221.245C200.342 221.245 200.607 221.51 200.871 221.774C200.342 222.039 200.079 222.039 199.55 222.302C198.23 222.567 196.645 223.094 195.059 223.094C192.154 223.623 188.191 223.623 184.757 225.473C183.7 226.001 182.908 226.53 181.851 227.85C181.323 228.642 181.059 229.699 181.586 230.756C181.851 231.548 182.38 232.076 182.908 232.605C183.7 233.398 184.757 233.926 185.549 234.19C186.606 233.926 187.399 233.398 188.456 233.133C188.72 233.133 188.983 232.87 188.983 232.87C189.512 232.605 190.04 232.341 190.568 232.076C190.04 231.813 189.776 231.813 189.248 231.548C187.663 231.019 186.077 230.227 185.285 229.435C185.549 229.171 185.814 228.907 186.342 228.642C188.983 227.322 192.154 227.322 195.588 226.793C197.173 226.53 198.758 226.265 200.607 225.736C201.399 225.473 202.193 225.208 202.985 224.944C204.305 224.416 205.362 223.623 205.89 222.039C206.684 219.397 202.456 217.283 201.664 217.019L201.928 217.283Z" fill="white"/>
<path d="M194.531 260.079C194.003 260.606 193.211 261.135 192.946 261.399C197.965 264.305 191.626 266.947 190.569 269.588C189.777 270.91 189.512 272.23 189.777 273.287C190.04 274.079 190.569 274.344 190.569 274.344C190.834 274.344 189.512 272.494 191.626 270.381C192.418 269.325 194.003 268.268 195.588 266.682C196.38 265.89 197.437 264.305 196.645 262.72C196.117 261.663 195.325 260.871 194.531 260.079Z" fill="white"/>
<path d="M196.908 242.644C196.908 242.644 194.531 243.964 193.474 244.492C194.796 245.021 196.645 246.078 196.908 246.606C197.437 246.606 196.38 247.927 195.06 248.72C193.739 249.512 192.417 250.304 191.097 251.097C189.777 251.889 187.663 251.889 186.871 254.266C186.342 255.852 187.399 256.644 187.663 257.437C188.191 258.229 188.72 258.494 189.512 259.022C189.777 259.286 190.04 259.286 190.305 259.551C191.097 259.022 191.625 258.757 192.417 258.229C191.89 257.965 191.625 257.7 191.097 257.172C190.04 256.644 189.248 255.06 189.248 254.795C189.512 254.531 190.833 253.738 192.417 252.946C193.739 252.154 195.324 251.626 196.908 250.569C197.702 250.04 198.494 249.512 199.022 248.72C199.815 247.927 200.607 246.078 199.551 244.757C198.759 243.436 197.965 242.907 197.173 242.379L196.908 242.644Z" fill="white"/>
<path d="M201.664 226.265C200.607 226.793 196.116 227.585 195.06 227.85C196.116 228.114 197.437 228.379 198.23 228.907C198.759 229.171 199.022 229.435 199.287 229.699C198.494 230.491 196.908 231.284 195.324 231.813C193.739 232.341 192.154 232.87 190.305 233.398C189.512 233.662 188.456 233.926 187.663 234.19C186.871 234.453 185.549 234.453 184.494 236.304C183.172 238.416 185.022 240.001 185.814 240.795C186.606 241.323 187.399 241.85 187.928 242.115C189.248 241.587 190.569 241.058 191.625 240.53C191.625 240.53 191.89 240.53 191.89 240.266C191.097 240.001 190.305 239.473 189.777 239.209C188.983 238.681 188.456 238.416 187.928 238.153C187.663 238.153 187.663 237.889 187.663 237.889C187.928 237.889 188.191 237.624 188.72 237.361C189.512 237.096 190.305 236.832 191.362 236.567C192.946 236.039 194.796 235.775 196.645 234.982C198.494 234.453 200.079 233.662 201.928 232.341C202.456 231.813 202.985 231.284 203.25 230.491C203.513 229.699 203.513 228.379 202.985 227.585C202.456 227.057 202.193 226.53 201.664 226.265Z" fill="white"/>
<path d="M202.721 199.849C203.25 199.849 203.513 200.112 203.513 200.641C203.513 201.169 203.25 201.433 202.721 201.433C202.193 201.433 201.928 201.169 201.928 200.641C201.928 200.112 202.193 199.849 202.721 199.849ZM205.098 199.584C204.042 198.792 202.456 198.792 201.399 198.527C200.607 198.527 198.23 197.735 197.437 198.263C196.38 199.055 197.437 200.904 197.965 201.433C199.815 203.018 202.193 203.811 204.305 204.603C205.098 204.867 207.212 205.924 205.627 207.245C204.57 208.037 202.985 208.829 200.607 209.886C199.287 210.415 196.908 211.471 193.211 213.057C191.362 213.849 189.248 214.642 186.871 215.434C185.814 215.698 184.229 216.226 182.908 217.019C182.115 217.283 177.889 219.397 178.681 222.039C179.209 223.888 180.266 224.416 181.587 224.944C182.115 225.208 182.643 225.208 183.172 225.473L183.437 225.208C185.022 224.151 186.606 223.094 188.191 222.302C187.134 222.039 186.078 221.774 185.022 221.51C184.494 221.51 184.229 221.245 183.7 220.982C183.965 220.717 184.229 220.717 184.494 220.453C185.549 219.925 186.606 219.66 187.928 219.132C190.305 218.34 192.417 217.548 194.268 216.754C197.965 215.171 200.607 214.114 201.928 213.585C204.57 212.263 206.947 211.471 209.061 208.829C210.118 207.509 210.381 205.395 209.853 203.811C208.533 200.641 205.362 199.584 204.57 199.055L205.098 199.584Z" fill="white"/>
<path d="M192.399 175.556C193.127 175.556 193.718 176.147 193.718 176.875V177.205H191.08V176.875C191.08 176.147 191.671 175.556 192.399 175.556Z" fill="white"/>
</svg>
