<svg width="350" height="186" viewBox="0 0 350 186" fill="none" xmlns="http://www.w3.org/2000/svg">
<path d="M269.853 177.617C267.35 180.863 264.409 183.275 265.054 184.371C265.054 184.371 266.386 185.34 270.063 185.34C276.367 185.34 282.561 184.86 281.543 184.221C280.134 183.336 276.053 183.016 272.153 181.666C271.189 181.332 274.262 179.465 273.423 179.16C271.686 178.527 270.333 177.98 269.853 177.617Z" fill="#002E4F"/>
<path d="M334.799 184.177C334.799 184.177 335.627 185.339 338.806 185.339C344.256 185.339 349.937 184.599 349.058 184.046C347.839 183.282 338.286 181.288 338.286 181.288L336.144 178.628L332.511 180.638L334.799 184.177Z" fill="#002E4F"/>
<path d="M317.531 103.853C313.622 103.853 310.666 103.072 310.419 103.005C308.38 102.448 307.178 100.345 307.734 98.3059C308.289 96.2689 310.385 95.0699 312.422 95.6169C312.556 95.6519 321.162 97.8569 326.186 93.5469C329.548 90.6599 330.826 85.2249 329.983 77.3899L329.714 74.8909L337.453 70.5059C339.295 69.4639 341.629 70.1099 342.67 71.9489C343.712 73.7879 343.066 76.1239 341.227 77.1649L337.805 79.1039C338.346 88.3319 336.104 95.1499 331.126 99.3929C326.929 102.968 321.691 103.853 317.531 103.853Z" fill="#00A4E2"/>
<path d="M330.776 82.6162C330.63 88.1822 329.152 92.2102 326.346 94.6162C320.835 99.3462 311.397 96.9342 311.235 96.8912C308.998 96.2872 306.697 97.6082 306.088 99.8422C305.478 102.08 306.797 104.391 309.035 105.002C309.307 105.074 312.556 106.695 316.844 106.543C333.128 105.965 342.956 91.9182 343.138 83.7292L330.776 82.6162Z" fill="#E1F3F6"/>
<path d="M308.385 63.1372C306.926 62.4832 305.492 61.7752 304.08 61.0322C290.587 68.7162 273.348 78.5602 273.006 78.9032C273.006 78.9032 281.574 92.5462 282.122 93.0932C282.474 93.4452 303.72 78.2042 319.004 67.1612C315.478 65.7962 311.842 64.6872 308.385 63.1372Z" fill="#008DC4"/>
<path d="M308.606 62.7452C312.139 64.3042 315.851 65.4352 319.443 66.8472C327.858 60.7662 334.363 56.0332 334.363 56.0332L319.98 51.9912C319.98 51.9912 313.059 55.9202 304.532 60.7752C305.87 61.4732 307.225 62.1352 308.606 62.7452Z" fill="#00AFE2"/>
<path d="M283.812 44.8348L292.28 67.7598L308.834 73.8348L287.865 35.5308L283.812 44.8348Z" fill="#006091"/>
<path d="M309.735 79.4658H297.47L308.387 98.5358L325.028 105.552L309.735 79.4658Z" fill="#006091"/>
<path d="M325.028 105.552L315.264 88.896L273.494 113.384L265.28 99.372L270.438 16.068L289.209 5.06396L322.994 62.696L334.362 56.032L343.816 72.158L332.448 78.822L342.212 95.477L325.028 105.552ZM287.135 40.914L286.078 41.534L283.207 86.021L305.81 72.77L287.135 40.914Z" fill="#0076AD"/>
<path d="M251.395 95.5601L265.281 99.3721L273.495 113.384L258.823 109.667L251.395 95.5601Z" fill="#008DC4"/>
<path d="M251.395 95.56L265.281 99.3721L270.439 16.0681L257.699 13.019L251.395 95.56Z" fill="#00AFE2"/>
<path d="M257.699 13.019L270.439 16.068L289.21 5.06398L276.308 1.31299L257.699 13.019Z" fill="#00D2FD"/>
<path d="M285.634 128.755C285.634 128.755 287.675 150.769 287.675 158.48C287.675 158.48 271.646 170.974 267.721 177.509C269.407 178.792 272.739 180.495 274.921 180.429C285.616 170.216 297.356 162.927 297.356 162.927C297.356 162.927 302.42 148.237 303.997 135.8L285.634 128.755Z" fill="#002E4F"/>
<path d="M297.059 129.794C300.668 129.819 304.357 129.198 307.461 127.513C306.419 123.117 308.639 110.146 311.426 103.214C311.426 103.214 313.624 98.3881 312.083 96.9051C306.381 91.4211 301.528 91.8701 300.019 91.8091C294.785 96.2271 285.045 109.266 285.436 126.498C288.127 129.325 293.59 129.771 297.059 129.794Z" fill="#E1F3F6"/>
<path d="M332.418 181.243C334.505 180.663 336.506 179.698 337.79 177.991C331.601 167.952 308.903 131.079 307.674 128.192C307.643 128.118 307.614 128.032 307.585 127.948C304.252 129.745 300.275 130.378 296.419 130.229C293.061 130.1 288.199 129.629 285.457 127.143C285.464 127.321 285.465 127.497 285.474 127.676C285.948 137.301 317.875 169.393 330.44 181.664C331.131 181.564 331.802 181.413 332.418 181.243Z" fill="#00396A"/>
<path d="M266.509 119.814C265.622 119.814 264.771 119.687 263.957 119.414C262.269 118.85 260.036 117.428 258.981 113.869C258.38 111.842 259.536 109.711 261.563 109.111C263.589 108.509 265.718 109.668 266.319 111.693C266.39 111.929 266.456 112.08 266.503 112.168C266.911 112.186 268.427 112.053 272.116 109.885C275.412 107.95 279.311 105.065 283.082 102.276C289.453 97.5612 295.471 93.1102 300.44 91.5382C302.454 90.8992 304.605 92.0182 305.243 94.0322C305.881 96.0482 304.764 98.1982 302.75 98.8352C298.997 100.023 293.221 104.298 287.634 108.429C279.456 114.478 272.244 119.814 266.509 119.814Z" fill="#00A4E2"/>
<path d="M273.67 116.952C273.201 114.698 272.71 112.21 271.283 110.358C268.198 112.067 266.88 112.182 266.504 112.167C266.457 112.079 266.392 111.929 266.32 111.692C265.719 109.667 263.591 108.508 261.564 109.11C259.537 109.71 258.381 111.84 258.982 113.868C260.037 117.427 262.27 118.848 263.958 119.413C264.772 119.686 265.623 119.813 266.51 119.813C268.734 119.813 271.18 119.008 273.819 117.672C273.768 117.433 273.719 117.193 273.67 116.952Z" fill="#00A4E2"/>
<path d="M305.244 94.0302C304.606 92.0162 302.455 90.8972 300.441 91.5362C295.471 93.1082 289.454 97.5592 283.083 102.274C279.312 105.063 275.413 107.948 272.117 109.883C271.967 109.973 271.825 110.051 271.681 110.133C273.112 112.024 275.588 121.348 275.632 121.561C279.69 119.438 299.155 104.62 303.375 100.147C304.827 98.6112 305.882 96.0462 305.244 94.0302Z" fill="#E1F3F6"/>
<path d="M261.097 116.722C260.87 116.722 260.642 116.654 260.444 116.513C257.441 114.367 255.875 110.236 255.809 110.062C255.592 109.48 255.887 108.832 256.47 108.613C257.051 108.398 257.7 108.691 257.917 109.273C257.932 109.31 259.315 112.941 261.752 114.681C262.258 115.042 262.375 115.745 262.014 116.249C261.795 116.558 261.449 116.722 261.097 116.722Z" fill="#00A4E2"/>
<path d="M261.099 113.978C260.745 113.978 260.398 113.812 260.179 113.501C258.742 111.466 257.591 106.63 257.464 106.087C257.324 105.482 257.7 104.876 258.306 104.735C258.913 104.59 259.517 104.971 259.658 105.577C259.975 106.938 261.016 110.782 262.017 112.202C262.376 112.71 262.255 113.413 261.747 113.77C261.551 113.911 261.324 113.978 261.099 113.978Z" fill="#00A4E2"/>
<path d="M262.652 113.345C262.208 113.345 261.787 113.081 261.609 112.644C260.578 110.117 260.175 104.816 260.159 104.591C260.113 103.972 260.578 103.433 261.198 103.386C261.821 103.335 262.357 103.806 262.404 104.425C262.509 105.857 262.949 109.97 263.693 111.794C263.928 112.37 263.652 113.026 263.077 113.261C262.937 113.318 262.794 113.345 262.652 113.345Z" fill="#00A4E2"/>
<path d="M264.341 112.802C263.839 112.802 263.383 112.466 263.251 111.958C262.543 109.208 263.188 106.403 263.217 106.286C263.36 105.681 263.968 105.307 264.571 105.448C265.175 105.591 265.55 106.196 265.409 106.801C265.397 106.854 264.87 109.211 265.432 111.395C265.587 111.998 265.224 112.612 264.622 112.766C264.528 112.792 264.433 112.802 264.341 112.802Z" fill="#00A4E2"/>
<path d="M309.594 100.148C309.078 100.148 308.555 100.037 308.058 99.8019C306.259 98.9519 305.491 96.8039 306.341 95.0069C307.23 93.1259 308.834 91.2 309.015 90.985C310.299 89.465 312.57 89.2739 314.09 90.5569C315.61 91.8379 315.803 94.1079 314.524 95.6289C314.073 96.1639 313.221 97.305 312.854 98.084C312.238 99.386 310.943 100.148 309.594 100.148Z" fill="#00A4E2"/>
<path d="M310.113 98.2939C310.539 98.7649 310.986 99.2079 311.451 99.6299C312.041 99.2769 312.537 98.7529 312.853 98.0849C313.22 97.3059 314.072 96.1649 314.523 95.6299C315.802 94.1089 315.609 91.8389 314.089 90.5579C312.568 89.2749 310.298 89.4659 309.014 90.9859C308.943 91.0719 308.65 91.4239 308.267 91.9309C308.3 94.1999 308.538 96.5579 310.113 98.2939Z" fill="#0086CF"/>
<path d="M321.941 94.3202C320.507 97.7972 316.528 99.4552 313.05 98.0212C309.573 96.5872 307.916 92.6072 309.35 89.1282L311.152 84.7592C312.586 81.2802 316.567 79.6242 320.044 81.0582C323.521 82.4922 325.177 86.4722 323.743 89.9492L321.941 94.3202Z" fill="#00A4E2"/>
<path d="M310.112 88.6201C309.558 90.9601 306.197 90.2101 304.935 88.9871C303.196 87.3051 302.158 82.5461 306.011 82.8001C303.236 78.6101 312.65 74.0661 313.638 78.9081C314.373 77.6591 315.125 76.5371 316.763 76.4311C317.942 76.3561 320.006 77.2681 319.835 78.7121C321.586 77.3281 324.136 77.4361 325.868 78.8341C326.422 79.2821 327.421 80.2781 326.921 81.0041C326.646 81.4041 325.228 81.5271 324.753 81.6721C325.572 81.3011 328.927 82.0491 328.267 83.4431C327.959 84.0931 326.318 83.5091 325.837 83.3711C325.837 83.3711 325.832 83.5231 325.837 83.5171C327.629 84.4991 328.367 85.4961 328.152 87.7261C328.053 88.7511 327.568 90.689 326.348 90.835C325.723 90.909 325.001 90.5151 325.012 89.8601C326.509 91.3541 324.389 95.354 322.498 93.382C321.757 92.609 322.114 91.3121 322.817 90.6441C321.699 90.0011 319.273 86.6011 320.999 85.6911C320.192 85.7111 316.457 84.4431 317.645 83.3691C317.959 84.6151 316.416 86.2281 315.188 85.5881C315.952 87.2501 313.706 88.4901 312.326 88.5491C313.171 89.6121 310.567 90.8731 309.772 89.3321L310.112 88.6201Z" fill="#00396A"/>
<path d="M182.166 75.0278C182.166 75.0278 179.98 66.6609 190.823 64.6729L189.997 74.7269L182.166 75.0278Z" fill="#0089E0"/>
<path d="M138.719 96.1547C136.345 96.1547 134.138 95.6747 132.103 94.7117C122.253 90.0577 121.159 76.0747 121.118 75.4817C120.97 73.3727 122.559 71.5427 124.667 71.3947C126.772 71.2477 128.599 72.8297 128.752 74.9347C128.966 77.7477 130.574 85.5377 135.39 87.7997C139.367 89.6667 145.535 87.7667 153.229 82.3017C154.952 81.0767 157.341 81.4837 158.565 83.2057C159.789 84.9307 159.383 87.3187 157.66 88.5437C150.523 93.6107 144.182 96.1547 138.719 96.1547Z" fill="#CDE5E8"/>
<path d="M159.084 103.337C160.148 100.544 161.135 97.7079 162.284 94.9459C161.509 94.8859 160.728 94.7859 159.935 94.6359C156.222 93.9269 153.079 92.4169 150.505 90.1049C147.929 87.7939 145.941 84.8648 144.538 81.3218C143.135 77.7778 142.319 73.7488 142.091 69.2328C141.861 64.7188 142.226 59.9528 143.184 54.9338C144.161 49.8168 145.584 45.2278 147.452 41.1638C149.32 37.1008 151.559 33.6798 154.17 30.9028C156.779 28.1258 159.707 26.1378 162.953 24.9378C166.197 23.7388 169.677 23.4918 173.39 24.2008C176.329 24.7628 178.918 25.8708 181.171 27.5068C182.256 25.3418 183.422 23.2168 184.532 21.0968C185.843 18.5898 187.061 16.0358 188.227 13.4598C188.725 12.3578 189.157 11.2238 189.609 10.0988C185.846 7.95384 181.629 6.43184 176.955 5.53784C170.332 4.27284 164.098 4.51284 158.254 6.25584C152.407 8.00084 147.146 10.9198 142.463 15.0168C137.78 19.1148 133.807 24.2588 130.546 30.4448C127.282 36.6338 124.925 43.5429 123.469 51.1669C122.012 58.7929 121.656 66.0838 122.41 73.0388C123.16 79.9938 124.958 86.2379 127.801 91.7729C130.644 97.3078 134.458 101.964 139.251 105.738C143.712 109.254 148.968 111.68 155.019 113.019C156.452 109.824 157.838 106.612 159.084 103.337Z" fill="#00AFE2"/>
<path d="M210.915 45.7987C210.162 38.8447 208.366 32.5987 205.524 27.0637C202.681 21.5287 198.864 16.8747 194.075 13.0987C192.785 12.0827 191.426 11.1607 190.005 10.3267C189.557 11.4507 189.128 12.5837 188.621 13.6807C187.433 16.2477 186.242 18.8107 184.926 21.3167C183.805 23.4497 182.628 25.5897 181.537 27.7707C181.925 28.0667 182.304 28.3747 182.67 28.7027C185.243 31.0157 187.257 33.9477 188.71 37.5007C190.163 41.0537 191.01 45.0637 191.249 49.5297C191.487 53.9957 191.118 58.7857 190.142 63.9027C189.184 68.9207 187.765 73.4867 185.888 77.5977C184.01 81.7117 181.74 85.1507 179.079 87.9187C176.418 90.6867 173.466 92.6727 170.222 93.8697C167.829 94.7547 165.338 95.1217 162.749 94.9787C161.476 97.9997 160.403 101.112 159.242 104.17C158.093 107.195 156.801 110.162 155.472 113.113C155.771 113.176 156.069 113.238 156.37 113.297C162.991 114.563 169.224 114.322 175.069 112.578C180.913 110.836 186.177 107.916 190.86 103.818C195.544 99.7197 199.514 94.5777 202.777 88.3877C206.039 82.2017 208.399 75.2937 209.856 67.6677C211.313 60.0457 211.665 52.7537 210.915 45.7987Z" fill="#006091"/>
<path d="M168.064 117.273C161.442 116.007 155.735 113.486 150.945 109.712C146.152 105.939 142.338 101.282 139.496 95.7468C136.652 90.2118 134.855 83.9678 134.104 77.0118C133.351 70.0588 133.707 62.7678 135.163 55.1408C136.619 47.5168 138.976 40.6088 142.241 34.4198C145.502 28.2328 149.475 23.0878 154.158 18.9908C158.841 14.8938 164.102 11.9738 169.949 10.2298C175.793 8.48683 182.026 8.24783 188.649 9.51283C195.27 10.7778 200.975 13.2978 205.767 17.0728C210.558 20.8498 214.374 25.5028 217.217 31.0378C220.061 36.5728 221.855 42.8188 222.609 49.7728C223.359 56.7288 223.007 64.0198 221.55 71.6438C220.093 79.2698 217.734 86.1768 214.472 92.3638C211.208 98.5538 207.238 103.696 202.555 107.794C197.872 111.892 192.608 114.812 186.764 116.554C180.918 118.296 174.686 118.538 168.064 117.273ZM171.63 98.6108C175.242 99.2998 178.669 99.0468 181.915 97.8448C185.159 96.6478 188.112 94.6608 190.773 91.8938C193.432 89.1258 195.703 85.6868 197.581 81.5738C199.459 77.4618 200.877 72.8968 201.835 67.8788C202.813 62.7608 203.182 57.9718 202.943 53.5048C202.705 49.0398 201.857 45.0288 200.406 41.4768C198.952 37.9228 196.937 34.9918 194.365 32.6788C191.789 30.3678 188.697 28.8658 185.086 28.1758C181.372 27.4658 177.893 27.7138 174.65 28.9118C171.403 30.1128 168.476 32.0998 165.866 34.8778C163.255 37.6548 161.016 41.0758 159.149 45.1388C157.28 49.2028 155.858 53.7908 154.88 58.9088C153.921 63.9268 153.557 68.6938 153.786 73.2078C154.015 77.7248 154.83 81.7518 156.234 85.2968C157.636 88.8398 159.624 91.7698 162.2 94.0798C164.772 96.3918 167.916 97.9018 171.63 98.6108Z" fill="#0076AD"/>
<path d="M235.577 61.0739L235.869 75.1429C235.869 75.1429 231.851 78.7439 228.252 75.1429L229.579 59.2979L235.577 61.0739Z" fill="#00396A"/>
<path d="M219.006 173.306C218.777 173.124 217.208 172.394 216.991 172.212C216.149 173.474 215.56 174.169 214.548 175.216C217.028 177.378 216.391 180.005 216.391 180.005C216.391 180.005 214.636 181.515 213.95 181.855C211.761 182.933 207.724 184.431 207.724 184.431L217.891 185.228L225.432 177.503C222.759 176.011 220.71 174.654 219.006 173.306Z" fill="#002E4F"/>
<path d="M179.172 173.857C177.553 173.574 175.509 174.814 174.192 173.857C173.886 176.685 173.945 178.228 173.945 178.228L158.903 184.431H178.113C178.286 182.384 177.919 180.419 178.195 178.523C178.335 177.548 178.995 174.796 179.172 173.857Z" fill="#002E4F"/>
<path d="M196.682 105.585L179.685 137.882C179.685 137.882 186.572 143.708 193.353 145.65L206.095 107.597L196.682 105.585Z" fill="#CDE5E8"/>
<path d="M215.294 176.025C216.314 174.982 217.155 173.738 217.994 172.474C213.597 168.706 211.446 164.824 205.472 158.142C203 155.376 209.548 139.54 211.138 136.884C213.994 132.111 214.436 128.65 216.669 120.48L200.069 126.681C196.118 140.835 191.514 154.992 196.13 161.744C201.007 168.883 209.662 174.633 213.839 177.504C213.998 177.612 215.155 175.919 215.294 176.025Z" fill="#002E4F"/>
<path d="M187.343 73.3669C187.115 73.3669 186.887 73.2989 186.688 73.1559C186.183 72.7939 186.068 72.0899 186.43 71.5859C187.767 69.7229 188.061 68.1899 188.064 68.1739C188.176 67.5659 188.757 67.1579 189.37 67.2659C189.979 67.3749 190.387 67.9519 190.282 68.5619C190.267 68.6429 189.919 70.5859 188.26 72.8969C188.039 73.2039 187.693 73.3669 187.343 73.3669Z" fill="#00A4E2"/>
<path d="M215.49 123.902C220.431 110.336 224.65 89.0468 226.23 80.5498C225.347 80.1828 224.481 79.9068 223.793 79.7158C222.327 79.3118 220.57 78.8348 219.067 79.3018C218.304 79.5398 217.625 79.9328 216.959 80.3508C216.343 82.1948 216.089 83.7488 216.089 83.7488C216.089 83.7488 205.476 104.038 198.561 117.874C204.434 119.191 210.177 121.12 215.49 123.902Z" fill="#F6EE9E"/>
<path d="M198.362 118.29C198.359 118.288 198.357 118.288 198.354 118.286C197.742 119.513 197.16 120.686 196.62 121.786H196.615C195.255 124.196 193.789 126.425 192.369 128.565C178.712 149.157 173.555 165.569 172.643 173.336C173.947 174.354 178.878 174.93 180.522 175.215C183.042 162.34 189.598 154.121 201.345 144.41C205.276 141.16 208.216 137.031 210.8 133.603C212.34 131.56 213.868 128.285 215.335 124.318C210.012 121.529 204.246 119.603 198.362 118.29Z" fill="#00396A"/>
<path d="M185.109 123.954C183.523 123.954 182.041 122.962 181.493 121.38C180.801 119.382 181.858 117.202 183.855 116.511C188.499 114.902 195.62 108.554 200.421 101.745C210.165 87.9288 217.006 80.2678 217.293 79.9478C218.704 78.3748 221.124 78.2428 222.697 79.6548C224.269 81.0648 224.401 83.4848 222.99 85.0568C222.923 85.1328 216.136 92.7408 206.675 106.155C201.936 112.876 193.556 121.247 186.361 123.741C185.948 123.886 185.525 123.954 185.109 123.954Z" fill="#00A4E2"/>
<path d="M223.543 81.8176C223.455 81.8176 223.366 81.8136 223.276 81.8076C221.293 81.6616 219.802 79.9366 219.947 77.9516C220.099 75.8776 220.902 73.5026 220.994 73.2376C221.643 71.3576 223.693 70.3596 225.574 71.0086C227.453 71.6566 228.451 73.7046 227.804 75.5846C227.577 76.2466 227.194 77.6176 227.131 78.4766C226.993 80.3716 225.413 81.8156 223.543 81.8176Z" fill="#00A4E2"/>
<path d="M224.597 78.018C225.234 78.75 225.929 79.401 226.665 79.997C226.924 79.544 227.09 79.031 227.131 78.477C227.194 77.619 227.577 76.248 227.804 75.585C228.451 73.705 227.452 71.657 225.574 71.009C224.014 70.47 222.341 71.068 221.443 72.359C221.775 74.393 223.436 76.685 224.597 78.018Z" fill="#0086CF"/>
<path d="M233.878 70.22C233.794 73.979 230.678 76.959 226.917 76.875C223.157 76.79 220.178 73.674 220.263 69.914L220.368 65.188C220.452 61.427 223.569 58.448 227.329 58.533C231.089 58.618 234.068 61.733 233.984 65.494L233.878 70.22Z" fill="#00A4E2"/>
<path d="M179.705 122.898C178.135 122.898 176.338 122.476 174.327 121.63C173.755 121.39 173.485 120.73 173.725 120.157C173.966 119.583 174.625 119.313 175.199 119.554C178.162 120.8 180.52 120.978 182.021 120.07C182.554 119.748 183.245 119.92 183.567 120.451C183.888 120.982 183.718 121.674 183.186 121.996C182.192 122.597 181.029 122.898 179.705 122.898Z" fill="#00A4E2"/>
<path d="M181.053 124.534C179.262 124.534 177.825 124.186 176.19 123.79L175.683 123.669C175.078 123.524 174.705 122.917 174.851 122.312C174.995 121.709 175.603 121.332 176.208 121.48L176.72 121.603C179.45 122.263 181.254 122.701 185.245 121.669C185.85 121.515 186.461 121.876 186.616 122.478C186.771 123.081 186.409 123.695 185.807 123.851C183.884 124.347 182.373 124.534 181.053 124.534Z" fill="#00A4E2"/>
<path d="M179.628 120.681C176.095 120.681 173.674 118.507 173.553 118.396C173.095 117.976 173.064 117.265 173.484 116.806C173.903 116.349 174.612 116.318 175.071 116.734C175.183 116.836 177.772 119.117 181.255 118.22C181.86 118.064 182.471 118.427 182.626 119.029C182.781 119.631 182.419 120.246 181.816 120.4C181.051 120.597 180.317 120.681 179.628 120.681Z" fill="#00A4E2"/>
<path d="M181.987 119.472C181.943 119.472 181.899 119.468 181.855 119.464C178.021 119.015 176.462 116.255 176.398 116.138C176.099 115.593 176.298 114.909 176.843 114.609C177.384 114.312 178.065 114.507 178.367 115.047C178.42 115.139 179.483 116.92 182.116 117.229C182.734 117.301 183.176 117.86 183.103 118.477C183.037 119.048 182.551 119.472 181.987 119.472Z" fill="#00A4E2"/>
<path d="M195.438 74.9908C195.377 74.9908 195.316 74.9858 195.253 74.9748C193.39 74.6658 188.293 73.8648 187.108 73.8648C186.486 73.8648 185.982 73.3608 185.982 72.7388C185.982 72.1178 186.486 71.6128 187.108 71.6128C188.692 71.6128 194.916 72.6368 195.62 72.7548C196.233 72.8568 196.649 73.4358 196.547 74.0488C196.457 74.5988 195.979 74.9908 195.438 74.9908Z" fill="#00A4E2"/>
<path d="M194.718 77.3539C194.62 77.3539 194.52 77.3409 194.421 77.3139C194.367 77.2989 189.015 75.8419 186.525 75.7009C185.904 75.6659 185.43 75.1339 185.465 74.5129C185.5 73.8919 186.036 73.4029 186.653 73.4539C189.38 73.6089 194.787 75.0809 195.015 75.1429C195.615 75.3069 195.967 75.9249 195.803 76.5249C195.667 77.0259 195.213 77.3539 194.718 77.3539Z" fill="#00A4E2"/>
<path d="M194.176 79.8289C194.061 79.8289 193.944 79.8109 193.83 79.7759C188.762 78.1399 187.513 78.039 186.842 77.986C186.551 77.963 186.278 77.9399 185.904 77.8409C185.303 77.6819 184.945 77.0669 185.103 76.4649C185.263 75.8639 185.878 75.5069 186.48 75.6639C186.659 75.7119 186.788 75.7229 187.022 75.7409C187.838 75.8069 189.204 75.9169 194.522 77.6329C195.113 77.8239 195.438 78.4579 195.248 79.0499C195.093 79.5269 194.651 79.8289 194.176 79.8289Z" fill="#00A4E2"/>
<path d="M191.949 81.6318C191.923 81.6318 191.895 81.6298 191.868 81.6278C186.792 81.2648 186.581 78.5088 186.574 78.1958L188.825 78.1428C188.825 78.1428 188.828 78.1168 188.819 78.0698C188.821 78.0818 189.053 79.1708 192.029 79.3838C192.648 79.4268 193.115 79.9658 193.071 80.5848C193.028 81.1788 192.535 81.6318 191.949 81.6318Z" fill="#00A4E2"/>
<path d="M187.699 80.2809C187.699 80.2809 186.722 79.8299 185.2 79.8299C183.92 79.8299 182.18 77.6579 182.18 75.4039C182.18 75.4039 181.555 68.7579 188.571 71.7639L187.699 80.2809Z" fill="#00A4E2"/>
<path d="M209.793 100.036L199.957 148.462C199.957 148.462 215.189 152.132 224.532 146.751L226.895 79.4659C226.895 79.4659 216.44 75.8069 209.793 100.036Z" fill="#CDE5E8"/>
<path d="M212.07 126.681L221.492 126.175C221.492 126.175 221.718 140.583 216.09 140.021C216.09 140.021 208.388 141.704 212.07 126.681Z" fill="#E1F3F6"/>
<path d="M223.9 78.315C222.866 77.387 221.532 76.877 220.143 76.877C218.546 76.877 217.018 77.5579 215.954 78.7449C215.666 79.0669 208.783 86.7649 198.951 100.706C198.307 101.618 197.599 102.55 196.845 103.476L195.845 104.703L196.935 105.851C198.095 107.078 199.313 108.273 200.49 109.427C201.129 110.054 201.767 110.681 202.398 111.314L203.789 112.709L205.054 111.199C206.183 109.853 207.224 108.506 208.15 107.195C217.551 93.863 224.266 86.338 224.334 86.261C226.403 83.952 226.209 80.386 223.9 78.315Z" fill="#E1F3F6"/>
<path d="M198.057 100.357L194.255 104.589L204.159 113.487L207.961 109.255L198.057 100.357Z" fill="#F8FDFF"/>
<path d="M213.426 72.9227L222.08 76.3147C222.08 76.3147 225.76 58.4097 223.074 55.7247C223.074 55.7247 213.426 54.8097 213.426 72.9227Z" fill="#00396A"/>
<path d="M223.575 58.8418C223.882 59.2988 230.596 63.7798 235.869 62.5398C235.869 62.5398 234.968 54.6248 222.66 55.7658L223.575 58.8418Z" fill="#00396A"/>
<path d="M228.759 67.283C228.759 69.362 227.074 71.046 224.995 71.046C222.917 71.046 221.232 69.362 221.232 67.283C221.232 65.205 222.917 63.52 224.995 63.52C227.074 63.521 228.759 65.205 228.759 67.283Z" stroke="#DDDD67" stroke-width="0.8679" stroke-miterlimit="10"/>
<path d="M237.259 68.021C237.259 69.829 235.794 71.295 233.986 71.295C232.178 71.295 230.713 69.829 230.713 68.021C230.713 66.213 232.179 64.748 233.986 64.748C235.794 64.748 237.259 66.213 237.259 68.021Z" stroke="#DDDD67" stroke-width="0.755" stroke-miterlimit="10"/>
<path d="M228.759 67.2827C228.759 67.2827 230.008 66.7937 230.752 67.5377" stroke="#DDDD67" stroke-width="0.8679" stroke-miterlimit="10"/>
<path d="M119.269 73.8751C119.181 73.8751 119.093 73.8711 119.003 73.8641C117.019 73.7191 115.528 71.9931 115.673 70.0091C115.825 67.9351 116.628 65.5601 116.72 65.2961C117.368 63.4161 119.419 62.4171 121.3 63.0671C123.179 63.7161 124.177 65.7641 123.53 67.6431C123.303 68.3061 122.92 69.6771 122.857 70.5361C122.719 72.4291 121.139 73.8741 119.269 73.8751Z" fill="#0086CF"/>
<path d="M117.131 173.835C123.097 176.589 127.992 176.532 128.387 176.589C132.277 169.667 143.994 150.923 133.334 135.54L118.257 127.436C118.257 127.436 133.334 143.167 117.131 173.835Z" fill="#002E4F"/>
<path d="M124.935 179.962C124.935 179.962 126.328 177.136 127.415 175.237C126.599 175.137 122.947 174.989 121.447 174.413C120.039 177.288 116.971 181.501 114.804 184.39H135.064L124.935 179.962Z" fill="#002E4F"/>
<path d="M149.998 136.441C147.478 131.55 129.178 116.822 127.519 108.363C127.373 107.615 127.247 106.846 127.138 106.058C124.199 107.613 120.383 108.035 117.36 108.189C113.931 108.363 111.881 108.576 108.563 106.961C108.844 112.211 107.99 117.279 111.052 122.598C117.13 133.149 137.326 142.184 139.579 145.67C144.021 152.549 145.558 167.481 147.07 176.59C149.448 176.59 155.086 176.486 157.403 175.664C156.622 170.992 157.891 151.763 149.998 136.441Z" fill="#00396A"/>
<path d="M156.305 179.144C156.305 179.144 155.648 176.48 155.451 175.238C153.133 176.053 151.784 175.232 149.399 175.238C149.76 177.498 149.493 181.721 149.702 184.199H168.912L156.305 179.144Z" fill="#002E4F"/>
<path d="M117.501 110.952C120.427 110.817 126.572 110.003 129.038 107.538C128.533 103.522 126.738 97.0612 127.37 91.8622C129.513 74.2342 120.905 68.9502 120.905 68.9502C120.905 68.9502 116.942 66.1792 113.73 69.4882C108.888 74.4762 104.164 88.5792 104.637 109.429C107.975 111.152 113.993 111.112 117.501 110.952Z" fill="#CDE5E8"/>
<path d="M161.645 116.517C161.359 116.517 161.068 116.486 160.777 116.417C146.906 113.198 135.159 104.888 126.805 92.382C120.545 83.013 118.383 74.604 118.293 74.251C117.776 72.201 119.02 70.122 121.069 69.606C123.117 69.089 125.195 70.33 125.714 72.376C125.754 72.529 127.747 80.093 133.314 88.347C140.659 99.234 150.48 106.171 162.506 108.962C164.566 109.439 165.847 111.495 165.369 113.554C164.96 115.322 163.385 116.517 161.645 116.517Z" fill="#00A4E2"/>
<path d="M153.214 105.019C145.571 101.4 139.065 95.664 133.875 87.968C128.376 79.816 126.388 72.282 126.37 72.21C125.863 70.211 124.069 68.813 122.009 68.813C121.639 68.813 121.267 68.859 120.905 68.951C119.739 69.244 118.757 69.975 118.14 71.007C117.523 72.039 117.345 73.25 117.639 74.416L117.658 74.499C118.25 77.075 120.616 86.136 126.244 94.558C132.98 104.644 142.12 112.193 152.675 116.392C152.755 116.423 152.84 116.439 152.925 116.439C153.058 116.439 153.191 116.4 153.304 116.322C153.489 116.197 153.6 115.988 153.6 115.763V105.628C153.599 105.367 153.449 105.13 153.214 105.019Z" fill="#E1F3F6"/>
<path d="M164.488 116.79C163.261 116.79 161.96 116.653 160.585 116.378C159.975 116.257 159.58 115.663 159.701 115.054C159.823 114.445 160.415 114.048 161.026 114.171C164.378 114.841 167.174 114.597 169.338 113.444C169.887 113.151 170.568 113.36 170.86 113.909C171.152 114.458 170.944 115.139 170.395 115.431C168.695 116.337 166.718 116.79 164.488 116.79Z" fill="#00A4E2"/>
<path d="M164.647 114.271C164.111 114.271 163.559 114.236 162.999 114.154C162.384 114.064 161.958 113.492 162.048 112.877C162.138 112.262 162.707 111.836 163.324 111.926C166.924 112.453 170.257 110.584 170.291 110.565C170.831 110.258 171.518 110.444 171.826 110.983C172.134 111.522 171.95 112.208 171.412 112.518C171.27 112.597 168.316 114.271 164.647 114.271Z" fill="#00A4E2"/>
<path d="M163.648 112.056C163.473 112.056 163.294 112.05 163.112 112.038C162.491 111.999 162.02 111.466 162.059 110.845C162.098 110.224 162.633 109.753 163.253 109.792C165.916 109.956 167.314 108.339 167.326 108.323C167.718 107.839 168.428 107.766 168.909 108.159C169.391 108.55 169.466 109.259 169.073 109.741C168.994 109.841 167.152 112.056 163.648 112.056Z" fill="#00A4E2"/>
<path d="M159.756 110.157C159.135 110.157 158.63 109.653 158.63 109.032C158.63 108.413 159.131 107.909 159.75 107.907C159.851 107.905 162.073 107.854 163.345 106.022C163.7 105.51 164.401 105.385 164.911 105.739C165.422 106.092 165.549 106.794 165.194 107.305C163.237 110.126 159.896 110.157 159.756 110.157Z" fill="#00A4E2"/>
<path d="M156.076 84.753C155.725 84.753 155.38 84.591 155.16 84.284C153.5 81.971 153.151 80.03 153.137 79.948C153.032 79.337 153.443 78.754 154.056 78.649C154.665 78.543 155.249 78.954 155.356 79.567C155.358 79.575 155.653 81.108 156.99 82.971C157.352 83.477 157.237 84.18 156.731 84.541C156.533 84.685 156.302 84.753 156.076 84.753Z" fill="#00A4E2"/>
<path d="M156.311 85.2509C156.241 85.2509 156.168 85.2449 156.097 85.2309C153.635 84.7579 148.749 84.7529 148.7 84.7529C148.079 84.7529 147.575 84.2489 147.575 83.6279C147.575 83.0069 148.079 82.5029 148.7 82.5029C148.909 82.5029 153.849 82.5089 156.521 83.0209C157.131 83.1359 157.532 83.7259 157.414 84.3369C157.312 84.8759 156.84 85.2509 156.311 85.2509Z" fill="#00A4E2"/>
<path d="M148.083 87.595C147.523 87.595 147.038 87.177 146.967 86.609C146.891 85.992 147.328 85.429 147.946 85.353C148.661 85.263 154.983 84.494 157.028 84.857C157.64 84.964 158.048 85.548 157.939 86.162C157.831 86.773 157.245 87.183 156.634 87.072C155.345 86.845 150.791 87.267 148.224 87.586C148.176 87.591 148.129 87.595 148.083 87.595Z" fill="#00A4E2"/>
<path d="M149.546 90.1402C149.018 90.1402 148.546 89.7671 148.442 89.2281C148.324 88.6171 148.724 88.0272 149.335 87.9102C152.062 87.3852 152.789 87.1522 154.109 86.7262C154.727 86.5272 155.497 86.2811 156.644 85.9471C157.24 85.7751 157.866 86.1191 158.038 86.7151C158.211 87.3131 157.867 87.9382 157.27 88.1102C156.155 88.4342 155.434 88.6671 154.798 88.8701C153.441 89.3081 152.62 89.5712 149.76 90.1222C149.688 90.1342 149.616 90.1402 149.546 90.1402Z" fill="#00A4E2"/>
<path d="M151.97 91.929C151.432 91.929 150.955 91.542 150.862 90.993C150.758 90.38 151.17 89.798 151.782 89.694C155.427 89.069 156.154 87.71 156.158 87.696C156.353 87.104 156.989 86.784 157.58 86.979C158.17 87.174 158.49 87.811 158.296 88.401C158.151 88.837 157.18 91.053 152.162 91.913C152.097 91.923 152.034 91.929 151.97 91.929Z" fill="#00A4E2"/>
<path d="M156.309 90.5739L155.451 81.3999C155.451 81.3999 159.475 81.6929 159.467 85.9099C159.464 87.3179 159.058 88.8859 156.309 90.5739Z" fill="#00A4E2"/>
<path d="M130.979 60.6869C131.995 64.5269 129.705 68.4649 125.864 69.4799C122.022 70.4959 118.085 68.2069 117.068 64.3659L115.791 59.5369C114.775 55.6959 117.065 51.7579 120.906 50.7419C124.748 49.7249 128.685 52.0149 129.702 55.8569L130.979 60.6869Z" fill="#00A4E2"/>
<path d="M130.304 58.1348C129.758 59.6588 128.984 61.1678 127.796 62.1948C124.9 64.6938 120.46 65.3678 116.937 63.8698L117.068 64.3678C118.085 68.2088 122.022 70.4978 125.864 69.4818C129.705 68.4668 131.995 64.5278 130.979 60.6888L130.304 58.1348Z" fill="#00396A"/>
<path d="M117.047 64.1009C114.345 62.3659 111.427 55.7719 115.695 54.3289C118.336 53.4359 117.272 61.5759 117.272 63.8769L117.047 64.1009Z" fill="#00396A"/>
<path d="M114.878 54.872C111.612 52.506 115.659 45.812 123.729 45.812C128.716 45.812 128.68 49.633 125.231 51.695C122.369 53.406 117.93 52.404 115.78 55.321L114.878 54.872Z" fill="#00396A"/>
<path d="M130.302 59.6111C129.159 57.8771 126.906 54.3641 126.03 52.3871C125.474 51.1311 124.713 48.9891 127.229 50.5101C129.335 51.7831 130.479 56.2731 130.281 58.5491L130.302 59.6111Z" fill="#00396A"/>
<path d="M73.28 75.6171C72.038 76.7671 70.671 77.8381 69.551 79.1191L53.303 113.06L65.399 97.4471L78.246 70.8911C76.602 72.4781 74.958 74.0661 73.28 75.6171Z" fill="#006091"/>
<path d="M63.643 70.0448C64.822 68.4328 65.956 66.5388 67.296 64.8738L38.857 50.9888L11.874 53.6898L59.153 75.4918C60.704 73.7238 62.262 71.9338 63.643 70.0448Z" fill="#006091"/>
<path d="M67.702 65.0718C66.19 66.9638 64.964 69.1888 63.513 70.9548C62.21 72.5408 60.903 74.1238 59.566 75.6828L81.06 85.5938L88.864 75.4038L67.702 65.0718Z" fill="#00AFE2"/>
<path d="M35.336 104.458L43.673 87.0438L0 66.1378L7.014 51.4888L78.932 9.13379L98.557 18.5288L69.71 78.7848L81.596 84.4758L73.525 101.335L61.639 95.6458L53.303 113.06L35.336 104.458ZM67.688 36.8778L66.583 36.3488L28.111 58.8708L51.744 70.1848L67.688 36.8778Z" fill="#0076AD"/>
<path d="M81.595 84.4758L88.863 75.4028L83.16 88.0478L73.256 101.882L81.595 84.4758Z" fill="#006091"/>
<path d="M78.812 70.3848L107.172 8.2168L98.556 18.5298L69.709 78.7858C70.514 78.0098 78.353 70.8438 78.812 70.3848Z" fill="#006091"/>
<path d="M7.01294 51.489L19.8289 40.333L90.1009 0L78.9309 9.134L7.01294 51.489Z" fill="#009EE7"/>
<path d="M78.931 9.134L98.556 18.529L107.173 8.217L90.101 0L78.931 9.134Z" fill="#00D2FD"/>
<path d="M54.846 54.5432C52.432 52.8272 50.7699 53.5782 49.6109 53.7582C48.3409 53.9542 47.4019 53.2612 47.3969 53.2582C46.8759 52.9202 46.1779 53.0692 45.8399 53.5902C45.5009 54.1112 45.6509 54.8092 46.1719 55.1472C46.2249 55.1822 47.2069 55.8062 48.9229 56.2562C47.0509 57.9622 45.1429 60.0232 45.0359 60.1382C44.6139 60.5942 44.6419 61.3072 45.0989 61.7282C45.3149 61.9282 45.5889 62.0272 45.8619 62.0272C46.1659 62.0272 46.4669 61.9052 46.6889 61.6652C46.7099 61.6422 48.0409 60.2072 49.5259 58.7762C48.147 60.5022 46.8529 62.2962 46.6169 62.6272C46.2549 63.1322 46.3709 63.8352 46.8759 64.1982C47.0739 64.3412 47.3039 64.4082 47.5309 64.4082C47.8809 64.4082 48.2259 64.2452 48.4459 63.9392C49.1819 62.9112 50.2219 61.5212 51.2149 60.2742C50.8459 61.0042 50.3769 61.8312 49.4389 63.3412C49.1109 63.8702 49.2719 64.5632 49.7999 64.8912C49.9849 65.0062 50.1909 65.0602 50.3929 65.0602C50.7699 65.0602 51.1369 64.8722 51.3509 64.5282C51.7369 63.9062 52.0479 63.3922 52.3089 62.9492C52.1129 63.4382 52.2819 64.0122 52.7399 64.3112C52.9289 64.4352 53.142 64.4932 53.353 64.4932C53.721 64.4932 54.082 64.3122 54.297 63.9812C55.352 62.3582 55.8629 61.0342 56.0829 59.9912L56.1289 60.0262C56.7559 56.8622 55.994 55.3582 54.846 54.5432ZM52.592 62.4622C52.964 61.8082 53.2189 61.3132 53.4569 60.8202C53.2549 61.3002 52.972 61.8462 52.592 62.4622Z" fill="#00A4E2"/>
<path d="M20.3729 67.3091C16.8099 67.1071 11.6389 74.0831 16.9289 75.9811C12.1399 75.8681 10.9679 82.6381 15.3589 84.5071C7.67094 83.0111 8.56494 92.9741 12.2019 96.5791C9.73694 96.1841 7.24594 98.5401 7.61894 101.104C7.99494 103.686 9.01894 107.266 15.4069 109.184C21.7969 111.102 25.7019 107.51 28.8809 104.123C30.9159 108.281 40.9759 102.662 39.8599 97.6871C43.6559 99.0331 47.0569 94.7241 47.1329 91.2831C47.2069 87.9241 44.8549 85.3591 42.6169 83.1781C44.1929 81.7351 44.4919 79.0581 44.0769 77.0131C43.3879 73.6151 39.1339 73.2781 39.1339 70.5741C39.1339 69.6281 39.3159 66.6881 38.5089 65.3971C37.2259 63.3421 34.9909 61.3091 32.1809 62.3131C20.3729 56.7131 20.3729 67.3091 20.3729 67.3091Z" fill="#00396A"/>
<path d="M27.2579 176.589C24.0109 176.023 23.487 176.185 20.279 175.401L12.851 184.479H41.665L24.932 179.977L27.2579 176.589Z" fill="#002E4F"/>
<path d="M80.909 179.191L79.206 176.955C77.669 177.949 76.069 178.799 74.333 179.402L78.883 184.48H95.767L80.909 179.191Z" fill="#002E4F"/>
<path d="M17.2271 176.618C20.4551 177.409 23.6821 178.231 26.9501 178.786L50.744 149.513L46.692 137.882L30.0331 118.673L34.8321 145.896L17.2271 176.618Z" fill="#002E4F"/>
<path d="M49.588 110.612C43.06 108.88 34.209 111.071 27.858 113.467C27.858 113.467 31.754 128.977 34.311 133.604C41.759 147.075 73.974 180.696 73.974 180.696C75.743 180.094 79.152 177.598 80.712 176.589L49.588 110.612Z" fill="#00396A"/>
<path d="M26.994 119.534C33.298 117.167 45.943 113.175 52.432 114.796C52.432 114.796 43.838 94.6101 39.938 90.1571C37.305 87.1531 22.932 78.695 22.932 89.753C22.932 104.904 26.994 119.534 26.994 119.534Z" fill="#CDE5E8"/>
<path d="M32.597 88.81C32.513 88.839 32.429 88.865 32.341 88.89C30.421 89.408 28.445 88.271 27.926 86.351C27.384 84.343 27.359 81.835 27.357 81.556C27.348 79.566 28.955 77.947 30.944 77.939C32.932 77.93 34.55 79.534 34.561 81.521C34.566 82.222 34.657 83.642 34.88 84.472C35.376 86.308 34.362 88.193 32.597 88.81Z" fill="#00A4E2"/>
<path d="M35 85.249C34.987 84.991 34.951 84.731 34.881 84.472C34.657 83.642 34.567 82.222 34.562 81.521C34.551 79.535 32.933 77.931 30.945 77.939C28.956 77.947 27.3489 79.565 27.3579 81.556C27.3579 81.601 27.36 81.71 27.363 81.861C29.137 83.865 32.062 84.808 35 85.249Z" fill="#0086CF"/>
<path d="M38.5219 74.451C39.6839 78.028 37.7259 81.869 34.1489 83.033C30.5719 84.193 26.73 82.236 25.568 78.659L24.1079 74.163C22.9459 70.586 24.9039 66.744 28.4799 65.583C32.0569 64.42 35.8989 66.378 37.0609 69.955L38.5219 74.451Z" fill="#00A4E2"/>
<path d="M78.6311 70.8368C78.4881 70.7168 78.323 70.6438 78.153 70.6058C78.317 70.4268 78.493 70.2338 78.698 70.0118C79.119 69.5538 79.0901 68.8418 78.6331 68.4208C78.5761 68.3688 78.517 68.3238 78.453 68.2858C78.767 67.8348 78.715 67.2118 78.302 66.8248C77.982 66.5258 77.536 66.4538 77.151 66.5928C77.664 66.0748 77.9831 65.7148 78.0211 65.6708C78.4321 65.2048 78.387 64.4928 77.92 64.0818C77.454 63.6708 76.742 63.7158 76.332 64.1828C76.306 64.2118 73.8581 66.9708 71.3421 68.4058C70.2501 66.7548 68.785 66.1758 68.701 66.1438C68.124 65.9248 67.4861 66.2148 67.2601 66.7888C67.0351 67.3628 67.3221 68.0138 67.8931 68.2448C67.9431 68.2648 68.803 68.6298 69.472 69.6588C69.379 69.9138 69.2721 70.2758 69.2101 70.6998C52.6461 93.1198 30.682 85.1618 29.687 84.7838C27.719 84.0298 25.51 85.0068 24.747 86.9738C23.982 88.9448 24.9611 91.1618 26.9321 91.9248C27.2001 92.0288 32.577 94.0738 40.245 94.0738C41.787 94.0738 43.4231 93.9918 45.1271 93.7928C53.3961 92.8338 65.6251 88.0698 75.3981 75.4768C75.5581 75.3848 75.785 75.2448 76.084 75.0268C76.285 74.8968 76.4881 74.7548 76.6951 74.5828L76.6691 74.5628C77.2471 74.0768 77.9601 73.3878 78.7701 72.4218C79.1701 71.9448 79.1071 71.2348 78.6311 70.8368Z" fill="#00A4E2"/>
<path d="M48.138 84.843L47.205 85.044C44.931 85.534 42.576 85.784 40.206 85.784C34.399 85.784 30.366 84.319 29.929 84.153C29.41 83.954 28.867 83.854 28.317 83.854C26.443 83.854 24.796 84.981 24.118 86.729C23.683 87.85 23.606 89.125 24.196 90.172C26.394 94.072 32.43 95.649 40.246 95.649C41.908 95.649 43.576 95.553 45.205 95.366C46.201 95.251 47.247 95.079 48.313 94.854L48.968 94.682C48.968 94.682 48.031 91.84 47.831 88.953C47.755 87.855 48.138 84.843 48.138 84.843Z" fill="#E1F3F6"/>
<path d="M23.956 77.7768C26.32 76.2748 27.137 73.4608 26.877 70.6468C28.95 72.0408 30.59 71.1908 31.885 68.7958C35.813 74.2998 41.799 66.1108 33.636 63.1458C27.107 60.7738 20.707 67.2308 22.38 73.7248L23.956 77.7768Z" fill="#00396A"/>
</svg>
