<svg width="1743" height="910" viewBox="0 0 1743 910" fill="none" xmlns="http://www.w3.org/2000/svg">
<path d="M0 760.396H359.94C360.29 760.396 360.58 760.666 360.59 761.016C360.85 768.996 364.36 850.866 400.31 857.316C438.11 864.106 849.7 906.386 875.5 906.746C901.31 907.106 898.28 897.056 901.67 890.266C905.06 883.476 1096.98 834.536 1095.77 829.926C1094.56 825.326 911.39 800.536 921.32 805.146C931.26 809.746 1095.04 823.396 1099.16 833.566C1103.28 843.736 1075.9 848.826 1045.85 857.556C1015.8 866.276 904.82 904.806 903.36 901.896C901.91 898.986 895.12 869.186 896.09 868.696C897.06 868.216 939.22 853.916 940.19 852.216C941.16 850.516 894.88 844.466 895.36 846.156C895.84 847.856 900.45 866.996 897.06 865.546C893.67 864.096 837.93 541.806 831.15 514.176C824.36 486.556 822.43 487.036 781.23 483.646C740.04 480.256 338.26 464.746 310.64 468.136C283.89 471.426 354.41 740.626 358.88 757.596C358.99 758.016 359.46 758.216 359.84 757.996C368.97 752.586 461.38 700.186 541.33 748.266C692.05 838.896 555.87 580.096 731.31 601.416C822.42 612.486 875.73 494.316 662.03 485.106C662.02 485.106 662 485.106 661.99 485.106C647.46 485.586 632.94 480.246 644.56 460.876C656.19 441.486 676.06 378.006 705.63 371.216C735.2 364.426 869.68 321.296 862.9 335.356C856.11 349.406 861.69 364.436 834.06 363.466C806.44 362.496 741.49 372.676 767.66 334.876C793.83 297.076 818.79 76.9263 852.59 35.8462C886.39 -5.22375 969.27 0.586249 965.63 7.12625C962 13.6662 922.38 10.0363 898.02 30.3863C873.67 50.7463 869.59 81.7162 866.03 79.6162C862.48 77.5162 853.59 77.9963 852.78 80.2663C851.97 82.5263 839.05 125.986 842.12 127.596C845.19 129.206 853.91 124.526 853.91 133.086C853.91 141.646 849.87 194.636 854.23 194.796C858.59 194.956 865.22 197.376 871.68 216.446C878.14 235.506 877.01 283.486 869.26 283.166C861.51 282.846 846.64 270.886 843.57 262.646C840.5 254.406 833.23 227.426 827.09 227.756C820.95 228.076 818.53 231.956 826.28 248.276C834.03 264.596 855.04 292.866 858.75 289.956C862.47 287.046 864.24 286.236 867.31 289.306C870.38 292.376 892.83 308.856 904.3 312.406C915.77 315.956 938.39 320.156 937.9 321.296C937.42 322.426 933.22 334.386 945.49 338.746C957.77 343.106 973.11 340.036 971.98 329.216C970.85 318.396 942.86 311.506 939.99 317.746C937.13 323.986 941.71 329.406 939.34 329.376C936.97 329.346 909.78 323.396 886.03 311.446C862.28 299.496 860.02 292.056 862.44 290.766C864.86 289.476 870.19 225.336 856.14 205.956C842.09 186.566 829.39 195.596 826.25 212.256C823.11 228.916 829.16 235.676 831.58 226.146C834 216.616 831.58 204.656 844.5 215.326C857.42 225.986 852.25 260.556 848.38 258.946C844.51 257.336 840.54 243.516 839.33 223.406C838.12 203.296 837.63 130.356 842.24 130.596C846.84 130.836 851.93 130.836 853.39 123.806C854.84 116.776 865.51 81.6463 860.42 80.1863C855.32 78.7263 851.21 76.5563 854.36 71.2163C857.51 65.8863 878.11 11.3663 949.59 5.06625C1021.08 -1.23375 1070.02 48.1963 1080.2 93.5163C1090.38 138.826 1085.77 169.846 1110.01 196.256C1134.24 222.666 1155.32 275.256 1136.42 309.666C1117.52 344.076 1084.08 362.006 1084.81 351.106C1085.54 340.206 1114.86 261.936 1116.31 279.616C1117.76 297.306 1104.44 347.706 1077.05 342.136C1049.67 336.566 1033.92 325.176 1046.52 312.326C1059.12 299.486 1080.2 255.376 1083.84 230.176C1087.47 204.976 1073.66 176.136 1075.6 164.996C1077.54 153.846 1092.8 111.196 1053.31 71.9463C1013.81 32.6863 985.94 58.6163 975.04 51.1063C964.14 43.5963 959.29 11.1263 955.9 21.5463C952.51 31.9663 977.47 51.5962 965.11 51.8362C952.75 52.0762 897.74 78.4963 894.11 97.6363C890.48 116.776 908.65 116.296 898.23 127.686C887.81 139.076 873.76 179.896 873.27 200.136C872.79 220.376 881.75 279.856 894.59 292.216C907.43 304.576 978.68 336.316 1001.94 338.016C1025.2 339.716 1040.71 320.326 1034.41 322.746C1028.11 325.166 1004.6 347.466 997.58 360.786C990.55 374.116 963.9 417.516 955.42 429.376C946.94 441.236 944.27 473.946 933.13 465.466C921.98 456.986 904.54 428.636 897.02 413.366C889.51 398.096 864.31 334.126 864.31 326.376C864.31 318.626 870.85 295.606 863.83 302.386C856.81 309.166 828.21 492.366 826.51 491.396C824.81 490.426 767.63 485.576 771.26 480.496C774.89 475.406 787.01 467.656 781.44 461.836C775.87 456.016 735.4 439.296 747.27 427.906C759.14 416.516 839.35 332.436 844.2 341.396C849.05 350.356 817.06 448.016 828.21 447.286C839.36 446.556 880.83 407.766 893.39 418.696C905.96 429.616 913.02 481.696 931.92 476.126C950.82 470.556 956.64 423.566 970.45 429.376C984.26 435.176 998.8 450.446 1004.62 441.966C1010.44 433.486 1008.98 337.036 1029.34 338.976C1049.7 340.916 1060.11 343.826 1062.54 355.216C1064.96 366.606 1081.68 440.756 1071.51 447.296C1061.34 453.836 1033.71 461.836 1043.16 463.046C1052.61 464.256 1080.72 443.176 1082.66 457.476C1084.6 471.766 1052.15 656.056 974.66 729.776C974.61 729.826 974.55 729.866 974.49 729.896C972.43 730.876 937.57 747.266 939.69 738.086C941.87 728.636 976.16 592.696 987.79 538.536C999.42 484.376 1021.19 351.596 1030.32 345.886C1039.45 340.176 1164.08 353.516 1189.89 362.606C1215.7 371.696 1242.96 420.916 1236.78 429.376C1230.6 437.846 1166.63 517.086 1169.54 500.366C1172.45 483.646 1226.2 420.036 1237.67 438.206C1249.14 456.376 1266.23 485.096 1291.67 517.086C1317.11 549.076 1341.47 577.056 1330.56 586.146C1319.66 595.236 1260.77 636.306 1268.77 619.586C1276.77 602.866 1317.48 562.516 1352.73 598.506C1387.99 634.486 1421.43 667.566 1422.52 714.456C1423.61 761.346 1396.35 771.886 1362.18 778.796C1328.01 785.706 1293.12 800.606 1289.48 793.336C1285.85 786.066 1263.31 719.916 1229.51 706.826C1195.71 693.736 1101.56 729.366 1106.65 735.176C1111.74 740.996 1154.63 754.436 1158.99 782.796C1163.35 811.146 1105.19 811.146 1099.02 811.516C1092.84 811.876 1055.77 813.456 1051.89 813.936C1048.01 814.416 1057.71 776.856 1058.43 786.066C1059.16 795.276 1040.98 840.346 1030.56 845.676C1020.14 851.006 1012.87 838.646 1015.29 834.046C1017.71 829.446 1041.7 770.316 1037.34 763.286C1032.98 756.256 1014.8 783.396 1013.59 795.516C1012.38 807.636 1004.62 849.066 996.14 850.276C987.66 851.486 980.87 847.366 980.87 839.856C980.87 832.346 989.11 797.446 987.41 786.546C985.71 775.646 1000.5 756.736 996.13 757.466C991.77 758.196 971.9 783.876 969.23 798.656C966.56 813.436 964.63 844.696 957.36 848.576C950.09 852.456 932.4 851.726 935.79 838.636C939.18 825.546 945.97 801.556 944.76 788.236C943.55 774.906 963.18 760.856 958.57 760.366C953.96 759.876 936.28 771.996 932.88 779.026C929.49 786.056 923.67 808.836 913.25 812.226C902.83 815.616 894.11 809.316 895.8 803.746C897.5 798.176 903.8 762.066 912.28 754.796C920.76 747.526 944.02 737.596 958.32 730.806C972.62 724.016 970.92 737.836 984.73 730.566C998.54 723.296 1006.54 725.476 1013.08 732.986C1019.62 740.496 1030.28 727.896 1039.49 741.706C1048.7 755.516 1095.22 729.106 1122.36 736.136C1149.5 743.166 1141.02 803.746 1155.07 808.106C1169.12 812.466 1268.48 804.716 1275.75 793.086C1283.02 781.456 1272.36 728.626 1253.7 715.546C1235.04 702.456 1187.79 704.396 1198.69 696.886C1209.59 689.376 1322.27 634.606 1362.74 653.506C1403.21 672.406 1288.83 659.806 1252.48 676.766C1216.13 693.726 1222.92 627.086 1188.99 601.166C1155.06 575.236 1149.73 442.926 1158.46 450.196C1167.18 457.466 1164.03 616.426 1160.88 643.816C1157.73 671.196 1151.67 719.176 1166.94 719.906C1182.21 720.636 1235.64 688.646 1279.26 693.736C1322.88 698.826 1324.51 764.976 1437.38 758.436C1550.24 751.896 1741.98 758.436 1741.98 758.436" stroke="#B6BFDA" stroke-width="5" stroke-miterlimit="10"/>
</svg>
