<svg width="1886" height="479" viewBox="0 0 1886 479" fill="none" xmlns="http://www.w3.org/2000/svg">
<path d="M560.56 2.72514C576.74 -2.53486 594.39 0.395143 609.84 6.61514C623.1 11.8051 636.34 19.3851 644.08 31.7651C648.41 38.3351 649.46 47.4451 645.12 54.2751C643.19 57.3151 639.67 58.9651 637.85 62.0151C637.78 71.3851 637.79 81.0751 633.72 89.7551C628.43 100.095 629.57 112.385 623.82 122.565C618.15 133.125 612.17 143.705 604.4 152.885C598.88 159.245 589.81 158.625 582.29 157.325C576.26 167.195 589.51 172.865 595.68 178.025C618.13 194.135 623.52 222.545 633.84 246.415C636.13 253.265 642.2 259.855 639.11 267.425C643.95 276.165 646.81 285.845 651.77 294.505C653.45 297.925 657.59 298.285 660.92 298.795C683.72 301.345 706.62 305.735 729.64 303.705C740.52 302.845 750.65 297.575 761.65 297.835C771.7 299.005 780.39 292.795 789.36 289.305C774.37 271.975 758.71 254.955 747.05 235.095C727.47 202.935 718.59 163.755 725.52 126.505C730.09 101.565 744.44 78.5351 765.09 63.7751C787.12 48.0651 814.9 41.3251 841.74 43.3051C853.43 44.0051 864.69 47.4751 876.24 49.1151C911.1 55.5151 940.4 83.0751 950.19 116.975C954.84 105.145 960.32 93.4451 968.67 83.7451C994.84 52.4951 1037.8 38.0351 1077.8 42.2951C1102.82 45.1351 1127.29 56.4251 1144.17 75.3951C1165.07 98.4051 1173.4 130.585 1171.29 161.155C1168.21 211.445 1142.8 257.335 1111.82 295.895C1100.78 308.815 1091.16 323.045 1078.49 334.485C1042.45 370.205 1004.24 404.045 962.57 433.095C1011.72 454.235 1066.11 460.035 1119.16 459.205C1179.61 458.475 1239.66 441.645 1291.74 411.055C1293.26 397.235 1292.61 383.015 1291.49 369.115C1262.34 367.905 1233.68 361.785 1204.67 359.205C1193.09 358.255 1183.44 365.665 1173.16 369.625C1154.87 377.785 1132.75 377.745 1115.03 368.165C1102.22 358.655 1082.42 360.185 1073.81 344.955C1076.89 340.485 1079.21 332.985 1085.96 333.815C1099.75 334.475 1113.95 333.485 1126.45 327.095C1119.98 326.665 1113.09 327.715 1107.02 324.995C1104.36 323.835 1101.8 320.205 1104.38 317.695C1107.91 315.415 1112.32 315.455 1116.35 314.785C1129.01 313.415 1142.03 309.385 1154.63 313.255C1178.92 322.885 1205.61 317.945 1230.85 315.935C1238.22 314.415 1248.53 316.325 1252.85 308.575C1258.77 298.375 1262.8 287.235 1267.85 276.625C1269.37 272.515 1273.74 275.795 1276.13 277.195C1278.46 279.115 1282.81 280.495 1282.23 284.175C1278.02 282.695 1274.36 280.075 1270.64 277.705C1265.02 288.885 1260.87 300.825 1254.31 311.515C1250.91 316.955 1243.85 317.115 1238.19 317.965C1217.45 320.075 1196.61 322.835 1175.71 321.555C1163.36 321.045 1152.33 313.215 1139.76 314.625C1128.79 315.675 1117.93 317.565 1107.01 318.995C1107.01 319.855 1107.02 321.565 1107.02 322.415C1115.38 324.525 1124.02 323.025 1132.51 323.725C1131.21 325.985 1129.96 328.505 1127.49 329.705C1113.37 337.695 1096.73 336.395 1081.15 337.075C1092.58 341.365 1105.33 338.895 1117.3 339.355C1105.49 346.045 1090.93 339.935 1078.02 341.945C1078.01 342.855 1077.99 344.665 1077.99 345.565C1091.78 344.655 1105.56 346.625 1119.34 345.105C1120.04 345.735 1121.47 347.005 1122.17 347.655C1118.13 348.235 1114.07 348.415 1110 348.455C1110.01 348.625 1110.04 348.955 1110.06 349.115C1126.87 349.985 1144.94 350.955 1159.59 341.025C1151.57 341.035 1142.85 343.345 1135.38 339.475C1131.18 337.145 1133.14 330.615 1137.67 330.145C1148.03 327.635 1158.47 325.275 1168.93 323.165C1182.25 320.405 1194.31 328.545 1207.38 329.185C1232.79 331.115 1258.14 327.015 1283.23 323.445C1279.43 312.695 1278.33 300.815 1281.21 289.715C1287.9 276.455 1292.53 262.195 1296.87 248.005C1291.2 258.525 1289.56 270.765 1283.32 280.965C1277.34 277.905 1266.58 271.735 1271.52 263.765C1279.65 247.895 1284.99 230.185 1296.96 216.595C1292.93 216.915 1287.59 218.985 1284.68 215.065C1279.64 208.825 1282.13 200.355 1284.11 193.425C1287.38 183.335 1288.03 172.365 1285.21 162.085C1279.92 142.105 1267.72 124.665 1262.98 104.495C1259.5 88.8551 1261.7 71.8151 1270.05 58.0251C1285.87 32.2951 1318.87 18.7851 1348.23 24.7651C1373.47 30.7251 1390.41 54.5351 1395.57 78.8951C1400.97 100.025 1398.4 123.345 1409.26 142.905C1416.88 156.915 1433.43 160.945 1444.91 170.725C1450.6 175.795 1454.57 183.565 1453.48 191.305C1452.43 196.455 1445.9 194.645 1442.14 195.045C1458.41 202.205 1469.23 219.225 1469.41 236.935C1470.18 266.915 1462.16 296.155 1456.26 325.305C1497.26 312.345 1541.19 308.205 1583.77 314.675C1648.65 323.685 1706.93 356.865 1771.18 368.455C1804.19 374.455 1838.94 373.075 1870.67 361.675C1875.69 359.795 1880.54 357.305 1885.91 356.515C1884.36 358.225 1882.78 359.965 1880.61 360.825C1851.28 373.525 1818.55 376.915 1786.93 373.645C1743.48 368.535 1702.54 352.295 1661.55 337.885C1623.38 324.715 1583.57 313.935 1542.87 314.545C1513.43 314.755 1483.4 318.765 1455.85 329.185C1451.07 347.265 1448.58 365.995 1448.16 384.695C1447.58 409.055 1453.43 432.975 1460.57 456.085C1461.84 461.305 1464.66 466.585 1463.08 472.055C1456.88 457.085 1453.25 441.075 1449.47 425.325C1442.2 393.775 1445.3 360.945 1452.53 329.705C1416.94 341.255 1383.47 358.725 1351.81 378.545C1333.12 390.335 1314.44 402.115 1294.99 412.605C1293.62 430.735 1291.79 448.885 1288.31 466.745C1288.08 469.005 1286.68 470.785 1285.01 472.215C1287.05 453.015 1291.57 434.015 1291.59 414.585C1266.1 428.915 1239.1 440.645 1210.99 448.755C1173.16 459.635 1133.51 463.095 1094.27 461.945C1048.13 460.605 1001.53 453.515 959.05 434.815C944.63 444.905 928.27 451.725 911.73 457.445C857.7 475.055 800.3 479.915 743.74 478.075C635.51 473.685 529.09 445.665 430.11 402.345C427.24 420.305 423.47 438.155 422.26 456.345C421.58 456.285 420.22 456.205 419.54 456.165C420.09 437.535 425.68 419.215 426.84 400.875C403.87 390.175 380.76 379.565 356.9 370.985C335.37 363.335 311.45 359.625 289.19 366.415C268.86 371.865 250.91 384.065 230.08 387.955C196.75 394.445 161.69 381.205 137.58 358.075C115.77 372.925 90.19 381.125 64.42 385.785C43.24 390.045 21.61 392.035 0 391.955C0.03 391.265 0.1 389.915 0.14 389.225C29.34 388.865 58.63 385.495 86.84 377.825C103.95 372.995 120.75 366.285 135.32 355.965C118.87 337.875 113 311.345 119.78 287.925C121.71 281.645 124.42 273.905 131.54 272.085C136.43 271.115 140.11 267.285 144.82 266.105C152.25 265.425 152.71 278.305 145.88 279.255C141.34 280.125 138.55 275.635 135.07 273.635C130.02 274.335 126.33 278.415 124.51 282.935C114.92 306.715 120.29 335.535 137.84 354.255C155.99 340.665 167.2 318.785 168.89 296.315C169.46 290.655 167.92 284.995 164.64 280.375C161.22 280.995 157.66 282.555 154.18 281.495C148.36 278.835 150.77 268.275 157.2 268.345C159.5 268.415 160.83 270.455 161.99 272.155C165.76 278.555 172.19 284.035 171.68 292.165C171.61 316.735 159.7 341.175 140.06 356.055C163.34 379.075 198.07 391.625 230.55 384.915C252.69 380.415 271.69 366.865 293.81 362.295C317.11 356.805 341.36 362.085 363.37 370.235C385.4 378.525 406.64 388.705 428.13 398.225C436.94 346.495 427.01 294.395 426.13 242.505C426.38 218.315 428.95 192.025 444.55 172.405C459.44 154.145 482.95 147.285 504.16 139.485C508.42 133.885 511.81 126.455 519.18 124.385C522.71 123.125 528.55 122.305 527.78 117.225C524.5 92.1051 513.26 66.8051 520.92 41.3451C525.9 22.1451 543.4 10.1551 560.57 2.68514M561.69 5.50514C545.98 12.7351 529.33 23.2251 524.18 40.8751C516.44 64.4651 525.82 88.4751 529.77 111.755C533 108.455 535.11 103.375 532.42 99.0851C527.41 90.2951 525.12 79.1051 529.4 69.5751C532.13 63.3951 540.88 62.2051 545.74 66.5651C552.46 71.6451 552.59 80.7251 553.98 88.2751C555.42 83.0551 556.26 77.5951 558.81 72.7651C562.48 66.0051 571.49 64.0251 574.31 56.5851C577.03 50.7051 575.76 43.4051 579.76 38.0951C584.02 36.8251 588.05 39.6451 591.96 41.0051C605.28 46.3551 618.73 52.6951 633.34 53.0851C636.35 52.5651 637.14 55.8351 638.63 57.7051C650 48.3251 643.98 31.7151 633.91 23.9451C614.28 7.86514 586.76 -1.46486 561.7 5.49514M1313.38 29.4051C1287.5 36.6051 1264.32 59.9751 1264.3 87.9251C1262.66 122.485 1294.86 149.475 1289.05 184.545C1288.29 194.085 1280.07 206.255 1288.14 214.285C1305.56 215.455 1317.36 197.065 1334.82 197.035C1331.05 206.075 1325.45 214.575 1324.48 224.565C1323.82 230.005 1324.81 237.115 1330.3 239.785C1335.77 242.145 1341.71 239.495 1346.53 236.805C1367.55 224.355 1379.53 201.215 1400.73 189.015C1396 189.295 1391.18 190.275 1387.48 193.405C1373.84 204.075 1363.34 218.165 1349.87 229.035C1345.33 232.435 1340.32 236.145 1334.43 236.295C1329.99 236.105 1327.76 231.285 1327.69 227.395C1326.71 217.335 1332.96 208.805 1335.53 199.505C1337.39 191.005 1333.47 182.725 1330.11 175.135C1322.35 176.035 1314.16 174.845 1308.24 169.365C1296.7 159.265 1287.5 145.975 1283.14 131.205C1280.68 118.455 1275.69 106.395 1273.47 93.5951C1266.49 82.8951 1272.66 67.4651 1283.26 61.6551C1291 59.6251 1299.17 54.6351 1307.19 58.4651C1325.99 66.0251 1338.86 82.7451 1356.38 92.4951C1358.46 89.0351 1360.02 84.6651 1364 82.9451C1369.98 80.0751 1377.26 83.6951 1380.2 89.2551C1384.49 97.1651 1384.06 106.835 1380.99 115.095C1378.3 122.685 1372.78 129.265 1372.14 137.545C1370.15 149.755 1371.71 164.635 1382.48 172.475C1395.69 181.575 1412.62 178.945 1427.2 184.085C1435.38 186.125 1442.16 193.885 1451.09 191.935C1451.12 186.705 1450.41 181.155 1446.91 177.025C1437.48 165.115 1420.87 162.355 1411.23 150.625C1400.01 137.435 1398.59 119.395 1396.71 102.915C1394.25 80.6351 1389.02 56.6851 1371.85 40.8651C1356.7 25.8751 1333.11 22.8851 1313.4 29.3951M580.98 40.2951C579.28 46.6751 578.94 53.5051 575.9 59.4651C572.64 65.7551 565.34 68.2451 561.37 73.9051C558.18 79.6151 557.48 86.2551 555.77 92.4851C544.74 94.5051 548.92 81.6551 545.23 75.5051C543.23 70.9551 535.73 71.0351 534.53 76.0951C531.8 85.8651 535.4 97.1651 543.94 102.895C547.09 109.325 546.02 117.275 549.21 123.855C555.34 137.295 567.81 146.695 580.83 152.965C587.88 156.275 597.83 156.985 603.04 150.105C610.45 140.635 616.76 130.285 622.09 119.505C626.84 110.055 625.8 98.9251 630.59 89.4851C635.64 79.1251 635.19 67.3051 634.34 56.1151C615.29 55.9351 598.72 45.6251 580.98 40.2851M753.85 77.3551C735.29 96.0551 725.97 122.585 726.03 148.695C725.16 176.295 732.64 203.805 746.06 227.845C758.16 250.165 775.36 269.065 791.98 288.055C793.97 287.085 795.94 286.125 797.94 285.155C772.16 247.645 749.57 204.905 748.9 158.335C748.75 127.825 758.96 95.9951 781.69 74.7951C800.18 57.3651 825.36 48.9751 850.34 46.9551C815.88 41.7351 778.42 51.9951 753.86 77.3451M987.58 69.5551C968.89 83.1251 956.51 103.645 950.45 125.695C947.41 119.135 945.9 112.035 942.91 105.475C931.83 81.0751 910.13 61.6151 884.48 53.7251C908.52 66.0051 929.73 85.2651 941.13 110.035C947.12 122.755 947.87 137.495 943.89 150.925C954.56 150.935 965.24 150.885 975.91 151.095C975.98 169.225 976.03 187.365 976.01 205.495C994.6 205.795 1013.2 205.425 1031.79 205.635C1031.96 216.155 1031.69 226.665 1031.8 237.185C1055.65 234.675 1083.18 235.905 1101.8 252.985C1114.19 264.505 1113.89 283.455 1106.92 297.795C1139.45 257.205 1167.54 208.915 1168.67 155.575C1170.51 120.385 1155.68 83.3251 1126.09 63.0351C1085.05 34.4351 1026.58 40.0051 987.57 69.5451M801.2 63.9751C779.63 75.9551 763.87 97.1651 757.01 120.725C750.32 143.525 750.1 168.065 755.66 191.125C763.57 225.045 781.11 255.785 800.56 284.325C824.24 271.775 846.23 256.285 867.19 239.665C867.19 228.375 867.05 217.085 867.05 205.795C878.84 205.655 890.64 206.165 902.39 205.735C910.05 199.345 916.22 191.035 922.15 183.045C922.9 172.435 922.37 161.765 922.3 151.135C928.41 150.815 934.54 150.815 940.67 150.885C945.33 137.295 944.27 121.995 937.8 109.165C923.68 81.3651 897.69 59.8851 867.87 50.9351C845.08 47.7051 821.28 52.8351 801.2 63.9651M1296.61 60.2151C1310.85 75.0051 1328.92 85.7051 1347.54 94.1251C1352.16 96.0851 1355.97 99.4151 1359.38 103.055C1359.27 94.9251 1370.81 91.0051 1375 98.2651C1372.09 98.1551 1369.19 97.0051 1366.32 97.6051C1362.75 99.3851 1362.58 103.985 1361.19 107.255C1359.7 106.885 1358.24 106.485 1356.8 106.095C1355.54 99.8951 1348.63 97.8551 1343.73 95.2351C1334.04 91.3751 1325.28 85.7351 1316.09 80.9251L1315.99 79.9451C1308.07 74.4951 1300.95 68.0051 1293.33 62.1651C1285.89 70.1951 1276.96 78.9151 1276.81 90.6651C1275.91 102.055 1282.28 112.095 1284.28 123.005C1287.3 141.195 1298.15 158.005 1312.86 168.965C1324.45 177.365 1338.74 168.495 1347.4 159.985C1357.03 151.095 1363.59 139.115 1364.89 125.995C1365.59 125.515 1366.99 124.515 1367.69 124.025C1371.13 128.785 1364.85 134.875 1365.56 140.425C1366.66 152.395 1365.15 166.095 1373.47 175.905C1380.45 182.915 1390.91 186.695 1400.78 185.235C1413.71 183.605 1425.8 189.415 1438.07 192.455C1420.4 180.695 1396.78 186.695 1379.55 173.985C1368.8 164.835 1367.64 149.345 1369.24 136.235C1368.76 129.145 1374.59 124.065 1376.07 117.465C1377.91 110.195 1381.87 102.795 1379.56 95.1451C1378.4 90.0551 1374.59 84.7551 1368.95 84.5551C1362.77 84.8551 1361.28 91.7751 1357.87 95.6551C1335.3 87.8851 1322.18 60.4251 1296.61 60.2251M1273.1 88.5151C1276.37 78.6351 1282.51 70.4751 1289.04 62.5251C1278 65.4651 1271.33 77.4951 1273.1 88.5151ZM532.31 69.9651C528.5 76.7551 529.29 85.1751 531.98 92.2251C531.88 86.0051 530.19 79.2651 533.29 73.4851C535.4 68.9451 542.59 68.5951 545.49 72.4751C549.77 77.2051 549.62 84.0451 551.71 89.7851C551.32 83.0351 550.33 75.8051 546.08 70.3251C542.88 66.2551 535.25 64.9751 532.31 69.9651ZM537.18 102.055C536.67 105.065 536.6 108.345 534.83 110.975C529.67 117.535 529.41 126.295 524.88 133.255C533.08 150.135 546 164.265 560.09 176.455C564.88 180.305 567.17 186.105 569.27 191.695C567.88 178.685 574.62 166.965 580.02 155.655C560.39 147.205 541.72 129.295 543.14 106.275C541.11 104.925 539.12 103.515 537.18 102.065M522.07 125.725C519.92 127.615 523.24 130.745 524.94 128.375C527.08 126.425 523.81 123.425 522.07 125.725ZM508.53 137.705C513.44 136.465 524.33 134.245 519.14 127.095C515.07 130.045 511.37 133.525 508.53 137.705ZM506.89 142.055C511.27 153.965 519.17 164.045 525.91 174.665C530.81 182.065 534.69 190.165 540.48 196.965C546.97 190.895 556.03 180.745 565.57 186.945C550.53 170.605 532.32 156.445 522.73 135.765C517.55 138.135 512.23 140.115 506.89 142.045M449.93 170.895C436.35 184.735 431.73 204.475 429.86 223.165C426.12 273.875 438.64 324.345 433.61 375.025C432.88 383.125 431.75 391.185 430.73 399.275C526.39 441.835 629.4 469.175 734.14 474.865C785.72 477.125 837.97 474.495 888.09 461.405C911.88 455.185 935.47 446.885 956.19 433.385C912.14 403.245 870.68 369.195 833.06 331.295C818.57 318.925 805.58 304.925 791.78 291.835C785.02 292.815 779.06 297.095 772.68 299.545C780.26 300.915 788.01 301.285 795.56 302.855C799.27 303.485 800.03 308.895 796.87 310.795C791.09 314.935 783.54 313.945 776.86 313.725C786.82 318.695 797.59 322.285 808.75 323.105C814.33 323.725 820.33 323.585 825.38 326.435C827.8 329.235 829.34 332.755 830.6 336.235C827.08 340.695 822.47 344.215 817.48 346.835C817.83 349.205 818.28 351.585 818.27 353.995C802.05 362.125 784.35 369.545 765.73 366.585C744.9 365.105 728.62 345.555 706.88 349.675C674.05 354.575 641.35 361.145 608.06 362.065C605.89 390.325 607.62 418.635 610.16 446.775C608.57 445.315 607.28 443.535 607.25 441.325C603.83 415.075 603.52 388.525 605 362.135C592.8 362.075 580.54 362.255 568.39 361.185C561.27 360.725 556.3 355.185 551.3 350.775C533.25 334.375 513.62 319.455 498.07 300.535C495.13 303.955 491.36 308.515 486.24 306.825C481.31 304.745 478.28 299.975 474.96 296.005C461.46 277.855 449.69 258.255 441.3 237.195C438.57 230.105 435.81 222.825 435.7 215.115C440.13 218.165 439.69 224.075 441.43 228.645C447.6 247.635 457.58 265.135 468.44 281.805C473.56 289.025 478.17 296.805 484.82 302.745C487.33 305.295 491.96 304.475 493.69 301.445C494.57 297.205 493.69 291.965 497.95 289.295C514.64 275.945 534.94 268.515 553.79 258.895C550.44 250.585 545.72 242.955 541.37 235.155C528.77 212.725 514.98 187.495 489.39 178.055C482.83 174.615 471.42 175.075 470.5 165.735C481.75 159.265 495.08 165.675 504.42 172.675C527.96 191.265 539.97 219.655 555.47 244.495C558.45 250.605 565.13 257.445 560.52 264.415C568.64 275.425 574.27 288.055 582.38 299.055C587.76 306.795 598.31 304.675 606.44 305.765C607.38 296.945 607.7 288.055 608.52 279.225C609.97 276.875 611.23 281.075 610.77 282.215C610.45 290.275 609.46 298.275 609.03 306.335C613.87 307.285 618.76 308.065 623.66 308.755C619.96 306.765 614.66 305.915 613.17 301.425C611.53 295.755 612.05 289.695 612.98 283.935C614.24 274.885 625.01 273.235 631.54 269.115C626.06 271.005 620.91 273.905 615.16 274.935C614.17 262.945 615.3 250.875 614.59 238.855C614.31 238.845 613.73 238.815 613.44 238.795C612.25 250.715 611.98 262.715 611.4 274.675C612.64 277.145 607.26 278.025 608.86 274.965C609.44 261.675 609.91 248.375 611.23 235.135C611.71 232.745 611.51 228.605 615.04 229.035C619.33 242.795 616.81 257.465 617.73 271.635C624.47 268.685 631.34 266.055 638.11 263.185C630.33 245.215 623.27 226.945 616 208.765C610.22 194.195 598.71 182.865 585.58 174.685C588.2 181.255 590.19 188.095 590.7 195.175C585.79 193.175 582.25 189.135 578.24 185.835C575.91 190.625 574.4 195.785 571.97 200.535C565.91 200.165 567.07 188.015 560.03 187.685C551.82 188.365 547.19 196.135 540.78 200.215C535.11 197.965 533.01 190.895 529.48 186.225C521.27 171.715 510.1 158.815 504.14 143.105C484.72 148.985 464.56 156.205 449.91 170.845M1332.26 173.685C1336.68 181.495 1340.24 190.595 1338.69 199.685C1336.12 209.675 1328.2 218.865 1330.62 229.705C1332.21 235.765 1339.44 232.785 1343.04 230.395C1360.98 218.475 1372.64 199.165 1391.1 187.805C1383.69 185.855 1375.7 183.555 1370.83 177.195C1363.43 167.925 1363.38 155.455 1363.24 144.185C1356.17 156.795 1345.81 168.045 1332.27 173.695M925.08 153.465C925.33 161.755 924.79 170.065 925.33 178.365C931.54 171.065 935.58 162.215 939.78 153.675C934.88 153.675 929.98 153.605 925.08 153.465ZM929.16 178.175C921.79 186.565 926.69 198.535 925.03 208.575C918.17 208.805 911.27 208.105 904.45 208.805C892.99 219.345 882.45 231.105 869.92 240.495C869.82 245.175 869.74 249.855 869.67 254.535C888.07 254.635 906.48 254.435 924.89 254.645C925.22 272.955 925.17 291.285 925.08 309.615C934.23 309.545 943.38 309.625 952.53 309.495C952.61 292.345 960.58 275.945 973.22 264.535C973.33 261.345 973.41 258.185 973.5 255.015C978.81 254.505 984.76 255.635 989.33 252.215C1001.46 244.545 1015.4 240.565 1029.26 237.365C1029.12 227.675 1029.26 218.005 1029.22 208.315C1010.66 208.195 992.07 208.685 973.52 207.995C973.51 189.885 973.27 171.785 973.31 153.675C963.04 153.605 952.76 153.615 942.49 153.575C938.81 162.155 934.51 170.505 929.16 178.185M473.63 168.015C479.61 173.065 487.98 173.215 494.68 176.975C517.22 187.965 531.14 210.015 542.54 231.405C546.91 239.875 552.46 247.775 556.13 256.605C557.55 260.485 552.42 262.375 549.84 264.085C532.74 272.205 514.81 279.365 499.87 291.215C496.72 292.955 497.47 296.435 497.72 299.415C515.14 282.565 536.75 270.525 559.12 261.585C559.71 256.035 555.57 251.445 553.38 246.655C541.5 226.585 530.64 205.705 515.8 187.585C508.33 178.775 499.16 170.705 487.89 167.335C483.25 166.165 477.83 164.935 473.63 168.015ZM577.55 167.305C574.17 174.455 572.29 182.275 571.92 190.175C574 187.465 576.02 184.725 578.13 182.045C581.03 184.035 583.83 186.175 586.55 188.425C584.4 181.225 582.98 173.655 579.06 167.145C578.69 167.185 577.93 167.265 577.56 167.315M907.34 205.765C912.49 205.945 917.65 205.865 922.8 205.575C922.76 199.485 922.69 193.415 922.65 187.345C917.54 193.475 912.4 199.585 907.34 205.765ZM1401.84 188.235C1417.15 191.275 1433.29 194.035 1445.66 204.425C1458.8 214.195 1465.6 231.735 1461.95 247.775C1457.77 267.375 1447.11 284.815 1435.7 300.995C1433.64 303.275 1431.84 306.995 1428.34 306.905C1423.88 302.265 1420.9 296.365 1416 292.095C1403.14 279.305 1386.34 271.805 1369.55 265.675C1375.59 252.835 1387.96 244.265 1394.12 231.425C1382.87 241.455 1373.42 253.465 1364.72 265.735C1366.18 267.105 1367.69 268.465 1369.12 269.915C1357.33 285.015 1346.58 300.915 1334.73 315.965C1331.85 320.075 1327.11 322.285 1322.14 322.285C1288.38 324.455 1255.16 332.235 1221.28 332.785C1210.5 333.005 1199.68 331.685 1189.44 328.215C1172.38 321.905 1154.7 329.525 1137.98 333.165C1133.92 333.555 1136.92 337.785 1139.47 338.055C1147.6 340.075 1155.99 337.225 1164.22 338.575C1162.54 344.235 1156.71 346.345 1151.77 348.335C1137.97 354.625 1122.72 351.085 1108.25 352.905C1121.72 359.525 1137.23 359.465 1151.86 358.195C1149.86 362.945 1144.01 361.745 1139.91 362.185C1127.31 362.935 1115.52 358.005 1103.38 355.725C1104.66 357.335 1105.63 359.425 1107.55 360.445C1122.5 365.885 1138.52 367.845 1154.35 366.445C1153.47 368.445 1151.8 369.935 1149.52 369.925C1138.71 371.415 1127.99 368.685 1117.61 365.995C1133.37 373.795 1152.51 374.915 1168.84 368.105C1177.02 364.885 1184.64 360.335 1193.01 357.585C1201.43 354.795 1210.33 356.725 1218.89 357.735C1254.43 362.675 1290.17 367.975 1326.17 366.885C1336.49 366.405 1347.89 366.595 1356.31 359.575C1376.09 344.135 1395.62 328.165 1413.18 310.195C1414.79 308.045 1418.41 305.535 1416.66 302.535C1406.12 285.755 1386.92 278.075 1369.87 270.145C1374.33 268.405 1378.81 270.985 1382.91 272.645C1396.64 279.065 1409.97 287.825 1418.64 300.525C1421.98 304.655 1418.02 309.195 1415.22 312.255C1399.61 328.475 1382.21 342.855 1364.64 356.885C1358.11 362.035 1351.28 367.775 1342.68 368.695C1326.74 370.485 1310.62 370.215 1294.62 369.315C1295.59 382.555 1295.49 395.815 1295.37 409.095C1322.2 394.525 1347.39 377.155 1373.86 361.935C1399.12 347.785 1425.34 335.095 1453 326.365C1459.32 296.915 1467.1 267.255 1466.55 236.905C1466.52 217.875 1452.61 200.125 1434.46 194.885C1423.67 192.355 1413.19 186.965 1401.85 188.235M1390.01 200.105C1375.13 213.695 1363.39 231.395 1345.09 240.815C1338.27 244.695 1327.52 245.015 1323.6 236.975C1318.52 224.805 1324.7 211.815 1330.11 200.875C1322.2 204.225 1314.53 208.135 1307.06 212.375C1297.9 217.505 1292.13 226.765 1287.71 235.985C1282.63 246.865 1277.4 257.685 1272.71 268.705C1275.7 271.745 1278.88 274.615 1282.26 277.245C1285.9 268.745 1288.62 259.885 1292.16 251.345C1294.02 247.095 1295.27 241.575 1300.47 240.295C1299.67 261.835 1284.82 280.205 1283.76 301.825C1283.21 309.055 1285.29 316.095 1287.47 322.895C1299.46 321.435 1311.47 320.055 1323.53 319.165C1326.93 319.105 1330.15 317.575 1332.16 314.795C1343.39 300.605 1353.37 285.465 1364.76 271.395C1358.27 264.245 1367.67 257.775 1371.58 252.115C1380 243.035 1386.4 230.695 1398.29 225.805C1398.17 228.975 1397.79 232.275 1395.81 234.885C1388.84 245.155 1380.17 254.115 1372.72 263.995C1395.04 271.285 1416.36 284.085 1429.65 303.895C1442.46 287.415 1453.98 269.105 1458.91 248.605C1462.31 235.035 1458.04 220.165 1447.94 210.515C1436.55 199.215 1420.42 194.325 1404.84 192.645C1398.86 192.075 1394.23 196.535 1390.03 200.115M869.72 208.525C869.79 218.065 869.68 227.615 870.01 237.145C880.42 228.115 890.82 218.985 899.99 208.675C889.9 208.525 879.81 208.615 869.72 208.525ZM1031.86 239.865C1031.65 245.685 1031.64 251.525 1031.71 257.355C1017.58 257.395 1003.44 257.295 989.33 257.475C983.69 257.105 980.12 262.195 975.94 265.105C975.93 280.855 976.24 296.615 975.79 312.365C968.93 312.255 962.09 312.245 955.24 312.245C956.01 337.925 970.64 360.245 974.73 385.255C977.63 399.245 975.6 414.215 967.87 426.365C1004.15 399.245 1039.03 370.055 1070.8 337.735C1084.28 323.505 1098.57 309.135 1106.59 290.965C1112.57 277.435 1108.32 260.385 1096.21 251.725C1077.79 238.335 1053.67 237.645 1031.87 239.865M990.51 254.325C1003.39 254.755 1016.26 254.435 1029.15 254.545C1029.14 249.755 1029.12 244.965 1029.11 240.175C1015.7 243.155 1002.49 247.515 990.51 254.325ZM802.61 286.535C813.79 303.745 827.74 318.885 840.58 334.825C870.85 365.105 904.02 392.375 938.58 417.595C945.2 422.355 951.59 427.545 958.88 431.295C967.34 423.635 972.96 412.845 973.04 401.295C974.27 370.135 953.46 343.485 952.57 312.635C942.59 312.115 932.59 312.515 922.61 312.135C922.4 293.905 922.54 275.675 922.26 257.425C903.99 257.175 885.69 257.525 867.41 257.065C867.3 252.525 867.16 247.995 866.93 243.475C846.7 259.535 825.33 274.195 802.6 286.535M975.47 257.295C975.64 258.535 975.97 261.005 976.13 262.245C978.05 260.725 979.94 259.195 981.84 257.665C979.7 257.525 977.58 257.405 975.46 257.295M501.23 300.345C518.18 319.285 538.27 334.935 556.9 352.085C560.21 355.075 564.04 357.925 568.66 358.245C608.67 361.615 648.83 356.695 688.18 349.555C699.04 348.035 710.08 344.955 721.1 346.935C734.09 350.125 745.17 358.215 757.88 362.135C762.5 364.265 766.59 359.925 771.25 360.315C786.46 360.595 803.72 360.495 816.41 351.095C800.68 353.625 784.72 359.265 768.64 355.825C768.1 355.245 767.01 354.075 766.46 353.475C782.26 353.685 799.4 354.595 813.54 346.285C805.99 344.315 798.25 346.005 790.6 345.925C778.63 345.995 767 341.825 756.77 335.835C754.6 334.755 753.47 332.595 752.42 330.565C761.93 329.125 774.2 335.835 781.78 328.065C773.61 320.725 760.26 321.715 750.13 317.385C736.31 311.565 723.05 321.065 709.24 321.535C669.05 324.705 630.31 310.525 590.59 307.385C586.02 306.995 582.25 303.985 579.63 300.415C571.45 289.405 566.27 276.375 557.24 265.955C536.73 273.685 516.75 284.695 501.22 300.345M138.64 272.865C140.9 274.395 142.99 277.405 146.09 276.175C147.75 274.075 148.19 270.625 145.95 268.765C143.16 269.395 140.9 271.225 138.64 272.865ZM616.67 281.265C615 288.935 611.74 301.935 621.93 304.825C660.39 316.625 702.46 317.565 740.91 305.005C712.51 310.245 683.52 304.455 655.33 300.565C644.41 294.645 643.61 279.835 637.42 269.965C630.38 273.305 621.96 275.305 616.68 281.265M955.04 309.585C961.1 309.145 967.41 310.345 973.31 308.755C973.52 295.475 973.57 282.175 973.1 268.915C961.76 279.195 955.42 294.365 955.03 309.585M155.85 270.705C151.71 275.285 154.86 280.825 160.93 279.095C161.28 275.245 159.32 272.295 155.85 270.705ZM794.21 289.935C802.82 298.905 811.41 307.975 820.87 316.065C814.29 306.365 806.49 297.545 799.97 287.785C798.04 288.485 796.11 289.205 794.2 289.935M744.17 306.385C721.63 315.025 697.25 317.275 673.3 317.715C691.31 319.815 710.07 320.515 727.53 314.805C734.28 312.565 741.63 310.965 748.56 313.505C758.91 316.955 769.58 319.245 780 322.425C784.5 323.285 785.99 329.325 782.21 332.035C775.47 335.985 767.25 334.285 759.85 334.205C772.42 341.985 787.62 344.435 802.14 342.185C808.94 340.435 817.03 347.025 822.36 340.625C809.3 336.075 793.35 344.075 781.78 334.925C797.2 336.185 812.65 336.515 828.1 337.355C826.73 335.825 825.97 332.925 823.56 332.935C813.55 332.725 803.47 333.655 793.54 331.965C791.25 331.905 790.09 329.775 788.7 328.335C800.71 329.125 812.8 331.535 824.82 329.305C818.39 325.995 810.95 326.685 804.01 325.595C793.52 324.365 783.42 320.705 774.31 315.455C772.43 314.445 771.85 312.265 770.87 310.545C779.15 310.555 788.27 312.915 795.84 308.435C795.88 307.915 795.98 306.845 796.02 306.325C788.07 303.715 779.51 303.885 771.37 302.035C762.07 299.815 752.81 303.225 744.18 306.415M1081.23 348.715C1082.8 354.095 1088.74 352.045 1092.86 352.045C1097.8 351.535 1103.61 353.455 1107.41 349.215C1098.72 348.385 1089.94 347.735 1081.23 348.715ZM1091.8 354.345C1093.79 357.575 1097.57 357.965 1100.96 358.605C1100.99 357.485 1101.06 355.275 1101.1 354.175C1097.98 354.135 1094.88 354.165 1091.8 354.345Z" fill="#B6BFDA"/>
<path d="M1360.67 94.8652C1362.93 92.3852 1365.06 88.6852 1368.95 88.9852C1376.15 89.5052 1380.39 97.9852 1379.01 104.555C1377.38 111.935 1374.07 119.545 1367.68 124.005C1366.98 124.505 1365.58 125.495 1364.88 125.975C1364.96 125.425 1365.11 124.315 1365.2 123.765C1372.1 117.305 1375.61 108.335 1374.38 98.8552C1375.43 100.665 1376.49 102.475 1377.54 104.305C1375.65 100.065 1375.17 94.3952 1370.93 91.7752C1367.37 91.4152 1364.06 93.9652 1360.68 94.8652H1360.67Z" fill="#B6BFDA"/>
<path d="M522.07 125.725C523.81 123.425 527.08 126.425 524.94 128.375C523.24 130.745 519.92 127.615 522.07 125.725Z" fill="#B6BFDA"/>
</svg>
