<svg width="59" height="45" viewBox="0 0 59 45" fill="none" xmlns="http://www.w3.org/2000/svg">
<path d="M5.2379 41.1209C1.82979 37.5214 0 33.4843 0 26.9401C0 15.4244 8.12983 5.10309 19.9523 0L22.9071 4.53389C11.8721 10.4694 9.71477 18.1717 8.85447 23.0281C10.6313 22.1134 12.9574 21.7943 15.2372 22.0048C21.2064 22.5543 25.9116 27.4271 25.9116 33.4843C25.9116 36.5385 24.6914 39.4675 22.5196 41.6271C20.3477 43.7867 17.4021 45 14.3306 45C10.7802 45 7.38534 43.3878 5.2379 41.1209ZM38.3263 41.1209C34.9182 37.5214 33.0884 33.4843 33.0884 26.9401C33.0884 15.4244 41.2183 5.10309 53.0408 0L55.9956 4.53389C44.9606 10.4694 42.8032 18.1717 41.9429 23.0281C43.7198 22.1134 46.0459 21.7943 48.3257 22.0048C54.2948 22.5543 59 27.4271 59 33.4843C59 36.5385 57.7799 39.4675 55.608 41.6271C53.4362 43.7867 50.4905 45 47.419 45C43.8687 45 40.4738 43.3878 38.3263 41.1209Z" fill="#EDEDEE"/>
</svg>
