<svg width="1839" height="427" viewBox="0 0 1839 427" fill="none" xmlns="http://www.w3.org/2000/svg">
<path d="M231.54 323.033C230.51 323.033 229.47 322.983 228.42 322.903C227.13 322.793 225.05 322.093 222.63 321.283C219.78 320.333 213.84 318.343 212.67 319.163C212.05 319.603 211.2 319.453 210.76 318.833C210.32 318.213 210.47 317.363 211.09 316.923C218.57 311.663 218.53 310.343 216.03 301.553C213.72 293.443 210.55 282.343 214.21 272.623C217.37 264.233 224.66 258.743 231.72 253.433C233.94 251.763 236.24 250.033 238.34 248.253C252.71 236.093 263.94 210.713 265.05 187.893C265.58 176.863 264.02 161.443 253.51 150.633C245.2 142.093 232.15 137.793 213.61 137.473C194.41 137.143 179.36 140.513 167.59 147.773C153.13 156.683 144.48 172.373 146.06 186.813C146.77 193.263 150.46 199.753 155.46 203.343C157.87 205.073 161.72 206.923 166.37 205.893C174.22 204.163 177.95 196.483 181.9 188.353C183.84 184.353 185.85 180.223 188.42 176.733C196.2 166.193 210.88 161.493 223.34 165.563C235.79 169.633 244.87 182.093 244.92 195.193C244.99 213.623 231.67 224.123 218.78 234.283C211.77 239.803 204.53 245.523 199.63 252.403C191.27 264.173 186.63 277.813 186.56 290.833C186.51 299.663 189.48 310.403 197.95 314.053C198.65 314.353 198.97 315.163 198.67 315.853C198.37 316.553 197.56 316.873 196.87 316.573C187.17 312.393 183.77 300.533 183.82 290.823C183.89 277.253 188.72 263.043 197.4 250.823C202.52 243.613 209.92 237.783 217.08 232.133C230.02 221.933 242.25 212.293 242.18 195.203C242.13 183.253 233.85 171.873 222.49 168.163C211.12 164.453 197.73 168.733 190.63 178.353C188.21 181.633 186.26 185.653 184.37 189.543C180.31 197.903 176.11 206.543 166.96 208.563C162.5 209.543 157.97 208.513 153.86 205.563C148.25 201.543 144.12 194.293 143.33 187.113C141.63 171.633 150.8 154.893 166.14 145.433C178.37 137.893 193.91 134.403 213.65 134.733C232.95 135.063 246.63 139.633 255.47 148.723C264.33 157.833 268.59 171.423 267.79 188.023C266.65 211.533 255.01 237.733 240.12 250.343C237.96 252.173 235.63 253.923 233.38 255.623C226.64 260.703 219.67 265.943 216.79 273.593C213.7 281.803 215.82 290.773 218.68 300.803C221.05 309.103 221.28 312.153 216.15 316.533C218.16 316.933 220.62 317.713 223.52 318.683C225.58 319.373 227.71 320.083 228.67 320.163C234.3 320.643 239.45 319.743 245.36 317.263C267.68 307.883 282.14 288.643 290.34 274.153C294.97 265.963 298.32 256.883 301.55 248.103C305.81 236.533 310.21 224.563 317.66 214.293C331.37 195.373 348.09 185.773 371.85 183.183C400.01 180.103 429.23 183.363 456.35 192.603C466.1 195.923 475.2 200.933 484 205.783C500.98 215.133 517.02 223.973 536.95 221.193C547.11 219.783 556.71 215.753 565.99 211.853C572.96 208.923 580.17 205.903 587.66 203.943C598.87 201.023 611.15 201.523 624.15 205.453C629.42 207.043 634.95 208.833 639.67 211.723L640.03 211.943C641.13 212.613 642.2 213.263 643.25 213.873C643.54 212.363 644.39 210.963 645.65 210.063C649.17 207.533 653.09 210.063 655.95 211.923C656.47 212.263 656.96 212.573 657.4 212.833C657.88 213.113 658.48 213.483 659.19 213.923C660.23 214.563 661.83 215.553 663.61 216.543C666.08 215.783 668.51 214.753 671.01 213.703C675.87 211.653 680.89 209.533 686.48 209.403C689.75 209.323 693.33 210.693 693.92 213.913C694.33 216.113 693.43 217.523 692.61 218.303C690.78 220.053 687.49 220.433 685.19 219.903C684.75 219.803 684.31 219.683 683.87 219.573C682.24 219.143 680.69 218.733 679.34 219.133C678.45 219.393 677.63 220.013 676.76 220.663C676.08 221.173 675.37 221.703 674.56 222.123C671.94 223.483 667.8 221.953 663.27 219.503C660.43 220.283 657.47 220.723 654.32 220.493C651.4 220.273 648.9 219.593 646.56 218.613C646.56 220.473 645.79 222.063 645.11 223.463C644.51 224.703 644.07 225.663 644.03 226.583C644.1 226.523 644.18 226.463 644.26 226.393C646.88 224.303 650.64 223.593 654.33 224.483C657.82 225.323 659.72 227.203 661.55 229.023C662.15 229.623 662.77 230.233 663.46 230.833C663.51 230.803 663.55 230.783 663.6 230.753C664.81 230.043 666.06 229.313 667.4 228.893C668.05 228.683 668.71 228.473 669.38 228.253C672.89 227.103 676.86 225.803 680.6 225.603C683.34 225.453 685.84 226.303 687.45 227.933C689.69 230.183 690.03 234.433 688.16 236.843C687.56 237.613 686.62 238.643 685.29 238.743C683.92 238.853 682.92 237.923 682.05 237.103C681.37 236.473 680.67 235.813 679.83 235.583C678.28 235.153 676.55 235.773 674.72 236.423C674.35 236.553 673.98 236.693 673.61 236.813C669.09 238.323 665.92 236.313 663.18 234.143C660.89 235.323 658.24 236.113 655.38 234.283C655.13 234.123 654.88 233.953 654.62 233.783C653.67 233.133 652.77 232.523 651.91 232.523C651.9 232.523 651.89 232.523 651.88 232.523C651.5 232.523 651.05 232.663 650.57 232.813C650.23 232.913 649.88 233.023 649.5 233.103C647.42 233.533 645.22 232.923 643.63 231.573C643.44 232.163 643.41 232.763 643.52 233.373C644.23 237.073 649.95 240.433 653.59 241.543C655.89 242.243 658.23 242.503 660.71 242.783C661.16 242.833 661.61 242.883 662.07 242.933C665.14 242.113 668.68 242.173 670.04 242.443C671.76 242.783 673.49 243.313 675.15 243.823C677.71 244.603 680.36 245.413 682.97 245.523C684.76 245.593 686.77 245.493 688.16 244.253C689.31 243.233 689.23 242.463 689.11 241.203C689.02 240.253 688.9 239.083 689.43 237.813C690.03 236.383 691.43 235.943 692.45 235.623C692.98 235.453 693.48 235.303 693.77 235.063C694.38 234.583 694.37 233.413 694.1 232.473C693.96 232.003 693.77 231.533 693.57 231.023C693.21 230.113 692.83 229.173 692.7 228.093C692.39 225.563 693.86 224.283 695.04 223.263C695.46 222.903 695.86 222.553 696.18 222.163C697.61 220.433 697.15 217.593 696.74 215.093C694.83 203.293 706.16 198.393 714.43 194.813C715.49 194.353 716.52 193.913 717.5 193.463C723.52 190.713 729.18 186.973 734.31 182.333C744.25 173.373 751.46 161.243 754.62 148.193C763.37 112.073 741.1 75.553 704.98 66.803C668.86 58.053 632.34 80.323 623.59 116.443C620.48 129.273 621.26 143.123 625.79 155.463C628.08 161.703 631.27 167.563 635.27 172.883C636.26 174.193 637.42 175.393 638.65 176.663C640.52 178.593 642.45 180.593 643.78 183.073C645.31 185.933 645 189.083 644.69 192.123C644.36 195.413 644.08 198.253 646.06 200.303C651.68 206.113 678.5 206.753 688.63 199.743C691.97 197.433 692.83 194.673 691.24 191.323C690.03 188.753 686.9 187.363 684.66 186.543C684.22 186.383 683.77 186.223 683.33 186.063C680.69 185.133 677.96 184.163 675.81 182.143C669.59 176.263 672.5 166.043 674.23 159.933C674.57 158.753 674.89 157.563 675.19 156.373C670.33 155.483 665.72 153.693 661.96 150.793C654.67 145.183 651.44 134.563 653.73 123.753C654.75 118.963 656.59 115.153 659.22 112.413C662.55 108.943 667.2 107.343 671.34 108.243C675.69 109.183 679.43 112.873 681.12 117.863C682.64 122.353 682.43 127.113 682.11 131.223C681.52 138.923 680.33 146.593 678.56 154.113C680.44 154.313 682.33 154.373 684.21 154.323C688.14 141.643 693.55 129.463 700.37 117.963C702.97 113.573 706.68 108.513 712.36 108.233C717.58 107.973 721.72 112.173 723.11 116.453C724.34 120.233 724.07 124.743 722.29 129.833C718.59 140.443 710.2 149.413 699.86 153.813C695.97 155.473 691.24 156.583 686.29 156.933C684.67 162.363 683.33 167.893 682.26 173.503C682.12 174.243 681.4 174.733 680.66 174.593C679.92 174.453 679.43 173.733 679.57 172.993C680.59 167.603 681.87 162.283 683.4 157.053C681.57 157.073 679.74 156.983 677.92 156.773C677.59 158.083 677.24 159.383 676.87 160.683C674.75 168.143 673.07 175.783 677.69 180.153C679.41 181.783 681.76 182.603 684.24 183.483C684.7 183.643 685.16 183.803 685.61 183.973C688.31 184.963 692.08 186.683 693.72 190.163C695.88 194.733 694.62 198.943 690.19 202.013C679.56 209.363 651.12 209.493 644.09 202.223C641.22 199.253 641.61 195.333 641.96 191.863C642.23 189.113 642.49 186.503 641.36 184.383C640.22 182.243 638.5 180.473 636.68 178.593C635.45 177.323 634.17 176.003 633.08 174.553C628.92 169.023 625.6 162.923 623.22 156.433C618.44 143.403 617.65 129.363 620.93 115.823C630.04 78.233 668.03 55.053 705.63 64.163C743.22 73.273 766.4 111.273 757.29 148.863C754 162.453 746.49 175.073 736.15 184.393C730.81 189.213 724.91 193.113 718.64 195.973C717.65 196.423 716.6 196.883 715.52 197.343C707.25 200.923 697.88 204.973 699.45 214.663C699.9 217.433 700.51 221.223 698.3 223.913C697.83 224.483 697.31 224.933 696.84 225.343C695.77 226.273 695.3 226.733 695.43 227.773C695.52 228.493 695.81 229.233 696.12 230.013C696.33 230.553 696.56 231.113 696.73 231.703C697.24 233.473 697.18 235.843 695.48 237.203C694.79 237.753 693.98 238.013 693.27 238.233C692.68 238.423 692.07 238.613 691.96 238.873C691.7 239.503 691.76 240.133 691.84 240.933C691.98 242.373 692.17 244.353 689.99 246.303C687.86 248.203 685.06 248.353 682.87 248.263C679.9 248.143 677.08 247.283 674.35 246.453C673.57 246.213 672.81 245.983 672.06 245.773C673.8 246.763 675.24 248.103 675.78 249.883C676.55 252.453 675.26 255.213 671.93 258.103C669.33 260.363 664.89 260.933 662.44 258.173C661.59 257.223 661.17 256.073 660.8 255.053C660.57 254.423 660.35 253.823 660.05 253.313C659.77 252.843 659.39 252.393 658.99 251.923C658.64 251.513 658.29 251.093 657.96 250.623C656.4 248.363 656.87 246.683 657.53 245.663C657.63 245.503 657.75 245.353 657.87 245.213C656.19 244.993 654.49 244.693 652.8 244.173C648.69 242.923 641.82 239.023 640.84 233.893C640.6 232.623 640.66 230.933 641.8 229.103C640.64 226.453 641.76 224.163 642.67 222.293C643.3 220.993 643.9 219.773 643.84 218.483C643.83 218.113 643.7 217.693 643.57 217.243C643.57 217.223 643.56 217.203 643.55 217.183C641.92 216.313 640.32 215.333 638.63 214.303L638.27 214.083C633.82 211.373 628.48 209.643 623.38 208.103C610.87 204.323 599.09 203.823 588.37 206.623C581.08 208.523 573.96 211.513 567.07 214.403C557.63 218.363 547.86 222.463 537.34 223.933C516.51 226.833 499.32 217.363 482.69 208.213C473.99 203.423 465 198.473 455.48 195.223C428.74 186.113 399.92 182.903 372.16 185.933C349.23 188.443 333.11 197.693 319.89 215.933C312.67 225.903 308.33 237.683 304.13 249.083C300.86 257.963 297.48 267.153 292.73 275.543C284.32 290.403 269.46 310.153 246.43 319.833C241.18 322.033 236.48 323.073 231.56 323.073L231.54 323.033ZM662.25 245.693C661.09 246.043 660.16 246.523 659.76 247.133C659.64 247.323 659.31 247.813 660.15 249.033C660.4 249.393 660.7 249.743 661.01 250.113C661.47 250.653 661.95 251.213 662.34 251.883C662.76 252.603 663.04 253.343 663.3 254.063C663.62 254.923 663.92 255.743 664.42 256.303C665.74 257.783 668.49 257.353 670.07 255.983C671.74 254.533 673.63 252.423 673.09 250.623C672.44 248.473 668.22 246.473 662.83 245.763C662.63 245.733 662.44 245.713 662.24 245.693H662.25ZM678.7 232.673C679.3 232.673 679.91 232.743 680.52 232.913C682.01 233.333 683.05 234.293 683.88 235.073C684.23 235.403 684.83 235.963 685.04 235.983C685.04 235.983 685.34 235.923 685.95 235.133C686.99 233.803 686.74 231.133 685.46 229.843C684.39 228.773 682.66 228.213 680.7 228.323C677.33 228.503 673.7 229.693 670.19 230.843C669.51 231.063 668.84 231.283 668.18 231.493C667.38 231.743 666.57 232.173 665.72 232.653C668.01 234.323 669.93 235.113 672.69 234.193C673.04 234.073 673.4 233.953 673.75 233.823C675.28 233.273 676.96 232.683 678.7 232.683V232.673ZM651.86 229.753C653.56 229.753 654.92 230.673 656.11 231.483C656.34 231.643 656.57 231.793 656.8 231.943C658.16 232.813 659.39 232.743 660.82 232.163C660.38 231.753 659.97 231.353 659.57 230.953C657.79 229.193 656.38 227.793 653.64 227.133C650.77 226.443 647.88 226.953 645.92 228.523C645.62 228.763 645.35 228.993 645.11 229.233C646.08 230.193 647.55 230.663 648.88 230.383C649.14 230.333 649.42 230.243 649.71 230.153C650.31 229.973 651 229.763 651.76 229.753C651.79 229.753 651.82 229.753 651.84 229.753H651.86ZM666.96 218.273C669.58 219.503 672.06 220.303 673.27 219.673C673.88 219.353 674.47 218.913 675.09 218.453C676.12 217.683 677.18 216.883 678.55 216.483C680.63 215.873 682.71 216.423 684.55 216.903C684.97 217.013 685.38 217.123 685.79 217.213C687.33 217.573 689.64 217.323 690.7 216.303C691.02 216.003 691.41 215.473 691.21 214.393C690.89 212.653 688.23 212.093 686.53 212.123C681.46 212.243 676.9 214.173 672.06 216.213C670.38 216.923 668.69 217.633 666.96 218.273ZM645.88 215.273C648.52 216.563 651.25 217.493 654.5 217.733C656.31 217.863 658.05 217.753 659.75 217.463C659.08 217.063 658.41 216.653 657.74 216.233C657.06 215.813 656.47 215.453 656.01 215.183C655.51 214.893 655 214.563 654.45 214.203C651.5 212.293 649.09 210.933 647.24 212.263C646.32 212.923 645.78 214.133 645.89 215.263L645.88 215.273ZM712.76 110.913C712.66 110.913 712.56 110.913 712.46 110.913C708.09 111.123 704.95 115.503 702.7 119.303C696.17 130.323 690.96 141.963 687.12 154.083C691.36 153.673 695.39 152.673 698.76 151.243C708.4 147.133 716.22 138.773 719.68 128.883C721.26 124.363 721.53 120.453 720.49 117.253C719.47 114.133 716.45 110.913 712.78 110.913H712.76ZM669.02 110.693C666.28 110.693 663.34 111.993 661.16 114.263C658.89 116.623 657.28 119.983 656.38 124.273C654.68 132.293 656.25 142.913 663.6 148.573C667.06 151.243 671.32 152.873 675.81 153.683C677.58 146.223 678.77 138.603 679.36 130.963C679.65 127.123 679.85 122.693 678.5 118.693C677.42 115.493 674.81 111.753 670.74 110.873C670.19 110.753 669.61 110.693 669.03 110.693H669.02Z" fill="#B6BFDA"/>
<path d="M122.11 426.903C117.33 426.903 112.55 426.703 107.76 426.273C82.9497 424.043 62.3596 410.373 46.5396 385.653C35.2796 368.053 26.3196 344.793 19.1396 314.553C11.5196 282.463 3.97964 248.283 0.419641 215.713C-1.18036 201.033 1.79964 187.533 9.27964 175.603C15.6996 165.363 25.6096 156.013 38.7396 147.803C64.2396 131.863 98.0696 122.703 116.25 117.783C186.67 98.723 258.52 88.483 329.83 87.333C351.67 86.993 366.58 97.713 372.98 118.353C383.38 151.893 392.48 191.143 400.8 238.353C400.93 239.103 400.43 239.813 399.69 239.943C398.94 240.073 398.23 239.573 398.1 238.833C389.8 191.743 380.73 152.603 370.36 119.173C364.36 99.823 350.35 89.743 329.87 90.083C258.79 91.223 187.16 101.433 116.96 120.433C98.9196 125.313 65.3396 134.403 40.1896 150.133C27.4096 158.123 17.7896 167.183 11.5996 177.073C4.44964 188.473 1.60964 201.383 3.14964 215.433C6.68964 247.853 14.2096 281.933 21.8096 313.943C28.9196 343.883 37.7596 366.863 48.8496 384.193C64.1796 408.163 84.0796 421.413 108 423.563C139.39 426.383 170.82 419.003 201.21 411.863C212.32 409.253 223.81 406.553 235.07 404.413L241.33 403.223C263.41 399.013 286.25 394.673 308.91 391.613C311.14 391.313 313.58 390.903 316.17 390.473C327.42 388.603 341.42 386.283 351.31 390.473C357.02 392.893 362.71 399.423 368.21 405.733C372.37 410.503 376.67 415.443 380.69 418.203C381.94 419.063 383.27 419.903 384.58 419.903C384.59 419.903 384.6 419.903 384.62 419.903C385.54 419.893 386.29 419.553 386.92 418.863C388.71 416.913 389.1 412.863 388.9 409.983C388.7 407.163 388.21 403.903 387.69 400.443C386.16 390.263 384.43 378.733 388.71 370.923C391.49 365.853 396.44 362.893 401.22 360.033C405.87 357.253 410.26 354.623 412.92 350.213C420.13 338.263 415.28 323.633 410.58 309.483C408.37 302.823 406.28 296.533 405.36 290.483C402.64 272.533 412.36 254.913 421.15 241.573C433.81 222.343 442.54 205.233 449.49 186.093C455.28 170.123 459.45 153.543 463.48 137.503C470.77 108.483 478.31 78.483 495.71 51.543C501.67 42.313 509.45 35.913 518.32 31.603C521.97 26.423 526.23 21.543 531.31 17.383C562.96 -8.58703 615.53 0.312955 657.76 7.46295C666.53 8.95296 674.82 10.353 682.36 11.343C727.6 17.303 766.59 24.933 801.55 34.673C805.48 35.763 809.51 36.823 813.78 37.943C843.99 45.883 878.23 54.873 895.5 81.283C910.28 103.883 907.94 132.843 903.71 158.183C901.6 170.813 898.55 183.453 895.61 195.673C892.57 208.313 889.42 221.383 887.31 234.413C886.57 239.003 885.57 243.793 884.51 248.853C881.3 264.223 877.67 281.643 881.51 295.743C887.01 315.913 900.25 334.973 919.81 350.873C937.37 365.153 958.96 375.973 980.61 381.353C1004.28 387.233 1030.38 388.343 1058.2 384.653C1081.91 381.503 1107.63 374.753 1134.63 364.593C1159.97 355.053 1184.92 343.343 1209.05 332.023C1231.87 321.313 1255.47 310.243 1279.39 301.003C1304.77 291.203 1327.32 285.053 1348.33 282.203C1373.88 278.743 1397.42 280.313 1418.31 286.863C1430.79 290.783 1442.75 296.603 1454.32 302.243C1468.06 308.933 1482.26 315.853 1497.25 319.483C1551.21 332.563 1598.94 305.663 1645.09 279.643C1651.14 276.233 1657.41 272.703 1663.5 269.373C1717.66 239.803 1775.95 220.303 1836.75 211.413C1837.5 211.303 1838.2 211.823 1838.3 212.573C1838.41 213.323 1837.89 214.023 1837.14 214.123C1776.66 222.963 1718.68 242.363 1664.81 271.773C1658.73 275.093 1652.48 278.613 1646.43 282.023C1623.52 294.943 1599.82 308.293 1575.03 316.753C1546.9 326.353 1521.24 328.113 1496.6 322.133C1481.33 318.433 1466.99 311.443 1453.12 304.693C1441.64 299.103 1429.78 293.323 1417.49 289.463C1396.99 283.033 1373.84 281.493 1348.7 284.903C1327.9 287.723 1305.55 293.823 1280.38 303.543C1256.55 312.753 1232.99 323.803 1210.22 334.493C1186.04 345.843 1161.03 357.573 1135.6 367.153C1108.4 377.393 1082.48 384.193 1058.57 387.363C1030.41 391.103 1003.96 389.973 979.96 384.003C957.93 378.533 935.96 367.513 918.1 352.983C898.1 336.723 884.54 317.163 878.89 296.443C874.87 281.703 878.58 263.943 881.85 248.273C882.9 243.243 883.89 238.493 884.62 233.953C886.74 220.813 889.9 207.693 892.96 195.013C895.89 182.843 898.92 170.253 901.02 157.713C905.17 132.893 907.49 104.583 893.22 82.7729C876.53 57.2529 842.83 48.393 813.1 40.583C808.82 39.463 804.78 38.393 800.83 37.293C765.99 27.593 727.13 19.983 682.02 14.043C674.44 13.043 666.12 11.633 657.32 10.143C615.63 3.08298 563.75 -5.70703 533.07 19.483C529.45 22.453 526.26 25.813 523.41 29.393C544.86 21.163 571.53 23.443 594.77 27.163C616.01 30.563 637.66 33.293 658.59 35.943C706.34 41.973 755.72 48.213 803.13 62.723C832.25 71.633 866.9 85.603 876.46 114.743C881.09 128.873 877.9 145.483 875.07 160.123C874.26 164.313 873.5 168.273 872.91 172.133C869.81 192.383 866.24 213.063 862 235.343C861.63 237.263 861.27 239.193 860.91 241.123C857.62 258.703 854.22 276.883 846.51 291.273C837.79 307.553 824.39 317.183 805.54 320.703C763 328.653 717.94 319.623 674.37 310.893C643.85 304.783 612.29 298.453 582.25 298.193C582.1 298.193 581.94 298.193 581.79 298.193C555.98 298.193 531.28 316.773 517.92 332.773L517.79 332.933C515.93 335.163 513.82 337.693 510.67 338.353C506.18 339.293 502.15 335.823 500.63 332.083C499.11 328.333 499.44 324.243 499.73 320.643C499.86 318.953 500.01 317.283 500.15 315.633C501.93 295.173 503.33 279.013 482.8 267.703C471.7 261.583 471 251.333 471.22 242.203C472.14 204.313 474.66 173.753 479.17 146.043C484.82 111.293 493.58 81.193 505.95 54.023C508.54 48.333 511.5 42.303 515.11 36.473C508.48 40.453 502.66 45.843 498.02 53.023C480.86 79.583 473.38 109.363 466.14 138.163C462.09 154.273 457.91 170.923 452.07 187.023C445.05 206.373 436.22 223.663 423.45 243.073C414.94 256.003 405.5 273.043 408.08 290.073C408.96 295.903 411.02 302.083 413.19 308.623C418.08 323.363 423.14 338.603 415.27 351.633C412.26 356.623 407.36 359.553 402.63 362.383C397.96 365.183 393.54 367.823 391.12 372.243C387.28 379.233 388.94 390.283 390.4 400.033C390.93 403.543 391.42 406.853 391.63 409.783C391.89 413.373 391.32 418.133 388.94 420.723C387.8 421.963 386.32 422.623 384.66 422.643C384.64 422.643 384.61 422.643 384.59 422.643C382.5 422.643 380.69 421.523 379.15 420.463C374.84 417.503 370.43 412.433 366.16 407.533C360.86 401.453 355.39 395.173 350.26 392.993C341.1 389.113 327.54 391.363 316.64 393.163C314.03 393.593 311.56 394.003 309.29 394.313C286.71 397.353 263.91 401.703 241.86 405.903L235.59 407.093C224.39 409.223 212.93 411.913 201.85 414.513C175.85 420.623 149.09 426.903 122.11 426.903ZM520.13 33.793C515.33 40.723 511.61 48.193 508.44 55.153C496.17 82.103 487.48 111.973 481.87 146.483C477.39 174.073 474.87 204.513 473.96 242.273C473.7 252.893 475.31 260.453 484.12 265.303C506.22 277.473 504.67 295.273 502.88 315.873C502.74 317.513 502.59 319.183 502.46 320.863C502.2 324.163 501.9 327.903 503.17 331.053C504.28 333.803 507.18 336.283 510.1 335.663C512.31 335.203 514.02 333.153 515.68 331.173L515.81 331.013C524 321.203 534.49 312.383 545.34 306.163C557.73 299.063 570.52 295.363 582.26 295.453C612.55 295.713 644.24 302.063 674.89 308.203C718.2 316.883 763 325.853 805.01 318.003C845.1 310.513 851.46 276.563 858.18 240.623C858.54 238.693 858.9 236.763 859.27 234.833C863.51 212.583 867.07 191.943 870.16 171.723C870.76 167.813 871.53 163.823 872.34 159.603C875.23 144.583 878.22 129.053 873.81 115.593C864.65 87.643 830.77 74.053 802.29 65.343C755.11 50.903 705.85 44.683 658.21 38.663C637.25 36.013 615.58 33.273 594.3 29.873C569.89 25.963 541.61 23.663 520.11 33.793H520.13Z" fill="#B6BFDA"/>
<path d="M216.62 364.963C206.94 364.963 198.73 357.453 198.01 347.643C197.65 342.673 199.25 337.853 202.51 334.083C205.77 330.313 210.31 328.033 215.28 327.673C225.54 326.933 234.51 334.673 235.25 344.933C235.61 349.903 234.02 354.723 230.75 358.493C227.49 362.263 222.95 364.543 217.98 364.903C217.52 364.933 217.07 364.953 216.61 364.953L216.62 364.963ZM216.66 330.363C216.27 330.363 215.87 330.373 215.48 330.403C211.24 330.713 207.37 332.653 204.59 335.873C201.81 339.093 200.45 343.203 200.75 347.443C201.06 351.683 203 355.553 206.22 358.333C209.44 361.113 213.55 362.473 217.79 362.173C222.03 361.863 225.9 359.923 228.68 356.703C231.46 353.483 232.82 349.373 232.52 345.133C232.21 340.893 230.27 337.023 227.05 334.243C224.13 331.723 220.48 330.363 216.66 330.363Z" fill="#B6BFDA"/>
</svg>
