<svg width="203" height="85" viewBox="0 0 203 85" fill="none" xmlns="http://www.w3.org/2000/svg">
<path d="M21.1474 66.1782H5.38224V55.0315H0V84.3934H5.38224V71.058H21.1474V84.3934H26.5098V55.0315H21.1474V66.1782Z" fill="#002B53"/>
<path d="M54.2948 56.5177C52.0117 55.246 49.3645 54.6096 46.3518 54.6096C43.3392 54.6096 40.7082 55.2454 38.4191 56.5177C36.1294 57.7899 34.3421 59.5574 33.0567 61.8194C31.7712 64.082 31.1288 66.7131 31.1288 69.7119C31.1288 72.7107 31.7712 75.3249 33.0567 77.5947C34.3421 79.864 36.1294 81.635 38.4191 82.9067C40.7088 84.1789 43.3524 84.8147 46.3518 84.8147C49.3512 84.8147 52.0117 84.1789 54.2948 82.9067C56.5773 81.635 58.3615 79.864 59.647 77.5947C60.9324 75.3255 61.5749 72.6981 61.5749 69.7119C61.5749 66.7257 60.9324 64.082 59.647 61.8194C58.3615 59.5568 56.5773 57.7893 54.2948 56.5177ZM54.7665 75.2155C53.9763 76.7287 52.8615 77.8802 51.4228 78.6699C49.9835 79.4601 48.2929 79.855 46.3518 79.855C44.4107 79.855 42.7166 79.4601 41.2707 78.6699C39.8247 77.8802 38.7064 76.7287 37.9167 75.2155C37.1264 73.7029 36.7316 71.8687 36.7316 69.7125C36.7316 67.5562 37.1264 65.7227 37.9167 64.2094C38.7064 62.6968 39.8247 61.5418 41.2707 60.7449C42.7166 59.9486 44.4101 59.5502 46.3518 59.5502C48.2935 59.5502 49.9835 59.9486 51.4228 60.7449C52.8621 61.5418 53.9763 62.6962 54.7665 64.2094C55.5562 65.7227 55.9516 67.5568 55.9516 69.7125C55.9516 71.8681 55.5568 73.7023 54.7665 75.2155Z" fill="#002B53"/>
<path d="M80.4933 67.1422L74.9506 66.138C73.4373 65.8705 72.34 65.4553 71.6567 64.8927C70.974 64.3302 70.6326 63.5875 70.6326 62.6638C70.6326 61.6734 71.0773 60.8663 71.968 60.2437C72.858 59.6211 74.3009 59.3098 76.2961 59.3098C78.1838 59.3098 79.7805 59.6884 81.0858 60.4444C82.3911 61.201 83.4524 62.1481 84.2691 63.2864L87.322 59.0892C86.7463 58.2996 85.9999 57.5664 85.0828 56.8903C84.1658 56.2142 82.9975 55.6649 81.5786 55.2437C80.1591 54.8218 78.3983 54.6108 76.2967 54.6108C73.9938 54.6108 72.0052 54.969 70.3322 55.6854C68.6585 56.4017 67.3664 57.3855 66.4559 58.6373C65.5455 59.8891 65.0905 61.3116 65.0905 62.9048C65.0905 65.0202 65.7696 66.8008 67.129 68.2467C68.4878 69.6927 70.5058 70.6704 73.1843 71.1788L79.0083 72.2636C80.3202 72.5178 81.3208 72.9565 82.0107 73.5791C82.7 74.2017 83.045 75.0352 83.045 76.0797C83.045 77.3381 82.5227 78.2961 81.4782 78.9517C80.4338 79.608 78.8743 79.9091 76.7991 79.8556C74.8039 79.8153 72.9662 79.3231 71.2865 78.3796C69.6062 77.4355 68.1567 76.0869 66.9385 74.3327L63.8255 78.9319C64.3207 79.7624 65.1608 80.6326 66.3459 81.5425C67.531 82.4529 69.01 83.2264 70.7841 83.8622C72.5581 84.498 74.5629 84.8159 76.7991 84.8159C79.611 84.8159 81.8905 84.4043 83.6375 83.581C85.3845 82.7576 86.6598 81.6627 87.4633 80.2973C88.2667 78.9319 88.6682 77.4325 88.6682 75.7985C88.6682 73.4289 88.0155 71.5274 86.7103 70.0947C85.405 68.662 83.3328 67.6782 80.4945 67.1428L80.4933 67.1422Z" fill="#002B53"/>
<path d="M110.367 56.2064C108.713 55.4233 106.595 55.0315 104.011 55.0315H92.5432V84.3928H97.9255V74.6927H104.011C107.894 74.6927 110.735 73.8225 112.536 72.0821C114.337 70.3417 115.237 67.9318 115.237 64.8519C115.237 62.8032 114.839 61.046 114.043 59.5802C113.246 58.1138 112.021 56.9894 110.367 56.2064ZM108.349 68.7485C107.385 69.6458 105.865 70.0941 103.79 70.0941H97.9255V59.6505H103.79C105.865 59.6505 107.385 60.0958 108.349 60.9859C109.313 61.8765 109.795 63.165 109.795 64.8519C109.795 66.5388 109.313 67.8513 108.349 68.7479V68.7485Z" fill="#002B53"/>
<path d="M124.656 55.0315H119.274V84.3928H124.656V55.0315Z" fill="#002B53"/>
<path d="M152.391 59.731V55.0315H142.992H137.61H128.171V59.731H137.61V84.3934H142.992V59.731H152.391Z" fill="#002B53"/>
<path d="M162.432 55.0315L150.543 84.3928H156.428L158.798 78.2275H172.905L175.266 84.3928H181.171L169.301 55.0315H162.433H162.432ZM160.574 73.6085L165.786 60.0526H165.946L171.136 73.6085H160.574Z" fill="#002B53"/>
<path d="M189.665 79.6939V55.0315H184.283V84.3934H186.25H189.665H203V79.6939H189.665Z" fill="#002B53"/>
<path d="M23.6288 39.2628H22.9935L11.7873 6.70435H0.338959V50.9834H8.36425V21.7267L9.12206 21.6059L19.3583 50.9834H26.6576L36.8945 21.6059L37.6511 21.7267V50.9834H45.9504V6.70435H34.7743L23.6288 39.2628Z" fill="#002B53"/>
<path d="M67.6957 6.70435L52.4012 50.9834H61.3958L64.7126 40.7773H81.676L85.0198 50.9834H94.2265L78.932 6.70435H67.6957ZM67.1044 33.4172L72.7835 15.9424H73.5401L79.2649 33.4172H67.1044Z" fill="#002B53"/>
<path d="M129.964 37.7791C129.216 35.4774 128.419 33.7261 127.571 32.5242C126.723 31.3223 125.583 30.4088 124.149 29.7832V29.1468C126.793 28.2586 128.812 26.9665 130.206 25.2706C131.599 23.5746 132.296 21.3541 132.296 18.6071C132.296 16.205 131.79 14.11 130.781 12.3234C129.772 10.5367 128.242 9.15328 126.194 8.17371C124.144 7.19413 121.554 6.70435 118.425 6.70435H100.647V50.9835H109.399V32.5392H114.094C116.132 32.5392 117.646 32.9233 118.636 33.6907C119.626 34.4581 120.433 35.8103 121.06 37.7484C121.786 39.9491 122.507 42.1505 123.225 44.3518C123.941 46.5525 124.664 48.7635 125.39 50.9841H134.385C133.637 48.7833 132.901 46.5832 132.175 44.3819C131.448 42.1805 130.711 39.981 129.963 37.7797L129.964 37.7791ZM122.119 24.1203C121.049 25.1101 119.465 25.6041 117.365 25.6041H109.399V13.6413H117.365C119.465 13.6413 121.049 14.1359 122.119 15.1251C123.189 16.1149 123.725 17.6287 123.725 19.6678C123.725 21.7068 123.189 23.1305 122.119 24.1203Z" fill="#002B53"/>
<path d="M150.801 6.70435H142.048V50.9834H150.801V6.70435Z" fill="#002B53"/>
<path d="M189.871 50.9834H199.077L183.783 6.70435H172.547L157.252 50.9834H166.247L169.563 40.7773H186.527L189.871 50.9834ZM171.955 33.4172L177.634 15.9424H178.391L184.116 33.4172H171.955Z" fill="#002B53"/>
<path d="M73.0167 0C71.7048 0 70.5125 1.07332 70.5125 2.50482C70.5125 3.81673 71.5858 5.00964 73.0167 5.00964C74.3292 5.00964 75.5215 3.93572 75.5215 2.50482C75.5215 1.19292 74.4482 0 73.0167 0Z" fill="#002B53"/>
<path d="M73.852 5.24829H72.1819C71.9434 5.24829 71.8244 5.36728 71.8244 5.60587C71.8244 5.84445 71.9434 5.96344 72.1819 5.96344H73.852C74.0906 5.96344 74.2096 5.84445 74.2096 5.60587C74.2096 5.36728 74.0906 5.24829 73.852 5.24829Z" fill="#002B53"/>
<path d="M73.0167 6.2019C72.6591 6.2019 72.4205 6.3215 72.4205 6.67907L72.5401 22.8997C72.7787 22.7807 72.8977 22.6611 73.1363 22.6611C73.2553 22.6611 73.2553 22.5421 73.3749 22.5421H73.4939L73.6134 6.79866C73.6134 6.3215 73.3749 6.3215 73.0167 6.3215V6.2019Z" fill="#002B53"/>
<path d="M72.6591 31.4876C72.8977 31.368 73.2552 31.368 73.4938 31.368V29.6985C73.2552 29.6985 72.8977 29.8175 72.6591 29.8175V31.6066V31.4876Z" fill="#002B53"/>
<path d="M73.2553 41.2676C73.1363 41.3866 72.8977 41.3866 72.7787 41.5062V43.1756H72.8977C73.0167 43.0567 73.2553 43.0567 73.3748 42.9371H73.4938V41.2676H73.2553Z" fill="#002B53"/>
<path d="M72.6591 45.3231V46.9925C72.6591 46.9925 72.7787 46.9925 72.7787 47.1121L72.8977 47.2311C73.1363 47.1121 73.2552 47.1121 73.3748 47.1121V45.0845H73.1363C73.0167 45.2035 72.8977 45.3231 72.6591 45.4421V45.3231Z" fill="#002B53"/>
<path d="M73.0167 48.7815C72.8977 48.9011 72.7787 48.9011 72.6591 49.0201V52.1211C72.6591 52.5982 73.3748 52.5982 73.3748 52.1211V48.9011H73.1363C73.1363 48.9011 73.0167 48.9011 73.0167 48.7815Z" fill="#002B53"/>
<path d="M73.3748 37.332C73.2552 37.332 73.2552 37.2124 73.1363 37.2124C73.0173 37.2124 72.7787 37.332 72.6591 37.332V39.2401C72.7787 39.2401 72.8977 39.359 72.8977 39.359C73.0167 39.359 73.2552 39.2401 73.3748 39.2401V37.332Z" fill="#002B53"/>
<path d="M72.6591 34.946L72.7787 35.0656V35.1846C73.0167 35.0656 73.1363 35.0656 73.3748 34.946H73.4938V33.5151C73.2552 33.6341 72.8977 33.6341 72.6591 33.7537V34.946Z" fill="#002B53"/>
<path d="M72.6591 26.0008V27.5513C72.8977 27.4323 73.1363 27.4323 73.3748 27.3133H73.4938V25.7622H73.1363C72.8977 25.8818 72.7787 25.8818 72.5401 26.0008H72.6591Z" fill="#002B53"/>
<path d="M69.5581 9.78003C68.6038 9.30286 69.4391 8.58771 69.7967 7.99095C70.1543 7.3948 70.5124 6.32147 70.3928 5.60572C70.1543 4.65139 69.0809 3.93564 68.2462 3.81665C67.0533 3.57807 66.4571 4.05523 65.6224 4.65139C64.6681 5.24815 63.9523 5.72471 62.879 6.20188C59.4198 7.63338 54.1722 9.89962 50.3555 10.2572C51.1902 11.3305 52.6217 12.2849 53.9336 12.4038C53.8146 13.1196 55.1265 13.8353 55.6037 13.9543C56.1999 14.1929 57.2732 14.1929 57.8693 13.8353C58.7047 15.1472 60.6127 15.6244 61.9246 14.5511C62.0442 15.1472 63.1176 15.5054 63.5947 15.6244C64.5485 15.863 65.0256 15.5054 65.861 15.3858C66.3375 15.2668 66.5761 15.6244 67.1729 15.7434C67.8886 15.863 68.3652 15.863 68.9619 15.5054C69.2005 15.3858 69.0809 15.2668 69.4391 15.2668C69.5581 15.2668 69.9157 15.5054 70.0353 15.5054C70.6314 15.6244 70.9896 15.1472 71.2282 14.7897C71.5858 14.4315 71.8243 13.5968 72.1819 12.6424V10.0186C71.2282 10.1382 70.0353 10.0186 69.6777 9.89962L69.5581 9.78003Z" fill="#002B53"/>
<path d="M76.7144 9.78003C77.6687 9.30286 76.8334 8.58771 76.4758 7.99095C76.1183 7.3948 75.7601 6.32147 75.8797 5.60572C76.1183 4.65139 77.1916 3.93564 78.0263 3.81665C79.2192 3.57807 79.8154 4.05523 80.6501 4.65139C81.6045 5.24815 82.3202 5.72471 83.3935 6.20188C86.8527 7.63338 92.1003 9.89962 95.9171 10.2572C95.0823 11.3305 93.6508 12.2849 92.3389 12.4038C92.4579 13.1196 91.146 13.8353 90.6688 13.9543C90.0727 14.1929 88.9993 14.1929 88.4032 13.8353C87.5678 15.1472 85.6598 15.6244 84.3479 14.5511C84.2283 15.1472 83.155 15.5054 82.6778 15.6244C81.7241 15.863 81.2469 15.5054 80.4116 15.3858C79.935 15.2668 79.6964 15.6244 79.0996 15.7434C78.3839 15.863 77.9073 15.863 77.3106 15.5054C77.072 15.3858 77.1916 15.2668 76.8334 15.2668C76.7144 15.2668 76.3568 15.5054 76.2373 15.5054C75.6411 15.6244 75.2829 15.1472 75.0443 14.7897C74.6868 14.4315 74.4482 13.5968 74.0906 12.6424V10.0186C75.0443 10.1382 76.2372 10.0186 76.5948 9.89962L76.7144 9.78003Z" fill="#002B53"/>
<path d="M68.1266 17.0559C68.3652 17.0559 68.4848 17.1749 68.4848 17.4135C68.4848 17.652 68.3652 17.771 68.1266 17.771C67.888 17.771 67.769 17.652 67.769 17.4135C67.769 17.1749 67.8886 17.0559 68.1266 17.0559ZM67.0533 20.3954C66.3375 19.9183 67.2919 19.3215 67.65 19.2025C68.6038 18.845 69.6777 18.4868 70.5124 17.771C70.87 17.5324 71.3472 16.6977 70.751 16.3401C70.3928 16.1015 69.3195 16.3401 68.9619 16.4591C68.3652 16.5787 67.769 16.5787 67.2919 16.9363C67.0533 17.1749 65.5028 17.652 64.9066 19.0829C64.668 19.7987 64.787 20.753 65.2642 21.3492C66.3375 22.5421 67.2919 22.8997 68.4848 23.4964C68.8424 23.6154 69.3195 23.854 69.9157 24.0926C70.0353 23.9736 71.8243 23.3768 72.4205 22.8997C70.87 22.3035 69.7967 21.8263 69.3195 21.5878C68.2462 21.1106 67.5304 20.753 67.0533 20.3954Z" fill="#002B53"/>
<path d="M73.6134 48.1853C73.4938 48.3043 73.3748 48.4239 73.2552 48.5428C73.2552 48.5428 73.3748 48.6624 73.4938 48.7814C74.4482 49.8547 73.852 50.5705 73.971 50.5705C73.971 50.5705 74.2096 50.4515 74.3292 50.0933C74.4482 49.7358 74.3292 49.02 73.971 48.4239C73.971 48.3043 73.852 48.1853 73.7324 48.0657L73.6134 48.1853Z" fill="#002B53"/>
<path d="M74.6867 40.4328C74.3292 40.6714 73.971 40.91 73.4938 41.148C74.0906 41.3866 74.4481 41.7447 74.6867 41.7447C74.8057 41.7447 74.3292 42.4605 73.852 42.8181C73.3748 43.1756 72.8977 43.5338 72.4205 43.8914C71.9433 44.2496 71.4662 44.6071 71.2282 45.3229C70.87 46.0386 71.3472 46.7538 71.7047 47.112C71.9433 47.2309 72.3015 47.7081 72.4205 47.8277C72.4205 47.7081 72.7787 47.5891 72.7787 47.3505C71.8243 46.5152 71.2282 45.5615 72.8977 44.6071C73.3748 44.2496 73.852 44.011 74.4482 43.5338C74.6867 43.2952 74.9253 43.0566 75.2829 42.8181C75.5215 42.5795 75.9986 42.1023 75.6411 41.3866C75.4025 40.7904 75.0443 40.5518 74.6867 40.3132V40.4328Z" fill="#002B53"/>
<path d="M75.9987 32.7995C75.8797 32.7995 74.4482 33.3957 73.7324 33.7539C74.0906 33.8728 74.3292 33.9924 74.6867 33.9924C74.9253 33.9924 75.0443 34.1114 75.1639 34.231L75.0443 34.35C74.8057 34.5886 74.5678 34.7076 74.2096 34.8272C73.4938 35.1848 72.7787 35.5429 72.0629 35.9005C71.3472 36.3777 70.6314 36.3777 69.7967 37.451C69.3195 38.0472 69.6777 39.0015 70.0353 39.2401C70.3928 39.5976 70.751 39.8362 70.9896 40.0748C71.1086 40.1944 71.2282 40.1944 71.3472 40.3134C71.7048 39.9558 72.1819 39.8362 72.5401 39.5976C72.1819 39.4787 71.9433 39.2401 71.5858 39.0015C70.9896 38.6439 70.6314 38.0472 70.751 38.0472C70.87 37.8086 71.8243 37.332 72.4205 37.0934C73.1363 36.7352 73.852 36.4967 74.5677 36.1391C74.9253 36.0195 75.4025 35.7815 75.7601 35.4233C76.1182 35.0658 76.8334 34.469 76.3568 33.3957C76.1182 33.0381 75.8797 32.7995 75.7601 32.6799L75.9987 32.7995Z" fill="#002B53"/>
<path d="M77.3106 24.9274C76.953 24.6888 76.4758 24.5698 76.1182 24.4502C75.6411 24.8084 73.852 25.5241 73.4938 25.6431C73.971 25.7621 74.4482 26.0007 74.9253 26.1203C75.5215 26.3589 75.9986 26.4779 76.4758 26.7164C76.5948 26.7164 76.7144 26.836 76.8334 26.955C76.5948 27.0746 76.4758 27.0746 76.2372 27.1936C75.6411 27.3132 74.9253 27.5512 74.2096 27.5512C72.8977 27.7898 71.1086 27.7898 69.5581 28.6251C69.0809 28.8637 68.7234 29.1023 68.2462 29.6984C68.0076 30.056 67.8886 30.5332 68.1266 31.0103C68.2462 31.3679 68.4848 31.6065 68.7234 31.8451C69.0809 32.2032 69.5581 32.4418 69.9157 32.5608C70.3928 32.4418 70.751 32.2032 71.2282 32.0837C71.3472 32.0837 71.4662 31.9647 71.4662 31.9647C71.7048 31.8451 71.9433 31.7261 72.1819 31.6065C71.9433 31.4875 71.8243 31.4875 71.5858 31.3679C70.87 31.1293 70.1543 30.7717 69.7967 30.4142C69.9157 30.2946 70.0353 30.1756 70.2739 30.056C71.4662 29.4598 72.8977 29.4598 74.4482 29.2213C75.1639 29.1023 75.8797 28.9827 76.7144 28.7441C77.072 28.6251 77.4301 28.5055 77.7877 28.3865C78.3839 28.1479 78.861 27.7898 79.0996 27.0746C79.4578 25.8817 77.5491 24.9274 77.1916 24.8084L77.3106 24.9274Z" fill="#002B53"/>
<path d="M73.971 44.2498C73.7324 44.4877 73.3748 44.7263 73.2552 44.8459C75.5215 46.1578 72.6591 47.3507 72.1819 48.5431C71.8243 49.1398 71.7048 49.736 71.8243 50.2131C71.9433 50.5707 72.1819 50.6903 72.1819 50.6903C72.3015 50.6903 71.7048 49.855 72.6591 48.9012C73.0167 48.4241 73.7324 47.9469 74.4482 47.2311C74.8057 46.8736 75.2829 46.1578 74.9253 45.4421C74.6867 44.9649 74.3292 44.6073 73.971 44.2498Z" fill="#002B53"/>
<path d="M75.0443 36.3776C75.0443 36.3776 73.971 36.9738 73.4938 37.2124C74.0906 37.451 74.9253 37.9281 75.0443 38.1667C75.2829 38.1667 74.8057 38.7629 74.2096 39.1211C73.6134 39.4786 73.0167 39.8362 72.4205 40.1944C71.8244 40.5519 70.87 40.552 70.5124 41.6253C70.2739 42.341 70.751 42.6986 70.87 43.0568C71.1086 43.4143 71.3472 43.5339 71.7048 43.7725C71.8244 43.8915 71.9433 43.8915 72.0629 44.0111C72.4205 43.7725 72.6591 43.6529 73.0167 43.4144C72.7787 43.2954 72.6591 43.1758 72.4205 42.9372C71.9433 42.6986 71.5858 41.9834 71.5858 41.8639C71.7048 41.7449 72.3015 41.3867 73.0167 41.0291C73.6134 40.6715 74.3292 40.433 75.0443 39.9558C75.4025 39.7172 75.7601 39.4786 75.9987 39.1211C76.3568 38.7629 76.7144 37.9281 76.2372 37.332C75.8797 36.7352 75.5215 36.4966 75.1639 36.2581L75.0443 36.3776Z" fill="#002B53"/>
<path d="M77.1916 28.9827C76.7144 29.2212 74.6867 29.5788 74.2096 29.6984C74.6867 29.8174 75.2829 29.937 75.6411 30.1756C75.8797 30.2946 75.9987 30.4142 76.1182 30.5332C75.7601 30.8907 75.0443 31.2489 74.3292 31.4875C73.6134 31.7261 72.8977 31.9647 72.0629 32.2032C71.7048 32.3222 71.2282 32.4418 70.87 32.5608C70.5124 32.6798 69.9157 32.6798 69.4391 33.5151C68.8424 34.4689 69.6777 35.1846 70.0353 35.5428C70.3928 35.7814 70.751 36.0194 70.9896 36.139C71.5858 35.9004 72.1819 35.6618 72.6591 35.4232C72.6591 35.4232 72.7787 35.4232 72.7787 35.3042C72.4205 35.1846 72.0629 34.946 71.8243 34.8271C71.4662 34.5885 71.2282 34.4689 70.9896 34.3499C70.87 34.3499 70.87 34.2309 70.87 34.2309C70.9896 34.2309 71.1086 34.1113 71.3472 33.9923C71.7048 33.8727 72.0629 33.7537 72.5401 33.6341C73.2552 33.3956 74.0906 33.2766 74.9253 32.9184C75.7601 32.6798 76.4758 32.3222 77.3106 31.7261C77.5491 31.4875 77.7877 31.2489 77.9073 30.8907C78.0263 30.5332 78.0263 29.937 77.7877 29.5788C77.5491 29.3402 77.4302 29.1023 77.1916 28.9827Z" fill="#002B53"/>
<path d="M77.6687 17.0561C77.9073 17.0561 78.0263 17.1751 78.0263 17.4137C78.0263 17.6523 77.9073 17.7713 77.6687 17.7713C77.4302 17.7713 77.3106 17.6523 77.3106 17.4137C77.3106 17.1751 77.4302 17.0561 77.6687 17.0561ZM78.7421 16.9365C78.2649 16.5789 77.5492 16.5789 77.072 16.4594C76.7144 16.4594 75.6411 16.1018 75.2829 16.3404C74.8057 16.6979 75.2829 17.5327 75.5215 17.7713C76.3568 18.487 77.4302 18.8452 78.3839 19.2028C78.7421 19.3217 79.6964 19.7989 78.9807 20.3957C78.5035 20.7532 77.7877 21.1108 76.7144 21.588C76.1182 21.8266 75.0443 22.3037 73.3748 23.0195C72.5401 23.3771 71.5858 23.7352 70.5125 24.0928C70.0353 24.2118 69.3195 24.4504 68.7234 24.8086C68.3652 24.9276 66.4571 25.8819 66.8147 27.0748C67.0533 27.9095 67.5305 28.1481 68.1266 28.3867C68.3652 28.5057 68.6038 28.5057 68.8424 28.6253L68.962 28.5057C69.6777 28.0285 70.3929 27.5514 71.1086 27.1938C70.6314 27.0748 70.1543 26.9552 69.6777 26.8362C69.4391 26.8362 69.3195 26.7166 69.0809 26.5976C69.2005 26.478 69.3195 26.478 69.4391 26.3591C69.9157 26.1205 70.3929 26.0009 70.9896 25.7623C72.0629 25.4047 73.0167 25.0471 73.852 24.689C75.5215 23.9738 76.7144 23.4967 77.3106 23.2581C78.5035 22.6613 79.5768 22.3037 80.5311 21.1108C81.0083 20.5147 81.1273 19.5603 80.8887 18.8452C80.2926 17.4137 78.8611 16.9365 78.5035 16.6979L78.7421 16.9365Z" fill="#002B53"/>
<path d="M73.0082 6.08789C73.337 6.08789 73.6038 6.35472 73.6038 6.68345V6.83249H72.4127V6.68345C72.4127 6.35472 72.6795 6.08789 73.0082 6.08789Z" fill="#002B53"/>
</svg>
