<svg width="326" height="136" viewBox="0 0 326 136" fill="none" xmlns="http://www.w3.org/2000/svg">
<path d="M33.9092 106.115H8.63027V88.2415H0V135.322H8.63027V113.94H33.9092V135.322H42.5076V88.2415H33.9092V106.115Z" fill="#B6BFDA"/>
<path d="M87.0603 90.6245C83.3995 88.5854 79.1547 87.5649 74.324 87.5649C69.4933 87.5649 65.2746 88.5845 61.6041 90.6245C57.9327 92.6645 55.0668 95.4985 53.0056 99.1256C50.9444 102.754 49.9143 106.972 49.9143 111.781C49.9143 116.589 50.9444 120.781 53.0056 124.421C55.0668 128.06 57.9327 130.899 61.6041 132.938C65.2755 134.978 69.5145 135.998 74.324 135.998C79.1335 135.998 83.3995 134.978 87.0603 132.938C90.7202 130.899 93.5812 128.06 95.6424 124.421C97.7036 120.782 98.7337 116.569 98.7337 111.781C98.7337 106.993 97.7036 102.754 95.6424 99.1256C93.5812 95.4976 90.7202 92.6635 87.0603 90.6245ZM87.8168 120.606C86.5496 123.032 84.7621 124.879 82.4551 126.145C80.1472 127.412 77.4365 128.045 74.324 128.045C71.2115 128.045 68.495 127.412 66.1765 126.145C63.858 124.879 62.0647 123.032 60.7985 120.606C59.5313 118.18 58.8982 115.239 58.8982 111.782C58.8982 108.324 59.5313 105.384 60.7985 102.958C62.0647 100.533 63.858 98.6804 66.1765 97.4026C68.495 96.1258 71.2105 95.487 74.324 95.487C77.4375 95.487 80.1472 96.1258 82.4551 97.4026C84.763 98.6804 86.5496 100.532 87.8168 102.958C89.083 105.384 89.717 108.325 89.717 111.782C89.717 115.238 89.0839 118.179 87.8168 120.606Z" fill="#B6BFDA"/>
<path d="M129.069 107.661L120.181 106.05C117.755 105.621 115.995 104.956 114.899 104.054C113.805 103.152 113.257 101.961 113.257 100.48C113.257 98.8915 113.97 97.5973 115.398 96.599C116.826 95.6007 119.139 95.1015 122.339 95.1015C125.365 95.1015 127.926 95.7086 130.019 96.9209C132.112 98.1341 133.813 99.6527 135.123 101.478L140.018 94.7479C139.095 93.4817 137.898 92.306 136.428 91.2219C134.957 90.1379 133.084 89.2571 130.809 88.5816C128.533 87.9051 125.709 87.5669 122.339 87.5669C118.647 87.5669 115.458 88.1412 112.775 89.2899C110.092 90.4385 108.02 92.016 106.56 94.0232C105.1 96.0305 104.371 98.3114 104.371 100.866C104.371 104.258 105.46 107.113 107.639 109.432C109.818 111.75 113.054 113.318 117.349 114.133L126.687 115.873C128.791 116.28 130.395 116.984 131.502 117.982C132.607 118.98 133.16 120.317 133.16 121.992C133.16 124.009 132.323 125.545 130.648 126.597C128.973 127.649 126.472 128.132 123.145 128.046C119.946 127.982 116.999 127.192 114.306 125.679C111.611 124.166 109.287 122.003 107.334 119.19L102.342 126.565C103.136 127.897 104.483 129.292 106.384 130.751C108.284 132.211 110.655 133.451 113.5 134.471C116.345 135.49 119.559 136 123.145 136C127.654 136 131.309 135.34 134.11 134.02C136.911 132.699 138.956 130.944 140.245 128.754C141.533 126.565 142.177 124.161 142.177 121.541C142.177 117.741 141.13 114.692 139.037 112.395C136.944 110.098 133.622 108.52 129.07 107.661L129.069 107.661Z" fill="#B6BFDA"/>
<path d="M176.971 90.1254C174.319 88.8697 170.922 88.2415 166.778 88.2415H148.39V135.322H157.021V119.768H166.778C173.004 119.768 177.56 118.372 180.448 115.582C183.335 112.791 184.78 108.927 184.78 103.988C184.78 100.703 184.141 97.8855 182.864 95.5352C181.586 93.1839 179.623 91.381 176.971 90.1254ZM173.734 110.236C172.188 111.675 169.751 112.394 166.424 112.394H157.021V95.6479H166.424C169.751 95.6479 172.188 96.362 173.734 97.7891C175.28 99.2172 176.052 101.283 176.052 103.988C176.052 106.693 175.28 108.798 173.734 110.235V110.236Z" fill="#B6BFDA"/>
<path d="M199.883 88.2415H191.253V135.322H199.883V88.2415Z" fill="#B6BFDA"/>
<path d="M244.355 95.777V88.2415H229.283H220.653H205.518V95.777H220.653V135.322H229.283V95.777H244.355Z" fill="#B6BFDA"/>
<path d="M260.456 88.2415L241.391 135.322H250.827L254.629 125.436H277.249L281.034 135.322H290.502L271.47 88.2415H260.457H260.456ZM257.475 118.029L265.833 96.2926H266.09L274.412 118.029H257.475Z" fill="#B6BFDA"/>
<path d="M304.123 127.787V88.2415H295.492V135.322H298.647H304.123H325.505V127.787H304.123Z" fill="#B6BFDA"/>
<path d="M37.8879 62.9568H36.8693L18.9005 10.7502H0.543365V81.7505H13.4117V34.8381L14.6268 34.6444L31.0403 81.7505H42.7446L59.1591 34.6444L60.3723 34.8381V81.7505H73.68V10.7502H55.7594L37.8879 62.9568Z" fill="#B6BFDA"/>
<path d="M108.548 10.7502L84.0236 81.7505H98.4462L103.765 65.3852H130.965L136.327 81.7505H151.089L126.565 10.7502H108.548ZM107.6 53.5836L116.706 25.5632H117.919L127.099 53.5836H107.6Z" fill="#B6BFDA"/>
<path d="M208.392 60.5776C207.194 56.8869 205.916 54.0789 204.556 52.1517C203.196 50.2244 201.368 48.7597 199.069 47.7565V46.7361C203.309 45.3118 206.546 43.24 208.781 40.5206C211.015 37.8013 212.132 34.2407 212.132 29.8359C212.132 25.9843 211.322 22.6251 209.704 19.7602C208.086 16.8953 205.633 14.677 202.348 13.1063C199.061 11.5356 194.908 10.7502 189.891 10.7502H161.384V81.7505H175.418V52.1757H182.946C186.214 52.1757 188.642 52.7915 190.229 54.0221C191.816 55.2526 193.111 57.4208 194.115 60.5285C195.28 64.0573 196.437 67.5871 197.587 71.1169C198.736 74.6457 199.894 78.1909 201.059 81.7515H215.482C214.283 78.2227 213.103 74.6948 211.938 71.165C210.773 67.6353 209.59 64.1084 208.391 60.5786L208.392 60.5776ZM195.814 38.6762C194.098 40.2633 191.558 41.0555 188.191 41.0555H175.418V21.8734H188.191C191.558 21.8734 194.098 22.6665 195.814 24.2526C197.53 25.8397 198.389 28.2671 198.389 31.5367C198.389 34.8063 197.53 37.0891 195.814 38.6762Z" fill="#B6BFDA"/>
<path d="M241.805 10.7502H227.77V81.7505H241.805V10.7502Z" fill="#B6BFDA"/>
<path d="M304.452 81.7505H319.215L294.69 10.7502H276.673L252.149 81.7505H266.571L271.89 65.3852H299.09L304.452 81.7505ZM275.725 53.5836L284.831 25.5632H286.045L295.224 53.5836H275.725Z" fill="#B6BFDA"/>
<path d="M117.08 0C114.976 0 113.065 1.72104 113.065 4.01641C113.065 6.12001 114.786 8.03282 117.08 8.03282C119.185 8.03282 121.096 6.31081 121.096 4.01641C121.096 1.9128 119.375 0 117.08 0Z" fill="#B6BFDA"/>
<path d="M118.42 8.41528H115.742C115.359 8.41528 115.168 8.60608 115.168 8.98864C115.168 9.37121 115.359 9.562 115.742 9.562H118.42C118.802 9.562 118.993 9.37121 118.993 8.98864C118.993 8.60608 118.802 8.41528 118.42 8.41528Z" fill="#B6BFDA"/>
<path d="M117.08 9.94458C116.506 9.94458 116.124 10.1363 116.124 10.7097L116.316 36.719C116.698 36.5282 116.889 36.3365 117.272 36.3365C117.462 36.3365 117.462 36.1457 117.654 36.1457H117.845L118.037 10.9015C118.037 10.1363 117.654 10.1363 117.08 10.1363V9.94458Z" fill="#B6BFDA"/>
<path d="M116.507 50.4893C116.889 50.2976 117.463 50.2976 117.845 50.2976V47.6206C117.463 47.6206 116.889 47.8114 116.507 47.8114V50.6801V50.4893Z" fill="#B6BFDA"/>
<path d="M117.463 66.1714C117.272 66.3622 116.889 66.3622 116.699 66.554V69.2309H116.889C117.08 69.0401 117.463 69.0401 117.655 68.8484H117.845V66.1714H117.463Z" fill="#B6BFDA"/>
<path d="M116.507 72.6741V75.351C116.507 75.351 116.699 75.351 116.699 75.5428L116.889 75.7336C117.272 75.5428 117.463 75.5428 117.654 75.5428V72.2915H117.272C117.08 72.4823 116.889 72.6741 116.507 72.8649V72.6741Z" fill="#B6BFDA"/>
<path d="M117.08 78.2197C116.889 78.4115 116.699 78.4115 116.507 78.6023V83.5746C116.507 84.3397 117.654 84.3397 117.654 83.5746V78.4115H117.272C117.272 78.4115 117.08 78.4115 117.08 78.2197Z" fill="#B6BFDA"/>
<path d="M117.654 59.8607C117.463 59.8607 117.463 59.6689 117.272 59.6689C117.081 59.6689 116.699 59.8607 116.507 59.8607V62.9202C116.699 62.9202 116.889 63.111 116.889 63.111C117.08 63.111 117.463 62.9202 117.654 62.9202V59.8607Z" fill="#B6BFDA"/>
<path d="M116.507 56.0351L116.699 56.2269V56.4177C117.08 56.2269 117.272 56.2269 117.654 56.0351H117.845V53.7407C117.463 53.9315 116.889 53.9315 116.507 54.1233V56.0351Z" fill="#B6BFDA"/>
<path d="M116.507 41.6914V44.1776C116.889 43.9868 117.272 43.9868 117.654 43.796H117.845V41.3088H117.272C116.889 41.5006 116.698 41.5006 116.316 41.6914H116.507Z" fill="#B6BFDA"/>
<path d="M111.534 15.6822C110.004 14.9171 111.343 13.7704 111.917 12.8135C112.49 11.8576 113.065 10.1366 112.873 8.98887C112.49 7.45862 110.769 6.31094 109.431 6.12014C107.518 5.73758 106.562 6.5027 105.223 7.45862C103.693 8.41551 102.546 9.17967 100.824 9.94479C95.2778 12.2402 86.8634 15.874 80.7434 16.4474C82.0819 18.1684 84.3773 19.6987 86.4809 19.8894C86.2901 21.0371 88.3937 22.1848 89.1588 22.3756C90.1147 22.7582 91.8358 22.7582 92.7917 22.1848C94.1311 24.2884 97.1906 25.0535 99.2943 23.3325C99.486 24.2884 101.207 24.8627 101.972 25.0535C103.501 25.4361 104.267 24.8627 105.606 24.671C106.37 24.4802 106.753 25.0535 107.71 25.2443C108.857 25.4361 109.621 25.4361 110.578 24.8627C110.961 24.671 110.769 24.4802 111.343 24.4802C111.534 24.4802 112.108 24.8627 112.299 24.8627C113.255 25.0535 113.83 24.2884 114.212 23.7151C114.786 23.1407 115.168 21.8023 115.741 20.272V16.0648C114.212 16.2566 112.299 16.0648 111.726 15.874L111.534 15.6822Z" fill="#B6BFDA"/>
<path d="M123.009 15.6822C124.539 14.9171 123.2 13.7704 122.627 12.8135C122.053 11.8576 121.479 10.1366 121.671 8.98887C122.053 7.45862 123.774 6.31094 125.113 6.12014C127.026 5.73758 127.982 6.5027 129.32 7.45862C130.85 8.41551 131.998 9.17967 133.719 9.94479C139.266 12.2402 147.68 15.874 153.8 16.4474C152.462 18.1684 150.166 19.6987 148.063 19.8894C148.253 21.0371 146.15 22.1848 145.385 22.3756C144.429 22.7582 142.708 22.7582 141.752 22.1848C140.412 24.2884 137.353 25.0535 135.249 23.3325C135.057 24.2884 133.336 24.8627 132.571 25.0535C131.042 25.4361 130.277 24.8627 128.937 24.671C128.173 24.4802 127.791 25.0535 126.834 25.2443C125.686 25.4361 124.922 25.4361 123.965 24.8627C123.583 24.671 123.774 24.4802 123.2 24.4802C123.009 24.4802 122.436 24.8627 122.244 24.8627C121.288 25.0535 120.714 24.2884 120.331 23.7151C119.758 23.1407 119.375 21.8023 118.802 20.272V16.0648C120.331 16.2566 122.244 16.0648 122.817 15.874L123.009 15.6822Z" fill="#B6BFDA"/>
<path d="M109.239 27.3487C109.622 27.3487 109.813 27.5395 109.813 27.9221C109.813 28.3047 109.622 28.4955 109.239 28.4955C108.856 28.4955 108.666 28.3047 108.666 27.9221C108.666 27.5395 108.857 27.3487 109.239 27.3487ZM107.518 32.7036C106.37 31.9385 107.901 30.9816 108.475 30.7908C110.004 30.2175 111.726 29.6431 113.065 28.4955C113.638 28.1129 114.403 26.7744 113.447 26.2011C112.873 25.8185 111.152 26.2011 110.579 26.3919C109.622 26.5836 108.666 26.5836 107.901 27.157C107.518 27.5395 105.032 28.3047 104.076 30.5991C103.693 31.7467 103.884 33.277 104.649 34.2329C106.37 36.1457 107.901 36.7191 109.813 37.676C110.387 37.8668 111.152 38.2493 112.108 38.6319C112.3 38.4411 115.168 37.4842 116.124 36.7191C113.638 35.7632 111.917 34.998 111.152 34.6155C109.431 33.8504 108.283 33.277 107.518 32.7036Z" fill="#B6BFDA"/>
<path d="M118.037 77.2638C117.845 77.4546 117.655 77.6464 117.463 77.8371C117.463 77.8371 117.654 78.0289 117.845 78.2197C119.376 79.9408 118.42 81.0884 118.61 81.0884C118.61 81.0884 118.993 80.8976 119.185 80.3233C119.376 79.75 119.185 78.6023 118.61 77.6464C118.61 77.4546 118.42 77.2638 118.228 77.072L118.037 77.2638Z" fill="#B6BFDA"/>
<path d="M119.758 64.8331C119.185 65.2157 118.61 65.5982 117.845 65.9798C118.802 66.3624 119.375 66.9367 119.758 66.9367C119.949 66.9367 119.185 68.0844 118.42 68.6578C117.654 69.2311 116.889 69.8055 116.124 70.3788C115.359 70.9531 114.594 71.5265 114.212 72.6742C113.638 73.8219 114.403 74.9686 114.976 75.5429C115.359 75.7337 115.933 76.4988 116.124 76.6906C116.124 76.4988 116.698 76.308 116.698 75.9255C115.168 74.586 114.212 73.0567 116.889 71.5265C117.654 70.9531 118.42 70.5706 119.375 69.8055C119.758 69.4229 120.141 69.0403 120.714 68.6578C121.096 68.2752 121.862 67.5101 121.288 66.3624C120.906 65.4065 120.331 65.0239 119.758 64.6414V64.8331Z" fill="#B6BFDA"/>
<path d="M121.862 52.5929C121.671 52.5929 119.376 53.5488 118.228 54.1231C118.802 54.3139 119.185 54.5057 119.758 54.5057C120.141 54.5057 120.331 54.6965 120.523 54.8883L120.331 55.0791C119.949 55.4616 119.567 55.6524 118.993 55.8442C117.845 56.4175 116.699 56.9919 115.551 57.5652C114.403 58.3303 113.256 58.3303 111.917 60.0514C111.152 61.0073 111.726 62.5375 112.3 62.9201C112.873 63.4935 113.447 63.876 113.83 64.2586C114.021 64.4504 114.212 64.4503 114.403 64.6411C114.977 64.0678 115.742 63.876 116.316 63.4935C115.742 63.3027 115.359 62.9201 114.786 62.5375C113.83 61.9642 113.256 61.0073 113.447 61.0073C113.638 60.6247 115.168 59.8606 116.124 59.478C117.272 58.9037 118.42 58.5211 119.567 57.9478C120.141 57.756 120.906 57.3744 121.479 56.8001C122.053 56.2267 123.2 55.2699 122.436 53.5488C122.053 52.9754 121.671 52.5929 121.479 52.4011L121.862 52.5929Z" fill="#B6BFDA"/>
<path d="M123.965 39.9704C123.392 39.5879 122.626 39.3971 122.053 39.2053C121.288 39.7796 118.419 40.9273 117.845 41.1181C118.61 41.3089 119.375 41.6915 120.14 41.8833C121.096 42.2658 121.861 42.4566 122.626 42.8392C122.817 42.8392 123.009 43.0309 123.2 43.2217C122.817 43.4135 122.626 43.4135 122.244 43.6043C121.288 43.7961 120.14 44.1777 118.993 44.1777C116.889 44.5602 114.02 44.5602 111.534 45.8997C110.769 46.2822 110.196 46.6648 109.431 47.6207C109.048 48.1941 108.857 48.9592 109.239 49.7243C109.431 50.2977 109.813 50.6802 110.196 51.0628C110.769 51.6371 111.534 52.0197 112.107 52.2105C112.873 52.0197 113.447 51.6371 114.212 51.4454C114.403 51.4454 114.594 51.2546 114.594 51.2546C114.976 51.0628 115.359 50.872 115.741 50.6802C115.359 50.4894 115.168 50.4894 114.785 50.2977C113.638 49.9151 112.49 49.3417 111.917 48.7684C112.107 48.5766 112.299 48.3858 112.682 48.1941C114.594 47.2381 116.889 47.2381 119.375 46.8556C120.523 46.6648 121.671 46.473 123.009 46.0905C123.582 45.8997 124.157 45.7079 124.73 45.5171C125.686 45.1345 126.451 44.5602 126.834 43.4135C127.408 41.5007 124.348 39.9704 123.774 39.7796L123.965 39.9704Z" fill="#B6BFDA"/>
<path d="M118.61 70.9531C118.228 71.3347 117.654 71.7173 117.463 71.9091C121.096 74.0127 116.507 75.9255 115.742 77.8373C115.168 78.7942 114.976 79.7501 115.168 80.5152C115.359 81.0886 115.742 81.2804 115.742 81.2804C115.933 81.2804 114.976 79.9409 116.507 78.4116C117.08 77.6465 118.228 76.8814 119.375 75.7337C119.949 75.1603 120.714 74.0127 120.141 72.865C119.758 72.0999 119.185 71.5265 118.61 70.9531Z" fill="#B6BFDA"/>
<path d="M120.331 58.3304C120.331 58.3304 118.61 59.2864 117.845 59.6689C118.802 60.0515 120.14 60.8166 120.331 61.1992C120.714 61.1992 119.949 62.1551 118.993 62.7294C118.037 63.3028 117.08 63.8761 116.124 64.4504C115.168 65.0238 113.638 65.0238 113.065 66.7449C112.682 67.8925 113.447 68.4659 113.638 69.0402C114.02 69.6136 114.403 69.8053 114.976 70.1879C115.168 70.3787 115.359 70.3787 115.551 70.5705C116.124 70.1879 116.507 69.9961 117.08 69.6136C116.698 69.4228 116.507 69.231 116.124 68.8485C115.359 68.4659 114.786 67.3192 114.786 67.1274C114.976 66.9366 115.933 66.3623 117.08 65.7889C118.037 65.2156 119.185 64.833 120.331 64.0679C120.906 63.6853 121.479 63.3028 121.861 62.7294C122.436 62.1551 123.009 60.8166 122.244 59.8607C121.671 58.9038 121.096 58.5212 120.523 58.1387L120.331 58.3304Z" fill="#B6BFDA"/>
<path d="M123.774 46.4729C123.009 46.8555 119.758 47.4288 118.993 47.6206C119.758 47.8114 120.714 48.0031 121.288 48.3857C121.671 48.5765 121.862 48.7683 122.053 48.9591C121.479 49.5324 120.331 50.1067 119.185 50.4893C118.037 50.8719 116.889 51.2544 115.551 51.637C114.976 51.8278 114.212 52.0196 113.638 52.2104C113.065 52.4012 112.108 52.4012 111.343 53.7406C110.387 55.2699 111.726 56.4176 112.299 56.9919C112.873 57.3744 113.447 57.756 113.83 57.9478C114.786 57.5652 115.742 57.1827 116.507 56.8001C116.507 56.8001 116.698 56.8001 116.698 56.6093C116.124 56.4176 115.551 56.035 115.168 55.8442C114.594 55.4616 114.212 55.2699 113.83 55.0791C113.638 55.0791 113.638 54.8883 113.638 54.8883C113.83 54.8883 114.02 54.6965 114.403 54.5057C114.976 54.314 115.551 54.1232 116.316 53.9314C117.463 53.5488 118.802 53.358 120.14 52.7837C121.479 52.4012 122.627 51.8278 123.965 50.8719C124.348 50.4893 124.73 50.1067 124.922 49.5324C125.113 48.9591 125.113 48.0031 124.73 47.4288C124.348 47.0463 124.157 46.6647 123.774 46.4729Z" fill="#B6BFDA"/>
<path d="M124.539 27.3488C124.922 27.3488 125.113 27.5396 125.113 27.9222C125.113 28.3048 124.922 28.4956 124.539 28.4956C124.157 28.4956 123.965 28.3048 123.965 27.9222C123.965 27.5396 124.157 27.3488 124.539 27.3488ZM126.26 27.1571C125.495 26.5837 124.348 26.5837 123.583 26.392C123.009 26.392 121.288 25.8186 120.714 26.2012C119.949 26.7745 120.714 28.113 121.096 28.4956C122.436 29.6432 124.157 30.2176 125.686 30.7909C126.26 30.9817 127.791 31.7469 126.643 32.7037C125.878 33.2771 124.73 33.8505 123.009 34.6156C122.053 34.9981 120.331 35.7633 117.654 36.9109C116.316 37.4843 114.786 38.0586 113.064 38.632C112.299 38.8228 111.152 39.2054 110.196 39.7797C109.621 39.9705 106.562 41.5007 107.135 43.4135C107.518 44.752 108.283 45.1346 109.239 45.5171C109.621 45.7079 110.004 45.7079 110.387 45.8997L110.578 45.7079C111.726 44.9428 112.873 44.1777 114.02 43.6043C113.255 43.4135 112.49 43.2218 111.726 43.031C111.343 43.031 111.152 42.8392 110.769 42.6484C110.961 42.4566 111.152 42.4566 111.343 42.2658C112.108 41.8833 112.873 41.6915 113.83 41.309C115.551 40.7356 117.08 40.1622 118.419 39.5879C121.096 38.4412 123.009 37.6761 123.965 37.2935C125.878 36.3366 127.599 35.7633 129.129 33.8505C129.894 32.8945 130.085 31.3643 129.703 30.2176C128.747 27.9222 126.451 27.1571 125.878 26.7745L126.26 27.1571Z" fill="#B6BFDA"/>
<path d="M117.066 9.76147C117.594 9.76147 118.021 10.1893 118.021 10.7164V10.9554H116.112V10.7164C116.112 10.1893 116.539 9.76147 117.066 9.76147Z" fill="#B6BFDA"/>
</svg>
