<svg width="28" height="28" viewBox="0 0 28 28" fill="none" xmlns="http://www.w3.org/2000/svg">
<path d="M14.0046 0C8.1597 0 6.45029 0.00603204 6.11802 0.0335999C4.91856 0.133331 4.17218 0.322243 3.35903 0.727189C2.73239 1.03846 2.23816 1.39925 1.75041 1.90502C0.86212 2.82737 0.323758 3.96211 0.128868 5.31097C0.0341211 5.96579 0.00655303 6.09934 0.000954793 9.44412C-0.00119349 10.559 0.000954793 12.0264 0.000954793 13.9945C0.000954793 19.8362 0.00741019 21.5444 0.035412 21.8761C0.132318 23.0436 0.315355 23.7781 0.702978 24.5816C1.44377 26.1195 2.85856 27.2741 4.52534 27.7049C5.10246 27.8535 5.73988 27.9354 6.55818 27.9741C6.90489 27.9892 10.4387 28 13.9746 28C17.5106 28 21.0465 27.9957 21.3846 27.9785C22.3321 27.9339 22.8823 27.86 23.4907 27.7027C25.1682 27.2698 26.5572 26.1325 27.313 24.5729C27.6931 23.7889 27.8859 23.0263 27.9731 21.9198C27.992 21.6786 28 17.8321 28 13.9909C28 10.1489 27.9914 6.30957 27.9724 6.06832C27.8841 4.94392 27.6914 4.18786 27.2991 3.38871C26.9771 2.73453 26.6196 2.24599 26.1007 1.74649C25.1745 0.86161 24.0418 0.3231 22.692 0.128379C22.038 0.0338117 21.9077 0.00580989 18.5612 0H14.0046Z" fill="url(#paint0_radial_25_37)"/>
<path d="M14.0046 0C8.1597 0 6.45029 0.00603204 6.11802 0.0335999C4.91856 0.133331 4.17218 0.322243 3.35903 0.727189C2.73239 1.03846 2.23816 1.39925 1.75041 1.90502C0.86212 2.82737 0.323758 3.96211 0.128868 5.31097C0.0341211 5.96579 0.00655303 6.09934 0.000954793 9.44412C-0.00119349 10.559 0.000954793 12.0264 0.000954793 13.9945C0.000954793 19.8362 0.00741019 21.5444 0.035412 21.8761C0.132318 23.0436 0.315355 23.7781 0.702978 24.5816C1.44377 26.1195 2.85856 27.2741 4.52534 27.7049C5.10246 27.8535 5.73988 27.9354 6.55818 27.9741C6.90489 27.9892 10.4387 28 13.9746 28C17.5106 28 21.0465 27.9957 21.3846 27.9785C22.3321 27.9339 22.8823 27.86 23.4907 27.7027C25.1682 27.2698 26.5572 26.1325 27.313 24.5729C27.6931 23.7889 27.8859 23.0263 27.9731 21.9198C27.992 21.6786 28 17.8321 28 13.9909C28 10.1489 27.9914 6.30957 27.9724 6.06832C27.8841 4.94392 27.6914 4.18786 27.2991 3.38871C26.9771 2.73453 26.6196 2.24599 26.1007 1.74649C25.1745 0.86161 24.0418 0.3231 22.692 0.128379C22.038 0.0338117 21.9077 0.00580989 18.5612 0H14.0046Z" fill="url(#paint1_radial_25_37)"/>
<path d="M14.0046 0C8.1597 0 6.45029 0.00603204 6.11802 0.0335999C4.91856 0.133331 4.17218 0.322243 3.35903 0.727189C2.73239 1.03846 2.23816 1.39925 1.75041 1.90502C0.86212 2.82737 0.323758 3.96211 0.128868 5.31097C0.0341211 5.96579 0.00655303 6.09934 0.000954793 9.44412C-0.00119349 10.559 0.000954793 12.0264 0.000954793 13.9945C0.000954793 19.8362 0.00741019 21.5444 0.035412 21.8761C0.132318 23.0436 0.315355 23.7781 0.702978 24.5816C1.44377 26.1195 2.85856 27.2741 4.52534 27.7049C5.10246 27.8535 5.73988 27.9354 6.55818 27.9741C6.90489 27.9892 10.4387 28 13.9746 28C17.5106 28 21.0465 27.9957 21.3846 27.9785C22.3321 27.9339 22.8823 27.86 23.4907 27.7027C25.1682 27.2698 26.5572 26.1325 27.313 24.5729C27.6931 23.7889 27.8859 23.0263 27.9731 21.9198C27.992 21.6786 28 17.8321 28 13.9909C28 10.1489 27.9914 6.30957 27.9724 6.06832C27.8841 4.94392 27.6914 4.18786 27.2991 3.38871C26.9771 2.73453 26.6196 2.24599 26.1007 1.74649C25.1745 0.86161 24.0418 0.3231 22.692 0.128379C22.038 0.0338117 21.9077 0.00580989 18.5612 0H14.0046Z" fill="url(#paint2_radial_25_37)"/>
<path d="M14.0046 0C8.1597 0 6.45029 0.00603204 6.11802 0.0335999C4.91856 0.133331 4.17218 0.322243 3.35903 0.727189C2.73239 1.03846 2.23816 1.39925 1.75041 1.90502C0.86212 2.82737 0.323758 3.96211 0.128868 5.31097C0.0341211 5.96579 0.00655303 6.09934 0.000954793 9.44412C-0.00119349 10.559 0.000954793 12.0264 0.000954793 13.9945C0.000954793 19.8362 0.00741019 21.5444 0.035412 21.8761C0.132318 23.0436 0.315355 23.7781 0.702978 24.5816C1.44377 26.1195 2.85856 27.2741 4.52534 27.7049C5.10246 27.8535 5.73988 27.9354 6.55818 27.9741C6.90489 27.9892 10.4387 28 13.9746 28C17.5106 28 21.0465 27.9957 21.3846 27.9785C22.3321 27.9339 22.8823 27.86 23.4907 27.7027C25.1682 27.2698 26.5572 26.1325 27.313 24.5729C27.6931 23.7889 27.8859 23.0263 27.9731 21.9198C27.992 21.6786 28 17.8321 28 13.9909C28 10.1489 27.9914 6.30957 27.9724 6.06832C27.8841 4.94392 27.6914 4.18786 27.2991 3.38871C26.9771 2.73453 26.6196 2.24599 26.1007 1.74649C25.1745 0.86161 24.0418 0.3231 22.692 0.128379C22.038 0.0338117 21.9077 0.00580989 18.5612 0H14.0046Z" fill="url(#paint3_radial_25_37)"/>
<path d="M14.0057 3.59521C11.1784 3.59521 10.8235 3.60756 9.71307 3.65807C8.60478 3.70878 7.84827 3.88411 7.18633 4.14138C6.50162 4.40708 5.92079 4.76251 5.34214 5.34094C4.76305 5.91918 4.40735 6.49957 4.14058 7.18356C3.88248 7.84523 3.7068 8.60138 3.65692 9.70843C3.60726 10.8181 3.59424 11.1728 3.59424 13.9981C3.59424 16.8234 3.60682 17.1768 3.65713 18.2865C3.70811 19.3939 3.88357 20.1499 4.14079 20.8113C4.40691 21.4955 4.76261 22.0759 5.34148 22.6542C5.91993 23.2328 6.50075 23.5891 7.18503 23.8548C7.84739 24.1121 8.60413 24.2874 9.7122 24.3381C10.8227 24.3886 11.1773 24.401 14.0044 24.401C16.832 24.401 17.1857 24.3886 18.2962 24.3381C19.4045 24.2874 20.1619 24.1121 20.8242 23.8548C21.5087 23.5891 22.0887 23.2328 22.6671 22.6542C23.2462 22.0759 23.6019 21.4955 23.8687 20.8116C24.1246 20.1499 24.3003 19.3937 24.3523 18.2867C24.4022 17.177 24.4152 16.8233 24.4152 13.9981C24.4152 11.1728 24.4022 10.8183 24.3523 9.70864C24.3003 8.60116 24.1246 7.84523 23.8687 7.18378C23.6019 6.49957 23.2462 5.91917 22.6671 5.34094C22.088 4.76228 21.5089 4.40685 20.8236 4.14137C20.1599 3.88411 19.403 3.70878 18.2947 3.65807C17.1842 3.60756 16.8307 3.59521 14.0025 3.59521H14.0057ZM13.0718 5.4699C13.349 5.46947 13.6583 5.4699 14.0057 5.4699C16.7853 5.4699 17.1148 5.47987 18.2125 5.52972C19.2275 5.5761 19.7784 5.74557 20.1454 5.88796C20.6312 6.07651 20.9776 6.30191 21.3417 6.66601C21.7061 7.03012 21.9316 7.37688 22.1208 7.86234C22.2633 8.22861 22.4331 8.7791 22.4793 9.79338C22.5292 10.89 22.54 11.2194 22.54 13.9957C22.54 16.772 22.5292 17.1014 22.4793 18.198C22.4329 19.2123 22.2633 19.7628 22.1208 20.1291C21.9321 20.6145 21.7061 20.9602 21.3417 21.3241C20.9774 21.6882 20.6314 21.9136 20.1454 22.1021C19.7788 22.2452 19.2275 22.4142 18.2125 22.4606C17.115 22.5105 16.7853 22.5213 14.0057 22.5213C11.2259 22.5213 10.8964 22.5105 9.79896 22.4606C8.78393 22.4138 8.23304 22.2443 7.86584 22.1019C7.38001 21.9134 7.03298 21.688 6.66862 21.3239C6.30425 20.9598 6.07869 20.6139 5.88956 20.1282C5.74706 19.7619 5.57724 19.2114 5.53105 18.1972C5.48116 17.1005 5.47118 16.7711 5.47118 13.9931C5.47118 11.2151 5.48116 10.8874 5.53105 9.79078C5.57746 8.77649 5.74706 8.22601 5.88956 7.85931C6.07825 7.37384 6.30425 7.02708 6.66862 6.66299C7.03298 6.29888 7.38001 6.07349 7.86584 5.8845C8.23282 5.74146 8.78393 5.57242 9.79896 5.52581C10.7593 5.48247 11.1315 5.46947 13.0718 5.46729L13.0718 5.4699ZM19.5628 7.19721C18.8731 7.19721 18.3135 7.75572 18.3135 8.44512C18.3135 9.13432 18.8731 9.69347 19.5628 9.69347C20.2525 9.69347 20.8121 9.13432 20.8121 8.44512C20.8121 7.75593 20.2525 7.19679 19.5628 7.19679L19.5628 7.19721ZM14.0057 8.65578C11.0532 8.65578 8.65944 11.0478 8.65944 13.9981C8.65944 16.9484 11.0532 19.3393 14.0057 19.3393C16.9582 19.3393 19.3511 16.9484 19.3511 13.9981C19.3511 11.0478 16.958 8.65578 14.0055 8.65578H14.0057ZM14.0057 10.5305C15.9221 10.5305 17.4759 12.0829 17.4759 13.9981C17.4759 15.9131 15.9221 17.4657 14.0057 17.4657C12.0891 17.4657 10.5355 15.9131 10.5355 13.9981C10.5355 12.0829 12.0891 10.5305 14.0057 10.5305Z" fill="white"/>
<defs>
<radialGradient id="paint0_radial_25_37" cx="0" cy="0" r="1" gradientTransform="matrix(-17.2187 4.85609 -3.49863 -12.4053 27.0959 13.1239)" gradientUnits="userSpaceOnUse">
<stop stop-color="#FF005F"/>
<stop offset="1" stop-color="#FC01D8"/>
</radialGradient>
<radialGradient id="paint1_radial_25_37" cx="0" cy="0" r="1" gradientUnits="userSpaceOnUse" gradientTransform="translate(7.43729 30.1566) rotate(-90) scale(22.3501 23.713)">
<stop stop-color="#FFCC00"/>
<stop offset="0.1242" stop-color="#FFCC00"/>
<stop offset="0.5672" stop-color="#FE4A05"/>
<stop offset="0.6942" stop-color="#FF0F3F"/>
<stop offset="1" stop-color="#FE0657" stop-opacity="0"/>
</radialGradient>
<radialGradient id="paint2_radial_25_37" cx="0" cy="0" r="1" gradientTransform="matrix(4.63909 -7.9933 10.4064 6.0396 14.7075 27.6051)" gradientUnits="userSpaceOnUse">
<stop stop-color="#FFCC00"/>
<stop offset="1" stop-color="#FFCC00" stop-opacity="0"/>
</radialGradient>
<radialGradient id="paint3_radial_25_37" cx="0" cy="0" r="1" gradientTransform="matrix(-17.0297 4.79528 -1.63333 -5.80213 3.799 1.14015)" gradientUnits="userSpaceOnUse">
<stop stop-color="#780CFF"/>
<stop offset="1" stop-color="#820BFF" stop-opacity="0"/>
</radialGradient>
</defs>
</svg>
