<svg width="28" height="28" viewBox="0 0 28 28" fill="none" xmlns="http://www.w3.org/2000/svg">
<path d="M4 7H24V21H4V7Z" fill="white"/>
<path d="M0 13.5805C0 5.77695 6.11275 0 14 0C21.8872 0 28 5.77695 28 13.5805C28 21.384 21.8872 27.161 14 27.161C12.5825 27.161 11.2245 26.9737 9.947 26.6237C9.69927 26.5549 9.43542 26.5734 9.19975 26.6762L6.42075 27.9047C6.25291 27.9788 6.06945 28.0104 5.88651 27.997C5.70356 27.9835 5.52672 27.9253 5.37153 27.8275C5.21634 27.7297 5.08755 27.5952 4.99648 27.436C4.90542 27.2767 4.85486 27.0976 4.84925 26.9142L4.77225 24.4239C4.76683 24.2723 4.73069 24.1234 4.66601 23.9862C4.60133 23.8491 4.50947 23.7264 4.396 23.6258C1.673 21.1897 0 17.6616 0 13.5805ZM9.7055 11.0271L5.593 17.5514C5.19925 18.1779 5.9675 18.8832 6.55725 18.4369L10.976 15.0838C11.1213 14.9734 11.2987 14.9133 11.4812 14.9127C11.6637 14.9121 11.8414 14.9709 11.9875 15.0803L15.2582 17.5339C15.4903 17.7079 15.7559 17.832 16.0383 17.8982C16.3207 17.9645 16.6138 17.9716 16.899 17.919C17.1843 17.8664 17.4556 17.7552 17.6957 17.5925C17.9359 17.4299 18.1398 17.2192 18.2945 16.9738L22.407 10.4496C22.8025 9.8231 22.0325 9.11782 21.4428 9.56409L17.024 12.9172C16.8787 13.0276 16.7013 13.0876 16.5188 13.0883C16.3363 13.0889 16.1586 13.0301 16.0125 12.9207L12.7418 10.4654C12.5097 10.2913 12.2441 10.1673 11.9617 10.101C11.6793 10.0347 11.3862 10.0276 11.101 10.0803C10.8157 10.1329 10.5444 10.244 10.3043 10.4067C10.0641 10.5694 9.86021 10.7818 9.7055 11.0271Z" fill="#0866FF"/>
</svg>
