<svg width="28" height="32" viewBox="0 0 28 32" fill="none" xmlns="http://www.w3.org/2000/svg">
<path d="M20.7502 11.422C22.794 12.8815 25.296 13.7416 28 13.7416V8.54207C27.4875 8.54207 26.9771 8.48994 26.4775 8.38352V12.4754C23.7735 12.4754 21.2715 11.6175 19.2278 10.158V20.7676C19.2278 26.0757 14.9231 30.3782 9.6128 30.3782C7.63204 30.3782 5.79028 29.7788 4.25909 28.7537C6.00529 30.539 8.43998 31.6445 11.1331 31.6445C16.4434 31.6445 20.7481 27.3419 20.7481 22.0338V11.4242L20.7502 11.422ZM22.6289 6.17688C21.5843 5.03663 20.9001 3.56409 20.7502 1.93518V1.26624H19.3081C19.6708 3.33605 20.911 5.10614 22.6289 6.17688ZM7.61901 24.677C7.03477 23.9125 6.71984 22.9764 6.72202 22.0165C6.72202 19.5883 8.69192 17.6206 11.1201 17.6206C11.5718 17.6206 12.0236 17.6901 12.4536 17.8269V12.5123C11.9498 12.4428 11.4415 12.4145 10.9311 12.4254V16.5629C10.4989 16.426 10.0493 16.3565 9.59543 16.3565C7.16508 16.3565 5.19735 18.3243 5.19735 20.7524C5.19735 22.4682 6.18121 23.956 7.61683 24.6792L7.61901 24.677Z" fill="#FF004F"/>
<path d="M19.2277 10.1558C21.2715 11.6153 23.7735 12.4732 26.4775 12.4732V8.38134C24.968 8.05991 23.6323 7.27151 22.6289 6.17688C20.9088 5.10396 19.6708 3.33605 19.3081 1.26624H15.5182V22.0317C15.5095 24.4533 13.5439 26.4124 11.1201 26.4124C9.69097 26.4124 8.42259 25.7326 7.61899 24.677C6.18337 23.9538 5.19951 22.4661 5.19951 20.7503C5.19951 18.3221 7.16941 16.3544 9.59758 16.3544C10.0624 16.3544 10.5119 16.426 10.9333 16.5607V12.4232C5.71641 12.5318 1.52032 16.7909 1.52032 22.0317C1.52032 24.6466 2.565 27.0183 4.26125 28.7515C5.79026 29.7788 7.63202 30.3761 9.61496 30.3761C14.9252 30.3761 19.2299 26.0736 19.2299 20.7655V10.1558H19.2277Z" fill="black"/>
<path d="M26.4775 8.38132V7.27366C25.1179 7.27366 23.7822 6.89575 22.6289 6.17468C23.6519 7.29321 24.9963 8.06423 26.4775 8.38132ZM19.3081 1.26621C19.2733 1.06857 19.2473 0.868756 19.2277 0.668942V0H13.9957V20.7654C13.987 23.1871 12.0214 25.1461 9.59758 25.1461C8.8852 25.1461 8.21409 24.9767 7.61899 24.677C8.42259 25.7304 9.69097 26.4123 11.1201 26.4123C13.5439 26.4123 15.5095 24.4533 15.5182 22.0316V1.26621H19.3081ZM10.9333 12.4232V11.246C10.4967 11.1852 10.0558 11.157 9.61496 11.157C4.30469 11.157 0 15.4595 0 20.7676C0 24.0949 1.6919 27.027 4.26342 28.7515C2.56717 27.0183 1.52249 24.6488 1.52249 22.0316C1.52249 16.7931 5.71858 12.5318 10.9355 12.4232H10.9333Z" fill="#00F2EA"/>
</svg>
