<svg width="54" height="50" viewBox="0 0 54 50" fill="none" xmlns="http://www.w3.org/2000/svg">
<path d="M52.8151 34.9081C51.7414 33.0637 49.3636 32.4318 47.5042 33.4967L38.6557 38.5635C38.0321 38.9206 37.3026 39.0471 36.595 38.9208L25.051 36.8596L23.4465 36.676H32.9203C35.05 36.676 36.7764 34.9496 36.7764 32.82C36.7764 32.1506 36.2337 31.608 35.5644 31.608H24.6119C23.8441 31.608 23.0855 31.7745 22.3884 32.0964L15.2029 35.412C14.0799 35.9301 12.8579 36.1986 11.6212 36.1986H11.3779V46.3345H13.4983L37.6547 44.2136C37.672 44.212 37.6895 44.2107 37.7068 44.2094L38.4039 44.1525C38.9745 44.0941 39.5266 43.9167 40.0242 43.6318L52.3676 36.5638C52.9523 36.2288 53.1525 35.4877 52.8151 34.9081Z" fill="#B8C1DC"/>
<path d="M13.4984 46.7721H11.3779C11.1363 46.7721 10.9403 46.5761 10.9403 46.3345V36.1984C10.9403 35.9568 11.1363 35.7608 11.3779 35.7608H11.6212C12.7866 35.7608 13.9616 35.5028 15.0195 35.0146L22.2048 31.699C22.9542 31.3531 23.7866 31.1703 24.6117 31.1703H35.5644C36.4738 31.1703 37.2138 31.9104 37.2138 32.82C37.2138 35.1875 35.2876 37.1137 32.9203 37.1137H28.9629L36.6718 38.4902C37.277 38.5983 37.9046 38.4895 38.4378 38.1841L47.2862 33.1173C49.3509 31.9351 52.0005 32.6399 53.193 34.6881C53.4149 35.0693 53.4742 35.5133 53.3602 35.9389C53.246 36.366 52.9705 36.7229 52.5851 36.9436L40.2417 44.0116C39.6877 44.3291 39.0842 44.523 38.4485 44.5882L37.6921 44.6499L13.5364 46.7708C13.524 46.7715 13.5113 46.7721 13.4984 46.7721ZM11.8157 45.8969H13.4795L37.6748 43.7729L38.3689 43.7164C38.873 43.6646 39.3599 43.5081 39.8071 43.2519L52.1506 36.1837C52.3322 36.0798 52.4617 35.9122 52.5154 35.712C52.5685 35.5135 52.5407 35.3063 52.4372 35.1284C51.4859 33.4941 49.3704 32.9329 47.7219 33.8766L38.8735 38.9436C38.1621 39.3508 37.326 39.4958 36.5184 39.3518L24.9878 37.2931L23.3969 37.1108C23.1664 37.0843 22.9964 36.8828 23.0098 36.6511C23.0229 36.4194 23.2146 36.2384 23.4467 36.2384H32.9208C34.8056 36.2384 36.339 34.705 36.339 32.82C36.339 32.3928 35.9917 32.0456 35.5648 32.0456H24.6121C23.9126 32.0456 23.2071 32.2005 22.5719 32.4937L15.3867 35.8093C14.2734 36.3231 13.043 36.6067 11.8159 36.634L11.8157 45.8969Z" fill="#21409A"/>
<path d="M10.7796 33.8081H8.31476V48.2495H10.7796C11.1103 48.2495 11.3781 47.9815 11.3781 47.6511V34.4065C11.3781 34.0759 11.11 33.8081 10.7796 33.8081Z" fill="#B8C1DC"/>
<path d="M29.2111 27.1799C36.4618 27.1799 42.3396 21.3021 42.3396 14.0514C42.3396 6.80066 36.4618 0.922806 29.2111 0.922806C21.9603 0.922806 16.0825 6.80066 16.0825 14.0514C16.0825 21.3021 21.9603 27.1799 29.2111 27.1799Z" fill="#B8C1DC"/>
<path d="M33.3275 23.9869C38.8148 21.7139 41.4205 15.423 39.1476 9.93567C36.8746 4.44836 30.5837 1.84261 25.0963 4.11558C19.609 6.38855 17.0033 12.6795 19.2762 18.1668C21.5492 23.6541 27.8402 26.2599 33.3275 23.9869Z" fill="#21409A"/>
<path d="M29.2111 27.6175C21.7306 27.6175 15.6449 21.5318 15.6449 14.0514C15.6449 6.57093 21.7306 0.485184 29.2111 0.485184C36.6915 0.485184 42.7772 6.57093 42.7772 14.0514C42.7772 21.5318 36.6913 27.6175 29.2111 27.6175ZM29.2111 1.36042C22.2133 1.36042 16.5201 7.05362 16.5201 14.0514C16.5201 21.0491 22.2133 26.7423 29.2111 26.7423C36.2088 26.7423 41.902 21.0491 41.902 14.0514C41.902 7.05362 36.2088 1.36042 29.2111 1.36042Z" fill="#21409A"/>
<path d="M43.8862 21.7878V11.5031C43.8862 11.2613 43.6903 11.0655 43.4485 11.0655H39.2912C39.0494 11.0655 38.8535 11.2613 38.8535 11.5031V21.788C38.8535 22.0298 38.6577 22.2257 38.4159 22.2257H37.2694C36.8794 22.2257 36.6843 22.697 36.96 22.9727L40.9359 26.948C41.1068 27.1189 41.3839 27.1189 41.5547 26.948L45.5307 22.9727C45.8064 22.697 45.6113 22.2257 45.2213 22.2257H44.3238C44.0822 22.2254 43.8862 22.0296 43.8862 21.7878Z" fill="#D87070"/>
<path d="M7.65592 49.5622H0.437622V32.0574H7.65592C8.0198 32.0574 8.31476 32.3524 8.31476 32.7163V48.9033C8.31476 49.2672 8.0198 49.5622 7.65592 49.5622Z" fill="#21409A"/>
<path d="M7.6557 50H0.437619C0.196053 50 0 49.8039 0 49.5624V32.0576C0 31.8161 0.196053 31.62 0.437619 31.62H7.65592C8.26049 31.62 8.75238 32.1119 8.75238 32.7165V48.9035C8.75238 49.5079 8.26027 50 7.6557 50ZM0.875237 49.1248H7.65592C7.77802 49.1248 7.87714 49.0254 7.87714 48.9035V32.7165C7.87714 32.5944 7.7778 32.4952 7.65592 32.4952H0.875237V49.1248Z" fill="#3762CC"/>
<path d="M41.2456 27.5132C41.0215 27.5132 40.7975 27.4278 40.6268 27.2574L36.6508 23.2821C36.3996 23.0309 36.3252 22.6565 36.4611 22.3283C36.597 22.0001 36.9142 21.788 37.2696 21.788H38.4162V11.5031C38.4162 11.0204 38.8087 10.6279 39.2914 10.6279H43.4488C43.9315 10.6279 44.324 11.0204 44.324 11.5031V21.7885L45.2216 21.788C45.5769 21.788 45.8944 22.0003 46.0303 22.3285C46.1662 22.6567 46.0915 23.0311 45.8404 23.2821L41.8644 27.2574C41.6937 27.4281 41.4696 27.5132 41.2456 27.5132ZM37.2696 22.6631L41.2456 26.6384L45.2216 22.6631H44.324C43.8413 22.6631 43.4488 22.2705 43.4488 21.7878V11.5031H39.2914V21.788C39.2914 22.2707 38.8988 22.6633 38.4162 22.6633L37.2696 22.6631Z" fill="#21409A"/>
<path d="M10.7796 48.6871H8.31475C8.07319 48.6871 7.87714 48.4911 7.87714 48.2495V33.8081C7.87714 33.5665 8.07319 33.3705 8.31475 33.3705H10.7796C11.351 33.3705 11.8157 33.8352 11.8157 34.4065V47.6511C11.8157 48.2222 11.3507 48.6871 10.7796 48.6871ZM8.75237 47.8119H10.7796C10.8683 47.8119 10.9405 47.7397 10.9405 47.6511V34.4065C10.9405 34.3179 10.8683 34.2457 10.7796 34.2457H8.75237V47.8119Z" fill="#3762CC"/>
<path d="M34.9865 16.339C35.3108 16.339 35.5531 16.4255 35.713 16.5987C35.873 16.772 35.9532 17.0143 35.9532 17.3253V17.3917C35.9532 17.6981 35.8728 17.9381 35.713 18.1114C35.5531 18.2847 35.3108 18.3722 34.9865 18.3722C34.6576 18.3722 34.4154 18.2847 34.2599 18.1114C34.1045 17.9381 34.0265 17.6981 34.0265 17.3917V17.3253C34.0265 17.0143 34.1044 16.772 34.2599 16.5987C34.4154 16.4255 34.6577 16.339 34.9865 16.339ZM33.4591 9.70712L33.5519 10.9532H27.1427C27.2522 11.0961 27.3413 11.256 27.4073 11.4337C27.5272 11.7446 27.587 12.0979 27.587 12.4933V12.586C27.587 12.7036 27.5806 12.8175 27.5704 12.9268H27.8116C27.9891 12.664 28.2205 12.4608 28.507 12.3194C28.8534 12.1463 29.2666 12.0597 29.7462 12.0597C30.3415 12.0597 30.8237 12.162 31.1925 12.3663C31.5657 12.5707 31.8615 12.9129 32.0792 13.3927C32.3014 13.8725 32.4877 14.5215 32.6388 15.339L32.9591 17.0987H31.3263L31.0597 15.4591C30.9664 14.8903 30.8641 14.457 30.7531 14.1593C30.6464 13.8616 30.5126 13.6618 30.3527 13.5597C30.1927 13.4531 29.9881 13.3995 29.7394 13.3995C29.5662 13.3996 29.415 13.4335 29.2863 13.5001C29.1622 13.5623 29.0667 13.664 29.0001 13.8058C28.9335 13.9435 28.8995 14.1261 28.8995 14.3526V14.4395C28.8995 14.6527 28.9311 14.8258 28.9933 14.9591C29.0599 15.0879 29.1536 15.1816 29.2736 15.2393C29.3935 15.297 29.5337 15.3263 29.6935 15.3263C29.7911 15.3262 29.8864 15.3191 29.9796 15.3058C30.0729 15.2924 30.1666 15.2681 30.2599 15.2325L30.1193 16.5118C30.0172 16.5517 29.9021 16.581 29.7736 16.5987C29.6491 16.6121 29.5154 16.6192 29.3732 16.6192C28.9778 16.6192 28.6356 16.5437 28.3468 16.3927C28.0581 16.2416 27.8339 16.0102 27.674 15.6993C27.5184 15.3883 27.4406 14.9903 27.4406 14.506V14.3731C27.4406 14.2978 27.4425 14.224 27.4464 14.1524H27.1202C27.0479 14.2454 26.9693 14.334 26.88 14.4132C26.5092 14.7418 25.9659 14.9492 25.2511 15.0411C25.3621 15.1298 25.4631 15.2156 25.5538 15.2989C25.7227 15.45 25.8808 15.6167 26.0275 15.7989C26.1785 15.9767 26.3429 16.1945 26.5206 16.4522L27.6603 18.1456V18.212H25.6671L23.8341 15.2188L23.0948 15.1593V13.7862H24.0548C24.7122 13.7862 25.1812 13.6682 25.4611 13.4327C25.7452 13.1972 25.8878 12.8416 25.8878 12.3663V12.2804C25.8878 11.9249 25.8247 11.6134 25.7003 11.3468C25.6363 11.2047 25.5504 11.0739 25.4435 10.9532H22.5284L22.4415 9.70712H33.4591Z" fill="white"/>
</svg>
