<svg width="62" height="50" viewBox="0 0 62 50" fill="none" xmlns="http://www.w3.org/2000/svg">
<path d="M32.3614 25.3435C33.4662 25.3435 34.6863 25.2234 36.0073 24.9352C36.992 24.719 37.6165 23.7439 37.4003 22.764C37.1842 21.7793 36.2139 21.1548 35.2291 21.371C29.6234 22.5959 26.823 19.9875 26.6789 19.8482C25.9727 19.1421 24.8247 19.1325 24.1138 19.8386C23.3932 20.5448 23.3836 21.7024 24.0897 22.4181C24.229 22.5622 27.0391 25.3483 32.3662 25.3483L32.3614 25.3435Z" fill="#B6BFDA"/>
<path d="M19.0796 12.9072C21.2797 12.9072 23.0618 14.6893 23.0618 16.8893C23.0618 19.0893 21.2797 20.8714 19.0796 20.8714C16.8796 20.8714 15.0975 19.0893 15.0975 16.8893C15.0975 14.6893 16.8796 12.9072 19.0796 12.9072Z" fill="#B6BFDA"/>
<path d="M60.5294 46.8393V36.4204C60.5294 35.1427 59.5302 34.1003 58.2717 34.0235C59.0403 33.7449 59.5975 33.0147 59.5975 32.1453C59.5975 31.0405 58.6992 30.1422 57.5944 30.1422H31.3143L12.1482 19.9395C11.1586 19.4447 9.95774 19.8434 9.45817 20.833C8.96341 21.8225 9.36209 23.0234 10.3516 23.5229L28.2352 33.082H15.1936C14.5307 33.082 13.9927 33.62 13.9927 34.2829V34.9506C13.9927 35.6134 14.5307 36.1514 15.1936 36.1514H19.4207C19.4111 36.2379 19.4063 36.3292 19.4063 36.4204V46.6856C18.9932 47.017 18.7242 47.5214 18.7242 48.093C18.7242 49.0922 19.5312 49.8992 20.5303 49.8992C21.5294 49.8992 22.3364 49.0922 22.3364 48.093C22.3364 47.5935 22.1347 47.1467 21.8081 46.8201V44.5672H58.1276V46.6712C57.7001 47.0026 57.4215 47.5118 57.4215 48.093C57.4215 49.0922 58.2285 49.8992 59.2276 49.8992C60.2267 49.8992 61.0337 49.0922 61.0337 48.093C61.0337 47.6079 60.8416 47.166 60.5294 46.8393ZM58.1228 42.9581H21.8032V36.4156H58.1228V42.9581Z" fill="#21409A"/>
<path d="M53.862 25.3627C53.862 25.3627 44.1061 24.2819 43.9043 24.2819L41.1423 24.2963C40.3257 16.4905 32.7745 19.0604 32.7745 19.0604C29.8299 20.1556 27.7692 19.2141 27.7692 19.2141L26.6884 18.5176C25.3194 17.6338 23.619 18.2438 22.6247 19.1853C22.6247 19.1853 22.2932 19.4687 22.0578 19.8482C21.8369 20.2133 21.6591 20.6648 21.6591 20.6648V20.6744C21.3229 21.6303 21.3133 22.8504 21.8801 23.7823C20.4246 23.9985 20.074 23.6094 18.8635 22.2452C18.1574 21.4334 17.1102 20.8041 16.0967 20.1989C14.7132 19.3727 13.2866 18.5176 12.7342 17.2015C12.3211 16.2456 12.4892 15.208 12.6669 14.1128C12.8014 13.2722 12.9359 12.4123 12.8062 11.5621H13.008V10.1018H13.325C13.9158 10.1018 14.3962 9.62148 14.3962 9.03065V3.88126C14.3962 3.29042 13.9158 2.81007 13.325 2.81007H12.4796C12.4892 2.72841 12.494 2.64194 12.494 2.55548C12.494 2.49303 12.4892 2.42579 12.4844 2.36814H12.7053C13.4787 2.36814 14.1032 1.73888 14.1032 0.970314H13.6276C13.6276 1.47949 13.2145 1.89259 12.7053 1.89259H12.3883C12.2778 1.58517 12.0905 1.39783 11.8551 1.39783C11.6197 1.39783 11.4324 1.58517 11.3219 1.89259H7.74811V0H6.32145V1.89259H1.39782C0.888649 1.89259 0.475545 1.47949 0.475545 0.970314H0C0 1.73888 0.629258 2.36814 1.39782 2.36814H6.32145V45.0235H5.38476C3.86684 45.0235 2.56989 45.9698 2.0415 47.3004C1.47469 47.4733 1.05678 47.9969 1.05678 48.6166C1.05678 49.3803 1.67643 50 2.44019 50C3.20395 50 3.82361 49.3803 3.82361 48.6166C3.82361 48.2515 3.6795 47.9201 3.44413 47.6703C3.79479 46.9546 4.52492 46.455 5.37995 46.455H8.60313C9.45336 46.455 10.1883 46.9546 10.539 47.6703C10.3084 47.9153 10.1595 48.2515 10.1595 48.6166C10.1595 49.3803 10.7791 50 11.5429 50C12.3067 50 12.9263 49.3803 12.9263 48.6166C12.9263 47.9921 12.5084 47.4685 11.9416 47.3004C11.4132 45.9698 10.1162 45.0235 8.59833 45.0235H7.7433V42.1606V2.36334H11.2211C11.2162 2.42578 11.2115 2.48823 11.2115 2.55068C11.2115 2.63714 11.2163 2.7236 11.2259 2.80526H10.3852C9.79441 2.80526 9.31405 3.28562 9.31405 3.87645V9.02584C9.31405 9.61668 9.79441 10.097 10.3852 10.097H10.6831V10.7407H11.4949V10.097H12.1866V11.5573H12.2971C12.4364 12.3499 12.297 13.2001 12.1673 14.0263C11.9848 15.1455 11.7975 16.308 12.2682 17.3936C12.8831 18.8587 14.3866 19.7569 15.8373 20.6216C16.8604 21.2364 17.8307 21.8129 18.484 22.5718C19.5792 23.8063 20.098 24.3347 21.222 24.3347C21.5054 24.3347 21.8369 24.2963 22.2212 24.2338C22.3653 24.3876 22.5334 24.5317 22.7255 24.6565C22.7255 24.6565 29.2583 29.1575 33.375 29.2968L53.3 29.2824C54.2271 29.2824 55.0773 28.8837 55.3319 27.947C55.6346 26.8229 54.9717 25.6605 53.8524 25.3579L53.862 25.3627ZM11.7158 2.36814H12.0088C12.0136 2.42579 12.0232 2.48823 12.0232 2.55548C12.0232 2.64675 12.0136 2.73321 12.004 2.81007H11.7206C11.711 2.73321 11.7014 2.65155 11.7014 2.55548C11.7014 2.48343 11.711 2.42579 11.7158 2.36814ZM11.8791 7.78173C11.2595 7.78173 10.7551 7.27735 10.7551 6.6577C10.7551 6.03804 11.8791 4.27515 11.8791 4.27515C11.8791 4.27515 13.0032 6.03804 13.0032 6.6577C13.0032 7.27735 12.4988 7.78173 11.8791 7.78173ZM37.6357 24.6517C37.2706 25.2186 36.7086 25.6125 36.0505 25.7566C34.792 26.0304 33.5479 26.1697 32.3518 26.1697C26.9622 26.1697 24.0945 23.4172 23.7871 23.1002C23.5085 22.8168 23.3164 22.4709 23.1963 22.1059C23.1819 22.0722 23.1771 22.0338 23.1626 22.0002C23.1338 21.8945 23.1098 21.7888 23.0954 21.6832C23.0954 21.6543 23.081 21.6303 23.0762 21.6015C23.0714 21.5535 23.0762 21.5102 23.0762 21.4622C23.0762 21.4094 23.0618 21.3613 23.0618 21.3085C23.0618 21.2797 23.0714 21.246 23.0714 21.2172C23.0714 21.1356 23.0858 21.0539 23.0954 20.9722C23.105 20.8858 23.1194 20.7993 23.1434 20.7176C23.1578 20.6696 23.1723 20.6264 23.1867 20.5783C23.3116 20.1893 23.5133 19.8242 23.8159 19.5312C24.2915 19.0652 24.9159 18.8106 25.5836 18.8106C26.2513 18.8106 26.8902 19.0748 27.3657 19.5504C27.4234 19.608 29.0374 21.1259 32.3374 21.1259C33.178 21.1259 34.0619 21.0251 34.9697 20.8281C35.1475 20.7897 35.33 20.7705 35.5077 20.7705C36.6846 20.7705 37.7222 21.6063 37.9719 22.7543C38.1161 23.4124 37.996 24.0897 37.6309 24.6565L37.6357 24.6517Z" fill="#B6BFDA"/>
</svg>
