<svg width="55" height="50" viewBox="0 0 55 50" fill="none" xmlns="http://www.w3.org/2000/svg">
<path d="M21.7522 35.5091C25.1723 30.2316 35.2281 27.2795 35.2281 27.2795C37.916 25.7754 40.4698 24.1135 42.6585 23.6088C44.2249 23.2473 46.8458 25.3882 44.6012 27.3924C43.4256 28.4422 40.7607 30.863 40.7607 30.863L47.1018 28.9506L47.2404 28.5991C47.9461 26.8115 48.4526 24.9532 48.8096 23.0646C49.1556 21.2348 50.0457 18.8819 52.3334 18.8819C53.0189 18.8819 53.3878 19.3573 53.5539 20.1042C54.512 16.7896 54.322 14.6606 54.322 14.6606H54.3202C54.3284 14.4744 54.3349 14.2872 54.3349 14.099C54.3349 6.54664 47.9653 0 40.1074 0C34.3628 0 29.4165 3.69911 27.1701 8.41042H27.1673C24.9209 3.6982 19.9747 0 14.2301 0C6.37209 0 0.00256808 6.54664 0.00256808 14.099C0.00256808 14.2872 0.0099094 14.4734 0.0172507 14.6606H0.0154157C0.0154157 14.6606 -0.787543 23.6327 9.19667 33.4278C12.9325 37.171 17.0335 40.7618 23.025 45.7007C20.8575 43.1762 19.1451 39.534 21.7531 35.5082L21.7522 35.5091Z" fill="#D87070"/>
<path d="M45.2784 23.7712H45.2775L45.2784 23.7722V23.7712Z" fill="#C233E5" stroke="#8EA7E8" stroke-miterlimit="10"/>
<path d="M47.9075 35.9845C49.3639 35.6385 50.8597 32.5863 51.8122 28.0182C51.8783 27.7007 51.9572 27.3428 52.0416 26.9629C52.3289 25.6598 52.6877 24.0392 52.8473 22.604C53.0767 20.5502 52.7712 19.918 52.6289 19.7408C52.5665 19.6628 52.4959 19.6151 52.3344 19.6151C50.5779 19.6151 49.8411 21.5643 49.5318 23.2005C49.1473 25.2322 48.6068 27.1391 47.924 28.868L47.7855 29.2194C47.7029 29.4287 47.5295 29.5883 47.3147 29.6526L41.1324 31.5173C39.8614 32.6699 38.7887 33.6435 38.7657 33.6646C38.4657 33.9372 38.0013 33.9151 37.7288 33.6141C37.4562 33.3141 37.4792 32.8497 37.7792 32.5772C37.8031 32.5551 38.9373 31.5255 40.2569 30.3298C40.2652 30.3215 40.2744 30.3133 40.2836 30.3059C41.7766 28.9524 43.4981 27.3942 44.1139 26.8445C44.7113 26.3113 44.8801 25.7837 44.6177 25.2771C44.3094 24.6816 43.5624 24.3017 43.0292 24.3017C42.9567 24.3017 42.8879 24.309 42.8246 24.3237C41.1792 24.7027 39.2402 25.8222 37.1864 27.0069C36.6661 27.307 36.1284 27.6172 35.5879 27.92C35.5401 27.9466 35.4887 27.9687 35.4364 27.9833C35.3382 28.0118 25.6009 30.9226 22.3698 35.9083C21.2768 37.5941 20.93 39.345 21.3374 41.1106C22.1624 44.684 25.7918 47.4452 27.0875 48.3335C31.6318 44.0682 35.4502 41.3794 39.7742 39.3909C44.1726 37.3674 46.9091 36.2212 47.9084 35.9845H47.9075Z" fill="#B6BFDA" stroke="#8EA7E8" stroke-miterlimit="10"/>
<path d="M27.1692 50C27.0389 50 26.9086 49.9651 26.7911 49.8945C26.5571 49.7541 21.0483 46.389 19.9059 41.4418C19.4048 39.2734 19.8187 37.1435 21.1364 35.1109C24.5373 29.8618 33.8966 26.9152 34.94 26.5995C35.4484 26.3141 35.9577 26.0204 36.4514 25.736C38.6024 24.4953 40.6341 23.3225 42.4933 22.894C43.7239 22.6104 45.2931 23.3932 45.9199 24.6026C46.1961 25.1367 46.6687 26.5297 45.0903 27.9402C44.8077 28.1926 44.2919 28.6578 43.6716 29.2185L46.5503 28.3504L46.5586 28.3302C47.2074 26.6876 47.7222 24.8697 48.0892 22.9288C48.672 19.8464 50.1797 18.1487 52.3344 18.1487C52.9217 18.1487 53.419 18.3818 53.7733 18.8232C54.9121 20.2401 54.3119 23.4923 53.475 27.2813C53.3924 27.6557 53.3144 28.0099 53.2493 28.3192C52.4582 32.1147 50.9478 36.7727 48.2462 37.4142C47.624 37.5619 45.7556 38.2557 40.3873 40.7261C36.0852 42.7055 32.2833 45.4181 27.6757 49.7981C27.5353 49.9312 27.3536 50 27.1701 50H27.1692ZM43.0274 24.3026C42.9549 24.3026 42.8861 24.3099 42.8227 24.3246C41.1774 24.7036 39.2383 25.8231 37.1846 27.0079C36.6643 27.3079 36.1265 27.6181 35.586 27.9209C35.5383 27.9475 35.4869 27.9696 35.4346 27.9842C35.3364 28.0127 25.5991 30.9235 22.368 35.9092C21.275 37.595 20.9281 39.3459 21.3356 41.1115C22.1606 44.6849 25.7899 47.4461 27.0857 48.3344C31.63 44.0691 35.4484 41.3804 39.7724 39.3918C44.1708 37.3683 46.9073 36.2221 47.9066 35.9854C49.363 35.6394 50.8588 32.5873 51.8113 28.0191C51.8774 27.7016 51.9563 27.3437 52.0407 26.9638C52.3279 25.6607 52.6867 24.0401 52.8464 22.6049C53.0758 20.5511 52.7703 19.9189 52.628 19.7418C52.5656 19.6638 52.495 19.616 52.3334 19.616C50.577 19.616 49.8401 21.5652 49.5309 23.2014C49.1464 25.2331 48.6059 27.14 47.9231 28.8689L47.7846 29.2203C47.702 29.4296 47.5285 29.5892 47.3138 29.6535L41.1315 31.5182C39.8605 32.6708 38.7878 33.6444 38.7648 33.6655C38.4647 33.9381 38.0004 33.916 37.7279 33.6151C37.4553 33.315 37.4783 32.8506 37.7783 32.5781C37.8022 32.5561 38.9364 31.5264 40.256 30.3307C40.2643 30.3225 40.2735 30.3142 40.2826 30.3069C41.7757 28.9533 43.4972 27.3951 44.113 26.8454C44.7104 26.3123 44.8792 25.7846 44.6168 25.2781C44.3084 24.6825 43.5615 24.3026 43.0283 24.3026H43.0274Z" fill="#21409A"/>
</svg>
