<svg width="40" height="50" viewBox="0 0 40 50" fill="none" xmlns="http://www.w3.org/2000/svg">
<path d="M37.6403 15.8267C36.228 13.1064 34.1708 10.71 31.6906 8.89667C31.2027 8.54006 30.5182 8.64641 30.1616 9.13407C29.805 9.62173 29.9114 10.3065 30.399 10.6631C32.608 12.2783 34.4404 14.4124 35.698 16.8348C37.0153 19.3724 37.6834 22.1197 37.6834 25C37.6834 29.7406 35.8374 34.1975 32.4853 37.5497C29.1331 40.9018 24.6761 42.7479 19.9356 42.7479C19.5404 42.7479 19.1445 42.7345 18.7501 42.7083L21.9074 39.551C22.3346 39.1238 22.3346 38.431 21.9074 38.0036C21.4803 37.5764 20.7874 37.5764 20.36 38.0036L15.2957 43.0679C14.8685 43.4951 14.8685 44.1879 15.2957 44.6153L20.36 49.6797C20.5737 49.8934 20.8537 50 21.1337 50C21.4137 50 21.6937 49.8932 21.9074 49.6797C22.3346 49.2525 22.3346 48.5597 21.9074 48.1323L18.6702 44.8953C19.0916 44.9218 19.514 44.9357 19.9356 44.9357C22.6264 44.9357 25.2374 44.4084 27.6958 43.3686C30.0699 42.3645 32.2017 40.927 34.0324 39.0966C35.8631 37.2659 37.3004 35.1341 38.3044 32.76C39.3443 30.3016 39.8715 27.6906 39.8715 24.9998C39.8715 21.8107 39.0998 18.6385 37.6401 15.8265L37.6403 15.8267Z" fill="#21409A"/>
<path d="M9.47246 39.337C7.2635 37.7218 5.43105 35.5877 4.17347 33.1653C2.85615 30.6277 2.18805 27.8804 2.18805 25C2.18805 20.2595 4.0341 15.8025 7.38623 12.4504C10.7384 9.09827 15.1953 7.25222 19.9359 7.25222C20.3308 7.25222 20.727 7.26557 21.1214 7.29178L17.9641 10.4491C17.5369 10.8763 17.5369 11.5691 17.9641 11.9965C18.1778 12.2102 18.4578 12.3171 18.7378 12.3171C19.0177 12.3171 19.2977 12.2102 19.5115 11.9965L24.5758 6.93215C25.003 6.50497 25.003 5.81217 24.5758 5.38474L19.5115 0.320382C19.0843 -0.106794 18.3915 -0.106794 17.9641 0.320382C17.5369 0.747557 17.5369 1.44036 17.9641 1.86779L21.2013 5.105C20.7799 5.07854 20.3572 5.06468 19.9359 5.06468C17.245 5.06468 14.6341 5.5919 12.1756 6.63174C9.8016 7.63579 7.66975 9.07332 5.83907 10.9037C4.00839 12.7344 2.57112 14.8663 1.56707 17.2403C0.527228 19.6988 0 22.3097 0 25.0005C0 28.1896 0.771688 31.3618 2.23139 34.1738C3.64372 36.8942 5.70097 39.2906 8.1811 41.1039C8.37592 41.2463 8.60198 41.3149 8.82602 41.3149C9.16323 41.3149 9.4959 41.1596 9.71011 40.8665C10.0667 40.3786 9.96037 39.6941 9.47271 39.3375L9.47246 39.337Z" fill="#21409A"/>
<path opacity="0.3" d="M15.2548 38.5124L26.7722 23.2339H20.7406L24.6182 11.4877L13.0995 26.7453H19.1312L15.2548 38.5124Z" fill="#21409A"/>
</svg>
