<svg width="50" height="50" viewBox="0 0 50 50" fill="none" xmlns="http://www.w3.org/2000/svg">
<path d="M29.6279 49.9998C28.539 49.9998 27.6531 49.1138 27.6531 48.0246C27.6531 47.1853 28.1925 46.4373 28.9952 46.1632L29.0737 46.1364V40.2307H25.5544V44.2542C25.5544 44.5599 25.3057 44.8086 25 44.8086C24.6943 44.8086 24.4456 44.5599 24.4456 44.2542V40.2307H20.9263V46.1364L21.0048 46.1632C21.8075 46.4373 22.3469 47.1853 22.3469 48.0246C22.3469 49.1138 21.461 49.9998 20.3721 49.9998C19.2831 49.9998 18.3972 49.1138 18.3972 48.0246C18.3972 47.1853 18.9366 46.4373 19.7393 46.1632L19.8178 46.1364V40.2307H16.2985V44.2542C16.2985 44.5599 16.0498 44.8086 15.7441 44.8086C15.4384 44.8086 15.1897 44.5599 15.1897 44.2542V40.2263L15.0767 40.2233C12.1789 40.1496 9.85055 37.8215 9.77592 34.923L9.77298 34.8101H5.74541C5.43971 34.8101 5.19099 34.5614 5.19099 34.2557C5.19099 33.95 5.43971 33.7013 5.74541 33.7013H9.7693V30.182H3.8636L3.83676 30.2605C3.56232 31.0634 2.81397 31.6029 1.97482 31.6029C0.885844 31.6029 0 30.7169 0 29.6278C0 28.5386 0.886028 27.6526 1.97482 27.6526C2.81397 27.6526 3.56232 28.1921 3.83676 28.995L3.8636 29.0735H9.7693V25.5542H5.74541C5.43971 25.5542 5.19099 25.3055 5.19099 24.9998C5.19099 24.6941 5.43971 24.4454 5.74541 24.4454H9.7693V20.9261H3.8636L3.83676 21.0046C3.56232 21.8075 2.81397 22.3471 1.97482 22.3471C0.885844 22.3471 0 21.461 0 20.3719C0 19.2827 0.886028 18.3967 1.97482 18.3967C2.81397 18.3967 3.56232 18.9362 3.83676 19.7392L3.8636 19.8176H9.7693V16.2983H5.74541C5.43971 16.2983 5.19099 16.0496 5.19099 15.7439C5.19099 15.4382 5.43971 15.1895 5.74541 15.1895H9.77298L9.77592 15.0767C9.85037 12.1779 12.1789 9.84963 15.0767 9.77592L15.1897 9.77298V5.74541C15.1897 5.43971 15.4384 5.19099 15.7441 5.19099C16.0498 5.19099 16.2985 5.43971 16.2985 5.74541V9.76875H19.8178V3.86342L19.7393 3.83658C18.9366 3.5625 18.3972 2.81452 18.3972 1.97518C18.3972 0.886029 19.2831 0 20.3721 0C21.461 0 22.3469 0.886029 22.3469 1.97518C22.3469 2.81452 21.8075 3.5625 21.0048 3.83658L20.9263 3.86342V9.76875H24.4456V5.74541C24.4456 5.43971 24.6943 5.19099 25 5.19099C25.3057 5.19099 25.5544 5.43971 25.5544 5.74541V9.76875H29.0737V3.86342L28.9952 3.83658C28.1925 3.5625 27.6531 2.81452 27.6531 1.97518C27.6531 0.886029 28.539 0 29.6279 0C30.7169 0 31.6028 0.886029 31.6028 1.97518C31.6028 2.81452 31.0634 3.5625 30.2607 3.83658L30.1822 3.86342V9.76875H33.7015V5.74541C33.7015 5.43971 33.9502 5.19099 34.2559 5.19099C34.5616 5.19099 34.8103 5.43971 34.8103 5.74541V9.77298L34.9233 9.77592C37.8224 9.84963 40.1507 12.1779 40.2239 15.0767L40.2268 15.1897H44.2544C44.5601 15.1897 44.8088 15.4384 44.8088 15.7441C44.8088 16.0498 44.5601 16.2985 44.2544 16.2985H40.2318V19.8178H46.136L46.1629 19.7393C46.4373 18.9364 47.1857 18.3969 48.0248 18.3969C49.1138 18.3969 49.9996 19.2829 49.9996 20.3721C49.9996 21.4612 49.1138 22.3472 48.0248 22.3472C47.1857 22.3472 46.4373 21.8077 46.1629 21.0048L46.136 20.9263H40.2318V24.4456H44.2544C44.5601 24.4456 44.8088 24.6943 44.8088 25C44.8088 25.3057 44.5601 25.5544 44.2544 25.5544H40.2318V29.0737H46.136L46.1629 28.9952C46.4373 28.1923 47.1857 27.6528 48.0248 27.6528C49.1138 27.6528 49.9996 28.5388 49.9996 29.6279C49.9996 30.7171 49.1138 31.6031 48.0248 31.6031C47.1857 31.6031 46.4373 31.0636 46.1629 30.2607L46.136 30.1822H40.2318V33.7015H44.2544C44.5601 33.7015 44.8088 33.9502 44.8088 34.2559C44.8088 34.5616 44.5601 34.8103 44.2544 34.8103H40.2268L40.2239 34.9233C40.1507 37.8219 37.8224 40.1502 34.9233 40.2237L34.8103 40.2267V44.2544C34.8103 44.5601 34.5616 44.8088 34.2559 44.8088C33.9502 44.8088 33.7015 44.5601 33.7015 44.2544V40.2309H30.1822V46.1366L30.2607 46.1634C31.0634 46.4375 31.6028 47.1855 31.6028 48.0248C31.6028 49.114 30.7169 50 29.6279 50V49.9998ZM29.6279 47.1581C29.1504 47.1581 28.7618 47.5469 28.7618 48.0246C28.7618 48.5024 29.1504 48.891 29.6279 48.891C30.1055 48.891 30.4939 48.5024 30.4939 48.0246C30.4939 47.5469 30.1053 47.1581 29.6279 47.1581ZM20.3717 47.1581C19.8941 47.1581 19.5055 47.5469 19.5055 48.0246C19.5055 48.5024 19.8941 48.891 20.3717 48.891C20.8493 48.891 21.2379 48.5024 21.2379 48.0246C21.2379 47.5469 20.8493 47.1581 20.3717 47.1581ZM30.1824 39.1221H34.7849C37.177 39.1221 39.123 37.1761 39.123 34.7842V30.1822H36.8906V34.6099C36.8906 35.8671 35.8678 36.8899 34.6107 36.8899H30.1822V39.1219L30.1824 39.1221ZM20.9261 39.1221H29.0733V36.8901H20.9261V39.1221ZM10.8779 34.7842C10.8779 37.1761 12.8241 39.1221 15.216 39.1221H19.8173V36.8901H15.3901C14.1329 36.8901 13.1101 35.8673 13.1101 34.6101V30.1824H10.8778V34.7844L10.8779 34.7842ZM15.3903 14.218C14.7445 14.218 14.2191 14.7436 14.2191 15.3895V34.6101C14.2191 35.2559 14.7445 35.7812 15.3903 35.7812H34.6108C35.2566 35.7812 35.782 35.2559 35.782 34.6101V15.3895C35.782 14.7436 35.2566 14.218 34.6108 14.218H15.3903ZM48.025 28.7614C47.5474 28.7614 47.1588 29.15 47.1588 29.6278C47.1588 30.1055 47.5474 30.4943 48.025 30.4943C48.5026 30.4943 48.891 30.1055 48.891 29.6278C48.891 29.15 48.5024 28.7614 48.025 28.7614ZM1.97482 28.7614C1.49724 28.7614 1.10864 29.15 1.10864 29.6278C1.10864 30.1055 1.49724 30.4943 1.97482 30.4943C2.45239 30.4943 2.84228 30.1055 2.84228 29.6278C2.84228 29.15 2.45312 28.7614 1.97482 28.7614ZM36.8906 29.0735H39.123V20.9263H36.8906V29.0735ZM10.8779 29.0735H13.1103V20.9263H10.8779V29.0735ZM48.025 19.5053C47.5474 19.5053 47.1588 19.8939 47.1588 20.3717C47.1588 20.8494 47.5474 21.2381 48.025 21.2381C48.5026 21.2381 48.891 20.8494 48.891 20.3717C48.891 19.8939 48.5024 19.5053 48.025 19.5053ZM1.97482 19.5053C1.49724 19.5053 1.10864 19.8939 1.10864 20.3717C1.10864 20.8494 1.49724 21.2381 1.97482 21.2381C2.45239 21.2381 2.84228 20.8494 2.84228 20.3717C2.84228 19.8939 2.45312 19.5053 1.97482 19.5053ZM30.1824 13.1094H34.6108C35.868 13.1094 36.8908 14.1324 36.8908 15.3897V19.8175H39.1232V15.2153C39.1232 12.8233 37.177 10.8774 34.7851 10.8774H30.1825V13.1094H30.1824ZM15.2162 10.8774C12.8241 10.8774 10.8781 12.8233 10.8781 15.2153V19.8175H13.1105V15.3897C13.1105 14.1324 14.1333 13.1094 15.3904 13.1094H19.8176V10.8774H15.2164H15.2162ZM20.9261 13.1094H29.0733V10.8774H20.9261V13.1094ZM29.6279 1.10864C29.1504 1.10864 28.7618 1.49724 28.7618 1.975C28.7618 2.45276 29.1504 2.84136 29.6279 2.84136C30.1055 2.84136 30.4939 2.45276 30.4939 1.975C30.4939 1.49724 30.1053 1.10864 29.6279 1.10864ZM20.3717 1.10864C19.8941 1.10864 19.5055 1.49724 19.5055 1.975C19.5055 2.45276 19.8941 2.84136 20.3717 2.84136C20.8493 2.84136 21.2379 2.45276 21.2379 1.975C21.2379 1.49724 20.8493 1.10864 20.3717 1.10864Z" fill="#223F99"/>
<path d="M27.5864 33.3105H22.4132C22.107 33.3105 21.8588 33.0623 21.8588 32.7561V28.1408H17.2436C16.9373 28.1408 16.6891 27.8926 16.6891 27.5864V22.4132C16.6891 22.107 16.9373 21.8588 17.2436 21.8588H21.8588V17.2436C21.8588 16.9373 22.107 16.6891 22.4132 16.6891H27.5864C27.8926 16.6891 28.1408 16.9373 28.1408 17.2436V21.8588H32.7561C33.0623 21.8588 33.3105 22.107 33.3105 22.4132V27.5864C33.3105 27.8926 33.0623 28.1408 32.7561 28.1408H28.1408V32.7561C28.1408 33.0623 27.8926 33.3105 27.5864 33.3105Z" fill="#223F99"/>
</svg>
