<svg width="42" height="50" viewBox="0 0 42 50" fill="none" xmlns="http://www.w3.org/2000/svg">
<path d="M17.6644 4.53125C22.3347 11.1946 29.712 23.5893 31.0157 33.0206V38.1613C30.8499 39.0902 30.5774 39.9552 30.1839 40.7422C28.4066 44.2969 24.0511 46.0938 17.2542 46.0938C15.9809 46.1009 14.7085 46.0226 13.4456 45.8594C11.9227 45.7926 10.4301 45.4111 9.06192 44.7388C7.69377 44.0665 6.47973 43.118 5.4964 41.9531C5.25184 41.6452 5.04223 41.3112 4.8714 40.957C1.08234 33.3789 8.77765 18.2617 14.9495 8.61328C15.7894 7.28516 16.5901 6.07422 17.3323 5L17.6644 4.53125Z" fill="#D87070"/>
<path d="M19.2269 0H16.1019L15.0863 1.38672C14.5003 2.22656 13.6605 3.33984 12.7034 4.90234C7.27375 13.125 -2.37469 29.7852 0.535469 40.4492C0.745235 41.2223 1.02639 41.9742 1.37531 42.6953C1.87785 43.7336 2.53654 44.6887 3.32844 45.5273C6.21906 48.4961 10.8675 50 17.1956 50C25.6136 50 31.1214 47.4609 33.6214 42.4805C40.5745 28.7109 20.1058 1.17188 19.2269 0ZM30.1839 40.7422C28.4066 44.2969 24.0511 46.0938 17.2542 46.0938C15.9809 46.1009 14.7085 46.0226 13.4456 45.8594C11.9227 45.7926 10.4301 45.4111 9.06192 44.7388C7.69377 44.0665 6.47973 43.118 5.4964 41.9531C5.25184 41.6452 5.04223 41.3112 4.8714 40.957C1.08234 33.3789 8.77765 18.2617 14.9495 8.61328C15.7894 7.28516 16.5901 6.07422 17.3323 5L17.6644 4.53125C23.7972 13.2812 34.598 31.9141 30.1839 40.7422Z" fill="#21409A"/>
<path d="M30.1839 40.7422C28.4066 44.2969 24.0511 46.0938 17.2542 46.0938C15.9809 46.1009 14.7085 46.0226 13.4456 45.8594C19.637 45.1758 23.7972 42.7148 25.8675 38.5742C30.3988 29.5312 23.1136 14.5312 17.3323 4.98047L17.6644 4.51172C23.7972 13.2812 34.598 31.9141 30.1839 40.7422Z" fill="#6C0118"/>
<path d="M41.3281 39.7266C41.3281 45.4004 36.7285 50 31.0547 50C25.3808 50 20.7812 45.4004 20.7812 39.7266C20.7812 34.0527 25.3808 29.4531 31.0547 29.4531C36.7285 29.4531 41.3281 34.0527 41.3281 39.7266Z" fill="white"/>
<path d="M27.0013 45.1497L25.931 44.0794L30.2122 39.7982L25.931 35.5169L27.0013 34.4466L31.2825 38.7279L35.5638 34.4466L36.6341 35.5169L32.3529 39.7982L36.6341 44.0794L35.5638 45.1497L31.2825 40.8685L27.0013 45.1497Z" fill="#F20A3D"/>
</svg>
