<svg width="43" height="50" viewBox="0 0 43 50" fill="none" xmlns="http://www.w3.org/2000/svg">
<path d="M0.805378 33.7218C0.350683 33.7664 0.00313262 34.1473 7.56996e-06 34.6041V48.8915C-0.00200139 49.3845 0.396108 49.7859 0.889085 49.7878C0.891429 49.7878 0.893661 49.7878 0.896005 49.7878H7.1441C7.63708 49.7898 8.03831 49.3915 8.04021 48.8984C8.04021 48.896 8.04021 48.8938 8.04021 48.8913V47.3464L17.6982 49.6166C20.7559 50.3361 23.9626 50.0383 26.8332 48.7621L36.8189 44.3193C38.3271 43.6485 38.9831 41.8275 38.245 40.3508C38.2404 40.3446 38.2357 40.3389 38.231 40.3329C37.5579 38.9815 35.9443 38.3782 34.5421 38.938L28.5729 41.3198V41.0998C28.5729 39.4993 27.2584 38.174 25.6581 38.174H20.7699L16.6835 35.8411C15.2485 35.0208 13.5818 34.6873 11.9417 34.8924L8.04021 35.3844V34.5997C8.03463 34.1092 7.63451 33.7151 7.1441 33.7171H0.896116C0.86587 33.7155 0.835624 33.7155 0.80549 33.7171L0.805378 33.7218Z" fill="#21409A"/>
<path d="M1.79556 35.5003H6.26193V47.9961H1.79556V35.5003Z" fill="#BDC6E1"/>
<path d="M13.1097 36.6232C14.0516 36.6641 14.9765 36.9287 15.8014 37.401L20.2957 39.9712H25.6581C26.2936 39.9712 26.7774 40.4693 26.7774 41.1045V41.5127C26.7774 42.1484 26.2936 42.646 25.6581 42.646H17.8585V44.4244H25.6581C26.4742 44.4244 27.2127 44.0822 27.7431 43.5352C27.8328 43.5282 27.921 43.5078 28.0046 43.4744L35.201 40.5869C35.7554 40.3657 36.3714 40.6066 36.6376 41.1415C36.9315 41.7295 36.6981 42.4157 36.0972 42.683L26.1079 47.1258C23.5934 48.2437 20.7883 48.5061 18.1096 47.8755L8.0401 45.5077V37.1837L12.1648 36.6607C12.4791 36.6197 12.7958 36.6071 13.1097 36.6197V36.6232Z" fill="white"/>
<path d="M5.36594 35.5003V47.9957H6.26205V35.5003H5.36594Z" fill="#3E64D3"/>
<path opacity="0.3" d="M13.1097 36.6194C12.8676 36.6015 12.624 36.6372 12.381 36.6514C13.2604 36.7157 14.1226 36.9592 14.8949 37.4013L19.3892 39.9713H20.2957L15.8014 37.4013C14.9765 36.9293 14.0516 36.6641 13.1097 36.6235V36.6194ZM24.7516 39.9708C25.3871 39.9708 25.8709 40.4689 25.8709 41.104V41.5119C25.8709 42.1475 25.3871 42.6451 24.7516 42.6451H25.6581C26.2936 42.6451 26.7773 42.1475 26.7773 41.5119V41.104C26.7773 40.4686 26.2936 39.9708 25.6581 39.9708H24.7516ZM35.623 40.5044C35.4832 40.5044 35.3398 40.5329 35.2012 40.5883L35.1593 40.6062C35.3978 40.7097 35.6053 40.8909 35.7311 41.1433C36.025 41.7311 35.7916 42.4174 35.1907 42.6848L25.2014 47.1276C23.5717 47.8521 21.8189 48.178 20.0586 48.1739C22.1208 48.3276 24.1983 47.9766 26.1079 47.1276L36.0971 42.6848C36.698 42.4174 36.9315 41.7311 36.6376 41.1433C36.4379 40.7424 36.0426 40.5048 35.6229 40.505V40.5044H35.623ZM16.9521 42.6455V44.4241H17.8586V42.6455H16.9521Z" fill="#21409A"/>
<path d="M21.6834 0C19.746 0.0267862 17.8187 0.439965 16.0246 1.23808L6.03883 5.6809C4.53065 6.35167 3.87462 8.17268 4.6128 9.64938C4.61737 9.65552 4.62206 9.66133 4.62675 9.66724C5.29986 11.0189 6.91351 11.622 8.31565 11.0621L14.2847 8.68084V8.90082C14.2847 10.5013 15.5993 11.8266 17.1996 11.8266H22.0879L26.1742 14.1593C27.6093 14.9796 29.2759 15.3129 30.916 15.1077L34.8175 14.616V15.4007C34.8232 15.891 35.2234 16.2851 35.7137 16.2831H41.9618C41.992 16.2847 42.0222 16.2847 42.0524 16.2831C42.507 16.2384 42.8545 15.8577 42.8577 15.4009V1.11353C42.8595 0.62044 42.4613 0.219204 41.9683 0.21753C41.9661 0.21753 41.9639 0.21753 41.9618 0.21753H35.7137C35.2207 0.215633 34.8194 0.613846 34.8175 1.10693C34.8175 1.10928 34.8175 1.11141 34.8175 1.11364V2.65853L25.1596 0.388513C24.0129 0.118531 22.8458 -0.00970508 21.6834 0.00502731V0Z" fill="#21409A"/>
<path d="M22.7225 1.817C23.4015 1.86343 24.0786 1.967 24.7482 2.12392L34.8177 4.49194V12.816L30.6929 13.339C29.4359 13.4961 28.1563 13.2282 27.0564 12.5995L22.5621 10.0295H17.1996C16.5641 10.0295 16.0804 9.53141 16.0804 8.89624V8.48798C16.0804 7.85237 16.5641 7.3547 17.1996 7.3547H24.9992V5.57632H17.1996C16.3836 5.57632 15.645 5.91852 15.1147 6.46574C15.0249 6.47277 14.9368 6.4932 14.8532 6.52657L7.65674 9.414C7.10237 9.63521 6.4864 9.39436 6.22022 8.85942C5.92624 8.27146 6.15972 7.58528 6.76063 7.31798L16.7499 2.87516C18.6357 2.03675 20.6854 1.67928 22.7225 1.81857V1.817Z" fill="white"/>
<path d="M36.5958 2.00517H41.0622V14.4999H36.5958V2.00517Z" fill="#BDC6E1"/>
<path opacity="0.3" d="M21.1952 1.80628C21.1777 1.80717 21.1605 1.80628 21.1429 1.80628C21.3628 1.80628 21.5821 1.78842 21.8018 1.80628C22.4809 1.85271 23.1579 1.95449 23.8275 2.1132L33.897 4.48089V12.8049L29.7723 13.3281C29.6864 13.346 29.6002 13.3281 29.5142 13.346C29.9055 13.378 30.2996 13.3853 30.6927 13.3281L34.8174 12.8049V4.48089L24.748 2.11309C24.0783 1.95595 23.4013 1.85349 22.7223 1.80617C22.213 1.77224 21.7032 1.76868 21.1951 1.78832V1.80628H21.1952ZM16.2791 5.57598C15.463 5.57598 14.7245 5.91818 14.1941 6.46518C14.1045 6.47154 14.0163 6.49129 13.9326 6.52399L6.78494 9.39079C7.0528 9.51043 7.36151 9.53008 7.65661 9.41211L14.853 6.52466C14.9368 6.49196 15.0249 6.47209 15.1145 6.46584C15.6449 5.91896 16.3834 5.57666 17.1995 5.57666L16.2791 5.57598Z" fill="#21409A"/>
<path d="M17.4158 16.9665C14.7181 16.9665 12.5005 19.1657 12.5005 21.8562C12.5021 23.2997 13.2304 24.5019 14.0951 25.4412C16.3488 27.8892 20.7631 32.7431 20.7631 32.7431C21.0906 33.1115 21.6549 33.1447 22.0234 32.817C22.0433 32.7991 22.0625 32.7806 22.0808 32.7609C22.0808 32.7609 26.8073 27.7708 29.1178 25.09C29.8859 24.199 30.3546 23.0706 30.3565 21.8608C30.3565 19.1704 28.139 16.9708 25.4413 16.9708C23.9725 16.9708 22.8169 17.804 22.015 18.5526C21.6709 18.8739 21.6776 18.9354 21.4617 19.1984C21.2377 18.9318 21.2303 18.8684 20.8687 18.5393C20.0506 17.7935 18.8848 16.9708 17.416 16.9708L17.4158 16.9665Z" fill="#21409A"/>
<path d="M17.4158 18.7456C18.1654 18.7456 19.0162 19.2577 19.6693 19.8528C20.3225 20.4479 20.7236 21.0391 20.7236 21.0391C21.0005 21.4471 21.5555 21.5533 21.9634 21.2765C22.0628 21.2091 22.1476 21.1221 22.2126 21.0212C22.2126 21.0212 22.5931 20.4401 23.2272 19.8482C23.8615 19.2557 24.6915 18.7411 25.4411 18.7411C27.1799 18.7411 28.5642 20.1323 28.5642 21.8517C28.56 22.5975 28.272 23.3273 27.7604 23.921C25.7326 26.2738 22.1846 30.0212 21.4351 30.8143C20.7056 30.0138 17.4513 26.4384 15.4128 24.2243C14.7256 23.4777 14.2936 22.6933 14.2927 21.8517C14.2927 20.1323 15.6769 18.7413 17.4158 18.7413V18.7456Z" fill="#D87070"/>
<path d="M17.4157 18.7439C17.2318 18.7439 17.0535 18.7706 16.8788 18.7992C17.5329 18.9241 18.2233 19.3492 18.7754 19.8524C19.4286 20.4475 19.8319 21.038 19.8319 21.038C20.0935 21.4268 20.6112 21.547 21.0174 21.3135C20.9001 21.2451 20.7999 21.1509 20.7246 21.038C20.7246 21.038 20.3212 20.4475 19.6681 19.8524C19.0151 19.2573 18.1653 18.7434 17.4157 18.7434V18.7439ZM25.442 18.7439C25.3261 18.7439 25.205 18.7759 25.0864 18.7992C26.5625 19.0527 27.6735 20.3173 27.6735 21.8541C27.6692 22.5998 27.3797 23.3318 26.8681 23.9254C25.0113 26.0798 22.087 29.1809 20.9966 30.3351C21.0753 30.4208 21.3826 30.758 21.4359 30.8165C22.1854 30.0233 25.7328 26.2785 27.7606 23.9257C28.2724 23.3322 28.5618 22.6002 28.566 21.8544C28.566 20.1347 27.1808 18.7439 25.442 18.7439Z" fill="#BD5858"/>
<path d="M40.1661 2.00505V14.5006H41.0622V2.00505H40.1661Z" fill="#3E64D3"/>
</svg>
