<svg width="121" height="50" viewBox="0 0 121 50" fill="none" xmlns="http://www.w3.org/2000/svg">
<path d="M119.862 7.61147C119.576 6.69184 119.082 5.84015 118.394 5.16233C117.974 4.74852 117.492 4.40773 116.974 4.13425C117.019 3.92597 117.036 3.72574 117.016 3.56935C116.92 2.80623 116.372 2.83485 115.355 2.57017C114.301 2.29584 113.989 2.93268 113.837 3.42495C113.685 3.91728 113.923 4.7024 114.556 4.90834C115.189 5.11434 115.59 5.23336 116.058 5.2945C116.314 5.32793 116.542 5.12011 116.712 4.826C116.877 4.91697 117.04 5.01411 117.196 5.12062C117.239 5.15011 117.281 5.17999 117.323 5.21062C117.344 5.22588 117.365 5.24125 117.386 5.25679C117.394 5.2629 117.403 5.26953 117.411 5.27542C117.494 5.34147 117.576 5.40833 117.656 5.47867C117.816 5.61992 117.968 5.7706 118.11 5.93008C118.183 6.01203 118.253 6.09688 118.321 6.18259C118.323 6.18516 118.324 6.18631 118.327 6.18973C118.342 6.21059 118.358 6.23128 118.373 6.25231C118.406 6.29739 118.438 6.34293 118.47 6.38899C118.595 6.57247 118.709 6.76389 118.81 6.96154C118.861 7.06057 118.909 7.1612 118.954 7.26319C118.965 7.28805 118.976 7.31308 118.987 7.33793C118.943 7.23691 118.986 7.33679 118.994 7.35845C119.016 7.41319 119.038 7.46822 119.058 7.5237C119.14 7.74753 119.208 7.97615 119.264 8.2078C119.293 8.32585 119.318 8.44459 119.34 8.56396C119.351 8.6227 119.361 8.68161 119.37 8.74053C119.375 8.7703 119.379 8.80013 119.384 8.8299C119.386 8.84081 119.387 8.85172 119.389 8.86269C119.453 9.40685 119.467 9.95267 119.432 10.4996C119.422 10.6498 119.409 10.8 119.393 10.9496C119.385 11.0213 119.377 11.0928 119.368 11.1644C119.367 11.172 119.366 11.1767 119.366 11.1801C119.365 11.186 119.364 11.1944 119.362 11.2062C119.356 11.2479 119.35 11.2896 119.344 11.3313C119.295 11.6507 119.234 11.9681 119.161 12.2831C119 12.9821 118.785 13.6683 118.533 14.34C118.251 15.0921 117.934 15.7947 117.561 16.5303C117.135 17.3709 116.665 18.1887 116.163 18.9867C116.14 19.0245 116.115 19.0617 116.091 19.0994C115.696 19.0149 115.296 19.114 115.296 19.114C115.296 19.114 113.889 21.2339 113.229 22.076C112.376 23.1647 111.515 24.2613 110.395 25.1317C109.275 26.0021 106.206 28.0887 101.307 25.4267C96.4088 22.7647 96.4897 19.0541 96.6108 17.6408C96.7317 16.2274 97.1834 14.9082 97.6329 13.6002C97.9805 12.5885 98.994 10.2551 98.994 10.2551C98.994 10.2551 98.926 10.0583 98.7845 9.84221C99.4702 8.3394 100.254 6.87652 101.196 5.51867C101.307 5.35827 101.421 5.1993 101.537 5.04216C101.656 4.88051 101.749 4.75972 101.845 4.63795C102.066 4.35738 102.297 4.08345 102.536 3.81803C102.968 3.33941 103.432 2.88759 103.932 2.47972C103.988 2.43395 104.044 2.38915 104.101 2.34441C104.109 2.33841 104.114 2.33447 104.118 2.33132C104.12 2.32944 104.123 2.32732 104.128 2.32338C104.162 2.2979 104.196 2.27213 104.23 2.24687C104.345 2.16162 104.461 2.07887 104.58 1.99888C104.806 1.84619 105.039 1.70363 105.278 1.57323C105.393 1.51095 105.509 1.45146 105.626 1.39506C105.682 1.36838 105.738 1.34232 105.794 1.31701C105.82 1.30535 105.846 1.29381 105.873 1.28238C105.883 1.27775 105.894 1.27324 105.905 1.26867C105.906 1.26815 105.906 1.26804 105.908 1.26741C106.134 1.17718 106.362 1.0937 106.596 1.02627C106.82 0.961931 107.048 0.910332 107.277 0.872562C107.303 0.868448 107.328 0.86439 107.354 0.860618C107.365 0.858961 107.373 0.857534 107.38 0.856276C107.429 0.848619 107.479 0.844677 107.527 0.839762C107.642 0.828334 107.757 0.820507 107.872 0.816279C108.091 0.808222 108.311 0.813821 108.53 0.832963C108.579 0.837306 108.628 0.842335 108.677 0.847992C108.682 0.848563 108.689 0.84902 108.696 0.849477C108.719 0.851763 108.743 0.856563 108.767 0.860048C108.877 0.877076 108.987 0.897476 109.097 0.921418C109.309 0.967931 109.518 1.02753 109.723 1.09913C109.823 1.13375 109.92 1.1725 110.018 1.21147C110.022 1.21324 110.024 1.2145 110.03 1.21707C110.053 1.22718 110.076 1.23718 110.098 1.24735C110.15 1.27084 110.202 1.29518 110.253 1.32021C110.329 1.35746 110.404 1.3978 110.479 1.4382C110.324 1.74094 110.274 2.04505 110.441 2.24184C110.747 2.60143 111.065 2.87336 111.583 3.2925C112.1 3.71163 112.888 3.48404 113.218 3.08868C113.549 2.69326 113.913 2.08522 113.11 1.35004C112.334 0.640912 112.06 0.165152 111.367 0.499371C111.225 0.567941 111.066 0.690967 110.916 0.842849C110.507 0.612512 110.073 0.425145 109.618 0.294977C108.696 0.0315553 107.721 0.0169271 106.787 0.22035C105.737 0.448687 104.754 0.953588 103.893 1.58729C102.761 2.42081 101.808 3.45872 100.969 4.58207C99.8958 6.01797 99.0204 7.5965 98.2648 9.2192C98.2466 9.2584 98.2294 9.29817 98.2113 9.33748C97.9744 9.2484 97.6814 9.25914 97.3279 9.47702C96.888 9.76267 95.8655 12.6704 95.5738 13.5631C95.2359 14.5974 94.9217 15.653 94.7568 16.7438L94.7566 16.7437C93.7804 22.6106 93.4727 28.8398 97.2616 31.5667C96.8672 32.3995 96.4316 33.212 95.9502 33.9981C95.6611 34.47 95.3573 34.9329 95.0393 35.3859C94.883 35.6086 94.7233 35.829 94.5605 36.0468C94.5339 36.0825 94.4193 36.232 94.3931 36.2672C94.3033 36.382 94.213 36.4966 94.1215 36.61C93.392 37.5128 92.6057 38.3695 91.7703 39.1753C91.3278 39.6022 90.8714 40.0147 90.4026 40.4124C90.1788 40.6023 89.952 40.7888 89.7226 40.9718C89.6812 41.0048 89.5168 41.1331 89.4871 41.157C89.3704 41.2462 89.2532 41.3349 89.1351 41.4222C88.1104 42.1809 87.0366 42.8732 85.9238 43.4957C85.3403 43.8221 84.746 44.1294 84.1425 44.4174C83.8535 44.5553 83.5624 44.6887 83.2693 44.8177C83.1955 44.8502 83.1213 44.882 83.0475 44.9143C83.0367 44.919 83.0022 44.9336 82.9737 44.9456C82.8159 45.0115 82.6575 45.076 82.4987 45.1391C81.1933 45.6581 79.8541 46.0907 78.4934 46.4397C77.7943 46.619 77.0896 46.7758 76.3808 46.9112C75.702 47.0409 74.8856 47.1711 74.3695 47.2352C68.0271 48.0231 61.5077 47.2455 55.4454 45.2645C56.2713 44.8535 57.0844 44.4159 57.8823 43.9514C62.7264 41.1315 67.0448 37.3208 70.1803 32.6553C73.2519 28.0849 75.0269 22.6573 74.9527 17.1308C74.9328 15.6609 74.8478 14.1353 74.3907 12.729C73.9027 11.2271 73.0889 9.84855 72.0089 8.69619C69.7835 6.3219 66.5591 5.2045 63.3496 5.69255C58.7488 6.39213 54.9698 9.97855 52.4416 13.726C51.2797 11.9788 49.8778 10.3968 48.2352 9.114C46.6035 7.83975 44.7436 6.83526 42.7029 6.40739C40.5242 5.95043 38.1358 6.06454 36.0499 6.87583C30.0886 9.19411 29.3725 16.5812 30.2034 22.0675C30.808 26.0599 32.4544 29.7839 34.7343 33.0989C37.5666 37.2169 41.2644 40.6872 45.493 43.3441C46.6116 44.047 47.7636 44.6879 48.9426 45.2715C48.5594 45.3949 48.1683 45.5156 47.7646 45.6337C46.4951 46.0049 45.2073 46.3137 43.9068 46.5551C43.5986 46.6123 43.2896 46.6657 42.9801 46.7152C42.8258 46.7399 42.6713 46.7635 42.5165 46.7863C42.4393 46.7976 42.362 46.8085 42.2847 46.8198C42.2661 46.8224 42.2519 46.8245 42.2395 46.8263C42.2331 46.8271 42.2235 46.8282 42.2076 46.8302C41.5722 46.9105 40.9355 46.9779 40.2968 47.0258C38.9975 47.1235 37.6924 47.1491 36.3904 47.0945C35.7668 47.0684 35.144 47.0239 34.523 46.9602C34.3733 46.9448 34.2238 46.9283 34.0742 46.9107C33.9996 46.9019 33.925 46.8927 33.8505 46.8835C33.8356 46.8816 33.7816 46.8744 33.7388 46.8688C33.6926 46.8622 33.6242 46.8523 33.6073 46.8498C33.5297 46.838 33.452 46.8264 33.3744 46.8143C33.2005 46.787 33.0271 46.7579 32.8539 46.727C31.5926 46.5013 30.3493 46.1777 29.1368 45.7639C28.8528 45.667 28.5706 45.5652 28.2902 45.4586C28.1506 45.4056 28.0115 45.3513 27.8729 45.296C27.8314 45.2794 27.5616 45.1677 27.54 45.1599C26.9832 44.9215 26.4343 44.664 25.8944 44.3893C24.8226 43.8441 23.7855 43.2313 22.7861 42.5625C22.2777 42.2223 21.779 41.8676 21.2899 41.4999C21.2473 41.4678 21.0805 41.3402 21.0558 41.322C20.9625 41.2493 20.8694 41.1764 20.7768 41.1027C20.5403 40.9145 20.3061 40.7232 20.0743 40.5292C18.3134 39.0552 16.6902 37.4201 15.1924 35.6804C14.8273 35.2563 14.4696 34.8257 14.1191 34.3895C13.9573 34.1882 13.798 33.9851 13.6385 33.782C13.6341 33.7764 13.6284 33.7691 13.6222 33.7611C13.5945 33.7251 13.5669 33.6892 13.5395 33.6532C13.453 33.5402 13.3671 33.4267 13.2815 33.313C12.6707 32.5004 12.0832 31.6705 11.5178 30.8257C10.6511 29.5305 9.83333 28.1993 9.07027 26.8377C9.18461 26.7516 9.29557 26.6601 9.40186 26.5617C10.1784 25.8423 10.6637 24.857 10.9729 23.8447C11.7116 21.4263 10.982 18.6195 8.80662 17.1815C6.8509 15.8887 4.07948 16.0106 2.21879 17.4368C2.03788 17.5754 1.86817 17.7233 1.70966 17.8793C-1.19998 20.7422 -0.334858 26.3186 3.84652 27.5349C4.77998 27.8065 5.79555 27.8979 6.75827 27.7599C6.79827 27.832 6.83775 27.9046 6.87787 27.9767C8.89307 31.5919 11.2803 35.0228 14.0416 38.1088C17.3704 41.8291 21.3618 45.1011 25.9451 47.1432C30.9706 49.3823 36.4761 49.9976 41.9178 49.3384C45.4439 48.9112 48.9034 48.0206 52.2002 46.7131C55.9821 48.1986 59.975 49.1521 64.0104 49.6537C70.4461 50.4537 77.1575 49.9204 83.2128 47.5002C88.1651 45.5208 92.6654 42.3862 95.9988 38.1964C97.3785 36.4626 98.5727 34.6008 99.5033 32.5897C103.446 33.4927 107.7 30.1966 111.685 26.5943C112.716 25.7776 113.57 24.7866 114.381 23.7835C114.971 23.053 116.855 20.6132 116.855 20.0887C116.85 19.8391 116.793 19.6489 116.704 19.5038C117.607 18.0811 118.412 16.5968 119.047 15.0344C119.586 13.7064 119.988 12.318 120.135 10.8889C120.246 9.79661 120.19 8.6647 119.862 7.61147ZM119.388 8.85938C119.384 8.8275 119.386 8.84093 119.388 8.85938V8.85938ZM13.6107 33.7468C13.5407 33.6558 13.5764 33.7024 13.6107 33.7468V33.7468ZM72.2837 20.5943C72.2918 20.535 72.3107 20.4129 72.2837 20.5943V20.5943ZM72.3407 14.777C72.3363 14.729 72.3375 14.7457 72.3407 14.777V14.777ZM58.7238 10.4697C58.6192 10.552 58.6768 10.5059 58.7238 10.4697V10.4697ZM51.069 23.828C51.0811 23.6358 51.1011 23.4447 51.1214 23.2531C51.1227 23.2414 51.1235 23.233 51.1245 23.2233C51.1253 23.2188 51.126 23.2158 51.1269 23.2104C51.1496 23.0843 51.1668 22.957 51.1893 22.8307C51.3523 21.9216 51.6037 21.029 51.9102 20.1583C51.9903 19.9307 52.0745 19.7046 52.1623 19.4798C52.207 19.3654 52.2531 19.2516 52.2992 19.1378C52.3052 19.1232 52.3114 19.1087 52.3174 19.094C52.3216 19.0852 52.3803 18.9473 52.3932 18.9177C52.3975 18.9079 52.4021 18.8981 52.4064 18.8884C52.4667 19.0376 52.5274 19.1867 52.5849 19.3371C52.8841 20.1218 53.1399 20.9239 53.338 21.7402C53.4279 22.1107 53.506 22.4842 53.5692 22.8602C53.584 22.9477 53.597 23.0354 53.611 23.123C53.6115 23.1262 53.6119 23.1295 53.6124 23.1328C53.6252 23.316 53.6541 23.4987 53.6682 23.6819C53.693 24.0054 53.7043 24.3301 53.6966 24.6544C53.6931 24.8008 53.686 24.9472 53.6741 25.0931C53.669 25.1556 53.6618 25.2178 53.6561 25.2801C53.6054 25.5367 53.5552 25.7897 53.4702 26.0378C53.4594 26.0695 53.4456 26.1021 53.4328 26.1348C53.3841 26.2276 53.3377 26.3207 53.2812 26.4096C53.2702 26.427 53.2575 26.4439 53.2451 26.4609C53.1875 26.5159 53.1281 26.5726 53.0718 26.6301C53.0476 26.6459 53.0235 26.6619 52.9985 26.6761C52.9804 26.6865 52.9606 26.6955 52.9411 26.7046C52.864 26.7225 52.7832 26.7422 52.7067 26.7649C52.6685 26.7676 52.6304 26.7707 52.5925 26.7714C52.5708 26.7718 52.4252 26.7656 52.3077 26.7595C52.3555 26.7751 52.3665 26.787 52.2449 26.7562C52.1917 26.7531 52.1539 26.7505 52.1542 26.7492C52.1556 26.7426 52.1622 26.7389 52.1719 26.737C52.1207 26.7234 52.0694 26.7098 52.0182 26.6962C52.0262 26.7044 52.0343 26.7134 52.0422 26.7232C52.0319 26.7105 52.0121 26.6991 51.989 26.6885C51.9846 26.6873 51.9802 26.6861 51.9759 26.685C51.9133 26.6686 51.8822 26.6518 51.8716 26.6398C51.8713 26.6396 51.8707 26.6394 51.8704 26.6392C51.8227 26.6133 51.7773 26.5841 51.7309 26.5559C51.6665 26.4805 51.5801 26.405 51.5078 26.3365C51.4776 26.2897 51.4456 26.2438 51.4173 26.1957C51.392 26.1526 51.3689 26.1085 51.3457 26.0644C51.3463 26.0724 51.3455 26.079 51.3417 26.0823C51.3438 26.0804 51.3402 26.0648 51.3329 26.0402C51.3293 26.0337 51.326 26.0271 51.3224 26.0206C51.2383 25.8658 51.2778 25.912 51.3129 25.9781C51.2707 25.8522 51.1971 25.6537 51.189 25.6233C51.1493 25.4756 51.122 25.3261 51.0925 25.1762C51.0922 25.1745 51.092 25.1736 51.0917 25.172C51.0857 25.0912 51.0748 25.0102 51.069 24.9294C51.0427 24.5629 51.046 24.1945 51.069 23.828ZM51.7193 26.5487C51.7158 26.5466 51.7124 26.5443 51.7089 26.5423C51.5297 26.4361 51.6469 26.4897 51.7193 26.5487ZM36.6607 9.27377C36.6361 9.28257 36.6422 9.28046 36.6607 9.27377V9.27377ZM52.1983 44.0562C50.5164 43.3464 48.8888 42.5184 47.2506 41.5249C46.1365 40.8493 45.0598 40.1149 44.0215 39.3281C44.0096 39.3192 43.9619 39.2826 43.9267 39.2556C43.8916 39.2282 43.8398 39.1878 43.8274 39.1781C43.7108 39.0862 43.5946 38.9941 43.479 38.9011C43.2223 38.6944 42.9683 38.484 42.7174 38.2704C42.2688 37.8883 41.8295 37.4953 41.4005 37.0915C40.5725 36.3123 39.7821 35.493 39.0343 34.6366C38.6853 34.2368 38.3455 33.8289 38.0155 33.4132C37.9597 33.3428 37.9044 33.272 37.8492 33.2011C37.828 33.173 37.7235 33.0369 37.6928 32.9961C37.5272 32.7762 37.3643 32.5544 37.2043 32.3304C36.1364 30.8357 35.1901 29.2503 34.4115 27.5857C34.3284 27.408 34.2473 27.2295 34.1682 27.05C34.1337 26.9718 34.1014 26.8921 34.066 26.8141C34.0533 26.7838 34.0408 26.7534 34.0284 26.7231C33.8838 26.3694 33.7476 26.0123 33.621 25.6518C33.296 24.7268 33.0426 23.7781 32.8411 22.8188C32.5309 21.3412 32.3837 20.1106 32.3662 18.5434C32.3583 17.8363 32.3853 17.1285 32.455 16.4247C32.4699 16.2736 32.4869 16.1228 32.5061 15.9723C32.5106 15.9406 32.5163 15.9005 32.5184 15.8873C32.5318 15.8064 32.5436 15.7251 32.5571 15.6443C32.6169 15.2865 32.689 14.9306 32.775 14.5781C32.8493 14.2734 32.9339 13.971 33.0301 13.6725C33.0772 13.5261 33.1271 13.3806 33.1799 13.2362C33.2059 13.1646 33.2328 13.0934 33.2603 13.0225C33.2665 13.0064 33.3118 12.8963 33.3326 12.8444C33.3634 12.7785 33.4496 12.5892 33.4713 12.5444C33.5353 12.4119 33.6022 12.2807 33.6722 12.1512C33.8184 11.8807 33.9775 11.6174 34.1509 11.3634C34.1766 11.3259 34.3266 11.1207 34.3236 11.1196C34.3947 11.0303 34.4678 10.9425 34.5429 10.8568C34.7508 10.6196 34.9736 10.3952 35.2105 10.1867C35.2533 10.1491 35.4043 10.0275 35.4308 10.0033C35.5232 9.93512 35.6163 9.8677 35.7121 9.80438C35.9798 9.62719 36.2601 9.46891 36.55 9.3308C36.6071 9.30354 36.6649 9.27743 36.7228 9.25177C36.7334 9.24806 36.745 9.24394 36.7582 9.23926C36.8988 9.18943 37.0381 9.13669 37.1806 9.09155C37.4443 9.00806 37.7123 8.93641 37.9814 8.87269C38.2224 8.81561 38.4651 8.76601 38.7092 8.72435C38.7354 8.71984 38.8858 8.69767 38.9599 8.68602C39.0403 8.67739 39.189 8.66047 39.23 8.6567C39.7209 8.61133 40.2152 8.59939 40.7077 8.62247C40.9338 8.6331 41.1587 8.65322 41.3839 8.67607C41.411 8.67887 41.438 8.68247 41.465 8.68584C41.4674 8.68624 41.469 8.68653 41.4714 8.68698C41.5946 8.70927 41.7185 8.7271 41.8416 8.75035C42.2887 8.83504 42.7301 8.94858 43.1629 9.08881C43.3715 9.15646 43.5782 9.23034 43.7827 9.30994C43.8497 9.33606 43.9493 9.37902 43.9763 9.39039C44.0652 9.42999 44.1544 9.46902 44.2424 9.51068C45.0705 9.90198 45.8308 10.3928 46.5713 10.9285C46.5743 10.9307 46.5763 10.9321 46.579 10.9341C46.6032 10.953 46.6275 10.9718 46.6514 10.9912C46.7383 11.0613 46.8252 11.1313 46.911 11.2027C47.1049 11.364 47.2947 11.53 47.4808 11.7001C47.824 12.0139 48.154 12.3417 48.4715 12.6816C48.7905 13.0231 49.0968 13.3767 49.3904 13.7403C49.4617 13.8285 49.5306 13.9187 49.602 14.0068C49.3947 13.751 49.6166 14.0272 49.6671 14.0947C49.82 14.2989 49.9691 14.5059 50.1147 14.7153C50.4296 15.1689 50.7255 15.6354 51.0064 16.1108C50.2764 17.4865 49.6703 18.9335 49.228 20.4186C48.7026 22.1831 48.3832 24.0898 48.7241 25.9198C49.0034 27.4195 50.0127 28.7996 51.5638 29.1337C53.0386 29.4514 54.4991 29.0169 55.3606 27.7399C56.0999 26.6439 56.2275 25.1795 56.1543 23.8954C56.057 22.1881 55.6417 20.5 55.0508 18.8999C54.7038 17.9602 54.3002 17.0304 53.8402 16.1256C54.1421 15.6233 54.4612 15.1312 54.7979 14.6516C54.9524 14.4314 55.1106 14.2136 55.2724 13.9987C55.3003 13.9618 55.3284 13.9249 55.3565 13.888C55.3682 13.8728 55.3799 13.8578 55.3874 13.8486C55.4929 13.717 55.5974 13.5849 55.7045 13.4547C56.0575 13.0264 56.4261 12.6107 56.811 12.2105C57.1928 11.8133 57.5905 11.4313 58.0048 11.0679C58.2038 10.8934 58.4066 10.723 58.6133 10.5574C58.6528 10.5257 58.6928 10.4944 58.7326 10.463C58.7403 10.4571 58.7474 10.4517 58.7528 10.4477C58.8847 10.3505 59.0158 10.2524 59.1496 10.1577C59.5865 9.84867 60.039 9.56171 60.5069 9.30189C60.7312 9.17726 60.9589 9.05892 61.19 8.94738C61.3051 8.89189 61.4212 8.83904 61.5375 8.78618C61.5478 8.7815 61.57 8.77178 61.5932 8.76167C61.6392 8.74281 61.7095 8.71378 61.726 8.70721C62.2264 8.50939 62.7406 8.3442 63.2642 8.2198C63.4435 8.17723 63.6241 8.14374 63.8049 8.10849C63.8164 8.1062 63.9166 8.09003 63.9364 8.08586C64.0059 8.0774 64.0757 8.07037 64.145 8.06392C64.5152 8.02963 64.8876 8.02066 65.259 8.0366C65.6989 8.05552 65.7403 8.06095 66.071 8.12249C66.4202 8.18757 66.7654 8.27494 67.1033 8.38476C67.2611 8.43608 67.4164 8.49373 67.5716 8.5523C67.8045 8.64013 67.67 8.59299 67.6196 8.57087C67.6951 8.60402 67.77 8.63881 67.8444 8.67447C68.1785 8.83424 68.5022 9.01583 68.8132 9.2168C68.9513 9.30617 69.0849 9.40154 69.2197 9.49582C69.2304 9.50336 69.2778 9.53931 69.3036 9.55862C69.3545 9.59931 69.4052 9.64027 69.455 9.68204C69.7228 9.9065 69.9775 10.1464 70.2181 10.3996C70.7079 10.9152 70.9343 11.2134 71.3206 11.8746C71.4875 12.1603 71.6357 12.4549 71.774 12.7553C71.8784 12.9818 71.8154 12.8533 71.7952 12.8025C71.8258 12.8794 71.8558 12.9566 71.8846 13.0342C71.9564 13.2285 72.0218 13.4253 72.0803 13.6242C72.1744 13.9434 72.2504 14.268 72.3082 14.5957C72.3214 14.6705 72.3335 14.7456 72.3444 14.8209C72.3461 14.8394 72.348 14.8611 72.3504 14.8884C72.3665 15.0717 72.3859 15.2547 72.4007 15.4381C72.5083 16.7705 72.5104 18.1115 72.4033 19.4441C72.3783 19.7557 72.3472 20.0667 72.3104 20.377C72.3015 20.4511 72.2923 20.5252 72.2829 20.5991C72.2816 20.6079 72.2804 20.6163 72.2789 20.6264C72.2532 20.7988 72.2276 20.9712 72.1993 21.1433C72.0961 21.7704 71.9687 22.3934 71.8178 23.0108C71.5136 24.2551 71.1114 25.4723 70.6288 26.6583C70.6229 26.6728 70.5974 26.7338 70.58 26.7758C70.562 26.8174 70.5369 26.8759 70.5308 26.89C70.4696 27.0297 70.4079 27.1692 70.3448 27.308C70.2024 27.6206 70.0541 27.9304 69.9003 28.2373C69.6175 28.801 69.3157 29.3551 68.996 29.8988C68.6653 30.461 68.3157 31.0121 67.9487 31.5514C67.7754 31.806 67.5983 32.0581 67.4173 32.3074C67.3267 32.4323 67.2351 32.5565 67.1427 32.6801C67.0964 32.742 67.0495 32.8033 67.0032 32.8651C66.9883 32.8849 66.9777 32.8992 66.9694 32.9102C66.9658 32.9147 66.9594 32.9227 66.9487 32.9364C65.3457 34.9868 63.5003 36.8412 61.4844 38.4859C61.253 38.6747 61.0195 38.8612 60.7832 39.044C60.758 39.0632 60.7192 39.0928 60.7079 39.1013C60.6445 39.1489 60.5814 39.1971 60.518 39.2448C60.3593 39.3639 60.1996 39.4819 60.039 39.5986C59.5079 39.9848 58.967 40.3575 58.4173 40.7168C57.2972 41.449 56.1405 42.1252 54.9538 42.7437C54.0139 43.2336 53.1101 43.6651 52.1983 44.0562ZM98.8807 30.2751C96.9781 29.2412 96.4035 26.1035 96.2838 23.38C97.1507 24.4707 98.4929 25.6211 100.584 26.7574C102.787 27.9545 104.55 28.4457 105.977 28.5464C103.704 29.9988 100.807 31.3222 98.8807 30.2751Z" fill="#21409A"/>
<path d="M51.3328 26.0402C51.3371 26.0482 51.3414 26.0562 51.3456 26.0643C51.3438 26.0429 51.329 26.0086 51.3129 25.9781C51.3208 26.0019 51.3277 26.0232 51.3328 26.0402Z" fill="#21409A"/>
<path d="M52.1718 26.7369C52.1882 26.7413 52.2046 26.7457 52.221 26.75C52.2301 26.7524 52.2368 26.754 52.2448 26.756C52.264 26.7571 52.2854 26.7583 52.3076 26.7594C52.2675 26.7463 52.203 26.7311 52.1718 26.7369Z" fill="#21409A"/>
<path d="M51.8715 26.6397C51.8987 26.6541 51.9487 26.6699 51.989 26.6884C51.9987 26.6909 52.0085 26.6936 52.0182 26.6962C51.9335 26.6098 51.8475 26.6122 51.8715 26.6397Z" fill="#21409A"/>
<path d="M8.80633 17.1816C6.85061 15.8888 4.07919 16.0107 2.2185 17.4369C2.03759 17.5755 1.86788 17.7234 1.70937 17.8794C-1.20027 20.7423 -0.335148 26.3187 3.84623 27.5351C4.77969 27.8066 5.79526 27.898 6.75798 27.76C6.70867 27.6708 6.65935 27.5816 6.61033 27.4922C6.19794 26.7396 5.79898 25.9771 5.42287 25.2039C6.25199 25.2753 7.10226 25.0825 7.70464 24.5245C7.7371 24.4944 7.76698 24.4619 7.79755 24.4302C8.15794 25.156 8.53576 25.8736 8.92855 26.583C8.97564 26.668 9.02249 26.7531 9.06998 26.8379C9.18432 26.7518 9.29528 26.6602 9.40157 26.5618C10.1781 25.8425 10.6634 24.8572 10.9726 23.8449C11.7113 21.4264 10.9816 18.6196 8.80633 17.1816Z" fill="#B6BFDA"/>
<path d="M3.93342 27.266C-0.043503 26.1091 -0.866167 20.8054 1.90102 18.0825C2.05181 17.9343 2.21318 17.7935 2.38529 17.6616C4.1549 16.3053 6.79072 16.1893 8.6509 17.4189C10.7199 18.7864 11.4138 21.4561 10.7112 23.7562C10.4171 24.7191 9.95555 25.6561 9.21705 26.3403C9.12426 26.4263 9.0278 26.5069 8.92849 26.5829C8.97557 26.6679 9.02243 26.7531 9.06991 26.8378C9.18425 26.7517 9.29522 26.6602 9.40151 26.5618C10.1781 25.8424 10.6633 24.8571 10.9726 23.8448C11.7113 21.4264 10.9816 18.6196 8.80626 17.1816C6.85054 15.8888 4.07913 16.0107 2.21844 17.4369C2.03753 17.5755 1.86782 17.7234 1.70931 17.8794C-1.20033 20.7423 -0.335209 26.3187 3.84617 27.5351C4.77963 27.8066 5.7952 27.898 6.75792 27.76C6.70861 27.6708 6.65929 27.5816 6.61026 27.4922C5.72229 27.6049 4.7914 27.5155 3.93342 27.266Z" fill="#21409A"/>
<path d="M119.94 7.58735C119.641 6.62812 119.126 5.76957 118.451 5.10427C118.041 4.70046 117.557 4.34984 117.012 4.06207C116.989 4.04996 116.962 4.0495 116.939 4.06036C116.916 4.07104 116.899 4.0919 116.894 4.1167C116.842 4.35652 116.752 4.59394 116.641 4.78514C116.63 4.80405 116.627 4.82674 116.633 4.84788C116.639 4.86891 116.653 4.88674 116.673 4.89742C116.85 4.99519 117.006 5.09027 117.149 5.18787C117.192 5.21701 117.234 5.2465 117.275 5.27656L117.36 5.33941C117.442 5.40444 117.524 5.47049 117.602 5.53975C117.761 5.67974 117.911 5.82923 118.049 5.98431C118.122 6.06516 118.19 6.14882 118.256 6.23144L118.322 6.18402L118.269 6.24961L118.307 6.30053C118.34 6.34475 118.371 6.38955 118.402 6.43492C118.524 6.61326 118.637 6.80309 118.738 6.99874C118.788 7.09633 118.835 7.1957 118.88 7.29576L118.894 7.32821L118.893 7.32838L118.896 7.33507C118.897 7.33821 118.899 7.34158 118.9 7.34507L118.918 7.38873C118.94 7.44255 118.961 7.4969 118.981 7.55164C119.06 7.7674 119.129 7.99448 119.185 8.22676C119.213 8.34333 119.238 8.4607 119.26 8.5787C119.27 8.6367 119.28 8.69498 119.29 8.75338L119.303 8.84189L119.307 8.84126C119.307 8.84497 119.307 8.84846 119.307 8.85212L119.305 8.85229L119.307 8.85246C119.306 8.85897 119.307 8.86503 119.307 8.87063C119.307 8.8708 119.308 8.8708 119.308 8.87091C119.308 8.87091 119.308 8.87092 119.308 8.87109C119.308 8.87109 119.308 8.87126 119.308 8.87143C119.308 8.87143 119.308 8.87143 119.308 8.8716C119.308 8.8716 119.308 8.87177 119.308 8.87194C119.308 8.87194 119.308 8.87194 119.308 8.87211V8.87223C119.371 9.41016 119.385 9.9558 119.351 10.4945C119.341 10.6436 119.328 10.7924 119.312 10.9411C119.305 11.0123 119.296 11.0833 119.285 11.1671L119.263 11.319C119.217 11.6248 119.155 11.943 119.082 12.2648C118.93 12.9204 118.72 13.6089 118.456 14.3113C118.189 15.0248 117.881 15.7182 117.488 16.4932C117.086 17.2869 116.617 18.111 116.094 18.9435L116.022 19.0557C116.008 19.0784 116.006 19.1064 116.016 19.131C116.026 19.1556 116.048 19.1736 116.074 19.1792C116.331 19.2338 116.519 19.3573 116.634 19.5462C116.649 19.5702 116.675 19.585 116.703 19.5853C116.703 19.5853 116.704 19.5853 116.704 19.5853C116.732 19.5853 116.758 19.571 116.773 19.5474C117.763 17.9874 118.531 16.5212 119.122 15.0652C119.722 13.5871 120.08 12.2237 120.216 10.8971C120.34 9.68632 120.247 8.5727 119.94 7.58735Z" fill="#B6BFDA"/>
<path d="M109.64 0.216633C108.73 -0.0437598 107.737 -0.0698732 106.769 0.140807C105.781 0.355601 104.798 0.820274 103.845 1.52168C102.811 2.28235 101.849 3.26753 100.904 4.53326C99.9271 5.83946 99.0398 7.3609 98.1908 9.18445L98.1373 9.30319C98.1277 9.32388 98.1271 9.34748 98.1357 9.36833C98.1443 9.38936 98.1612 9.40576 98.1825 9.41371C98.3797 9.48805 98.5593 9.6473 98.7163 9.88678C98.7313 9.91004 98.757 9.92375 98.7845 9.92375C98.7864 9.92375 98.7886 9.92375 98.7905 9.92358C98.8202 9.92118 98.8462 9.90301 98.8587 9.87615C99.6173 8.21328 100.404 6.80309 101.263 5.56506C101.374 5.40535 101.487 5.24707 101.603 5.09056C101.721 4.92971 101.813 4.80949 101.909 4.68846C102.133 4.40441 102.364 4.1299 102.597 3.87254C103.049 3.37192 103.516 2.92445 103.984 2.54263C104.039 2.49726 104.095 2.4528 104.153 2.40726L104.111 2.33612L104.177 2.38852L104.279 2.31224C104.392 2.22784 104.508 2.14567 104.625 2.06641C104.853 1.91293 105.085 1.77105 105.317 1.64477C105.431 1.58311 105.545 1.52437 105.661 1.46866C105.717 1.44226 105.772 1.41643 105.827 1.39157L105.938 1.34318C106.201 1.23827 106.417 1.16261 106.619 1.10467C106.841 1.04084 107.067 0.98987 107.29 0.953071L107.393 0.936843C107.429 0.931243 107.465 0.927758 107.502 0.924272L107.536 0.920901C107.648 0.909759 107.761 0.901929 107.875 0.897815C108.092 0.889701 108.309 0.895587 108.523 0.914215C108.571 0.918501 108.619 0.923415 108.667 0.929015C108.668 0.929187 108.688 0.930615 108.688 0.930787C108.702 0.932044 108.716 0.934615 108.731 0.936843L108.754 0.940671C108.863 0.957356 108.971 0.977471 109.079 1.00118C109.287 1.04673 109.494 1.10564 109.696 1.17632C109.795 1.21038 109.891 1.24878 109.997 1.29146L110.065 1.32186C110.116 1.34495 110.167 1.36883 110.217 1.39352C110.29 1.42906 110.361 1.46723 110.44 1.50991C110.46 1.52026 110.482 1.5222 110.503 1.51609C110.524 1.50957 110.541 1.49494 110.551 1.47534C110.651 1.27998 110.801 1.07564 110.974 0.900159C110.992 0.882045 111.001 0.856675 110.997 0.831532C110.993 0.80639 110.978 0.784276 110.956 0.771819C110.527 0.530454 110.084 0.343487 109.64 0.216633Z" fill="#B6BFDA"/>
<path d="M51.3328 26.0402C51.3371 26.0482 51.3414 26.0562 51.3456 26.0643C51.3438 26.0429 51.329 26.0086 51.3129 25.9781C51.3208 26.0019 51.3277 26.0232 51.3328 26.0402Z" fill="#C61B34"/>
<path d="M52.1718 26.7369C52.1882 26.7413 52.2046 26.7457 52.221 26.75C52.2301 26.7524 52.2368 26.754 52.2448 26.756C52.264 26.7571 52.2854 26.7583 52.3076 26.7594C52.2675 26.7463 52.203 26.7311 52.1718 26.7369Z" fill="#C61B34"/>
<path d="M51.8715 26.6397C51.8987 26.6541 51.9487 26.6699 51.989 26.6884C51.9987 26.6909 52.0084 26.6936 52.0182 26.6962C51.9335 26.6098 51.8475 26.6122 51.8715 26.6397Z" fill="#C61B34"/>
<path d="M7.37721 19.3647C6.30129 18.6536 4.77682 18.7206 3.75336 19.5051C3.65382 19.5814 3.56051 19.6627 3.47331 19.7485C1.87278 21.3233 2.3486 24.3908 4.64871 25.0598C4.89887 25.1326 5.15978 25.1812 5.42286 25.2039C6.25198 25.2752 7.10224 25.0825 7.70463 24.5244C7.73708 24.4943 7.76697 24.4619 7.79754 24.4302C8.16999 24.0447 8.41152 23.5444 8.56872 23.0299C8.97517 21.6996 8.57375 20.1557 7.37721 19.3647Z" fill="#21409A"/>
<path d="M7.20785 19.6234C6.23628 18.9812 4.85957 19.0417 3.93531 19.7501C3.84543 19.8191 3.76109 19.8925 3.6824 19.97C2.23707 21.3921 2.66672 24.1622 4.74392 24.7665C5.68189 25.0392 6.78707 24.9468 7.50356 24.283C7.88932 23.9257 8.13034 23.4363 8.28394 22.9334C8.65096 21.732 8.2884 20.3377 7.20785 19.6234Z" fill="#E7E5E5"/>
</svg>
