<svg width="43" height="50" viewBox="0 0 43 50" fill="none" xmlns="http://www.w3.org/2000/svg">
<path opacity="0.3" d="M21.0085 0C21.0085 0 14.798 10.3008 0 10.9184C0 10.9184 0 16.6254 0 20.3471C0 46.8989 21.0085 50 21.0085 50C21.0085 50 42.0171 46.8989 42.0171 20.3471C42.0171 16.6254 42.0171 10.9184 42.0171 10.9184C27.219 10.3008 21.0085 0 21.0085 0Z" fill="#21409A"/>
<path d="M26.4287 23.8936H15.5882C14.2689 23.8936 13.1992 24.963 13.1992 26.2823V35.9967C13.1992 37.316 14.2689 38.3853 15.5882 38.3853H26.4287C27.7479 38.3853 28.8176 37.316 28.8176 35.9967V26.2823C28.8176 24.963 27.7479 23.8936 26.4287 23.8936ZM19.9851 35.0181L17.1568 32.1901L18.2113 31.1352L19.7884 32.7123L23.6423 27.2609L24.8601 28.1219L19.9851 35.0181Z" fill="#21409A"/>
<path d="M17.6032 18.9839C17.6032 17.1064 19.1308 15.5791 21.0084 15.5791C22.886 15.5791 24.4136 17.1064 24.4136 18.9839V22.6434H25.9154V18.9839C25.9154 16.2741 23.7183 14.0774 21.0084 14.0774C18.2985 14.0774 16.1014 16.2741 16.1014 18.9839V22.6434H17.6032V18.9839Z" fill="#21409A"/>
<path d="M21.0088 1.71973C21.1385 1.88605 21.2821 2.06761 21.4424 2.25977C22.2937 3.28043 23.5825 4.63977 25.3486 6.0166C28.7376 8.65848 33.8774 11.3572 41.0166 11.8613V20.3467C41.0166 33.3129 35.9083 40.4363 30.8984 44.3418C28.3746 46.3092 25.8481 47.4806 23.9541 48.1592C23.0081 48.4981 22.2228 48.7126 21.6797 48.8418C21.4083 48.9064 21.1973 48.9501 21.0576 48.9766C21.04 48.9799 21.0232 48.9815 21.0078 48.9844C20.9927 48.9816 20.9763 48.9798 20.959 48.9766C20.8193 48.9501 20.6083 48.9064 20.3369 48.8418C19.7939 48.7126 19.0092 48.498 18.0635 48.1592C16.1695 47.4806 13.6431 46.3093 11.1191 44.3418C6.10916 40.4363 1 33.3132 1 20.3467V11.8613C8.13924 11.3573 13.279 8.65846 16.668 6.0166C18.4342 4.6397 19.7239 3.28045 20.5752 2.25977C20.7355 2.06754 20.879 1.8861 21.0088 1.71973Z" stroke="#21409A" stroke-width="2"/>
</svg>
